<svg xmlns="http://www.w3.org/2000/svg" width="16" height="16" viewBox="0 0 16 16"><path fill="#000" d="M15.23 5.36c-.34-.81-1.03-1.68-1.57-1.96.39.74.65 1.53.79 2.35v.01c-.88-2.18-2.38-3.06-3.6-4.98l-.18-.3c-.03-.05-.06-.11-.09-.16-.05-.1-.09-.2-.12-.31 0-.01-.01-.02-.02-.02h-.03C8.69 1.01 7.97 2.78 7.79 3.9c-.54.03-1.06.16-1.55.39-.1.05-.14.16-.1.26.01.03.04.06.07.08.06.04.13.05.2.02.43-.2.88-.32 1.35-.35h.05c.44-.03.89.02 1.31.15l.06.02.18.06.13.05c.03.01.07.03.11.04.05.03.1.05.15.08.03.01.05.02.07.03.05.03.1.05.15.08l.1.06c.57.35 1.03.83 1.36 1.4-.55-.38-1.22-.54-1.88-.45 2.81 1.39 2.06 6.19-1.84 6.01-.35-.01-.69-.08-1.02-.19-.08-.03-.15-.06-.23-.09-.04-.02-.09-.04-.13-.06-.94-.5-1.73-1.42-1.83-2.55 0 0 .36-1.33 2.58-1.33.24 0 .93-.66.94-.86 0-.06-1.36-.6-1.89-1.12-.17-.17-.35-.34-.53-.51-.07-.05-.13-.1-.2-.15-.18-.61-.19-1.27-.03-1.89-.72.35-1.36.84-1.88 1.44-.31-.39-.29-1.67-.27-1.94-.09.04-.18.08-.26.14-.28.19-.53.41-.77.65-.26.27-.51.56-.73.87-.5.71-.86 1.5-1.05 2.35-.05.23-.09.47-.12.71l-.03.18c-.02.15-.04.3-.05.44v.02l-.01.27v.04c.05 6.02 6.6 9.71 11.78 6.66 1.96-1.16 3.32-3.11 3.72-5.35.02-.1.03-.2.04-.3.16-1.32-.02-2.66-.51-3.9z"/></svg>
