<?xml version="1.0" encoding="utf-8"?>
<!-- Generator: Adobe Illustrator 22.1.0, SVG Export Plug-In . SVG Version: 6.00 Build 0)  -->
<svg version="1.1" id="Layer_1" xmlns="http://www.w3.org/2000/svg" xmlns:xlink="http://www.w3.org/1999/xlink" x="0px" y="0px"
	 viewBox="0 0 64 64" style="enable-background:new 0 0 64 64;" xml:space="preserve">
<style type="text/css">
	.st0{fill:#8F59FF;}
	.st1{fill:#AA71FF;}
</style>
<path id="Path" class="st0" d="M0,31.3v4.4c0,2.8,1.1,5.4,3,7.4s4.6,3.1,7.4,3.1h6.2v-4.4h-6.2c-2.8,0-5.4-1.1-7.4-3.1
	S0,34.1,0,31.3z"/>
<path id="Path_1_" class="st1" d="M10.4,17.5C4.6,17.5,0,22.2,0,28v3.4c0,5.8,4.6,10.5,10.4,10.5h6.2V17.5
	C16.6,17.5,10.4,17.5,10.4,17.5z"/>
<path id="Path_2_" class="st0" d="M31.5,46.1L16.5,33v13.3l15,13.1c0.3,0.2,0.7,0.3,1,0.1s0.6-0.5,0.5-0.9V45.3
	c0,0.4-0.2,0.7-0.5,0.9S31.8,46.3,31.5,46.1z"/>
<path id="Path_3_" class="st1" d="M31.1,4.7L16.5,17.5V33l15,13.1c0.3,0.2,0.7,0.3,1,0.1s0.6-0.5,0.5-0.9V5.6c0-0.5-0.3-0.9-0.7-1.1
	C32,4.3,31.5,4.4,31.1,4.7z"/>
<path id="Path_4_" class="st1" d="M52.4,8.5c-0.4-0.3-0.9-0.4-1.3-0.2s-0.7,0.6-0.8,1.1c0,0.5,0.2,0.9,0.6,1.2
	c6.6,4.7,10.5,12.4,10.5,20.5S57.6,46.8,51,51.5c-0.6,0.4-0.7,1.2-0.3,1.8c0.2,0.3,0.6,0.5,1,0.5c0.3,0,0.5-0.1,0.7-0.2
	C59.7,48.4,64,40,64,31.1S59.7,13.7,52.4,8.5z"/>
<path id="Path_5_" class="st1" d="M45.6,16c-0.6-0.4-1.4-0.2-1.8,0.4c-0.4,0.6-0.2,1.4,0.4,1.7c4.4,2.8,7.1,7.6,7.1,12.8
	S48.6,41,44.2,43.7c-0.3,0.2-0.5,0.5-0.6,0.8s0,0.7,0.2,1c0.2,0.4,0.6,0.6,1.1,0.6c0.2,0,0.5-0.1,0.7-0.2c5.2-3.2,8.3-8.9,8.3-15
	S50.7,19.3,45.6,16z"/>
<path id="Path_6_" class="st1" d="M40.6,25c-0.3-0.2-0.6-0.3-0.9-0.2c-0.3,0-0.6,0.2-0.8,0.5s-0.3,0.6-0.2,0.9
	c0,0.3,0.2,0.6,0.5,0.8c1.3,0.9,2.1,2.4,2.1,4s-0.8,3.1-2.1,4c-0.4,0.3-0.6,0.9-0.4,1.4c0.2,0.5,0.7,0.9,1.2,0.9
	c0.3,0,0.5-0.1,0.8-0.2c1.9-1.4,3.1-3.7,3.1-6.1S42.6,26.4,40.6,25z"/>
</svg>
