<?xml version="1.0" encoding="utf-8"?>
<!-- Generator: Adobe Illustrator 22.1.0, SVG Export Plug-In . SVG Version: 6.00 Build 0)  -->
<svg version="1.1" id="Layer_1" xmlns="http://www.w3.org/2000/svg" xmlns:xlink="http://www.w3.org/1999/xlink" x="0px" y="0px"
	 viewBox="0 0 64 64" style="enable-background:new 0 0 64 64;" xml:space="preserve">
<style type="text/css">
	.st0{fill:#DABDFF;}
	.st1{fill:#8F59FF;}
</style>
<path id="Path" class="st0" d="M64,45.1v2.8H6.4v-2.8l7.4-1.9h41.8L64,45.1z"/>
<path id="Rectangle" class="st0" d="M9.1,42.4V8.7c0-1.5,1.2-2.7,2.7-2.7h46.7c1.5,0,2.7,1.2,2.7,2.7v33.7c0,1.5-1.2,2.7-2.7,2.7
	H11.8C10.3,45.1,9.1,43.9,9.1,42.4z"/>
<path id="Path_1_" class="st1" d="M57.5,8.8H12.9c-0.2,0-0.5,0.1-0.7,0.3s-0.3,0.4-0.3,0.7v30.7c0,0.2,0.1,0.5,0.3,0.7
	s0.4,0.3,0.7,0.3h44.6c0.5,0,0.9-0.4,0.9-0.9V9.8c0-0.2-0.1-0.5-0.3-0.7C58,8.9,57.7,8.8,57.5,8.8z"/>
<path id="Path_2_" class="st1" d="M58,44.2H12.4c-0.2,0-0.4-0.2-0.4-0.5s0.2-0.4,0.4-0.5H58c0.2,0,0.4,0.2,0.4,0.5
	S58.2,44.1,58,44.2z"/>
<path id="Path_3_" class="st1" d="M38.3,46.4h-6.5c-0.2,0-0.4-0.1-0.4-0.2c-0.1-0.2-0.1-0.3,0-0.5s0.3-0.2,0.4-0.2h6.5
	c0.2,0,0.4,0.2,0.4,0.5S38.5,46.4,38.3,46.4z"/>
<path id="Path_4_" class="st0" d="M22.1,17.3H2.8c-1.5,0-2.8,1.2-2.8,2.8v35.1C0,56.7,1.2,58,2.8,58h19.4c1.5,0,2.8-1.2,2.8-2.8
	V20.1C24.9,18.6,23.7,17.3,22.1,17.3z"/>
<path id="Path_5_" class="st1" d="M21.2,20.1H3.7c-0.2,0-0.5,0.1-0.7,0.3c-0.2,0.2-0.3,0.4-0.3,0.7v32.3c0,0.2,0.1,0.5,0.3,0.7
	s0.4,0.3,0.7,0.3h17.5c0.5,0,0.9-0.4,0.9-0.9V21c0-0.2-0.1-0.5-0.3-0.7C21.7,20.2,21.5,20.1,21.2,20.1z"/>
<circle id="Oval" class="st0" cx="7.8" cy="50.1" r="1.4"/>
<circle id="Oval_1_" class="st0" cx="12.5" cy="50.1" r="1.4"/>
<circle id="Oval_2_" class="st0" cx="17.1" cy="50.1" r="1.4"/>
<path id="Path_6_" class="st1" d="M13.8,56.6h-2.6c-0.3,0-0.5-0.2-0.5-0.5s0.2-0.5,0.5-0.5h2.6c0.3,0,0.5,0.2,0.5,0.5
	S14.1,56.6,13.8,56.6z"/>
</svg>
