<?xml version="1.0" encoding="utf-8"?>
<!-- Generator: Adobe Illustrator 22.1.0, SVG Export Plug-In . SVG Version: 6.00 Build 0)  -->
<svg version="1.1" id="Layer_1" xmlns="http://www.w3.org/2000/svg" xmlns:xlink="http://www.w3.org/1999/xlink" x="0px" y="0px"
	 viewBox="0 0 64 64" style="enable-background:new 0 0 64 64;" xml:space="preserve">
<style type="text/css">
	.st0{fill:#8F59FF;}
	.st1{fill:#DABDFF;}
	.st2{fill:#AA71FF;}
</style>
<path class="st0" d="M6.4,32.6h5V40h-5C6.4,40,6.4,32.6,6.4,32.6z"/>
<path class="st1" d="M50.8,19.1c-5.7,0-10.7,3.6-12.6,9H4.6c-2.5,0-4.6,2-4.6,4.6h41.5V32c0-5.2,4.2-9.4,9.4-9.4s9.5,4.2,9.5,9.4
	v0.6H64V32C64,24.9,58.1,19.1,50.8,19.1z"/>
<path class="st2" d="M60.4,32.6v-0.5c0-5.3-4.3-9.5-9.5-9.5c-5.3,0-9.5,4.3-9.5,9.5v0.5H0c0,2.2,1.7,4.1,3.9,4.4v5.4
	c0,0.7,0.5,1.2,1.2,1.2s1.2-0.5,1.2-1.2V37h5v5.4c0,0.7,0.5,1.2,1.2,1.2s1.2-0.5,1.2-1.2V37h24.9c2.1,4.8,6.9,7.9,12.1,7.9
	c7,0.1,12.8-5.3,13.2-12.3C63.9,32.6,60.4,32.6,60.4,32.6z M51,39.5c-4.2,0-7.5-3.3-7.5-7.5s3.3-7.5,7.5-7.5s7.5,3.3,7.5,7.5
	S55.1,39.5,51,39.5z"/>
</svg>
