<?xml version="1.0" encoding="utf-8"?>
<!-- Generator: Adobe Illustrator 22.1.0, SVG Export Plug-In . SVG Version: 6.00 Build 0)  -->
<svg version="1.1" id="Layer_1" xmlns="http://www.w3.org/2000/svg" xmlns:xlink="http://www.w3.org/1999/xlink" x="0px" y="0px"
	 viewBox="0 0 66 65" style="enable-background:new 0 0 66 65;" xml:space="preserve">
<style type="text/css">
	.st0{fill:#AA71FF;}
	.st1{fill:#DABDFF;}
	.st2{fill:#8F59FF;}
</style>
<path id="Fill-1" class="st0" d="M9.8,12.9c-0.8,0-1.5-0.7-1.5-1.5V2.2c0-0.8,0.7-1.5,1.5-1.5s1.5,0.7,1.5,1.5v9.2
	C11.3,12.3,10.7,12.9,9.8,12.9"/>
<path id="Fill-3" class="st0" d="M64.1,26.5h-9.2c-0.8,0-1.5-0.7-1.5-1.5s0.7-1.5,1.5-1.5h9.2c0.8,0,1.5,0.7,1.5,1.5
	S64.9,26.5,64.1,26.5"/>
<path id="Fill-5" class="st0" d="M19.6,12.9c-0.8,0-1.5-0.7-1.5-1.5V2.2c0-0.8,0.7-1.5,1.5-1.5s1.5,0.7,1.5,1.5v9.2
	C21.1,12.3,20.4,12.9,19.6,12.9"/>
<path id="Fill-7" class="st0" d="M64.1,36.2h-9.2c-0.8,0-1.5-0.7-1.5-1.5s0.7-1.5,1.5-1.5h9.2c0.8,0,1.5,0.7,1.5,1.5
	S64.9,36.2,64.1,36.2"/>
<path id="Fill-9" class="st0" d="M29.9,12.9c-0.8,0-1.5-0.7-1.5-1.5V2.2c0-0.8,0.7-1.5,1.5-1.5s1.5,0.7,1.5,1.5v9.2
	C31.3,12.3,30.7,12.9,29.9,12.9"/>
<path id="Fill-11" class="st0" d="M64.1,46.5h-9.2c-0.8,0-1.5-0.7-1.5-1.5s0.7-1.5,1.5-1.5h9.2c0.8,0,1.5,0.7,1.5,1.5
	S64.9,46.5,64.1,46.5"/>
<path id="Fill-13" class="st0" d="M40.1,12.9c-0.8,0-1.5-0.7-1.5-1.5V2.2c0-0.8,0.7-1.5,1.5-1.5s1.5,0.7,1.5,1.5v9.2
	C41.6,12.3,40.9,12.9,40.1,12.9"/>
<path id="Fill-15" class="st0" d="M64.1,56.7h-9.2c-0.8,0-1.5-0.7-1.5-1.5s0.7-1.5,1.5-1.5h9.2c0.8,0,1.5,0.7,1.5,1.5
	C65.6,56.1,64.9,56.7,64.1,56.7"/>
<path class="st1" d="M53.9,28c0.5,0,1-0.4,1-1v-4.2c0-0.5-0.4-1-1-1h-4.3v-3.4c0-1.6-1.3-3-3-3h-3.4v-3c0-0.5-0.4-1-1-1H38
	c-0.5,0-1,0.4-1,1v3h-4.1v-3c0-0.5-0.4-1-1-1h-4.2c-0.5,0-1,0.4-1,1v3h-4.1v-3c0-0.5-0.4-1-1-1h-4.2c-0.6,0-1,0.4-1,1v3h-3.6v-3
	c0-0.5-0.4-1-1-1H7.7c-0.5,0-1,0.4-1,1v3H3.3c-1.6,0-3,1.3-3,3v43.3c0,1.6,1.3,3,3,3h43.3c1.6,0,3-1.3,3-3v-3.4h4.3c0.5,0,1-0.4,1-1
	v-4.2c0-0.5-0.4-1-1-1h-4.3V48h4.3c0.5,0,1-0.4,1-1v-4.2c0-0.6-0.4-1-1-1h-4.3v-4.1h4.3c0.5,0,1-0.4,1-1v-4.2c0-0.5-0.4-1-1-1h-4.3
	V28C49.6,28,53.9,28,53.9,28z"/>
<path class="st2" d="M40.1,58.8H9.5c-1.8,0-3.2-1.4-3.2-3.2V25c0-1.8,1.4-3.2,3.2-3.2h30.6c1.8,0,3.2,1.4,3.2,3.2v30.6
	C43.3,57.4,41.9,58.8,40.1,58.8z"/>
<path class="st0" d="M36.2,54.5h-27c-1.6,0-2.8-1.3-2.8-2.8v-27c0-1.6,1.3-2.8,2.8-2.8h27c1.6,0,2.8,1.3,2.8,2.8v27
	C39,53.2,37.7,54.5,36.2,54.5z"/>
</svg>
