<?xml version="1.0" encoding="utf-8"?>
<!-- Generator: Adobe Illustrator 22.1.0, SVG Export Plug-In . SVG Version: 6.00 Build 0)  -->
<svg version="1.1" id="Layer_1" xmlns="http://www.w3.org/2000/svg" xmlns:xlink="http://www.w3.org/1999/xlink" x="0px" y="0px"
	 viewBox="0 0 64 64" style="enable-background:new 0 0 64 64;" xml:space="preserve">
<style type="text/css">
	.st0{fill:#AA71FF;}
	.st1{fill:#8F59FF;}
	.st2{fill:#DABDFF;}
</style>
<path id="Path" class="st0" d="M55,20.5H8.9C4.5,20.5,1,24,1,28.4v7.1c0,4.4,3.5,7.9,7.9,7.9H55c4.4,0,7.9-3.5,7.9-7.9v-7.1
	C62.9,24.1,59.4,20.5,55,20.5z"/>
<path class="st1" d="M55,19.5H8.9c-4.9,0-8.9,4-8.9,8.9v7.1c0,4.9,4,8.9,8.9,8.9H55c4.9,0,8.9-4,9-8.9v-7.1C64,23.5,60,19.5,55,19.5
	 M55,21.6c3.8,0,6.9,3,6.9,6.8v7.1c0,3.8-3.1,6.9-6.9,6.9H8.9c-3.8,0-6.9-3.1-6.9-6.9v-7.2c0-3.8,3.1-6.8,6.9-6.8L55,21.6"/>
<path id="Path_2_" class="st2" d="M50.8,33.1c0.1,0.1,0.2,0.2,0.2,0.3c0.1,0.1,0.1,0.2,0,0.4l-1,1.7c-0.1,0.1-0.2,0.2-0.3,0.2
	s-0.3,0-0.4-0.1l-2-1.6l0.3,2.7c0,0.1,0,0.3-0.1,0.4c-0.1,0.1-0.2,0.1-0.3,0.1h-2c-0.1,0-0.2-0.1-0.3-0.2c-0.1-0.1-0.1-0.2-0.1-0.3
	l0.3-2.8l-2.2,1.6c-0.1,0.1-0.2,0.1-0.4,0.1c-0.1,0-0.2-0.1-0.3-0.2l-0.9-1.7c-0.1-0.1-0.1-0.2,0-0.4c0-0.1,0.1-0.2,0.2-0.3l2.4-1
	l-2.5-1.1c-0.1,0-0.2-0.1-0.2-0.3c-0.1-0.1-0.1-0.3,0-0.4l1-1.6c0.1-0.1,0.2-0.2,0.3-0.2s0.3,0,0.4,0.1l2.2,1.6l-0.3-2.7
	c0-0.1,0-0.3,0.1-0.4s0.2-0.1,0.3-0.1h1.9c0.1,0,0.2,0.1,0.3,0.2s0.1,0.2,0.1,0.3l-0.4,2.8l2.2-1.6c0.1-0.1,0.2-0.1,0.4-0.1
	c0.1,0,0.2,0.1,0.3,0.2l0.9,1.7c0.1,0.1,0.1,0.2,0,0.4c0,0.1-0.1,0.2-0.2,0.3l-2.5,1.1L50.8,33.1z"/>
<path id="Path_3_" class="st2" d="M36.6,33.1c0.1,0,0.2,0.1,0.3,0.3c0.1,0.1,0.1,0.2,0,0.4L36,35.4c-0.1,0.1-0.2,0.2-0.3,0.2
	s-0.3,0-0.4-0.1l-2.1-1.6l0.3,2.7c0,0.1,0,0.3-0.1,0.3S33.1,37,33,37h-1.9c-0.1,0-0.3-0.1-0.3-0.2c-0.1-0.1-0.1-0.2-0.1-0.3l0.3-2.8
	l-2.2,1.7c-0.1,0.1-0.2,0.1-0.4,0.1c-0.1,0-0.2-0.1-0.3-0.2l-0.9-1.7c-0.1-0.1-0.1-0.2,0-0.4c0-0.1,0.1-0.2,0.2-0.3l2.5-1l-2.5-1.1
	c-0.1,0-0.2-0.1-0.2-0.3c-0.1-0.1-0.1-0.3,0-0.4l1-1.6c0.1-0.1,0.2-0.2,0.3-0.2c0.1,0,0.2,0,0.3,0.1l2.2,1.7l-0.3-2.6
	c0-0.1,0-0.3,0.1-0.4s0.2-0.2,0.3-0.2H33c0.1,0,0.3,0.1,0.3,0.2c0.1,0.1,0.1,0.2,0.1,0.4l-0.3,2.6l2.2-1.6c0.1-0.1,0.2-0.1,0.3-0.1
	s0.2,0.1,0.3,0.2l0.9,1.7c0.1,0.1,0.1,0.2,0,0.4c0,0.1-0.1,0.2-0.2,0.3l-2.5,1L36.6,33.1z"/>
<path id="Path_4_" class="st2" d="M22.3,33c0.1,0.1,0.2,0.2,0.2,0.3c0.1,0.1,0.1,0.2,0,0.4l-1,1.7c-0.1,0.1-0.2,0.2-0.3,0.2
	c-0.1,0-0.2,0-0.3-0.1l-2.1-1.6l0.3,2.7c0,0.1,0,0.3-0.1,0.3c0,0-0.1,0.1-0.3,0.1h-2c-0.1,0-0.2-0.1-0.3-0.2
	c-0.1-0.1-0.1-0.2-0.1-0.3l0.3-2.8l-2.2,1.6c-0.1,0.1-0.2,0.1-0.4,0.1c-0.1,0-0.2-0.1-0.3-0.2l-0.9-1.7c-0.1-0.1-0.1-0.2,0-0.4
	c0-0.1,0.1-0.2,0.2-0.3l2.5-1L13,30.7c-0.1,0-0.2-0.1-0.2-0.3c-0.1-0.1-0.1-0.3,0-0.4l0.9-1.6c0.1-0.1,0.2-0.2,0.3-0.2
	s0.3,0,0.4,0.1l2.2,1.7l-0.3-2.6c0-0.1,0-0.3,0.1-0.4s0.2-0.2,0.3-0.2h1.9c0.1,0,0.3,0.1,0.3,0.2c0.1,0.1,0.1,0.2,0.1,0.4l-0.4,2.7
	l2.2-1.6c0.1-0.1,0.2-0.1,0.4-0.1c0.1,0,0.2,0.1,0.3,0.2l0.9,1.7c0.1,0.1,0.1,0.2,0,0.4c0,0.1-0.1,0.2-0.2,0.3l-2.5,1.1L22.3,33z"/>
</svg>
