<svg width="88" height="35" xmlns="http://www.w3.org/2000/svg" xmlns:xlink="http://www.w3.org/1999/xlink"><defs><path d="M10.834.096C4.912.11.116 4.908.1 10.83v9.735C.116 26.488 4.912 31.285 10.834 31.3H73.59c5.921-.015 10.717-4.812 10.734-10.734v-9.735C84.308 4.908 79.512.11 73.591.096H10.834z" id="prefix__a"/><path d="M61.383 10.474a.594.594 0 00-.139.48l.446 3.623-2.98-2.221a.626.626 0 00-.494-.106.599.599 0 00-.402.285l-1.297 2.207a.63.63 0 000 .506.526.526 0 00.33.359l3.399 1.49-3.399 1.416a.6.6 0 00-.33.357.565.565 0 000 .493l1.269 2.251c.082.154.23.263.4.299.17.035.345-.01.478-.119l2.982-2.221-.446 3.667a.608.608 0 00.144.475c.114.131.277.208.45.211h2.61a.604.604 0 00.457-.205.602.602 0 00.14-.481l-.447-3.638 2.726 2.192a.65.65 0 00.494.119.588.588 0 00.402-.285l1.328-2.25a.6.6 0 00.058-.498.593.593 0 00-.342-.367l-3.25-1.297 3.385-1.49a.576.576 0 00.342-.36.56.56 0 000-.49l-1.266-2.251a.647.647 0 00-.406-.299.652.652 0 00-.488.119l-2.983 2.191.477-3.683a.599.599 0 00-.139-.479.602.602 0 00-.45-.206H61.832a.594.594 0 00-.449.206zm-16.45-.146H42.34a.604.604 0 00-.452.21.605.605 0 00-.146.475l.448 3.623-2.938-2.28a.603.603 0 00-.477-.106.599.599 0 00-.417.285l-1.299 2.207a.62.62 0 000 .506c.05.16.172.294.329.359l3.4 1.49-3.386 1.416a.59.59 0 00-.343.357.573.573 0 000 .493l1.266 2.251a.612.612 0 00.408.299c.172.033.35-.01.489-.119l2.982-2.221-.448 3.667a.615.615 0 00.596.686h2.67a.616.616 0 00.461-.208.68.68 0 00.15-.478l-.462-3.638 2.788 2.192a.592.592 0 00.88-.166l1.342-2.25a.573.573 0 000-.493.532.532 0 00-.343-.372l-3.265-1.297 3.384-1.49a.587.587 0 00.343-.36.56.56 0 000-.49l-1.267-2.251a.59.59 0 00-.405-.299.614.614 0 00-.476.119l-2.98 2.191.371-3.623a.69.69 0 00-.147-.476.617.617 0 00-.46-.209h-.004zm-21.993 0a.616.616 0 00-.596.685l.463 3.623-2.998-2.28a.602.602 0 00-.476-.106.573.573 0 00-.405.285l-1.296 2.207a.611.611 0 000 .506c.054.16.173.29.328.359l3.4 1.49-3.384 1.416a.586.586 0 00-.344.357.628.628 0 000 .493l1.268 2.251a.676.676 0 00.402.299.601.601 0 00.492-.119l2.982-2.221-.462 3.667a.615.615 0 00.15.478.621.621 0 00.446.208h2.669a.62.62 0 00.447-.208.605.605 0 00.15-.478l-.462-3.638 2.861 2.192a.62.62 0 00.478.119.536.536 0 00.403-.285l1.343-2.25a.639.639 0 000-.493.61.61 0 00-.345-.372l-3.4-1.297 3.4-1.49a.571.571 0 00.33-.36.568.568 0 000-.49l-1.254-2.251a.66.66 0 00-.403-.299.617.617 0 00-.49.119l-2.984 2.191.492-3.623a.603.603 0 00-.149-.476.6.6 0 00-.447-.209H22.94z" id="prefix__c"/></defs><g transform="translate(.676 .254)" fill="none" fill-rule="evenodd"><g transform="translate(1.4 1.406)"><mask id="prefix__b" fill="#fff"><use xlink:href="#prefix__a"/></mask><path fill="#7543E1" mask="url(#prefix__b)" d="M-4.8 36.2h94.025V-4.806H-4.8z"/></g><path d="M74.99 1.501V.061H12.23C5.515.078.078 5.515.06 12.232V21.977c.018 6.715 5.455 12.151 12.17 12.171h62.79-.026c6.716-.02 12.152-5.456 12.172-12.171V12.233C87.146 5.516 81.71.079 74.994.06h-.004v1.441l-.004 1.441c5.13.012 9.284 4.168 9.298 9.3v-.006 9.736-.004a9.323 9.323 0 01-9.298 9.298h-62.75.003c-5.128-.013-9.285-4.169-9.298-9.298v.004-9.736.004c.013-5.129 4.17-9.286 9.298-9.298H74.99h-.004l.004-1.44z" fill="#592AC8"/><mask id="prefix__d" fill="#fff"><use xlink:href="#prefix__c"/></mask><path fill="#D7BDFD" mask="url(#prefix__d)" d="M12.678 28.825h61.976V5.367H12.678z"/></g></svg>