<svg width="47" height="24" xmlns="http://www.w3.org/2000/svg"><g fill-rule="nonzero" fill="none"><path d="M37.565 0c-7.505 0-9.873 2.984-13.417 3.143l6.057 17.155c1.994 1.434 4.023 2.867 6.418 2.867 5.94 0 10.33-5.629 10.385-15.231C47.077 1.91 45.277 0 37.565 0zm-1.323 13.687c-3.039 0-6.618-1.115-6.618-2.077 0-1.108 1.724-4.403 6.148-4.21 4.686.202 6.618 2.998 6.618 3.684 0 .685-3.108 2.603-6.148 2.603z" fill="#9150FF"/><path d="M23.857 3.157V17.37c2.326 0 4.32 1.468 6.348 2.928L24.148 3.143l-.291.014z" fill="#C785FF"/><path d="M10.15 0C2.436 0 .65 1.91.691 7.9c.07 9.636 4.459 15.265 10.385 15.265 2.305 0 4.375-1.496 6.452-2.97l6.01-17.052C20 2.983 17.653 0 10.148 0zm1.322 13.687c-3.04 0-6.148-1.945-6.148-2.63 0-.686 1.931-3.462 6.618-3.684 4.424-.194 6.148 3.102 6.148 4.21 0 .99-3.552 2.104-6.618 2.104z" fill="#7638E9"/><path d="M23.857 3.157h-.29l-6.024 17.051c2.015-1.419 4.043-2.824 6.314-2.824V3.157z" fill="#9150FF"/><path d="M37.565 0c-7.505 0-9.873 2.984-13.417 3.143l6.057 17.155c1.994 1.434 4.023 2.867 6.418 2.867 5.94 0 10.33-5.629 10.385-15.231C47.077 1.91 45.277 0 37.565 0zm-1.323 13.687c-3.039 0-6.618-1.115-6.618-2.077 0-1.108 1.724-4.403 6.148-4.21 4.686.202 6.618 2.998 6.618 3.684 0 .685-3.108 2.603-6.148 2.603z" fill="#7638E9"/><path d="M23.857 3.157V17.37c2.326 0 4.32 1.468 6.348 2.928L24.148 3.143l-.291.014z" fill="#AA71FF"/><path d="M10.15 0C2.436 0 .65 1.91.691 7.9c.07 9.636 4.459 15.265 10.385 15.265 2.305 0 4.375-1.496 6.452-2.97l6.01-17.052C20 2.983 17.653 0 10.148 0zm1.322 13.687c-3.04 0-6.148-1.945-6.148-2.63 0-.686 1.931-3.462 6.618-3.684 4.424-.194 6.148 3.102 6.148 4.21 0 .99-3.552 2.104-6.618 2.104z" fill="#7638E9"/><path d="M23.857 3.157h-.29l-6.024 17.051c2.015-1.419 4.043-2.824 6.314-2.824V3.157z" fill="#8F59FF"/></g></svg>