<svg width="48" height="36" xmlns="http://www.w3.org/2000/svg"><g fill="none" fill-rule="evenodd"><path d="M16.098 8.442l.078.079-.236.067c-.741.188-1.473.413-2.192.675-.765.263-1.515.567-2.248.91A30.531 30.531 0 00.18 18.582c-.068-.1-.117-.21-.146-.326A32.42 32.42 0 019.33 8.003a23.7 23.7 0 011.923-1.27 20.988 20.988 0 012.034-1.124l2.833 2.833h-.022zM47.214 18.256a1.405 1.405 0 01-.147.326 31.397 31.397 0 00-15.816-9.994 29.227 29.227 0 00-7.644-.99 28.474 28.474 0 00-4.35.327l-1.001-1-2.428-2.429a22.483 22.483 0 017.779-1.394c14.816 0 23.607 14.726 23.607 15.154z" fill="#D9BFFF" fill-rule="nonzero"/><path d="M31.734 24.079l5.149 5.148c-.63.416-1.293.82-1.979 1.203-.685.382-1.394.72-2.124 1.045a22.719 22.719 0 01-9.173 1.979c-11.466 0-19.313-8.802-22.28-13.006a17.716 17.716 0 01-1.125-1.844 30.531 30.531 0 0111.264-8.43 22.977 22.977 0 012.248-.911c.72-.262 1.45-.487 2.192-.675l.237-.067 2.922 2.922 9.555 9.555 3.058 3.058.056.023zM47.067 18.582c-.202.36-.595 1.011-1.124 1.843a36.444 36.444 0 01-6.857 7.25l-5.744-5.744-3.26-3.26-8.566-8.565-2.248-2.249a28.474 28.474 0 014.339-.258A29.227 29.227 0 0131.25 8.61a31.397 31.397 0 0115.816 9.97z" fill="#D9BFFF" fill-rule="nonzero"/><path d="M28.677 21.01l3.057 3.057a11.309 11.309 0 01-3.72 2.642 11.095 11.095 0 01-15.491-10.117c.007-1.532.336-3.045.967-4.44a10.6 10.6 0 011.124-2.024 10.86 10.86 0 011.337-1.54l.158-.146.078.079 2.923 2.922 9.555 9.555.012.012zM34.68 16.592a10.95 10.95 0 01-1.394 5.362l-3.26-3.26-8.566-8.566L19.21 7.88l-1-1a11.073 11.073 0 0116.469 9.712z" fill="#AB71FF" fill-rule="nonzero"/><path d="M19.11 11.455l9.555 9.555c-.405.47-.878.875-1.405 1.203l-.348.213-.169.09c-.17.094-.347.176-.528.247a4.643 4.643 0 01-.506.191 2.968 2.968 0 01-.45.135 2.62 2.62 0 01-.427.09c-.097.011-.195.011-.292 0h-.967a6.745 6.745 0 01-6.745-6.745 5.756 5.756 0 010-.629 3.271 3.271 0 010-.349 4.34 4.34 0 01.101-.55c0-.146.068-.293.113-.439a.99.99 0 010-.168 4.07 4.07 0 01.146-.394c.02-.071.05-.14.09-.202.063-.169.142-.33.236-.484a.753.753 0 01.067-.134c.057-.123.125-.24.203-.349l.09-.135c.1-.146.213-.303.326-.438l.123-.135c.237-.224.501-.417.787-.573zM30.352 16.592a6.95 6.95 0 01-.338 2.124l-8.566-8.565a6.554 6.554 0 012.114-.338 6.745 6.745 0 016.79 6.779z" fill="#592ACB" fill-rule="nonzero"/><path d="M18.436 12.095a6.764 6.764 0 109.555 9.578l-9.555-9.578z" fill="#592ACB" fill-rule="nonzero"/><path d="M.146 18.582c.341.634.716 1.25 1.124 1.843A8.588 8.588 0 010 18.84a1.27 1.27 0 01.146-.258z" fill="#D9BFFF" fill-rule="nonzero"/><path d="M27.991 21.695l-9.566-9.566M7.543 3.057l30.34 30.341"/><path d="M39.468 34.983a2.248 2.248 0 01-3.181 0l-3.507-3.508-4.767-4.766-3.473-3.462-7.678-7.678-3.372-3.372-4.148-4.149-3.373-3.372A2.25 2.25 0 119.15 1.495l30.352 30.351c.84.882.825 2.273-.034 3.137z" fill="#592ACB" fill-rule="nonzero"/></g></svg>