<svg height="45" width="33" xmlns="http://www.w3.org/2000/svg"><g fill="none" fill-rule="evenodd"><g fill-rule="nonzero" transform="translate(.227 -.5)"><path d="M29.56.86h-21a3 3 0 00-3 3v38a3 3 0 003 3h21a3 3 0 003-3v-38a3 3 0 00-3-3z" fill="#d9bfff"/><path d="M28.56 3.86h-19a1 1 0 00-1 1v35a1 1 0 001 1h19a1 1 0 001-1v-35a1 1 0 00-1-1z" fill="#7542e5"/><circle cx="14.06" cy="36.36" fill="#d7bbff" r="1.5"/><circle cx="19.06" cy="36.36" fill="#d7bbff" r="1.5"/><circle cx="24.06" cy="36.36" fill="#d7bbff" r="1.5"/></g><path d="M17.967 42.36h2.82" stroke="#7542e5" stroke-linecap="round" stroke-linejoin="round"/><path d="M12.157 30.63l8.35-8.36-8.35-8.35" stroke="#d8befc" stroke-linecap="round" stroke-linejoin="round" stroke-width="2"/><path d="M1.007 22.28h19.5" stroke="#d8befc" stroke-linecap="round" stroke-width="2"/></g></svg>