<svg width="40" height="48" xmlns="http://www.w3.org/2000/svg"><g fill-rule="nonzero" fill="none"><path d="M39.474 11.992c0-1.976-.058-4.218-.058-6.743a2.164 2.164 0 00-1.796-2.126L20.425.146a2.293 2.293 0 00-.368 0 2.364 2.364 0 00-.368.032L2.5 3.123A2.151 2.151 0 00.704 5.281c0 2.525 0 4.767-.058 6.744-.045 3.565-.077 6.143.065 7.751.936 10.283 3.126 14.98 6.802 20.037a20.16 20.16 0 0012.124 7.81 2.37 2.37 0 00.846 0 20.438 20.438 0 0012.125-7.81c3.688-5.057 5.865-9.754 6.795-20.07.149-1.608.116-4.185.071-7.75z" fill="#7638E9"/><path d="M19.695.178L2.5 3.156A2.164 2.164 0 00.71 5.28c0 2.532-.038 4.773-.064 6.75C.607 15.616.57 18.2.717 19.776c.93 10.316 3.12 15.018 6.796 20.076a20.154 20.154 0 0012.13 7.803c.139.026.28.039.42.039V.146a2.364 2.364 0 00-.368.032z" fill="#7638E9"/><path d="M19.747 3.453L5.329 5.927c-.868.16-1.497.919-1.492 1.802 0 2.119 0 3.998-.045 5.659-.039 2.99-.065 5.167.058 6.498.762 8.65 2.571 12.596 5.684 16.84a16.911 16.911 0 0010.174 6.543c.116.01.233.01.349 0V3.427c-.104-.001-.208.008-.31.026z" fill="#7638E9"/><path d="M36.341 13.388c0-1.66-.045-3.54-.051-5.659a1.809 1.809 0 00-1.499-1.802L20.367 3.453a1.673 1.673 0 00-.31 0V43.3c.118.01.237.01.355 0A17.13 17.13 0 0030.58 36.72c3.1-4.237 4.909-8.184 5.703-16.833.123-1.344.097-3.508.058-6.498z" fill="#DABDFF"/><path d="M39.474 11.992c0-1.976-.058-4.218-.058-6.743a2.164 2.164 0 00-1.796-2.126L20.425.146a2.293 2.293 0 00-.368 0 2.364 2.364 0 00-.368.032L2.5 3.123A2.151 2.151 0 00.704 5.281c0 2.525 0 4.767-.058 6.744-.045 3.565-.077 6.143.065 7.751.936 10.283 3.126 14.98 6.802 20.037a20.16 20.16 0 0012.124 7.81 2.37 2.37 0 00.846 0 20.438 20.438 0 0012.125-7.81c3.688-5.057 5.865-9.754 6.795-20.07.149-1.608.116-4.185.071-7.75z" fill="#8F59FF"/><path d="M19.695.178L2.5 3.156A2.164 2.164 0 00.71 5.28c0 2.532-.038 4.773-.064 6.75C.607 15.616.57 18.2.717 19.776c.93 10.316 3.12 15.018 6.796 20.076a20.154 20.154 0 0012.13 7.803c.139.026.28.039.42.039V.146a2.364 2.364 0 00-.368.032z" fill="#592ACA"/><path d="M19.747 3.453L5.329 5.927c-.868.16-1.497.919-1.492 1.802 0 2.119 0 3.998-.045 5.659-.039 2.99-.065 5.167.058 6.498.762 8.65 2.571 12.596 5.684 16.84a16.911 16.911 0 0010.174 6.543c.116.01.233.01.349 0V3.427c-.104-.001-.208.008-.31.026z" fill="#7542E4"/><path d="M36.341 13.388c0-1.66-.045-3.54-.051-5.659a1.809 1.809 0 00-1.499-1.802L20.367 3.453a1.673 1.673 0 00-.31 0V43.3c.118.01.237.01.355 0A17.13 17.13 0 0030.58 36.72c3.1-4.237 4.909-8.184 5.703-16.833.123-1.344.097-3.508.058-6.498z" fill="#AA71FF"/></g></svg>