<svg xmlns="http://www.w3.org/2000/svg" width="254" height="172" viewBox="0 0 254 172"><path fill="#fff" d="M38.4 144.67h16.06v4.34H43v5.88h11.45v4.31H43v9.45h-4.6v-23.98zm21.51-1.68c1.42-.05 2.62 1.06 2.67 2.48v.21c.07 1.42-1.02 2.62-2.44 2.7-.09.01-.17.01-.26 0-1.4.07-2.59-1.01-2.66-2.41 0-.07-.01-.14 0-.22-.05-1.47 1.09-2.71 2.56-2.76h.13m-2.25 7.93h4.5v17.73h-4.5v-17.73zm17.7 4.93c-.63-.5-1.4-.78-2.2-.79-1.84 0-2.89 1.18-2.89 3.75v9.85h-4.5v-17.73h4.31v2.56c.66-1.75 2.38-2.86 4.25-2.73 1.07 0 2.11.32 3 .92-.01-.01-1.97 4.17-1.97 4.17zm1.87 4.04c-.14-5.01 3.81-9.2 8.82-9.34.1 0 .21-.01.31 0 5.33 0 9.11 3.75 9.11 9.05v1.87H81.66c.49 2.25 2.25 3.71 4.9 3.71 1.86.06 3.58-.97 4.41-2.63l3.79 2.25c-1.88 2.76-4.54 4.21-8.33 4.21-5.76 0-9.21-3.85-9.21-9.14m4.5-2.01h9.35c-.49-2.25-2.34-3.52-4.74-3.52-2.18-.08-4.11 1.4-4.61 3.52m14.87-6.97h3.19v-.87c0-4.83 2.04-6.84 6.51-6.84h1.58v3.91h-1.27c-2.11 0-2.57.75-2.57 2.92v.89h3.85v4.07h-3.75v13.66H99.8v-13.66h-3.2l-.01-4.08zm12.14 8.88c-.08-5.02 3.93-9.16 8.96-9.24h.32c5.1-.14 9.35 3.88 9.5 8.97.14 5.1-3.88 9.35-8.97 9.5-.17.01-.35.01-.52 0-4.96.16-9.12-3.74-9.28-8.7-.01-.18-.01-.35-.01-.53m14.15 0c-.09-2.69-2.34-4.8-5.03-4.71-2.69.09-4.8 2.34-4.71 5.03.08 2.63 2.24 4.71 4.87 4.71 2.69 0 4.87-2.19 4.86-4.88.01-.05.01-.1.01-.15m10.49-.2-6.37-8.66h5.33l3.79 5.46 3.88-5.46h5.25l-6.52 8.64 6.87 9.09h-5.29l-4.24-5.79-4.15 5.79h-5.3l6.75-9.07z"/><path fill="#fff" d="m165.13 155.85-4.9 5.72v7.06h-2.68v-23.86h2.68v13.4l11.44-13.4H175l-7.94 9.22 8.79 14.64h-3.17l-7.55-12.78zm13.37-12.98h2.68v25.76h-2.68v-25.76zm6.05 20.92c0-3.63 3.07-5.72 8.01-5.72h5.59v-.69c0-2.68-1.73-4.48-5.17-4.48-2.65 0-4.41 1.11-5.62 2.97l-2.32-1.47c1.76-2.29 4.31-3.79 7.98-3.79 5.03 0 7.75 2.78 7.75 6.77v11.25h-2.61v-3.11c-1.57 2.16-4.28 3.46-7.32 3.46-4.23.01-6.29-2.34-6.29-5.19zm13.6-1.14v-2.42h-5.46c-3.66 0-5.39 1.18-5.39 3.37 0 1.73 1.24 3.04 4.02 3.04 2.64 0 5.42-1.38 6.83-3.99zm6.76-11.67h2.58v3.33c.75-2.35 2.52-3.6 5.03-3.6 1.21 0 2.26.23 2.94.65l-1.11 2.55c-.49-.33-1.21-.56-2.16-.56-2.94 0-4.64 1.7-4.64 5.59v9.68h-2.65v-17.64z"/><linearGradient id="a" x1="179.0443" x2="78.8084" y1="-574.7707" y2="-637.9112" gradientTransform="matrix(1 0 0 -1 0 -544)" gradientUnits="userSpaceOnUse"><stop offset="0" stop-color="#9658f9"/><stop offset=".13" stop-color="#9356f4"/><stop offset=".29" stop-color="#8951e5"/><stop offset=".46" stop-color="#7a49cd"/><stop offset=".64" stop-color="#643dab"/><stop offset=".82" stop-color="#492e81"/><stop offset="1" stop-color="#291d4f"/></linearGradient><path fill="url(#a)" d="M180.69 40.14c-2.53-6.05-7.62-12.6-11.63-14.66 3.26 6.38 5.14 12.79 5.87 17.58v.09c-6.55-16.32-17.67-22.9-26.74-37.23-.46-.73-.91-1.45-1.37-2.23-.25-.43-.45-.82-.63-1.2-.37-.73-.67-1.49-.87-2.29 0-.04-.01-.07-.03-.1-.03-.03-.06-.04-.09-.04-.03-.01-.07-.01-.1 0l-.03.01c-.01 0-.03.01-.04.01l.01-.03c-14.56 8.52-19.49 24.29-19.94 32.18-5.81.4-11.37 2.54-15.95 6.14-.48-.4-.99-.78-1.49-1.14-1.32-4.62-1.37-9.51-.16-14.15-5.95 2.71-10.58 6.99-13.94 10.78h.01c-2.3-2.91-2.14-12.51-2-14.51-.03-.12-1.72.88-1.93 1.03-2.03 1.45-3.92 3.06-5.66 4.86-1.99 2-3.8 4.18-5.41 6.49-3.74 5.28-6.38 11.24-7.79 17.55-.03.12-.04.25-.07.39-.1.51-.51 3.06-.57 3.62v.12c-.51 2.63-.82 5.31-.94 8v.3c0 32 25.93 57.93 57.93 57.93 28.65 0 52.44-20.8 57.11-48.12.1-.73.18-1.48.27-2.23 1.1-9.97-.2-20.42-3.82-29.15zm-66.77 45.35c.27.13.52.27.81.39l.04.03c-.29-.14-.57-.29-.85-.42zm61.03-42.31v-.06.06z"/><radialGradient id="b" cx="-894.4098" cy="461.7092" r="1.9927" gradientTransform="matrix(-23.5301 55.8694 59 24.8486 -48121.7812 38516.375)" gradientUnits="userSpaceOnUse"><stop offset="0" stop-color="#9658f9"/><stop offset=".65" stop-color="#291d4f"/></radialGradient><path fill="url(#b)" d="M180.69 40.14c-2.53-6.05-7.62-12.6-11.63-14.66 3.26 6.38 5.14 12.79 5.87 17.58v.12c5.47 14.81 2.48 29.89-1.81 39.1-6.64 14.24-22.72 28.84-47.86 28.14-27.17-.78-51.11-20.94-55.58-47.36-.82-4.17 0-6.28.4-9.65-.49 2.6-.69 3.36-.94 8v.3c0 32 25.93 57.93 57.93 57.93 28.65 0 52.44-20.8 57.11-48.12.1-.75.18-1.48.27-2.23 1.16-9.97-.14-20.42-3.76-29.15z"/><radialGradient id="c" cx="-886.3879" cy="424.1222" r="1.9927" gradientTransform="matrix(60.5531 0 0 -60.5531 53810.4531 25756.1484)" gradientUnits="userSpaceOnUse"><stop offset=".25" stop-color="#ab71ff" stop-opacity="0"/><stop offset=".42" stop-color="#9462e0" stop-opacity=".18"/><stop offset=".73" stop-color="#573b8d" stop-opacity=".65"/><stop offset=".94" stop-color="#291d4f"/></radialGradient><path fill="url(#c)" d="M180.69 40.14c-2.53-6.05-7.62-12.6-11.63-14.66 3.26 6.38 5.14 12.79 5.87 17.58v.12c5.47 14.81 2.48 29.89-1.81 39.1-6.64 14.24-22.72 28.84-47.86 28.14-27.17-.78-51.11-20.94-55.58-47.36-.82-4.17 0-6.28.4-9.65-.49 2.6-.69 3.36-.94 8v.3c0 32 25.93 57.93 57.93 57.93 28.65 0 52.44-20.8 57.11-48.12.1-.75.18-1.48.27-2.23 1.16-9.97-.14-20.42-3.76-29.15z"/><radialGradient id="d" cx="-879.8546" cy="418.5254" r="1.9927" gradientTransform="matrix(43.7736 0 0 -43.7736 38665.8633 18317.8984)" gradientUnits="userSpaceOnUse"><stop offset=".18" stop-color="#9658f9"/><stop offset=".33" stop-color="#7e48ea"/><stop offset=".37" stop-color="#7542e5"/><stop offset=".41" stop-color="#6a3dd0"/><stop offset=".48" stop-color="#5332a2"/><stop offset=".56" stop-color="#41297e"/><stop offset=".63" stop-color="#342264"/><stop offset=".69" stop-color="#2c1e54"/><stop offset=".74" stop-color="#291d4f"/></radialGradient><path fill="url(#d)" d="m152.55 46.96.36.27c-1.45-2.59-3.26-4.95-5.38-7.02C129.52 22.2 142.81 1.16 145.05.1l.01-.03c-14.56 8.52-19.49 24.29-19.94 32.18.67-.04 1.35-.1 2.03-.1 10.87-.02 20.33 5.95 25.4 14.81z"/><radialGradient id="e" cx="-868.5992" cy="405.3382" r="1.9927" gradientTransform="matrix(28.8575 0 0 -28.8575 25176.0371 11785.5439)" gradientUnits="userSpaceOnUse"><stop offset=".07" stop-color="#9358fc"/><stop offset=".13" stop-color="#9857f8"/><stop offset=".21" stop-color="#a755eb"/><stop offset=".3" stop-color="#bf52d7"/><stop offset=".39" stop-color="#e14eba"/><stop offset=".42" stop-color="#ef4caf"/><stop offset=".74" stop-color="#ff7583"/><stop offset=".97" stop-color="#ffb753"/></radialGradient><path fill="url(#e)" d="M127.32 50.55c-.09 1.43-5.19 6.41-6.96 6.41-16.47 0-19.15 9.97-19.15 9.97.73 8.4 6.58 15.3 13.65 18.97.33.16.64.31.97.46.57.25 1.14.48 1.7.7 2.42.85 4.96 1.35 7.53 1.45 28.87 1.36 34.46-34.52 13.63-44.94 5.34-.93 10.88 1.23 13.97 3.39-5.07-8.85-14.53-14.83-25.38-14.83-.69 0-1.37.06-2.03.1-5.81.4-11.37 2.54-15.95 6.14.88.75 1.88 1.75 3.98 3.81 3.92 3.88 14.01 7.89 14.04 8.37z"/><radialGradient id="f" cx="-855.3711" cy="373.1159" r="1.9927" gradientTransform="matrix(14.8399 -3.6717 -4.3134 -17.4334 14427.3125 3411.2749)" gradientUnits="userSpaceOnUse"><stop offset=".22" stop-color="#ffb653" stop-opacity=".3"/><stop offset=".34" stop-color="#ff807a" stop-opacity=".5"/><stop offset=".44" stop-color="#ff7781" stop-opacity=".48"/><stop offset=".57" stop-color="#ff5c94" stop-opacity=".43"/><stop offset=".64" stop-color="#ff4aa2" stop-opacity=".4"/><stop offset=".86" stop-color="#9658f9" stop-opacity=".3"/></radialGradient><path fill="url(#f)" d="M127.32 50.55c-.09 1.43-5.19 6.41-6.96 6.41-16.47 0-19.15 9.97-19.15 9.97.73 8.4 6.58 15.3 13.65 18.97.33.16.64.31.97.46.57.25 1.14.48 1.7.7 2.42.85 4.96 1.35 7.53 1.45 28.87 1.36 34.46-34.52 13.63-44.94 5.34-.93 10.88 1.23 13.97 3.39-5.07-8.85-14.53-14.83-25.38-14.83-.69 0-1.37.06-2.03.1-5.81.4-11.37 2.54-15.95 6.14.88.75 1.88 1.75 3.98 3.81 3.92 3.88 14.01 7.89 14.04 8.37z"/><radialGradient id="g" cx="-854.5446" cy="393.0352" r="1.9927" gradientTransform="matrix(20.7439 0 0 -20.7439 17861.9805 8173.0635)" gradientUnits="userSpaceOnUse"><stop offset=".03" stop-color="#9658f9"/><stop offset=".62" stop-color="#7542e5"/><stop offset=".72" stop-color="#6339c2"/><stop offset=".93" stop-color="#37246b"/><stop offset="1" stop-color="#291d4f"/></radialGradient><path fill="url(#g)" d="M106.47 36.45c.46.3.85.55 1.2.79-1.32-4.62-1.37-9.51-.16-14.15-5.95 2.71-10.58 6.99-13.94 10.78.27 0 8.69-.17 12.9 2.58z"/><radialGradient id="h" cx="-894.5216" cy="458.9586" r="1.9927" gradientTransform="matrix(-18.9321 82.9278 65.0914 14.8601 -46667.4531 67330.3047)" gradientUnits="userSpaceOnUse"><stop offset=".2" stop-color="#ab71ff"/><stop offset=".29" stop-color="#a46bfc"/><stop offset=".41" stop-color="#9059f2"/><stop offset=".54" stop-color="#7542e5"/><stop offset=".64" stop-color="#6239bf"/><stop offset=".94" stop-color="#291d4f"/></radialGradient><path fill="url(#h)" d="M69.69 63.06c4.47 26.41 28.41 46.59 55.6 47.35 25.15.72 41.23-13.88 47.86-28.14 4.29-9.21 7.26-24.27 1.81-39.1v-.12.09c2.05 13.42-4.77 26.41-15.44 35.2l-.03.07c-20.79 16.93-40.68 10.21-44.72 7.46-.27-.13-.55-.27-.84-.42-12.12-5.8-17.13-16.84-16.05-26.3-10.24 0-13.72-8.64-13.72-8.64s9.19-6.55 21.3-.85c11.22 5.28 21.75.85 21.75.85-.01-.48-10.1-4.48-14.03-8.35-2.11-2.06-3.09-3.06-3.98-3.81-.48-.4-.99-.78-1.49-1.14-.34-.24-.73-.49-1.2-.79-4.23-2.75-12.63-2.6-12.9-2.59h-.01c-2.3-2.91-2.14-12.51-2-14.51-.03-.12-1.72.88-1.93 1.03-2.03 1.45-3.92 3.06-5.66 4.86-1.99 2-3.8 4.18-5.41 6.49-3.74 5.28-6.38 11.24-7.79 17.55-.09.15-2.13 9.14-1.12 13.81z"/><radialGradient id="i" cx="-886.0868" cy="462.123" r="1.9927" gradientTransform="matrix(6.8048 64.4667 42.375 -4.4729 -13407.333 59211.8672)" gradientUnits="userSpaceOnUse"><stop offset=".09" stop-color="#9658f9"/><stop offset=".14" stop-color="#8c51f3"/><stop offset=".26" stop-color="#7542e5"/><stop offset=".29" stop-color="#6e3ed6"/><stop offset=".4" stop-color="#5533a6"/><stop offset=".5" stop-color="#422980"/><stop offset=".59" stop-color="#342365"/><stop offset=".67" stop-color="#2c1e55"/><stop offset=".74" stop-color="#291d4f"/></radialGradient><path fill="url(#i)" d="M147.53 40.2c2.11 2.08 3.92 4.44 5.38 7.02.31.24.61.48.87.7 13.14 12.11 6.25 29.22 5.74 30.44 10.67-8.8 17.5-21.79 15.44-35.2-6.55-16.35-17.65-22.93-26.72-37.26-.46-.73-.91-1.45-1.37-2.23-.25-.43-.46-.82-.64-1.2-.37-.73-.67-1.49-.87-2.29 0-.04-.01-.07-.03-.1-.03-.03-.06-.04-.09-.04-.03-.01-.07-.01-.1 0l-.03.01c-.01 0-.03.01-.04.01-2.26 1.09-15.55 22.14 2.46 40.14z"/><radialGradient id="j" cx="-884.8149" cy="422.8526" r="1.9927" gradientTransform="matrix(55.2472 0 0 -55.2472 49017.9727 23396.7012)" gradientUnits="userSpaceOnUse"><stop offset="0" stop-color="#9658f9"/><stop offset=".12" stop-color="#9155f6"/><stop offset=".25" stop-color="#834cee"/><stop offset=".34" stop-color="#7542e5"/><stop offset=".78" stop-color="#291d4f"/></radialGradient><path fill="url(#j)" d="M153.78 47.93c-.25-.22-.55-.46-.87-.7l-.36-.27c-3.09-2.17-8.62-4.32-13.97-3.39 20.83 10.42 15.24 46.29-13.63 44.94-2.57-.1-5.11-.6-7.53-1.45-.57-.21-1.14-.45-1.7-.7-.33-.15-.66-.3-.97-.46l.04.03c4.04 2.75 23.93 9.46 44.72-7.46l.03-.07c.48-1.25 7.36-18.36-5.76-30.47z"/><radialGradient id="k" cx="-886.111" cy="424.3319" r="1.9927" gradientTransform="matrix(60.3433 0 0 -60.3433 53634.3359 25647.3105)" gradientUnits="userSpaceOnUse"><stop offset=".19" stop-color="#9658f9"/><stop offset=".49" stop-color="#834bed"/><stop offset=".66" stop-color="#7542e5"/><stop offset=".7" stop-color="#6b3dd2"/><stop offset=".79" stop-color="#52319f"/><stop offset=".91" stop-color="#291d4f"/></radialGradient><path fill="url(#k)" d="M101.08 66.93s2.68-9.97 19.15-9.97c1.78 0 6.87-4.96 6.96-6.41 0 0-10.54 4.42-21.75-.85-12.11-5.69-21.3.85-21.3.85s3.5 8.64 13.72 8.64c-1.08 9.48 3.93 20.51 16.05 26.3.27.13.52.27.81.39-7.07-3.65-12.91-10.57-13.64-18.95z"/><linearGradient id="l" x1="171.9133" x2="90.09" y1="-562.1204" y2="-643.9432" gradientTransform="matrix(1 0 0 -1 0 -544)" gradientUnits="userSpaceOnUse"><stop offset="0" stop-color="#9059ff" stop-opacity=".9"/><stop offset=".61" stop-color="#291d4f" stop-opacity="0"/></linearGradient><path fill="url(#l)" d="M180.69 40.14c-2.53-6.05-7.62-12.6-11.63-14.66 3.26 6.38 5.14 12.79 5.87 17.58v.09c-6.55-16.32-17.67-22.9-26.74-37.23-.46-.73-.91-1.45-1.37-2.23-.25-.43-.45-.82-.63-1.2-.37-.73-.67-1.49-.87-2.29 0-.04-.01-.07-.03-.1-.03-.03-.06-.04-.09-.04-.03-.01-.07-.01-.1 0l-.03.01c-.01 0-.03.01-.04.01l.01-.03c-14.56 8.52-19.49 24.29-19.94 32.18.67-.04 1.35-.1 2.03-.1 10.87 0 20.33 5.98 25.38 14.83-3.09-2.17-8.62-4.32-13.97-3.39 20.83 10.42 15.24 46.29-13.63 44.94-2.57-.1-5.11-.6-7.53-1.45-.57-.21-1.14-.45-1.7-.7-.33-.15-.66-.3-.97-.46l.04.03c-.27-.13-.55-.27-.84-.42.27.13.52.27.81.39-7.07-3.66-12.93-10.57-13.65-18.95 0 0 2.68-9.97 19.15-9.97 1.78 0 6.87-4.96 6.96-6.41-.01-.48-10.1-4.48-14.03-8.35-2.11-2.06-3.09-3.06-3.98-3.81-.48-.4-.99-.78-1.49-1.14-1.32-4.62-1.37-9.51-.16-14.15-5.95 2.71-10.58 6.99-13.94 10.78-2.3-2.91-2.14-12.51-2-14.51-.03-.12-1.72.88-1.93 1.03-2.03 1.45-3.92 3.06-5.66 4.86-1.99 2-3.8 4.18-5.41 6.49-3.74 5.28-6.38 11.24-7.79 17.55-.03.12-.04.25-.07.39-.1.51-.6 3.09-.67 3.65-.45 2.68-.73 5.38-.85 8.09v.3c0 32 25.93 57.93 57.93 57.93 28.65 0 52.44-20.8 57.11-48.12.1-.73.18-1.48.27-2.23 1.1-10.01-.2-20.46-3.82-29.19zm-5.74 2.98v.06-.06z"/></svg>
