<svg xmlns="http://www.w3.org/2000/svg" width="334" height="80" viewBox="0 0 334 80"><path fill="#20123A" d="M97.25 23.72h21.42v5.79h-15.28v7.85h15.28v5.75h-15.28v12.61h-6.14v-32zm28.7-2.23c1.9-.07 3.49 1.42 3.56 3.31v.28c.1 1.89-1.36 3.5-3.25 3.6-.12.01-.23.01-.35 0-1.87.09-3.46-1.35-3.55-3.22 0-.1-.01-.19 0-.29-.07-1.96 1.46-3.61 3.42-3.68h.17m-3 10.57h6v23.66h-6V32.06zm23.61 6.58c-.84-.67-1.87-1.04-2.94-1.06-2.46 0-3.86 1.58-3.86 5v13.14h-6V32.06h5.75v3.42c.88-2.33 3.18-3.81 5.67-3.64 1.43 0 2.82.43 4 1.23l-2.62 5.57zm2.5 5.39c-.19-6.69 5.08-12.27 11.77-12.46.14 0 .28-.01.42 0 7.11 0 12.16 5 12.16 12.07v2.5h-18.44c.66 3 3 4.95 6.54 4.95 2.48.08 4.77-1.29 5.88-3.51l5.05 3c-2.51 3.68-6.06 5.61-11.11 5.61-7.68 0-12.29-5.13-12.29-12.19m6-2.68h12.47c-.66-3-3.12-4.69-6.32-4.69-2.9-.11-5.48 1.86-6.15 4.69m19.84-9.29h4.26v-1.16c0-6.45 2.72-9.12 8.69-9.12h2.11v5.22h-1.69c-2.81 0-3.43 1-3.43 3.9v1.19h5.14v5.43h-5v18.23h-5.8V37.49h-4.26l-.02-5.46zm16.2 11.84c-.11-6.7 5.24-12.22 11.95-12.33h.43c6.81-.19 12.48 5.17 12.68 11.97.19 6.81-5.17 12.48-11.97 12.68-.23.01-.47.01-.7 0-6.62.21-12.17-4.99-12.38-11.61-.01-.24-.01-.47-.01-.71m18.87 0c-.12-3.59-3.12-6.4-6.71-6.29-3.59.12-6.4 3.12-6.29 6.71.11 3.51 2.99 6.29 6.5 6.29 3.59 0 6.5-2.92 6.49-6.51.02-.06.02-.13.01-.2m14-.26-8.5-11.55h7.11l5.05 7.28 5.18-7.28h7l-8.7 11.53 9.16 12.13h-7.06L227.53 48l-5.54 7.72h-7.07l9.03-12.11z"/><path fill="#20123A" d="m266.32 38.64-6.54 7.63v9.42h-3.58V23.86h3.58v17.88l15.26-17.88h4.45l-10.6 12.3 11.73 19.54h-4.23l-10.07-17.06zm17.84-17.31h3.58v34.36h-3.58V21.33zm8.07 27.91c0-4.84 4.1-7.63 10.68-7.63h7.46v-.92c0-3.58-2.31-5.97-6.89-5.97-3.53 0-5.89 1.48-7.5 3.97l-3.1-1.96c2.35-3.05 5.76-5.06 10.64-5.06 6.72 0 10.33 3.71 10.33 9.03v15h-3.49v-4.14c-2.09 2.88-5.71 4.62-9.77 4.62-5.62-.01-8.36-3.15-8.36-6.94zm18.14-1.53v-3.23h-7.28c-4.88 0-7.2 1.57-7.2 4.49 0 2.31 1.66 4.06 5.36 4.06 3.54 0 7.24-1.83 9.12-5.32zm9.02-15.57h3.45v4.45c1-3.14 3.36-4.8 6.72-4.8 1.61 0 3.01.31 3.92.87l-1.48 3.4c-.65-.44-1.61-.74-2.88-.74-3.92 0-6.19 2.27-6.19 7.46v12.91h-3.53V32.14z"/><linearGradient id="a" x1="74.4781" x2="7.4104" y1="738.711" y2="780.9582" gradientTransform="translate(0 -718)" gradientUnits="userSpaceOnUse"><stop offset="0" stop-color="#9658f9"/><stop offset=".13" stop-color="#9356f4"/><stop offset=".29" stop-color="#8951e5"/><stop offset=".46" stop-color="#7a49cd"/><stop offset=".64" stop-color="#643dab"/><stop offset=".82" stop-color="#492e81"/><stop offset="1" stop-color="#291d4f"/></linearGradient><path fill="url(#a)" d="M75.58 26.99c-1.69-4.05-5.1-8.43-7.78-9.81 2.18 4.27 3.44 8.56 3.93 11.76V29C67.35 18.08 59.91 13.68 53.84 4.09c-.31-.49-.61-.97-.92-1.49-.17-.29-.3-.55-.42-.8-.25-.49-.45-1-.58-1.53 0-.03-.01-.05-.02-.07-.02-.02-.04-.03-.06-.03-.02-.01-.05-.01-.07 0l-.02.01c-.01 0-.02.01-.03.01l.01-.02c-9.74 5.7-13.04 16.25-13.34 21.53-3.89.27-7.61 1.7-10.67 4.11-.32-.27-.66-.52-1-.76-.88-3.09-.92-6.36-.11-9.47-3.98 1.81-7.08 4.68-9.33 7.21h.01c-1.54-1.95-1.43-8.37-1.34-9.71-.02-.08-1.15.59-1.29.69-1.36.97-2.62 2.05-3.79 3.25-1.33 1.34-2.54 2.8-3.62 4.34-2.5 3.53-4.27 7.52-5.21 11.74-.02.08-.03.17-.05.26-.07.34-.34 2.05-.38 2.42v.08c-.34 1.76-.55 3.55-.63 5.35v.2c0 21.41 17.35 38.76 38.76 38.76 19.17 0 35.09-13.92 38.21-32.2.07-.49.12-.99.18-1.49.74-6.67-.13-13.66-2.55-19.49zM30.9 57.33c.18.09.35.18.54.26l.03.02c-.19-.09-.38-.19-.57-.28zm40.84-28.31v-.04.04z"/><radialGradient id="b" cx="-560.779" cy="-12.7938" r="1.3333" gradientTransform="matrix(-23.5301 55.8694 -59 -24.8486 -13885.1973 31025.3613)" gradientUnits="userSpaceOnUse"><stop offset="0" stop-color="#9658f9"/><stop offset=".65" stop-color="#291d4f"/></radialGradient><path fill="url(#b)" d="M75.58 26.99c-1.69-4.05-5.1-8.43-7.78-9.81 2.18 4.27 3.44 8.56 3.93 11.76v.08c3.66 9.91 1.66 20-1.21 26.16-4.44 9.53-15.2 19.3-32.02 18.83C20.32 73.49 4.3 60 1.31 42.32c-.55-2.79 0-4.2.27-6.46-.33 1.74-.46 2.25-.63 5.35v.2c0 21.41 17.35 38.76 38.76 38.76 19.17 0 35.09-13.92 38.21-32.2.07-.5.12-.99.18-1.49.77-6.67-.1-13.66-2.52-19.49z"/><radialGradient id="c" cx="-558.4169" cy="12.0649" r="1.3333" gradientTransform="translate(33860.1641 -680.7689) scale(60.5531)" gradientUnits="userSpaceOnUse"><stop offset=".25" stop-color="#ab71ff" stop-opacity="0"/><stop offset=".42" stop-color="#9462e0" stop-opacity=".18"/><stop offset=".73" stop-color="#573b8d" stop-opacity=".65"/><stop offset=".94" stop-color="#291d4f"/></radialGradient><path fill="url(#c)" d="M75.58 26.99c-1.69-4.05-5.1-8.43-7.78-9.81 2.18 4.27 3.44 8.56 3.93 11.76v.08c3.66 9.91 1.66 20-1.21 26.16-4.44 9.53-15.2 19.3-32.02 18.83C20.32 73.49 4.3 60 1.31 42.32c-.55-2.79 0-4.2.27-6.46-.33 1.74-.46 2.25-.63 5.35v.2c0 21.41 17.35 38.76 38.76 38.76 19.17 0 35.09-13.92 38.21-32.2.07-.5.12-.99.18-1.49.77-6.67-.1-13.66-2.52-19.49z"/><radialGradient id="d" cx="-554.6879" cy="16.3965" r="1.3333" gradientTransform="translate(24336.709 -719.2598) scale(43.7736)" gradientUnits="userSpaceOnUse"><stop offset=".18" stop-color="#9658f9"/><stop offset=".33" stop-color="#7e48ea"/><stop offset=".37" stop-color="#7542e5"/><stop offset=".41" stop-color="#6a3dd0"/><stop offset=".48" stop-color="#5332a2"/><stop offset=".56" stop-color="#41297e"/><stop offset=".63" stop-color="#342264"/><stop offset=".69" stop-color="#2c1e54"/><stop offset=".74" stop-color="#291d4f"/></radialGradient><path fill="url(#d)" d="m56.75 31.55.24.18c-.97-1.73-2.18-3.31-3.6-4.7C41.34 14.98 50.23.9 51.73.19l.01-.02C42 5.87 38.7 16.42 38.4 21.7c.45-.03.9-.07 1.36-.07 7.27 0 13.6 3.99 16.99 9.92z"/><radialGradient id="e" cx="-548.0447" cy="25.399" r="1.3333" gradientTransform="translate(15843.7744 -673.6136) scale(28.8575)" gradientUnits="userSpaceOnUse"><stop offset=".07" stop-color="#9358fc"/><stop offset=".13" stop-color="#9857f8"/><stop offset=".21" stop-color="#a755eb"/><stop offset=".3" stop-color="#bf52d7"/><stop offset=".39" stop-color="#e14eba"/><stop offset=".42" stop-color="#ef4caf"/><stop offset=".74" stop-color="#ff7583"/><stop offset=".97" stop-color="#ffb753"/></radialGradient><path fill="url(#e)" d="M39.87 33.95c-.06.96-3.47 4.29-4.66 4.29-11.02 0-12.81 6.67-12.81 6.67.49 5.62 4.4 10.24 9.13 12.69.22.11.43.21.65.31.38.17.76.32 1.14.47 1.62.57 3.32.9 5.04.97 19.32.91 23.06-23.1 9.12-30.07 3.57-.62 7.28.82 9.35 2.27-3.39-5.92-9.72-9.92-16.98-9.92-.46 0-.92.04-1.36.07-3.89.27-7.61 1.7-10.67 4.11.59.5 1.26 1.17 2.66 2.55 2.62 2.59 9.37 5.27 9.39 5.59z"/><radialGradient id="f" cx="-542.6939" cy="46.9772" r="1.3333" gradientTransform="matrix(14.8399 -3.6717 4.3134 17.4334 7888.7373 -2779.8347)" gradientUnits="userSpaceOnUse"><stop offset=".22" stop-color="#ffb653" stop-opacity=".3"/><stop offset=".34" stop-color="#ff807a" stop-opacity=".5"/><stop offset=".44" stop-color="#ff7781" stop-opacity=".48"/><stop offset=".57" stop-color="#ff5c94" stop-opacity=".43"/><stop offset=".64" stop-color="#ff4aa2" stop-opacity=".4"/><stop offset=".86" stop-color="#9658f9" stop-opacity=".3"/></radialGradient><path fill="url(#f)" d="M39.87 33.95c-.06.96-3.47 4.29-4.66 4.29-11.02 0-12.81 6.67-12.81 6.67.49 5.62 4.4 10.24 9.13 12.69.22.11.43.21.65.31.38.17.76.32 1.14.47 1.62.57 3.32.9 5.04.97 19.32.91 23.06-23.1 9.12-30.07 3.57-.62 7.28.82 9.35 2.27-3.39-5.92-9.72-9.92-16.98-9.92-.46 0-.92.04-1.36.07-3.89.27-7.61 1.7-10.67 4.11.59.5 1.26 1.17 2.66 2.55 2.62 2.59 9.37 5.27 9.39 5.59z"/><radialGradient id="g" cx="-540.0384" cy="34.7808" r="1.3333" gradientTransform="translate(11247.7734 -707.9966) scale(20.7439)" gradientUnits="userSpaceOnUse"><stop offset=".03" stop-color="#9658f9"/><stop offset=".62" stop-color="#7542e5"/><stop offset=".72" stop-color="#6339c2"/><stop offset=".93" stop-color="#37246b"/><stop offset="1" stop-color="#291d4f"/></radialGradient><path fill="url(#g)" d="M25.92 24.52c.31.2.57.37.8.53-.88-3.09-.92-6.36-.11-9.47-3.98 1.81-7.08 4.68-9.33 7.21.19 0 5.82-.11 8.64 1.73z"/><radialGradient id="h" cx="-561.3476" cy="-10.8628" r="1.3333" gradientTransform="matrix(-18.9321 82.9278 -65.0914 -14.8601 -11284.8926 46369.793)" gradientUnits="userSpaceOnUse"><stop offset=".2" stop-color="#ab71ff"/><stop offset=".29" stop-color="#a46bfc"/><stop offset=".41" stop-color="#9059f2"/><stop offset=".54" stop-color="#7542e5"/><stop offset=".64" stop-color="#6239bf"/><stop offset=".94" stop-color="#291d4f"/></radialGradient><path fill="url(#h)" d="M1.31 42.32C4.3 59.99 20.32 73.49 38.51 74c16.83.48 27.59-9.29 32.02-18.83 2.87-6.16 4.86-16.24 1.21-26.16v-.08.06c1.37 8.98-3.19 17.67-10.33 23.55l-.02.05c-13.91 11.33-27.22 6.83-29.92 4.99-.18-.09-.37-.18-.56-.28-8.11-3.88-11.46-11.27-10.74-17.6-6.85 0-9.18-5.78-9.18-5.78s6.15-4.38 14.25-.57c7.51 3.53 14.55.57 14.55.57-.01-.32-6.76-3-9.39-5.59-1.41-1.38-2.07-2.05-2.66-2.55-.32-.27-.66-.52-1-.76-.23-.16-.49-.33-.8-.53-2.83-1.84-8.45-1.74-8.63-1.73h-.01c-1.54-1.95-1.43-8.37-1.34-9.71-.02-.08-1.15.59-1.29.69-1.36.97-2.62 2.05-3.79 3.25-1.33 1.34-2.54 2.8-3.62 4.34-2.5 3.53-4.27 7.52-5.21 11.74-.05.11-1.42 6.13-.74 9.25z"/><radialGradient id="i" cx="-555.9852" cy="-11.7984" r="1.3333" gradientTransform="matrix(6.8048 64.4667 -42.375 4.4729 3335.4336 35909.9766)" gradientUnits="userSpaceOnUse"><stop offset=".09" stop-color="#9658f9"/><stop offset=".14" stop-color="#8c51f3"/><stop offset=".26" stop-color="#7542e5"/><stop offset=".29" stop-color="#6e3ed6"/><stop offset=".4" stop-color="#5533a6"/><stop offset=".5" stop-color="#422980"/><stop offset=".59" stop-color="#342365"/><stop offset=".67" stop-color="#2c1e55"/><stop offset=".74" stop-color="#291d4f"/></radialGradient><path fill="url(#i)" d="M53.39 27.03c1.41 1.39 2.62 2.97 3.6 4.7.21.16.41.32.58.47 8.79 8.1 4.18 19.55 3.84 20.37 7.14-5.89 11.71-14.58 10.33-23.55-4.38-10.94-11.81-15.34-17.88-24.93-.31-.49-.61-.97-.92-1.49-.17-.29-.31-.55-.43-.8-.25-.49-.45-1-.58-1.53 0-.03-.01-.05-.02-.07-.02-.02-.04-.03-.06-.03-.02-.01-.05-.01-.07 0l-.02.01c-.01 0-.02.01-.03.01-1.5.71-10.39 14.79 1.66 26.84z"/><radialGradient id="j" cx="-557.504" cy="13.1056" r="1.3333" gradientTransform="translate(30845.1582 -700.314) scale(55.2472)" gradientUnits="userSpaceOnUse"><stop offset="0" stop-color="#9658f9"/><stop offset=".12" stop-color="#9155f6"/><stop offset=".25" stop-color="#834cee"/><stop offset=".34" stop-color="#7542e5"/><stop offset=".78" stop-color="#291d4f"/></radialGradient><path fill="url(#j)" d="M57.57 32.2c-.17-.15-.37-.31-.58-.47l-.24-.18c-2.07-1.45-5.77-2.89-9.35-2.27 13.94 6.97 10.2 30.97-9.12 30.07-1.72-.07-3.42-.4-5.04-.97-.38-.14-.76-.3-1.14-.47-.22-.1-.44-.2-.65-.31l.03.02c2.7 1.84 16.01 6.33 29.92-4.99l.02-.05c.33-.84 4.93-12.28-3.85-20.38z"/><radialGradient id="k" cx="-558.3099" cy="12.0167" r="1.3333" gradientTransform="translate(33754.3281 -697.0847) scale(60.3433)" gradientUnits="userSpaceOnUse"><stop offset=".19" stop-color="#9658f9"/><stop offset=".49" stop-color="#834bed"/><stop offset=".66" stop-color="#7542e5"/><stop offset=".7" stop-color="#6b3dd2"/><stop offset=".79" stop-color="#52319f"/><stop offset=".91" stop-color="#291d4f"/></radialGradient><path fill="url(#k)" d="M22.31 44.91s1.79-6.67 12.81-6.67c1.19 0 4.6-3.32 4.66-4.29 0 0-7.05 2.96-14.55-.57-8.1-3.81-14.25.57-14.25.57s2.34 5.78 9.18 5.78c-.72 6.34 2.63 13.72 10.74 17.6.18.09.35.18.54.26-4.73-2.45-8.64-7.08-9.13-12.68z"/><linearGradient id="l" x1="69.6935" x2="14.9457" y1="730.2341" y2="784.9816" gradientTransform="translate(0 -718)" gradientUnits="userSpaceOnUse"><stop offset="0" stop-color="#9059ff" stop-opacity=".9"/><stop offset=".61" stop-color="#291d4f" stop-opacity="0"/></linearGradient><path fill="url(#l)" d="M75.58 26.99c-1.69-4.05-5.1-8.43-7.78-9.81 2.18 4.27 3.44 8.56 3.93 11.76V29C67.35 18.08 59.91 13.68 53.84 4.09c-.31-.49-.61-.97-.92-1.49-.17-.29-.3-.55-.42-.8-.25-.49-.45-1-.58-1.53 0-.03-.01-.05-.02-.07-.02-.02-.04-.03-.06-.03-.02-.01-.05-.01-.07 0l-.02.01c-.01 0-.02.01-.03.01l.01-.02c-9.74 5.7-13.04 16.25-13.34 21.53.45-.03.9-.07 1.36-.07 7.27 0 13.6 4 16.98 9.92-2.07-1.45-5.77-2.89-9.35-2.27 13.94 6.97 10.2 30.97-9.12 30.07-1.72-.07-3.42-.4-5.04-.97-.38-.14-.76-.3-1.14-.47-.22-.1-.44-.2-.65-.31l.03.02c-.18-.09-.37-.18-.56-.28.18.09.35.18.54.26-4.73-2.45-8.65-7.07-9.13-12.68 0 0 1.79-6.67 12.81-6.67 1.19 0 4.6-3.32 4.66-4.29-.01-.32-6.76-3-9.39-5.59-1.41-1.38-2.07-2.05-2.66-2.55-.32-.27-.66-.52-1-.76-.88-3.09-.92-6.36-.11-9.47-3.98 1.81-7.08 4.68-9.33 7.21-1.54-1.95-1.43-8.37-1.34-9.71-.02-.08-1.15.59-1.29.69-1.36.97-2.62 2.05-3.79 3.25-1.33 1.34-2.54 2.8-3.62 4.34-2.5 3.53-4.27 7.52-5.21 11.74-.02.08-.03.17-.05.26-.07.34-.4 2.07-.45 2.44-.3 1.79-.49 3.6-.57 5.41v.2c0 21.41 17.35 38.76 38.76 38.76 19.17 0 35.09-13.92 38.21-32.2.07-.49.12-.99.18-1.49.75-6.67-.12-13.66-2.54-19.5zm-3.84 1.99v.04-.04z"/></svg>
