<svg xmlns="http://www.w3.org/2000/svg" width="136" height="236" viewBox="0 0 136 236"><path fill="#fff" d="M14.31 144H30.4v4.35H18.92v5.9H30.4v4.31H18.92V168h-4.61v-24zm21.56-1.68c1.49 0 2.7 1.21 2.7 2.7 0 1.49-1.21 2.69-2.7 2.7-1.41.07-2.6-1.02-2.67-2.43v-.2c-.06-1.47 1.09-2.71 2.57-2.77h.13m-2.27 7.94h4.55V168H33.6l.03-17.74zm17.73 4.94c-.63-.5-1.41-.78-2.21-.79-1.84 0-2.9 1.19-2.9 3.79v9.8h-4.54v-17.76H46v2.57c.66-1.75 2.38-2.86 4.25-2.74 1.07 0 2.12.33 3 .93l-1.89 4.2zm1.88 4c-.14-5.02 3.82-9.21 8.85-9.35h.32c4.83-.21 8.92 3.54 9.13 8.38.01.23.01.46 0 .68v1.87H57.66c.47 2.3 2.57 3.9 4.92 3.73 1.86.07 3.58-.95 4.42-2.61l3.8 2.28c-1.83 2.79-5.02 4.4-8.35 4.21-5.77 0-9.23-3.85-9.23-9.16m4.52-2h9.36c-.47-2.2-2.5-3.7-4.74-3.52-2.18-.08-4.12 1.4-4.62 3.52m14.9-7h3.2v-.89c0-4.84 2-6.85 6.53-6.85h1.58v3.92h-1.29c-2.11 0-2.58.72-2.58 2.93v.89h3.86v4.08h-3.76V168h-4.35v-13.68h-3.2l.01-4.09zm12.17 8.89c-.08-5.03 3.94-9.17 8.97-9.25h.33c5.11-.17 9.39 3.84 9.56 8.95s-3.84 9.39-8.95 9.56c-.2.01-.41.01-.61 0-4.97.17-9.13-3.72-9.3-8.69-.01-.19-.01-.38 0-.57m14.18 0c-.09-2.69-2.35-4.8-5.05-4.71s-4.8 2.35-4.71 5.05c.09 2.63 2.25 4.71 4.87 4.71 2.7 0 4.89-2.19 4.89-4.89v-.15m10.56-.19-6.43-8.7h5.34l3.79 5.47 3.89-5.47h5.24l-6.53 8.66 6.86 9.13h-5.31l-4.25-5.8L108 168h-5.3l6.85-9.06z"/><path fill="#fff" d="m46.7 191.09-4.95 5.78V204h-2.71v-24.1h2.71v13.53L53.3 179.9h3.37l-8.02 9.31L57.53 204h-3.2l-7.63-12.91zm13.5-13.1h2.71V204H60.2v-26.01zm6.1 21.12c0-3.66 3.1-5.78 8.09-5.78h5.64v-.69c0-2.71-1.75-4.52-5.21-4.52-2.67 0-4.46 1.12-5.68 3l-2.34-1.49c1.78-2.31 4.36-3.83 8.05-3.83 5.08 0 7.82 2.81 7.82 6.83v11.35h-2.64v-3.14c-1.58 2.18-4.32 3.5-7.39 3.5-4.26.02-6.34-2.36-6.34-5.23zm13.73-1.16v-2.44h-5.51c-3.7 0-5.45 1.19-5.45 3.4 0 1.75 1.25 3.07 4.06 3.07 2.68 0 5.48-1.39 6.9-4.03zm6.84-11.78h2.61v3.37c.76-2.38 2.54-3.63 5.08-3.63 1.22 0 2.28.23 2.97.66l-1.12 2.57c-.5-.33-1.22-.56-2.18-.56-2.97 0-4.69 1.72-4.69 5.64v9.77h-2.67v-17.82z"/><linearGradient id="a" x1="120.1422" x2="19.8979" y1="749.3608" y2="812.5065" gradientTransform="translate(0 -718)" gradientUnits="userSpaceOnUse"><stop offset="0" stop-color="#9658f9"/><stop offset=".13" stop-color="#9356f4"/><stop offset=".29" stop-color="#8951e5"/><stop offset=".46" stop-color="#7a49cd"/><stop offset=".64" stop-color="#643dab"/><stop offset=".82" stop-color="#492e81"/><stop offset="1" stop-color="#291d4f"/></linearGradient><path fill="url(#a)" d="M121.79 40.74c-2.53-6.05-7.62-12.6-11.63-14.66 3.26 6.38 5.14 12.79 5.87 17.58v.09c-6.55-16.32-17.67-22.9-26.74-37.23-.46-.73-.91-1.45-1.38-2.23-.25-.43-.45-.82-.63-1.2-.37-.73-.67-1.49-.87-2.29 0-.04-.01-.07-.03-.1-.03-.03-.06-.04-.09-.04-.03-.01-.07-.01-.1 0l-.03.01c-.01 0-.03.01-.04.01l.01-.03C71.59 9.17 66.65 24.94 66.21 32.83c-5.81.4-11.37 2.54-15.95 6.14-.48-.4-.99-.78-1.49-1.14-1.32-4.62-1.38-9.51-.16-14.15-5.95 2.71-10.58 7-13.95 10.78h.01c-2.3-2.91-2.14-12.51-2-14.51-.03-.12-1.72.88-1.93 1.03-2.03 1.45-3.92 3.06-5.66 4.86-1.99 2-3.8 4.19-5.41 6.49-3.74 5.28-6.38 11.24-7.79 17.55-.03.12-.04.25-.07.39-.1.51-.51 3.06-.57 3.62V54c-.51 2.63-.82 5.31-.94 8v.3c0 32 25.93 57.93 57.93 57.93 28.65 0 52.45-20.81 57.11-48.13.1-.73.18-1.48.27-2.23 1.1-9.96-.2-20.4-3.82-29.13zM55.01 86.09c.27.13.52.27.81.39l.04.03c-.28-.14-.57-.29-.85-.42zm61.04-42.32v-.06.06z"/><radialGradient id="b" cx="-684.9047" cy="63.2931" r="1.9928" gradientTransform="matrix(-23.5301 55.8694 -59 -24.8486 -12275.8691 39857.6172)" gradientUnits="userSpaceOnUse"><stop offset="0" stop-color="#9658f9"/><stop offset=".65" stop-color="#291d4f"/></radialGradient><path fill="url(#b)" d="M121.79 40.74c-2.53-6.05-7.62-12.6-11.63-14.66 3.26 6.38 5.14 12.79 5.87 17.58v.12c5.47 14.81 2.48 29.89-1.81 39.1-6.64 14.24-22.72 28.85-47.86 28.14-27.17-.78-51.12-20.94-55.59-47.37-.82-4.17 0-6.28.4-9.66-.49 2.6-.69 3.36-.94 8v.3c0 32 25.93 57.93 57.93 57.93 28.65 0 52.45-20.81 57.11-48.13.1-.75.18-1.48.27-2.23 1.17-9.95-.13-20.39-3.75-29.12z"/><radialGradient id="c" cx="-677.8784" cy="89.1902" r="1.9928" gradientTransform="translate(41125.6445 -5325.9106) scale(60.5531)" gradientUnits="userSpaceOnUse"><stop offset=".25" stop-color="#ab71ff" stop-opacity="0"/><stop offset=".42" stop-color="#9462e0" stop-opacity=".18"/><stop offset=".73" stop-color="#573b8d" stop-opacity=".65"/><stop offset=".94" stop-color="#291d4f"/></radialGradient><path fill="url(#c)" d="M121.79 40.74c-2.53-6.05-7.62-12.6-11.63-14.66 3.26 6.38 5.14 12.79 5.87 17.58v.12c5.47 14.81 2.48 29.89-1.81 39.1-6.64 14.24-22.72 28.85-47.86 28.14-27.17-.78-51.12-20.94-55.59-47.37-.82-4.17 0-6.28.4-9.66-.49 2.6-.69 3.36-.94 8v.3c0 32 25.93 57.93 57.93 57.93 28.65 0 52.45-20.81 57.11-48.13.1-.75.18-1.48.27-2.23 1.17-9.95-.13-20.39-3.75-29.12z"/><radialGradient id="d" cx="-673.0662" cy="92.6066" r="1.9928" gradientTransform="translate(29555.0879 -4055.6008) scale(43.7736)" gradientUnits="userSpaceOnUse"><stop offset=".18" stop-color="#9658f9"/><stop offset=".33" stop-color="#7e48ea"/><stop offset=".37" stop-color="#7542e5"/><stop offset=".41" stop-color="#6a3dd0"/><stop offset=".48" stop-color="#5332a2"/><stop offset=".56" stop-color="#41297e"/><stop offset=".63" stop-color="#342264"/><stop offset=".69" stop-color="#2c1e54"/><stop offset=".74" stop-color="#291d4f"/></radialGradient><path fill="url(#d)" d="m93.65 47.55.36.27c-1.45-2.59-3.26-4.95-5.38-7.02C70.61 22.79 83.9 1.74 86.14.68l.01-.03C71.6 9.17 66.67 24.94 66.22 32.83c.67-.04 1.35-.1 2.03-.1 10.87 0 20.33 5.96 25.4 14.82z"/><radialGradient id="e" cx="-665.0215" cy="101.7272" r="1.9928" gradientTransform="translate(19242.3887 -2846.4985) scale(28.8575)" gradientUnits="userSpaceOnUse"><stop offset=".07" stop-color="#9358fc"/><stop offset=".13" stop-color="#9857f8"/><stop offset=".21" stop-color="#a755eb"/><stop offset=".3" stop-color="#bf52d7"/><stop offset=".39" stop-color="#e14eba"/><stop offset=".42" stop-color="#ef4caf"/><stop offset=".74" stop-color="#ff7583"/><stop offset=".97" stop-color="#ffb753"/></radialGradient><path fill="url(#e)" d="M68.42 51.14c-.09 1.43-5.19 6.41-6.97 6.41-16.47 0-19.15 9.97-19.15 9.97.73 8.4 6.58 15.31 13.65 18.97.33.16.64.31.97.46.57.25 1.14.48 1.7.7 2.42.85 4.96 1.35 7.53 1.45 28.88 1.36 34.47-34.53 13.63-44.94 5.34-.93 10.88 1.23 13.98 3.39-5.07-8.85-14.53-14.83-25.38-14.83-.69 0-1.38.06-2.03.1-5.81.4-11.37 2.54-15.95 6.14.88.75 1.88 1.75 3.98 3.81 3.92 3.89 14.01 7.89 14.04 8.37z"/><radialGradient id="f" cx="-654.2258" cy="123.6318" r="1.9928" gradientTransform="matrix(14.8399 -3.6717 4.3134 17.4334 9240.7598 -4509.5874)" gradientUnits="userSpaceOnUse"><stop offset=".22" stop-color="#ffb653" stop-opacity=".3"/><stop offset=".34" stop-color="#ff807a" stop-opacity=".5"/><stop offset=".44" stop-color="#ff7781" stop-opacity=".48"/><stop offset=".57" stop-color="#ff5c94" stop-opacity=".43"/><stop offset=".64" stop-color="#ff4aa2" stop-opacity=".4"/><stop offset=".86" stop-color="#9658f9" stop-opacity=".3"/></radialGradient><path fill="url(#f)" d="M68.42 51.14c-.09 1.43-5.19 6.41-6.97 6.41-16.47 0-19.15 9.97-19.15 9.97.73 8.4 6.58 15.31 13.65 18.97.33.16.64.31.97.46.57.25 1.14.48 1.7.7 2.42.85 4.96 1.35 7.53 1.45 28.88 1.36 34.47-34.53 13.63-44.94 5.34-.93 10.88 1.23 13.98 3.39-5.07-8.85-14.53-14.83-25.38-14.83-.69 0-1.38.06-2.03.1-5.81.4-11.37 2.54-15.95 6.14.88.75 1.88 1.75 3.98 3.81 3.92 3.89 14.01 7.89 14.04 8.37z"/><radialGradient id="g" cx="-654.6523" cy="109.3619" r="1.9928" gradientTransform="translate(13656.5293 -2248.0208) scale(20.7439)" gradientUnits="userSpaceOnUse"><stop offset=".03" stop-color="#9658f9"/><stop offset=".62" stop-color="#7542e5"/><stop offset=".72" stop-color="#6339c2"/><stop offset=".93" stop-color="#37246b"/><stop offset="1" stop-color="#291d4f"/></radialGradient><path fill="url(#g)" d="M47.57 37.05c.46.3.85.55 1.2.79-1.32-4.62-1.38-9.51-.16-14.15-5.95 2.71-10.58 7-13.95 10.78.28-.01 8.69-.17 12.91 2.58z"/><radialGradient id="h" cx="-684.7576" cy="65.16" r="1.9928" gradientTransform="matrix(-18.9321 82.9278 -65.0914 -14.8601 -8639.4795 57724.0742)" gradientUnits="userSpaceOnUse"><stop offset=".2" stop-color="#ab71ff"/><stop offset=".29" stop-color="#a46bfc"/><stop offset=".41" stop-color="#9059f2"/><stop offset=".54" stop-color="#7542e5"/><stop offset=".64" stop-color="#6239bf"/><stop offset=".94" stop-color="#291d4f"/></radialGradient><path fill="url(#h)" d="M10.78 63.65c4.47 26.41 28.41 46.59 55.6 47.35 25.16.72 41.24-13.89 47.86-28.14 4.29-9.21 7.26-24.27 1.81-39.1v-.12.09c2.05 13.42-4.77 26.41-15.44 35.2l-.03.07C79.79 95.94 59.9 89.21 55.86 86.46c-.27-.13-.55-.27-.84-.42-12.12-5.8-17.12-16.84-16.05-26.3-10.24 0-13.72-8.64-13.72-8.64s9.19-6.55 21.3-.85c11.23 5.27 21.75.85 21.75.85-.01-.48-10.1-4.48-14.03-8.36-2.11-2.06-3.09-3.06-3.98-3.81-.48-.4-.99-.78-1.49-1.14-.34-.24-.73-.49-1.2-.79-4.23-2.75-12.63-2.6-12.9-2.59h-.01c-2.3-2.91-2.14-12.51-2-14.51-.03-.12-1.72.88-1.93 1.03-2.03 1.45-3.92 3.06-5.66 4.86-1.99 2-3.8 4.19-5.41 6.49-3.74 5.28-6.38 11.24-7.79 17.55-.09.16-2.13 9.16-1.12 13.82z"/><radialGradient id="i" cx="-678.8107" cy="62.3745" r="1.9928" gradientTransform="matrix(6.8048 64.4667 -42.375 4.4729 7348.8691 43504.0273)" gradientUnits="userSpaceOnUse"><stop offset=".09" stop-color="#9658f9"/><stop offset=".14" stop-color="#8c51f3"/><stop offset=".26" stop-color="#7542e5"/><stop offset=".29" stop-color="#6e3ed6"/><stop offset=".4" stop-color="#5533a6"/><stop offset=".5" stop-color="#422980"/><stop offset=".59" stop-color="#342365"/><stop offset=".67" stop-color="#2c1e55"/><stop offset=".74" stop-color="#291d4f"/></radialGradient><path fill="url(#i)" d="M88.63 40.8c2.11 2.08 3.92 4.44 5.38 7.02.31.24.61.48.87.7 13.14 12.11 6.25 29.22 5.74 30.45 10.67-8.8 17.5-21.79 15.44-35.2-6.55-16.35-17.66-22.93-26.73-37.26-.46-.73-.91-1.45-1.38-2.23-.25-.43-.46-.82-.64-1.2-.37-.73-.67-1.49-.87-2.29 0-.04-.01-.07-.03-.1-.03-.03-.06-.04-.09-.04-.03-.01-.07-.01-.1 0l-.03.01c-.01 0-.03.01-.04.01-2.25 1.07-15.54 22.12 2.48 40.13z"/><radialGradient id="j" cx="-676.7366" cy="89.9136" r="1.9928" gradientTransform="translate(37463.3164 -4931.5957) scale(55.2472)" gradientUnits="userSpaceOnUse"><stop offset="0" stop-color="#9658f9"/><stop offset=".12" stop-color="#9155f6"/><stop offset=".25" stop-color="#834cee"/><stop offset=".34" stop-color="#7542e5"/><stop offset=".78" stop-color="#291d4f"/></radialGradient><path fill="url(#j)" d="M94.87 48.53c-.25-.22-.55-.46-.87-.7l-.36-.27c-3.09-2.17-8.62-4.32-13.98-3.39 20.84 10.42 15.25 46.29-13.63 44.94-2.57-.1-5.11-.6-7.53-1.45-.57-.21-1.14-.45-1.7-.7-.33-.15-.66-.3-.97-.46l.04.03c4.04 2.75 23.93 9.46 44.72-7.46l.03-.07c.5-1.25 7.38-18.37-5.75-30.47z"/><radialGradient id="k" cx="-677.6168" cy="88.9607" r="1.9928" gradientTransform="translate(40994.2109 -5325.8623) scale(60.3433)" gradientUnits="userSpaceOnUse"><stop offset=".19" stop-color="#9658f9"/><stop offset=".49" stop-color="#834bed"/><stop offset=".66" stop-color="#7542e5"/><stop offset=".7" stop-color="#6b3dd2"/><stop offset=".79" stop-color="#52319f"/><stop offset=".91" stop-color="#291d4f"/></radialGradient><path fill="url(#k)" d="M42.17 67.52s2.68-9.97 19.15-9.97c1.78 0 6.88-4.96 6.97-6.41 0 0-10.54 4.42-21.75-.85-12.11-5.69-21.3.85-21.3.85s3.5 8.64 13.72 8.64c-1.08 9.48 3.93 20.51 16.05 26.31.27.13.52.27.81.39-7.07-3.65-12.92-10.57-13.65-18.96z"/><linearGradient id="l" x1="112.9908" x2="31.1607" y1="736.6905" y2="818.5203" gradientTransform="translate(0 -718)" gradientUnits="userSpaceOnUse"><stop offset="0" stop-color="#9059ff" stop-opacity=".9"/><stop offset=".61" stop-color="#291d4f" stop-opacity="0"/></linearGradient><path fill="url(#l)" d="M121.79 40.74c-2.53-6.05-7.62-12.6-11.63-14.66 3.26 6.38 5.14 12.79 5.87 17.58v.09c-6.55-16.32-17.67-22.9-26.74-37.23-.46-.73-.91-1.45-1.38-2.23-.25-.43-.45-.82-.63-1.2-.37-.73-.67-1.49-.87-2.29 0-.04-.01-.07-.03-.1-.03-.03-.06-.04-.09-.04-.03-.01-.07-.01-.1 0l-.03.01c-.01 0-.03.01-.04.01l.01-.03C71.59 9.17 66.65 24.94 66.21 32.83c.67-.04 1.35-.1 2.03-.1 10.87 0 20.33 5.98 25.38 14.83-3.09-2.17-8.62-4.32-13.98-3.39 20.84 10.42 15.25 46.29-13.63 44.94-2.57-.1-5.11-.6-7.53-1.45-.57-.21-1.14-.45-1.7-.7-.33-.15-.66-.3-.97-.46l.04.03c-.27-.13-.55-.27-.84-.42.27.13.52.27.81.39-7.07-3.66-12.93-10.57-13.65-18.95 0 0 2.68-9.97 19.15-9.97 1.78 0 6.88-4.96 6.97-6.41-.01-.48-10.1-4.48-14.03-8.36-2.11-2.06-3.09-3.06-3.98-3.81-.48-.4-.99-.78-1.49-1.14-1.32-4.62-1.38-9.51-.16-14.15-5.95 2.71-10.58 7-13.95 10.78-2.3-2.91-2.14-12.51-2-14.51-.03-.12-1.72.88-1.93 1.03-2.03 1.45-3.92 3.06-5.66 4.86-1.99 2-3.8 4.19-5.41 6.49-3.74 5.28-6.38 11.24-7.79 17.55-.03.12-.04.25-.07.39-.1.51-.6 3.09-.67 3.65-.45 2.68-.73 5.38-.85 8.09v.3c0 32 25.93 57.93 57.93 57.93 28.65 0 52.45-20.81 57.11-48.13.1-.73.18-1.48.27-2.23 1.1-10-.2-20.44-3.82-29.17zm-5.74 2.97v.06-.06z"/></svg>
