<svg xmlns="http://www.w3.org/2000/svg" width="16" height="16" viewBox="0 0 16 16"><path fill="#d93175" d="M15.95 4.71c-.04-.85-.17-1.43-.37-1.94-.2-.53-.48-.97-.92-1.42-.4-.41-.88-.72-1.42-.92-.51-.2-1.09-.33-1.94-.37C10.44.02 10.17.01 8 .01s-2.45 0-3.3.04c-.85.04-1.43.18-1.94.37-.53.2-1.02.52-1.42.92-.41.4-.72.88-.92 1.42-.2.51-.33 1.09-.37 1.94C.01 5.56 0 5.83 0 8s.01 2.44.05 3.3c.04.85.17 1.43.37 1.94.2.53.52 1.02.92 1.42.4.41.88.72 1.42.92.51.2 1.09.33 1.94.37.85.04 1.13.05 3.3.05s2.45-.01 3.3-.05c.85-.04 1.43-.17 1.94-.37.53-.2 1.02-.52 1.42-.92.41-.4.72-.88.92-1.42.2-.51.33-1.09.37-1.94.04-.85.05-1.12.05-3.3s-.01-2.44-.05-3.29zm-1.44 6.52c-.04.78-.17 1.2-.28 1.48-.15.37-.32.64-.6.92-.28.28-.55.45-.92.6-.28.11-.71.24-1.48.28-.84.04-1.1.05-3.23.05-2.14 0-2.39-.01-3.23-.05-.78-.04-1.2-.17-1.48-.28-.37-.15-.64-.32-.92-.6-.28-.28-.45-.55-.6-.92-.11-.28-.24-.71-.28-1.48-.04-.84-.05-1.09-.05-3.23 0-2.14.01-2.39.05-3.23.04-.78.17-1.2.28-1.48.15-.37.32-.64.6-.92.28-.28.55-.45.92-.6.28-.11.71-.24 1.48-.28.84-.04 1.09-.04 3.23-.04 2.14 0 2.39.01 3.23.05.78.04 1.2.17 1.48.28.35.13.66.33.92.6.27.26.47.57.6.92.11.28.24.71.28 1.48.04.84.05 1.1.05 3.23-.01 2.13-.01 2.38-.05 3.22z"/><path fill="#d93175" d="M8 3.9c-2.22.03-4.01 1.82-4.05 4.04-.03 2.27 1.78 4.13 4.05 4.17h.13c2.27-.04 4.08-1.9 4.04-4.17C12.13 5.67 10.26 3.86 8 3.9zm0 6.77c-1.43-.03-2.59-1.18-2.61-2.61C5.35 6.58 6.52 5.37 8 5.34h.1c1.47.03 2.64 1.25 2.61 2.72S9.47 10.7 8 10.67z"/><circle fill="#d93175" cx="12.27" cy="3.73" r=".96"/></svg>
