<svg width="16" height="16" xmlns="http://www.w3.org/2000/svg"><g clip-path="url(#a)"><path d="M8 0C3.58 0 0 3.58 0 8s3.58 8 8 8 8-3.58 8-8-3.58-8-8-8ZM1.5 8c0-1.27.37-2.46 1.01-3.47l1.22 1.22v3.79l-.82 2.49A6.47 6.47 0 0 1 1.5 8Zm2.61 5.19 1.08-3.3.04-4.77-1.77-1.77A6.47 6.47 0 0 1 8 1.49c1.62 0 3.1.6 4.23 1.58l-1.74 1.38H7.24v5.14l2.2 2.33v2.41c-.47.11-.95.17-1.45.17-1.46 0-2.81-.49-3.89-1.31h.01Zm6.84.6v-2.46L8.75 9V5.96h2.27l2.23-1.77A6.461 6.461 0 0 1 14.5 8c0 2.52-1.45 4.71-3.55 5.79Z" fill="currentColor"/></g><defs><clipPath id="a"><path d="M0 0h16v16H0z"/></clipPath></defs></svg>