<svg xmlns="http://www.w3.org/2000/svg" width="16" height="16" viewBox="0 0 16 16"><g fill="currentColor"><path d="M8 2.506C4.236 2.506 1.053 4.818 0 8c1.053 3.181 4.236 5.494 8 5.494S14.947 11.181 16 8c-1.053-3.182-4.236-5.494-8-5.494m0 9.488c-2.819 0-5.375-1.62-6.397-3.994C2.625 5.625 5.181 4.006 8 4.006S13.375 5.626 14.397 8c-1.022 2.374-3.578 3.994-6.397 3.994"/><path fill-rule="evenodd" d="M7.999 6.5a1.5 1.5 0 1 0 0 3.002 1.5 1.5 0 0 0 0-3.002m-3 1.5a3 3 0 1 1 6 0 3 3 0 0 1-6 0" clip-rule="evenodd"/></g></svg>