<svg fill="none" height="16" viewBox="0 0 16 16" width="16" xmlns="http://www.w3.org/2000/svg" xmlns:xlink="http://www.w3.org/1999/xlink"><clipPath id="a"><path d="m0 0h16v16h-16z"/></clipPath><g clip-path="url(#a)"><path d="m8 0c-4.42 0-8 3.58-8 8s3.58 8 8 8 8-3.58 8-8-3.58-8-8-8zm6.45 7.25h-2.47c-.1-2.04-.58-3.86-1.29-5.16 2.03.93 3.5 2.86 3.76 5.16zm-6.45 7.25c-.93 0-2.3-2.26-2.48-5.75h4.96c-.18 3.49-1.55 5.75-2.48 5.75zm-2.48-7.25c.18-3.49 1.55-5.75 2.48-5.75s2.3 2.26 2.48 5.75zm-.21-5.16c-.72 1.31-1.2 3.12-1.29 5.16h-2.47c.27-2.3 1.74-4.23 3.76-5.16zm-3.76 6.66h2.47c.1 2.04.58 3.86 1.29 5.16-2.03-.93-3.5-2.86-3.76-5.16zm9.14 5.16c.72-1.31 1.2-3.12 1.29-5.16h2.47c-.27 2.3-1.74 4.23-3.76 5.16z" fill="#fff"/></g></svg>