<svg xmlns="http://www.w3.org/2000/svg" width="16" height="16"><g clip-path="url(#a)"><path fill="currentColor" d="M8 0C3.58 0 0 3.58 0 8s3.58 8 8 8 8-3.58 8-8-3.58-8-8-8m6.45 7.25h-2.47c-.1-2.04-.58-3.86-1.29-5.16 2.03.93 3.5 2.86 3.76 5.16M8 14.5c-.93 0-2.3-2.26-2.48-5.75h4.96C10.3 12.24 8.93 14.5 8 14.5M5.52 7.25C5.7 3.76 7.07 1.5 8 1.5s2.3 2.26 2.48 5.75zm-.21-5.16c-.72 1.31-1.2 3.12-1.29 5.16H1.55c.27-2.3 1.74-4.23 3.76-5.16M1.55 8.75h2.47c.1 2.04.58 3.86 1.29 5.16-2.03-.93-3.5-2.86-3.76-5.16m9.14 5.16c.72-1.31 1.2-3.12 1.29-5.16h2.47a6.53 6.53 0 0 1-3.76 5.16"/></g><defs><clipPath id="a"><path fill="#fff" d="M0 0h16v16H0z"/></clipPath></defs></svg>