<svg xmlns="http://www.w3.org/2000/svg" width="16" height="16" viewBox="0 0 16 16"><clipPath id="a"><path d="M0 0h16v16H0z"/></clipPath><g clip-path="url(#a)"><path fill="#fff" d="M14.8 8.25c.77-.77 1.2-1.8 1.2-2.9a4.094 4.094 0 0 0-4.1-4.1c-1.1 0-2.12.43-2.9 1.2L7.99 3.46 6.98 2.45c-.77-.77-1.8-1.2-2.9-1.2a4.094 4.094 0 0 0-4.1 4.1c0 1.1.43 2.12 1.2 2.9l6.8 6.8 6.8-6.8zM1.5 5.35c0-.7.27-1.35.76-1.83.49-.49 1.14-.76 1.84-.76s1.34.27 1.84.76l2.07 2.07 2.07-2.07c.98-.98 2.69-.98 3.67 0a2.595 2.595 0 0 1 0 3.67l-5.74 5.74-5.75-5.74c-.49-.49-.76-1.14-.76-1.84"/></g></svg>