<svg fill="none" height="16" viewBox="0 0 16 16" width="16" xmlns="http://www.w3.org/2000/svg" xmlns:xlink="http://www.w3.org/1999/xlink"><clipPath id="a"><path d="m0 0h16v16h-16z"/></clipPath><g clip-path="url(#a)"><path d="m14.8005 8.25c.77-.77 1.2-1.8 1.2-2.9s-.43-2.12-1.2-2.9c-.77-.77-1.8-1.2-2.9-1.2s-2.12003.43-2.90003 1.2l-1.01 1.01-1.01-1.01c-.77-.77-1.8-1.2-2.9-1.2s-2.12.43-2.9 1.2c-.770001.77-1.2000013 1.8-1.2000013 2.9s.4300003 2.12 1.2000013 2.9l6.8 6.8 6.80003-6.8zm-13.30003-2.9c0-.7.27-1.35.76-1.83.49-.49 1.14-.76 1.84-.76s1.34.27 1.84.76l2.07 2.07 2.07003-2.07c.98-.98 2.69-.98 3.67 0 .49.49.76 1.14.76 1.83s-.27 1.35-.76 1.84l-5.74003 5.74-5.75-5.74c-.49-.49-.76-1.14-.76-1.84z" fill="#fff"/></g></svg>