<svg width="24px" height="24px" viewBox="0 0 24 24" xmlns="http://www.w3.org/2000/svg">
  <g fill="none" fill-rule="evenodd" stroke="#000" stroke-linecap="round" stroke-width="1.83">
    <path stroke-linejoin="round" d="M12.94 6.33a12.85 12.85 0 0 0 .52 2c.24.7.5 1.23.74 1.47.24.23.76.5 1.47.74a14.13 14.13 0 0 0 2 .52L23 12l-5.33.86a12.52 12.52 0 0 0-2 .5c-.7.23-1.22.5-1.46.73-.23.23-.5.77-.75 1.48a14.42 14.42 0 0 0-.51 2.03L12 22.99l-.86-5.4a12.8 12.8 0 0 0-.5-2.03 4.15 4.15 0 0 0-.73-1.47c-.23-.24-.76-.5-1.47-.73a14.03 14.03 0 0 0-2.02-.5L1.02 12l5.38-.94a13.13 13.13 0 0 0 2.03-.51A4.28 4.28 0 0 0 9.9 9.8c.24-.24.5-.76.73-1.46a13.74 13.74 0 0 0 .5-2L12 1.01l.94 5.32Z"/>
    <path d="M2.91 5.57c.91 0 1.83-.9 1.83-1.82"/>
    <path d="M6.56 5.57c-.91 0-1.82-.9-1.82-1.82m1.82 1.82c-.91 0-1.82.92-1.82 1.83"/>
    <path d="M2.91 5.57c.91 0 1.83.92 1.83 1.83M2.91 18.35c.91 0 1.83-.91 1.83-1.82"/>
    <path d="M6.56 18.35c-.91 0-1.82-.91-1.82-1.82m1.82 1.82c-.91 0-1.82.91-1.82 1.83"/>
    <path d="M2.91 18.35c.91 0 1.83.91 1.83 1.83"/>
  </g>
</svg>
