<svg xmlns="http://www.w3.org/2000/svg" width="16" height="16" viewBox="0 0 16 16"><g fill="currentColor"><path d="M13.443 7.012c1.103-1.104 1.09-3.02-.172-4.282s-3.18-1.276-4.283-.173l-.861.862-1.061-1.06.862-.863c1.752-1.752 4.62-1.61 6.404.173s1.924 4.65.172 6.403l-.862.862-1.06-1.06z"/><path d="m12.03 5.03-7 7-1.06-1.06 7-7z"/><path d="m1.497 7.928.861-.862 1.061 1.06-.862.862c-1.103 1.104-1.09 3.02.173 4.283s3.179 1.275 4.282.172l.862-.862 1.06 1.06-.861.863c-1.753 1.752-4.62 1.61-6.404-.172-1.783-1.784-1.925-4.652-.172-6.404"/></g></svg>