<svg xmlns="http://www.w3.org/2000/svg" width="16" height="16" viewBox="0 0 16 16"><path fill="currentColor" d="M6 3H0v1.5h6zM8 7H0v1.5h8zM6 11H0v1.5h6zM11.057 13.165l-1.602-.408.397-1.56 1.603.408zM14.521 5.583c.131-.515.038-.947-.235-1.292-.276-.348-.744-.616-1.378-.777-.702-.18-1.266-.128-1.693.118-.426.246-.732.696-.899 1.347l-.07.276-1.386-.354.036-.097c.418-1.13.964-1.888 1.679-2.292s1.582-.443 2.619-.179c1.056.27 1.843.734 2.31 1.364.467.632.602 1.418.375 2.308l-.036.142c-.172.675-.47 1.187-.956 1.544-.482.356-1.14.55-2.02.616v.001c-.333.033-.573.108-.748.23a.9.9 0 0 0-.3.365l-.066.17-.32 1.073-.026.087-.87-.222.019-.09.294-1.333.036-.174c.093-.392.258-.695.518-.918.296-.253.703-.392 1.235-.457h.003c.579-.047.986-.17 1.27-.369.282-.196.452-.472.548-.846z"/></svg>