<svg xmlns="http://www.w3.org/2000/svg" xml:space="preserve" viewBox="0 0 136 208" width="136" height="208"><path fill="#000" d="M23.5 153.89h3.96v-11.54l5.74 10.46 5.72-10.46v11.54h3.99v-18.52h-3.99l-5.72 10.46-5.74-10.46H23.5v18.52zm29.96.32c4.13 0 7.58-3.34 7.58-7.31s-3.45-7.28-7.58-7.28c-4.15 0-7.63 3.32-7.63 7.28s3.48 7.31 7.63 7.31zm0-3.31c-2.1 0-3.86-1.83-3.86-3.99s1.75-3.96 3.86-3.96c2.08 0 3.83 1.81 3.83 3.96s-1.75 3.99-3.83 3.99zm9.63 2.99h12.19v-3.34h-7.06l7.01-7.82v-2.78H63.27v3.34h6.82l-7.01 7.82v2.78zm16.93-15.86c1.17-.02 2.11-.98 2.1-2.16-.02-1.15-.95-2.08-2.1-2.1-1.21 0-2.16 1-2.16 2.1.01 1.19.95 2.16 2.16 2.16zm-1.99 15.86h3.94v-13.94h-3.94v13.94zm7.37 0h3.94v-18.85H85.4v18.85zm7.37 0h3.94v-18.85h-3.94v18.85zm13.6-14.27c-1.94 0-3.85.54-5.82 1.54l1.32 2.62c1.11-.57 2.32-1 3.61-1 2.29 0 3.21 1.29 3.21 2.78v.27c-1.13-.45-2.34-.68-3.56-.7-3.24 0-5.8 1.89-5.8 4.64 0 2.67 2.29 4.45 5.26 4.45 1.51 0 3.1-.59 4.1-1.73v1.4h3.8v-8.33c.01-3.64-2.47-5.94-6.12-5.94zm-.88 11.87c-1.35 0-2.35-.7-2.35-1.83s1.13-1.97 2.56-1.97c1.08 0 2.1.19 2.99.51v1.29c-.27 1.3-1.69 2-3.2 2z"/><path fill="#000" d="m37.23 162.36-12.39 30.45-12.39-30.45H2l17.61 43.22H30l17.62-43.22H37.23zm15.48 43.22h9.25v-14.03h10.19c9.37 0 16.29-6.04 16.29-14.6s-6.92-14.6-16.29-14.6H52.71v43.23zm9.25-22.52v-12.21h9.18c4.59 0 7.74 2.39 7.74 6.1 0 3.71-3.14 6.1-7.74 6.1 0 .01-9.18.01-9.18.01zm32.66 22.52h9.25v-27.93l20.82 27.93H134v-43.22h-9.31v27.93l-20.82-27.93h-9.25v43.22z"/><path fill="#000" d="M122.09 46.22c-11.39-12.05-31.55-7.24-36.28 8.64H50.19c-.42-1.42-.99-2.79-1.7-4.09l9.27-9.27c6.58 3.56 14.53 3.45 21-.29 14.36-8.29 14.36-29.01.01-37.3-14.35-8.29-32.3 2.07-32.3 18.64-.01 3.58.88 7.1 2.59 10.25l-9.26 9.26c-4.66-2.52-10.08-3.23-15.23-2C8.44 43.9 2.52 63.76 13.91 75.81s31.54 7.24 36.28-8.64h35.62c.42 1.42.99 2.79 1.7 4.09l-9.27 9.27c-10.05-5.43-22.59-2.07-28.58 7.66-8.69 14.12 1.17 32.35 17.74 32.81 16.57.46 27.43-17.18 19.54-31.77l9.27-9.27c4.66 2.52 10.08 3.23 15.23 2 16.12-3.84 22.04-23.69 10.65-35.74zM68 13.33c3.3 0 6.34 1.76 7.99 4.62 3.55 6.15-.89 13.84-7.99 13.84-3.3 0-6.34-1.76-7.99-4.61-3.55-6.16.89-13.85 7.99-13.85zM29.55 70.24c-3.3 0-6.34-1.76-7.99-4.62-3.55-6.15.89-13.84 7.99-13.84 3.3 0 6.34 1.76 7.99 4.61 3.55 6.16-.89 13.85-7.99 13.85zm33.83 37.22c-2.85-1.65-4.61-4.69-4.61-7.99 0-7.1 7.69-11.54 13.84-7.99 2.86 1.65 4.61 4.69 4.62 7.99 0 7.1-7.69 11.54-13.85 7.99zm38.46-38.45c-2.86-1.65-4.62-4.69-4.62-7.99 0-7.1 7.69-11.54 13.84-7.99 2.86 1.65 4.61 4.7 4.61 7.99.01 7.1-7.68 11.54-13.83 7.99z"/></svg>
