<svg xmlns="http://www.w3.org/2000/svg" xml:space="preserve" viewBox="0 0 202 168" width="202" height="168"><path fill="#fff" d="M.35 167.57h5.06v-14.72l7.33 13.35 7.29-13.35v14.72h5.09v-23.63h-5.09l-7.29 13.35-7.33-13.34H.35v23.62zm38.22.42c5.26 0 9.66-4.26 9.66-9.32 0-5.06-4.4-9.29-9.66-9.29-5.3 0-9.73 4.23-9.73 9.29 0 5.05 4.43 9.31 9.73 9.32zm0-4.23c-2.68 0-4.92-2.34-4.92-5.09s2.24-5.06 4.92-5.06c2.65 0 4.88 2.3 4.88 5.06 0 2.75-2.23 5.09-4.88 5.09zm12.27 3.81h15.54v-4.27h-9.01l8.94-9.97v-3.54H51.08v4.26h8.7l-8.94 9.97v3.55zm21.61-20.22c1.5-.02 2.7-1.25 2.68-2.75-.03-1.47-1.21-2.66-2.68-2.68-1.55 0-2.75 1.27-2.75 2.68-.01 1.51 1.21 2.74 2.72 2.75h.03zm-2.54 20.22h5.02v-17.78h-5.02v17.78zm9.4 0h5.02v-24.04h-5.02v24.04zm9.4 0h5.02v-24.04h-5.02v24.04zm17.35-18.19c-2.47 0-4.92.69-7.43 1.96l1.68 3.34c1.41-.72 2.96-1.27 4.61-1.27 2.92 0 4.1 1.65 4.1 3.54v.34c-1.45-.57-2.99-.87-4.54-.9-4.13 0-7.39 2.41-7.39 5.92 0 3.4 2.92 5.68 6.71 5.68 1.93 0 3.96-.76 5.23-2.2v1.79h4.85v-10.63c-.01-4.65-3.17-7.57-7.82-7.57zm-1.13 15.13c-1.72 0-2.99-.9-2.99-2.34s1.44-2.51 3.27-2.51c1.37 0 2.68.24 3.82.65v1.65c-.35 1.66-2.17 2.55-4.1 2.55zm43.9-20.11-6.76 16.62-6.76-16.62h-5.7l9.61 23.59h5.67l9.62-23.59h-5.68zm8.45 23.59h5.05v-7.66h5.56c5.12 0 8.89-3.3 8.89-7.96 0-4.67-3.78-7.97-8.89-7.97h-10.61v23.59zm5.05-12.3v-6.66h5.01c2.51 0 4.22 1.3 4.22 3.33 0 2.03-1.72 3.33-4.22 3.33h-5.01zm17.82 12.3h5.05v-15.24l11.37 15.24h5.08V144.4h-5.08v15.24L185.2 144.4h-5.05v23.59z"/><path fill="#fff" d="M155.32 45.43c-11.44-12.1-31.68-7.28-36.44 8.68H83.11c-.42-1.42-1-2.8-1.71-4.11l9.31-9.31c6.6 3.57 14.59 3.46 21.09-.29 14.42-8.32 14.42-29.13.01-37.46C97.4-5.38 79.38 5.02 79.38 21.67c-.01 3.59.89 7.13 2.6 10.29l-9.3 9.3c-4.68-2.53-10.12-3.24-15.29-2.01-16.19 3.86-22.14 23.8-10.7 35.89 11.44 12.1 31.68 7.27 36.44-8.68h35.77c.42 1.42.99 2.8 1.7 4.11l-9.31 9.31c-10.09-5.46-22.69-2.08-28.7 7.69-8.72 14.18 1.17 32.48 17.81 32.95 16.64.47 27.54-17.26 19.63-31.9l9.31-9.31c4.68 2.53 10.12 3.24 15.29 2.01 16.18-3.86 22.13-23.8 10.69-35.89zM101 12.4c3.31 0 6.37 1.77 8.03 4.63 3.57 6.18-.89 13.9-8.03 13.9-3.31 0-6.37-1.77-8.03-4.63-3.56-6.18.9-13.9 8.03-13.9zM62.38 69.55c-3.31 0-6.37-1.77-8.03-4.63-3.57-6.18.89-13.9 8.03-13.9 3.31 0 6.37 1.77 8.03 4.63 3.57 6.18-.89 13.9-8.03 13.9zm33.99 37.37c-2.87-1.66-4.63-4.71-4.63-8.02 0-7.13 7.72-11.59 13.9-8.03 2.87 1.66 4.63 4.71 4.63 8.03 0 7.13-7.73 11.59-13.9 8.02zm38.61-38.61c-2.87-1.66-4.63-4.71-4.63-8.03 0-7.13 7.72-11.59 13.9-8.03 2.87 1.66 4.63 4.72 4.63 8.03 0 7.14-7.72 11.6-13.9 8.03z"/></svg>
