<svg xmlns="http://www.w3.org/2000/svg" xml:space="preserve" viewBox="0 0 367 80" width="367" height="80"><path fill="#000" d="M96.76 56.9h6.77V37.19l9.81 17.86 9.76-17.86V56.9h6.82V25.27h-6.82l-9.76 17.86-9.81-17.86h-6.77V56.9zm51.16.55c7.04 0 12.94-5.71 12.94-12.48 0-6.77-5.89-12.43-12.94-12.43-7.09 0-13.03 5.66-13.03 12.43s5.94 12.48 13.03 12.48zm0-5.66c-3.59 0-6.59-3.13-6.59-6.81 0-3.68 2.99-6.77 6.59-6.77 3.54 0 6.54 3.09 6.54 6.77 0 3.68-2.99 6.81-6.54 6.81zm16.43 5.11h20.81v-5.71H173.1l11.97-13.35V33.1h-20.4v5.71h11.65l-11.97 13.35v4.74zm28.93-27.08c2.01-.03 3.61-1.68 3.59-3.68-.04-1.97-1.62-3.56-3.59-3.59-2.07 0-3.68 1.7-3.68 3.59-.01 2.02 1.62 3.67 3.65 3.68h.03zm-3.41 27.08h6.72V33.09h-6.72V56.9zm12.59 0h6.72V24.71h-6.72V56.9zm12.59 0h6.72V24.71h-6.72V56.9zm23.22-24.36c-3.31 0-6.58.92-9.94 2.62l2.26 4.47c1.89-.97 3.96-1.7 6.17-1.7 3.91 0 5.48 2.21 5.48 4.74v.46c-1.94-.76-4-1.17-6.08-1.2-5.53 0-9.9 3.22-9.9 7.92 0 4.56 3.91 7.6 8.98 7.6 2.58 0 5.29-1.01 7-2.95v2.4h6.49V42.67c0-6.21-4.24-10.13-10.46-10.13zm-1.52 20.26c-2.3 0-4.01-1.2-4.01-3.13s1.93-3.36 4.38-3.36c1.84 0 3.59.32 5.11.87v2.21c-.46 2.21-2.9 3.41-5.48 3.41zm58.77-26.93-9.05 22.25-9.06-22.25h-7.63l12.87 31.58h7.58l12.87-31.58h-7.58zm11.31 31.58h6.76V47.2h7.45c6.85 0 11.9-4.41 11.9-10.66s-5.05-10.66-11.9-10.66h-14.2v31.57zM313.59 41v-8.92h6.71c3.36 0 5.65 1.75 5.65 4.46S323.65 41 320.3 41h-6.71zm23.86 16.45h6.76V37.04l15.21 20.41h6.8V25.87h-6.8v20.41L344.2 25.87h-6.76c.01 0 .01 31.58.01 31.58z"/><path fill="#000" d="M76.84 30.15c-7.59-8.03-21.03-4.83-24.19 5.76H28.9c-.28-.95-.66-1.86-1.13-2.73L33.95 27c4.38 2.37 9.69 2.3 14-.19 9.57-5.52 9.58-19.34.01-24.87-9.57-5.53-21.53 1.38-21.54 12.43 0 2.39.59 4.73 1.73 6.83l-6.18 6.17c-3.1-1.68-6.72-2.15-10.15-1.34C1.07 28.6-2.88 41.84 4.71 49.87c7.59 8.03 21.03 4.83 24.19-5.76h23.75c.28.95.66 1.86 1.13 2.73l-6.18 6.18c-6.7-3.62-15.06-1.38-19.05 5.1-5.79 9.41.78 21.56 11.83 21.87 11.04.31 18.28-11.45 13.02-21.17l6.18-6.18c3.1 1.68 6.72 2.15 10.15 1.34 10.75-2.57 14.7-15.8 7.11-23.83zM40.78 8.22c2.2 0 4.23 1.17 5.33 3.08 2.37 4.1-.59 9.23-5.33 9.23-2.2 0-4.23-1.17-5.33-3.08-2.37-4.1.59-9.23 5.33-9.23zM15.14 46.16c-2.2 0-4.23-1.17-5.33-3.08-2.37-4.1.59-9.23 5.33-9.23 2.2 0 4.23 1.17 5.33 3.08 2.37 4.1-.59 9.23-5.33 9.23zM37.7 70.97c-1.9-1.1-3.08-3.13-3.08-5.33 0-4.74 5.13-7.7 9.23-5.33 1.9 1.1 3.08 3.13 3.08 5.33 0 4.74-5.13 7.7-9.23 5.33zm25.64-25.63c-1.9-1.1-3.08-3.13-3.08-5.33 0-4.74 5.13-7.7 9.23-5.33 1.9 1.1 3.08 3.13 3.08 5.33-.01 4.74-5.13 7.69-9.23 5.33z"/></svg>
