<svg xmlns="http://www.w3.org/2000/svg" xml:space="preserve" viewBox="0 0 80 80" width="80" height="80"><path fill="#000" d="M76.07 30.15c-7.59-8.03-21.03-4.83-24.19 5.76H28.12c-.28-.95-.66-1.86-1.13-2.73L33.17 27c4.38 2.37 9.69 2.3 14-.19 9.57-5.52 9.58-19.34.01-24.87-9.57-5.53-21.54 1.38-21.54 12.43 0 2.39.59 4.73 1.73 6.83l-6.18 6.17c-3.1-1.68-6.72-2.15-10.15-1.34C.29 28.6-3.66 41.84 3.94 49.87c7.59 8.03 21.03 4.83 24.19-5.76h23.75c.28.95.66 1.86 1.13 2.73l-6.18 6.18c-6.7-3.62-15.06-1.38-19.06 5.11-5.79 9.41.78 21.56 11.83 21.87 11.05.31 18.29-11.46 13.03-21.18l6.18-6.18c3.1 1.68 6.72 2.15 10.15 1.34 10.75-2.56 14.7-15.8 7.11-23.83zM40 8.22c2.2 0 4.23 1.17 5.33 3.08 2.37 4.1-.59 9.23-5.33 9.23-2.2 0-4.23-1.17-5.33-3.08-2.37-4.1.59-9.23 5.33-9.23zM14.36 46.16c-2.2 0-4.23-1.17-5.33-3.08-2.37-4.1.59-9.23 5.33-9.23 2.2 0 4.23 1.17 5.33 3.08 2.37 4.1-.59 9.23-5.33 9.23zm22.56 24.81c-1.9-1.1-3.08-3.13-3.08-5.33 0-4.74 5.13-7.7 9.23-5.33 1.9 1.1 3.08 3.13 3.08 5.33 0 4.74-5.12 7.7-9.23 5.33zm25.64-25.63c-1.9-1.1-3.08-3.13-3.08-5.33 0-4.74 5.13-7.7 9.23-5.33 1.9 1.1 3.08 3.13 3.08 5.33 0 4.74-5.13 7.7-9.23 5.33z"/></svg>
