<svg xmlns="http://www.w3.org/2000/svg" width="220" height="80" viewBox="0 0 220 80"><defs><linearGradient id="a" x1="54.419" x2="16.72" y1="9.758" y2="75.055" gradientUnits="userSpaceOnUse"><stop offset="0" stop-color="#ff9640"/><stop offset=".6" stop-color="#fc4055"/><stop offset="1" stop-color="#e31587"/></linearGradient><linearGradient id="b" x1="54.419" x2="16.72" y1="9.758" y2="75.055" gradientUnits="userSpaceOnUse"><stop offset="0" stop-color="#fff36e" stop-opacity=".8"/><stop offset=".094" stop-color="#fff36e" stop-opacity=".699"/><stop offset=".752" stop-color="#fff36e" stop-opacity="0"/></linearGradient><linearGradient id="c" x1="35.583" x2="67.226" y1="53.055" y2="21.412" gradientUnits="userSpaceOnUse"><stop offset="0" stop-color="#0090ed"/><stop offset=".325" stop-color="#5b6df8"/><stop offset=".529" stop-color="#9059ff"/><stop offset="1" stop-color="#b833e1"/></linearGradient><linearGradient id="d" x1="46.271" x2="51.587" y1="56.809" y2="63.145" gradientUnits="userSpaceOnUse"><stop offset="0" stop-color="#960e18" stop-opacity=".6"/><stop offset=".192" stop-color="#ac1624" stop-opacity=".476"/><stop offset=".579" stop-color="#e42c41" stop-opacity=".156"/><stop offset=".75" stop-color="#ff3750" stop-opacity="0"/></linearGradient><linearGradient id="e" x1="60.476" x2="74.703" y1="70.615" y2="33.486" gradientUnits="userSpaceOnUse"><stop offset="0" stop-color="#054096" stop-opacity=".5"/><stop offset=".054" stop-color="#0f3d9c" stop-opacity=".441"/><stop offset=".261" stop-color="#2f35b1" stop-opacity=".249"/><stop offset=".466" stop-color="#462fbf" stop-opacity=".111"/><stop offset=".669" stop-color="#542bc8" stop-opacity=".028"/><stop offset=".864" stop-color="#592acb" stop-opacity="0"/></linearGradient><linearGradient id="f" x1="41.912" x2="74.239" y1="5.95" y2="33.449" gradientUnits="userSpaceOnUse"><stop offset="0" stop-color="#722291" stop-opacity=".5"/><stop offset=".5" stop-color="#722291" stop-opacity="0"/></linearGradient><symbol id="g" data-name="Icon 80 (Full Color)" viewBox="0 0 74 79.866"><path fill="url(#a)" d="m69.363 16.646-28-15.518a9 9 0 0 0-8.726 0l-28 15.518A9 9 0 0 0 0 24.518v30.83a9 9 0 0 0 4.309 7.681l26.606 16.248a4 4 0 0 0 5.617-1.536 4.132 4.132 0 0 0-1.614-5.394L9.436 56.786A3 3 0 0 1 8 54.226V25.7a3 3 0 0 1 1.546-2.624l26-14.41a3 3 0 0 1 2.908 0l26 14.41A3 3 0 0 1 66 25.7v28.513a3 3 0 0 1-1.444 2.565l-9.233 5.6-4.278-6.948a21.106 21.106 0 1 0-6.845 4.135l6.4 10.394a4 4 0 0 0 5.482 1.324l13.594-8.25A9 9 0 0 0 74 55.339V24.518a9 9 0 0 0-4.637-7.872zM24 39.863a13 13 0 1 1 13 13 13.015 13.015 0 0 1-13-13z"/><path fill="url(#b)" d="m69.363 16.646-28-15.518a9 9 0 0 0-8.726 0l-28 15.518A9 9 0 0 0 0 24.518v30.83a9 9 0 0 0 4.309 7.681l26.606 16.248a4 4 0 0 0 5.617-1.536 4.132 4.132 0 0 0-1.614-5.394L9.436 56.786A3 3 0 0 1 8 54.226V25.7a3 3 0 0 1 1.546-2.624l26-14.41a3 3 0 0 1 2.908 0l26 14.41A3 3 0 0 1 66 25.7v28.513a3 3 0 0 1-1.444 2.565l-9.233 5.6-4.278-6.948a21.106 21.106 0 1 0-6.845 4.135l6.4 10.394a4 4 0 0 0 5.482 1.324l13.594-8.25A9 9 0 0 0 74 55.339V24.518a9 9 0 0 0-4.637-7.872zM24 39.863a13 13 0 1 1 13 13 13.015 13.015 0 0 1-13-13z"/><path fill="url(#c)" d="M40.868 5.673a8.875 8.875 0 0 1 8.651-.024l.8.443 19.044 10.554A9 9 0 0 1 74 24.518v30.821a9 9 0 0 1-4.331 7.694l-5.161 3.132a5.863 5.863 0 0 1-8.018-1.912l-1.167-1.872 9.233-5.6A3 3 0 0 0 66 54.213V25.7a3 3 0 0 0-1.546-2.624l-26-14.41a3 3 0 0 0-2.908 0z"/><path fill="url(#d)" d="M48.447 66.471 44.2 59.565a20.985 20.985 0 0 0 6.848-4.135l4.278 6.951z" opacity=".9"/><path fill="url(#e)" d="M66 54.213a3 3 0 0 1-1.444 2.565l-9.233 5.6 1.167 1.872a5.863 5.863 0 0 0 8.018 1.912l5.161-3.132A9 9 0 0 0 74 55.339v-16.01h-8z" opacity=".9"/><path fill="url(#f)" d="M69.363 16.646 50.32 6.092l-.8-.443a8.875 8.875 0 0 0-8.651.024l-5.322 2.99a3 3 0 0 1 2.908 0l26 14.41A3 3 0 0 1 66 25.7v13.629h8V24.518a9 9 0 0 0-4.637-7.872z"/></symbol></defs><use width="74" height="79.866" data-name="Icon 80 (Full Color)" href="#g" transform="translate(3)"/><path d="M96 68.138V44.089h3.536l8.438 15.717 8.437-15.717h3.533v24.049h-3.533V51.022l-8.437 15.716-8.438-15.716v17.116H96Zm37.352.419c-5.182 0-9.558-4.34-9.558-9.485s4.376-9.452 9.558-9.452c5.145 0 9.486 4.307 9.486 9.452s-4.341 9.485-9.486 9.485Zm0-3.01c3.254 0 6.019-2.94 6.019-6.475 0-3.502-2.765-6.442-6.019-6.442-3.327 0-6.092 2.94-6.092 6.442 0 3.535 2.765 6.475 6.092 6.475Zm21.994-15.927c3.994 0 6.794 2.905 6.794 7.001v11.517h-3.396V57.215c0-2.693-1.715-4.585-4.165-4.585-2.521 0-4.693 1.644-4.972 3.782v11.726h-3.466V50.039h3.466v2.625c1.085-1.785 3.29-3.044 5.739-3.044Zm12.716-2.591a2.107 2.107 0 0 1-2.099-2.101c0-1.085.912-2.065 2.099-2.065 1.12 0 2.065.98 2.065 2.065 0 1.122-.945 2.101-2.065 2.101Zm-1.749 21.109V50.039h3.466v18.099h-3.466Zm16.199-3.255 1.262 2.379a5.824 5.824 0 0 1-3.607 1.295c-2.798 0-4.76-2.028-4.76-4.934V52.98h-2.731v-2.941h2.731v-4.971h3.395v4.971h4.271v2.941h-4.271v10.397c0 1.261.84 2.17 1.855 2.17.771 0 1.47-.281 1.855-.664Zm12.618 3.674c-5.179 0-9.557-4.34-9.557-9.485s4.378-9.452 9.557-9.452c5.147 0 9.488 4.307 9.488 9.452s-4.341 9.485-9.488 9.485Zm0-3.01c3.257 0 6.023-2.94 6.023-6.475 0-3.502-2.766-6.442-6.023-6.442-3.323 0-6.09 2.94-6.09 6.442 0 3.535 2.767 6.475 6.09 6.475Zm16.434-12.042c1.156-2.38 3.606-3.885 6.721-3.885v3.01c-3.747 0-6.406 2.065-6.721 5.216v10.292h-3.466V50.039h3.466v3.466ZM96 35.934V11.885h5.148l7.456 13.581 7.42-13.581h5.181v24.049h-5.181V20.951l-7.42 13.583-7.456-13.583v14.983H96Zm38.648.419c-5.391 0-9.907-4.34-9.907-9.485s4.516-9.452 9.907-9.452c5.356 0 9.836 4.307 9.836 9.452s-4.48 9.485-9.836 9.485Zm0-4.306c2.696 0 4.971-2.38 4.971-5.179 0-2.801-2.275-5.145-4.971-5.145-2.731 0-5.006 2.344-5.006 5.145 0 2.799 2.275 5.179 5.006 5.179Zm12.239 3.887v-3.607l9.101-10.153h-8.856v-4.339h15.509v3.606l-9.104 10.153h9.174v4.34h-15.824ZM168.63 15.35a2.786 2.786 0 0 1-2.8-2.8c0-1.435 1.224-2.731 2.8-2.731 1.506 0 2.73 1.296 2.73 2.731 0 1.539-1.224 2.8-2.73 2.8Zm-2.591 20.584V17.835h5.111v18.099h-5.111Zm9.324 0v-24.47h5.111v24.47h-5.111Zm9.321 0v-24.47h5.11v24.47h-5.11Zm17.408-18.518c4.724 0 7.946 2.976 7.946 7.701v10.817h-4.936v-1.821c-1.296 1.47-3.361 2.24-5.321 2.24-3.85 0-6.825-2.309-6.825-5.776 0-3.57 3.323-6.021 7.526-6.021 1.47 0 3.081.316 4.62.91v-.349c0-1.926-1.19-3.606-4.165-3.606-1.682 0-3.256.559-4.692 1.296l-1.715-3.396c2.555-1.296 5.041-1.995 7.562-1.995Zm-1.155 15.402c1.96 0 3.815-.911 4.165-2.591v-1.68a11.459 11.459 0 0 0-3.885-.664c-1.856 0-3.326 1.085-3.326 2.554 0 1.47 1.294 2.381 3.046 2.381Z" style="fill:#fff"/></svg>