<svg xmlns="http://www.w3.org/2000/svg" width="244" height="172" viewBox="0 0 244 172"><defs><linearGradient id="a" x1="54.419" x2="16.72" y1="9.758" y2="75.055" gradientUnits="userSpaceOnUse"><stop offset="0" stop-color="#ff9640"/><stop offset=".6" stop-color="#fc4055"/><stop offset="1" stop-color="#e31587"/></linearGradient><linearGradient id="b" x1="54.419" x2="16.72" y1="9.758" y2="75.055" gradientUnits="userSpaceOnUse"><stop offset="0" stop-color="#fff36e" stop-opacity=".8"/><stop offset=".094" stop-color="#fff36e" stop-opacity=".699"/><stop offset=".752" stop-color="#fff36e" stop-opacity="0"/></linearGradient><linearGradient id="c" x1="35.583" x2="67.226" y1="53.055" y2="21.412" gradientUnits="userSpaceOnUse"><stop offset="0" stop-color="#0090ed"/><stop offset=".325" stop-color="#5b6df8"/><stop offset=".529" stop-color="#9059ff"/><stop offset="1" stop-color="#b833e1"/></linearGradient><linearGradient id="d" x1="46.271" x2="51.587" y1="56.809" y2="63.145" gradientUnits="userSpaceOnUse"><stop offset="0" stop-color="#960e18" stop-opacity=".6"/><stop offset=".192" stop-color="#ac1624" stop-opacity=".476"/><stop offset=".579" stop-color="#e42c41" stop-opacity=".156"/><stop offset=".75" stop-color="#ff3750" stop-opacity="0"/></linearGradient><linearGradient id="e" x1="60.476" x2="74.703" y1="70.615" y2="33.486" gradientUnits="userSpaceOnUse"><stop offset="0" stop-color="#054096" stop-opacity=".5"/><stop offset=".054" stop-color="#0f3d9c" stop-opacity=".441"/><stop offset=".261" stop-color="#2f35b1" stop-opacity=".249"/><stop offset=".466" stop-color="#462fbf" stop-opacity=".111"/><stop offset=".669" stop-color="#542bc8" stop-opacity=".028"/><stop offset=".864" stop-color="#592acb" stop-opacity="0"/></linearGradient><linearGradient id="f" x1="41.912" x2="74.239" y1="5.95" y2="33.449" gradientUnits="userSpaceOnUse"><stop offset="0" stop-color="#722291" stop-opacity=".5"/><stop offset=".5" stop-color="#722291" stop-opacity="0"/></linearGradient><symbol id="i" data-name="Icon 80 (Full Color)" viewBox="0 0 74 79.866"><path fill="url(#a)" d="m69.363 16.646-28-15.518a9 9 0 0 0-8.726 0l-28 15.518A9 9 0 0 0 0 24.518v30.83a9 9 0 0 0 4.309 7.681l26.606 16.248a4 4 0 0 0 5.617-1.536 4.132 4.132 0 0 0-1.614-5.394L9.436 56.786A3 3 0 0 1 8 54.226V25.7a3 3 0 0 1 1.546-2.624l26-14.41a3 3 0 0 1 2.908 0l26 14.41A3 3 0 0 1 66 25.7v28.513a3 3 0 0 1-1.444 2.565l-9.233 5.6-4.278-6.948a21.106 21.106 0 1 0-6.845 4.135l6.4 10.394a4 4 0 0 0 5.482 1.324l13.594-8.25A9 9 0 0 0 74 55.339V24.518a9 9 0 0 0-4.637-7.872zM24 39.863a13 13 0 1 1 13 13 13.015 13.015 0 0 1-13-13z"/><path fill="url(#b)" d="m69.363 16.646-28-15.518a9 9 0 0 0-8.726 0l-28 15.518A9 9 0 0 0 0 24.518v30.83a9 9 0 0 0 4.309 7.681l26.606 16.248a4 4 0 0 0 5.617-1.536 4.132 4.132 0 0 0-1.614-5.394L9.436 56.786A3 3 0 0 1 8 54.226V25.7a3 3 0 0 1 1.546-2.624l26-14.41a3 3 0 0 1 2.908 0l26 14.41A3 3 0 0 1 66 25.7v28.513a3 3 0 0 1-1.444 2.565l-9.233 5.6-4.278-6.948a21.106 21.106 0 1 0-6.845 4.135l6.4 10.394a4 4 0 0 0 5.482 1.324l13.594-8.25A9 9 0 0 0 74 55.339V24.518a9 9 0 0 0-4.637-7.872zM24 39.863a13 13 0 1 1 13 13 13.015 13.015 0 0 1-13-13z"/><path fill="url(#c)" d="M40.868 5.673a8.875 8.875 0 0 1 8.651-.024l.8.443 19.044 10.554A9 9 0 0 1 74 24.518v30.821a9 9 0 0 1-4.331 7.694l-5.161 3.132a5.863 5.863 0 0 1-8.018-1.912l-1.167-1.872 9.233-5.6A3 3 0 0 0 66 54.213V25.7a3 3 0 0 0-1.546-2.624l-26-14.41a3 3 0 0 0-2.908 0z"/><path fill="url(#d)" d="M48.447 66.471 44.2 59.565a20.985 20.985 0 0 0 6.848-4.135l4.278 6.951z" opacity=".9"/><path fill="url(#e)" d="M66 54.213a3 3 0 0 1-1.444 2.565l-9.233 5.6 1.167 1.872a5.863 5.863 0 0 0 8.018 1.912l5.161-3.132A9 9 0 0 0 74 55.339v-16.01h-8z" opacity=".9"/><path fill="url(#f)" d="M69.363 16.646 50.32 6.092l-.8-.443a8.875 8.875 0 0 0-8.651.024l-5.322 2.99a3 3 0 0 1 2.908 0l26 14.41A3 3 0 0 1 66 25.7v13.629h8V24.518a9 9 0 0 0-4.637-7.872z"/></symbol><symbol id="g" data-name="Wordmark - Firefox" viewBox="0 0 143.009 34.775"><path fill="#20123a" d="M0 2.239h21.427v5.8H6.147V15.9h15.28v5.752H6.147v12.64H0zM28.716 0a3.448 3.448 0 0 1 3.557 3.6 3.434 3.434 0 0 1-3.6 3.6 3.4 3.4 0 0 1-3.556-3.513A3.555 3.555 0 0 1 28.716 0zm-3.03 10.582h6.06v23.71h-6.06zm23.623 6.586a4.894 4.894 0 0 0-2.942-1.054c-2.459 0-3.864 1.581-3.864 5.05v13.128h-6.015v-23.71h5.752v3.425a5.649 5.649 0 0 1 5.66-3.645 7.184 7.184 0 0 1 4.04 1.23zm2.5 5.4A12.129 12.129 0 0 1 64.018 10.1c7.113 0 12.163 5.049 12.163 12.075v2.5H57.739c.659 2.986 2.986 4.962 6.543 4.962a6.353 6.353 0 0 0 5.883-3.513l5.05 3.03c-2.5 3.688-6.059 5.62-11.109 5.62-7.684.001-12.294-5.136-12.294-12.205zm6.015-2.679H70.3c-.658-3.029-3.117-4.7-6.323-4.7a6.091 6.091 0 0 0-6.15 4.701zm19.847-9.308h4.259V9.4c0-6.454 2.722-9.133 8.694-9.133h2.107v5.222h-1.709c-2.81 0-3.425.966-3.425 3.907v1.186h5.137v5.445h-5v18.265h-5.8V16.027h-4.26zm16.2 11.855A12.139 12.139 0 0 1 106.258 10.1a12.338 12.338 0 1 1 0 24.676 11.959 11.959 0 0 1-12.382-12.339zm18.88 0a6.5 6.5 0 1 0-13 0 6.5 6.5 0 1 0 13 0zm14.051-.263-8.562-11.592h7.113l5.05 7.289 5.181-7.289h6.981l-8.689 11.549 9.133 12.162h-7.069l-5.664-7.728-5.489 7.728h-7.069z"/></symbol><symbol id="h" data-name="Wordmark" viewBox="0 0 159.16 34.389"><path fill="#20123a" d="M15.04 17.59 3.65 1.8H0v32.1h3.606V7.827L15 23.307 26.782 7.476v26.429h3.562V1.8H26.87zM47.1 9.675a12.192 12.192 0 0 0-12.311 12.357 12.335 12.335 0 1 0 24.67 0A12.2 12.2 0 0 0 47.1 9.675zm0 21.284a8.607 8.607 0 0 1-8.664-8.927 8.691 8.691 0 1 1 17.372 0 8.642 8.642 0 0 1-8.708 8.927zM75.557 9.675a9.493 9.493 0 0 0-8.268 4.441v-3.958h-3.518v23.747h3.606V20.713a7.411 7.411 0 0 1 7.476-7.784c4.617 0 7.168 2.99 7.168 7.607v13.369h3.65V20.36c0-6.639-3.914-10.685-10.114-10.685zm15.3 24.23h3.651V10.158h-3.646zM92.666 0a2.788 2.788 0 0 0-2.814 2.858 2.836 2.836 0 1 0 5.672 0A2.772 2.772 0 0 0 92.666 0zM110.3 30.871c-2.023 0-3.43-1.187-3.43-4.222V13.368h6.947v-3.21h-6.947V2.639l-3.562 2.286v5.233H98.69v3.21h4.618v13.369c0 5.234 2.375 7.52 6.728 7.52a7.618 7.618 0 0 0 4.881-1.671l-1.891-2.858a3.828 3.828 0 0 1-2.726 1.143zm17.987-21.2a12.192 12.192 0 0 0-12.312 12.357 12.335 12.335 0 1 0 24.67 0 12.2 12.2 0 0 0-12.358-12.353zm0 21.284a8.606 8.606 0 0 1-8.663-8.927 8.69 8.69 0 1 1 17.371 0 8.642 8.642 0 0 1-8.708 8.931zM155.2 9.807a6.575 6.575 0 0 0-6.772 4.837v-4.486h-3.475v23.747h3.563V20.889c0-5.234 2.286-7.521 6.244-7.521a5.207 5.207 0 0 1 2.9.748l1.5-3.429a7.744 7.744 0 0 0-3.96-.88z"/></symbol></defs><use width="74" height="79.866" data-name="Icon 80 (Full Color)" href="#i" transform="matrix(1.5 0 0 1.5 66.5 .205)"/><path d="M1.789 168.602V145.54h4.935l7.149 13.024 7.117-13.024h4.969v23.062H20.99v-14.367l-7.117 13.024-7.149-13.024v14.367H1.789Zm37.06.402c-5.17 0-9.499-4.163-9.499-9.097 0-4.934 4.329-9.064 9.499-9.064 5.137 0 9.433 4.13 9.433 9.064s-4.296 9.097-9.433 9.097Zm0-4.129c2.585 0 4.767-2.283 4.767-4.968 0-2.686-2.182-4.934-4.767-4.934-2.617 0-4.8 2.248-4.8 4.934 0 2.685 2.183 4.968 4.8 4.968Zm11.737 3.727v-3.458l8.728-9.735h-8.493v-4.162h14.87v3.457l-8.727 9.735h8.794v4.163H50.586Zm20.849-19.738a2.672 2.672 0 0 1-2.685-2.686c0-1.376 1.174-2.618 2.685-2.618 1.443 0 2.619 1.242 2.619 2.618 0 1.477-1.176 2.686-2.619 2.686Zm-2.484 19.738v-17.355h4.901v17.355h-4.901Zm8.941 0v-23.465h4.9v23.465h-4.9Zm8.937 0v-23.465h4.902v23.465h-4.902Zm16.693-17.759c4.532 0 7.621 2.854 7.621 7.386v10.373h-4.733v-1.746c-1.243 1.41-3.223 2.148-5.103 2.148-3.693 0-6.546-2.215-6.546-5.539 0-3.423 3.189-5.773 7.218-5.773 1.409 0 2.953.303 4.431.872v-.335c0-1.846-1.142-3.458-3.995-3.458-1.611 0-3.122.537-4.498 1.242l-1.645-3.256c2.451-1.242 4.833-1.914 7.25-1.914Zm-1.107 14.771c1.88 0 3.658-.872 3.995-2.484v-1.611a10.998 10.998 0 0 0-3.726-.638c-1.779 0-3.19 1.041-3.19 2.45 0 1.411 1.242 2.283 2.921 2.283Zm22.526 2.988V145.54h3.391l8.09 15.072 8.089-15.072h3.39v23.062h-3.39v-16.416l-8.089 15.073-8.09-15.073v16.416h-3.391Zm35.816.402c-4.968 0-9.164-4.163-9.164-9.097 0-4.934 4.196-9.064 9.164-9.064 4.934 0 9.097 4.13 9.097 9.064s-4.163 9.097-9.097 9.097Zm0-2.887c3.122 0 5.774-2.819 5.774-6.21 0-3.356-2.652-6.176-5.774-6.176-3.189 0-5.84 2.82-5.84 6.176 0 3.391 2.651 6.21 5.84 6.21Zm21.094-15.274c3.827 0 6.512 2.787 6.512 6.714v11.045h-3.256v-10.474c0-2.584-1.645-4.397-3.995-4.397-2.416 0-4.498 1.577-4.767 3.625v11.246h-3.323v-17.355h3.323v2.517c1.042-1.712 3.157-2.921 5.506-2.921Zm12.192-2.483a2.02 2.02 0 0 1-2.013-2.015c0-1.04.872-1.979 2.013-1.979 1.073 0 1.981.939 1.981 1.979 0 1.075-.908 2.015-1.981 2.015Zm-1.679 20.242v-17.355h3.324v17.355h-3.324Zm15.535-3.122 1.209 2.283a5.591 5.591 0 0 1-3.458 1.241c-2.686 0-4.565-1.946-4.565-4.733v-10.204h-2.618v-2.82h2.618v-4.767h3.256v4.767h4.096v2.82h-4.096v9.969c0 1.209.806 2.081 1.78 2.081.738 0 1.409-.268 1.778-.637ZM220 169.004c-4.968 0-9.164-4.163-9.164-9.097 0-4.934 4.196-9.064 9.164-9.064 4.935 0 9.095 4.13 9.095 9.064s-4.16 9.097-9.095 9.097Zm0-2.887c3.122 0 5.773-2.819 5.773-6.21 0-3.356-2.651-6.176-5.773-6.176-3.19 0-5.842 2.82-5.842 6.176 0 3.391 2.652 6.21 5.842 6.21Zm15.757-11.547c1.108-2.283 3.457-3.727 6.445-3.727v2.888c-3.592 0-6.143 1.98-6.445 5.002v9.869h-3.323v-17.355h3.323v3.323Z"/></svg>