<svg xmlns="http://www.w3.org/2000/svg" width="420" height="80" viewBox="0 0 420 80"><defs><linearGradient id="a" x1="54.419" x2="16.72" y1="9.758" y2="75.055" gradientUnits="userSpaceOnUse"><stop offset="0" stop-color="#ff9640"/><stop offset=".6" stop-color="#fc4055"/><stop offset="1" stop-color="#e31587"/></linearGradient><linearGradient id="b" x1="54.419" x2="16.72" y1="9.758" y2="75.055" gradientUnits="userSpaceOnUse"><stop offset="0" stop-color="#fff36e" stop-opacity=".8"/><stop offset=".094" stop-color="#fff36e" stop-opacity=".699"/><stop offset=".752" stop-color="#fff36e" stop-opacity="0"/></linearGradient><linearGradient id="c" x1="35.583" x2="67.226" y1="53.055" y2="21.412" gradientUnits="userSpaceOnUse"><stop offset="0" stop-color="#0090ed"/><stop offset=".325" stop-color="#5b6df8"/><stop offset=".529" stop-color="#9059ff"/><stop offset="1" stop-color="#b833e1"/></linearGradient><linearGradient id="d" x1="46.271" x2="51.587" y1="56.809" y2="63.145" gradientUnits="userSpaceOnUse"><stop offset="0" stop-color="#960e18" stop-opacity=".6"/><stop offset=".192" stop-color="#ac1624" stop-opacity=".476"/><stop offset=".579" stop-color="#e42c41" stop-opacity=".156"/><stop offset=".75" stop-color="#ff3750" stop-opacity="0"/></linearGradient><linearGradient id="e" x1="60.476" x2="74.703" y1="70.615" y2="33.486" gradientUnits="userSpaceOnUse"><stop offset="0" stop-color="#054096" stop-opacity=".5"/><stop offset=".054" stop-color="#0f3d9c" stop-opacity=".441"/><stop offset=".261" stop-color="#2f35b1" stop-opacity=".249"/><stop offset=".466" stop-color="#462fbf" stop-opacity=".111"/><stop offset=".669" stop-color="#542bc8" stop-opacity=".028"/><stop offset=".864" stop-color="#592acb" stop-opacity="0"/></linearGradient><linearGradient id="f" x1="41.912" x2="74.239" y1="5.95" y2="33.449" gradientUnits="userSpaceOnUse"><stop offset="0" stop-color="#722291" stop-opacity=".5"/><stop offset=".5" stop-color="#722291" stop-opacity="0"/></linearGradient><symbol id="i" data-name="Icon 80 (Full Color)" viewBox="0 0 74 79.866"><path fill="url(#a)" d="m69.363 16.646-28-15.518a9 9 0 0 0-8.726 0l-28 15.518A9 9 0 0 0 0 24.518v30.83a9 9 0 0 0 4.309 7.681l26.606 16.248a4 4 0 0 0 5.617-1.536 4.132 4.132 0 0 0-1.614-5.394L9.436 56.786A3 3 0 0 1 8 54.226V25.7a3 3 0 0 1 1.546-2.624l26-14.41a3 3 0 0 1 2.908 0l26 14.41A3 3 0 0 1 66 25.7v28.513a3 3 0 0 1-1.444 2.565l-9.233 5.6-4.278-6.948a21.106 21.106 0 1 0-6.845 4.135l6.4 10.394a4 4 0 0 0 5.482 1.324l13.594-8.25A9 9 0 0 0 74 55.339V24.518a9 9 0 0 0-4.637-7.872zM24 39.863a13 13 0 1 1 13 13 13.015 13.015 0 0 1-13-13z"/><path fill="url(#b)" d="m69.363 16.646-28-15.518a9 9 0 0 0-8.726 0l-28 15.518A9 9 0 0 0 0 24.518v30.83a9 9 0 0 0 4.309 7.681l26.606 16.248a4 4 0 0 0 5.617-1.536 4.132 4.132 0 0 0-1.614-5.394L9.436 56.786A3 3 0 0 1 8 54.226V25.7a3 3 0 0 1 1.546-2.624l26-14.41a3 3 0 0 1 2.908 0l26 14.41A3 3 0 0 1 66 25.7v28.513a3 3 0 0 1-1.444 2.565l-9.233 5.6-4.278-6.948a21.106 21.106 0 1 0-6.845 4.135l6.4 10.394a4 4 0 0 0 5.482 1.324l13.594-8.25A9 9 0 0 0 74 55.339V24.518a9 9 0 0 0-4.637-7.872zM24 39.863a13 13 0 1 1 13 13 13.015 13.015 0 0 1-13-13z"/><path fill="url(#c)" d="M40.868 5.673a8.875 8.875 0 0 1 8.651-.024l.8.443 19.044 10.554A9 9 0 0 1 74 24.518v30.821a9 9 0 0 1-4.331 7.694l-5.161 3.132a5.863 5.863 0 0 1-8.018-1.912l-1.167-1.872 9.233-5.6A3 3 0 0 0 66 54.213V25.7a3 3 0 0 0-1.546-2.624l-26-14.41a3 3 0 0 0-2.908 0z"/><path fill="url(#d)" d="M48.447 66.471 44.2 59.565a20.985 20.985 0 0 0 6.848-4.135l4.278 6.951z" opacity=".9"/><path fill="url(#e)" d="M66 54.213a3 3 0 0 1-1.444 2.565l-9.233 5.6 1.167 1.872a5.863 5.863 0 0 0 8.018 1.912l5.161-3.132A9 9 0 0 0 74 55.339v-16.01h-8z" opacity=".9"/><path fill="url(#f)" d="M69.363 16.646 50.32 6.092l-.8-.443a8.875 8.875 0 0 0-8.651.024l-5.322 2.99a3 3 0 0 1 2.908 0l26 14.41A3 3 0 0 1 66 25.7v13.629h8V24.518a9 9 0 0 0-4.637-7.872z"/></symbol><symbol id="g" data-name="Wordmark - Firefox" viewBox="0 0 143.009 34.775"><path fill="#20123a" d="M0 2.239h21.427v5.8H6.147V15.9h15.28v5.752H6.147v12.64H0zM28.716 0a3.448 3.448 0 0 1 3.557 3.6 3.434 3.434 0 0 1-3.6 3.6 3.4 3.4 0 0 1-3.556-3.513A3.555 3.555 0 0 1 28.716 0zm-3.03 10.582h6.06v23.71h-6.06zm23.623 6.586a4.894 4.894 0 0 0-2.942-1.054c-2.459 0-3.864 1.581-3.864 5.05v13.128h-6.015v-23.71h5.752v3.425a5.649 5.649 0 0 1 5.66-3.645 7.184 7.184 0 0 1 4.04 1.23zm2.5 5.4A12.129 12.129 0 0 1 64.018 10.1c7.113 0 12.163 5.049 12.163 12.075v2.5H57.739c.659 2.986 2.986 4.962 6.543 4.962a6.353 6.353 0 0 0 5.883-3.513l5.05 3.03c-2.5 3.688-6.059 5.62-11.109 5.62-7.684.001-12.294-5.136-12.294-12.205zm6.015-2.679H70.3c-.658-3.029-3.117-4.7-6.323-4.7a6.091 6.091 0 0 0-6.15 4.701zm19.847-9.308h4.259V9.4c0-6.454 2.722-9.133 8.694-9.133h2.107v5.222h-1.709c-2.81 0-3.425.966-3.425 3.907v1.186h5.137v5.445h-5v18.265h-5.8V16.027h-4.26zm16.2 11.855A12.139 12.139 0 0 1 106.258 10.1a12.338 12.338 0 1 1 0 24.676 11.959 11.959 0 0 1-12.382-12.339zm18.88 0a6.5 6.5 0 1 0-13 0 6.5 6.5 0 1 0 13 0zm14.051-.263-8.562-11.592h7.113l5.05 7.289 5.181-7.289h6.981l-8.689 11.549 9.133 12.162h-7.069l-5.664-7.728-5.489 7.728h-7.069z"/></symbol><symbol id="h" data-name="Wordmark" viewBox="0 0 159.16 34.389"><path fill="#20123a" d="M15.04 17.59 3.65 1.8H0v32.1h3.606V7.827L15 23.307 26.782 7.476v26.429h3.562V1.8H26.87zM47.1 9.675a12.192 12.192 0 0 0-12.311 12.357 12.335 12.335 0 1 0 24.67 0A12.2 12.2 0 0 0 47.1 9.675zm0 21.284a8.607 8.607 0 0 1-8.664-8.927 8.691 8.691 0 1 1 17.372 0 8.642 8.642 0 0 1-8.708 8.927zM75.557 9.675a9.493 9.493 0 0 0-8.268 4.441v-3.958h-3.518v23.747h3.606V20.713a7.411 7.411 0 0 1 7.476-7.784c4.617 0 7.168 2.99 7.168 7.607v13.369h3.65V20.36c0-6.639-3.914-10.685-10.114-10.685zm15.3 24.23h3.651V10.158h-3.646zM92.666 0a2.788 2.788 0 0 0-2.814 2.858 2.836 2.836 0 1 0 5.672 0A2.772 2.772 0 0 0 92.666 0zM110.3 30.871c-2.023 0-3.43-1.187-3.43-4.222V13.368h6.947v-3.21h-6.947V2.639l-3.562 2.286v5.233H98.69v3.21h4.618v13.369c0 5.234 2.375 7.52 6.728 7.52a7.618 7.618 0 0 0 4.881-1.671l-1.891-2.858a3.828 3.828 0 0 1-2.726 1.143zm17.987-21.2a12.192 12.192 0 0 0-12.312 12.357 12.335 12.335 0 1 0 24.67 0 12.2 12.2 0 0 0-12.358-12.353zm0 21.284a8.606 8.606 0 0 1-8.663-8.927 8.69 8.69 0 1 1 17.371 0 8.642 8.642 0 0 1-8.708 8.931zM155.2 9.807a6.575 6.575 0 0 0-6.772 4.837v-4.486h-3.475v23.747h3.563V20.889c0-5.234 2.286-7.521 6.244-7.521a5.207 5.207 0 0 1 2.9.748l1.5-3.429a7.744 7.744 0 0 0-3.96-.88z"/></symbol></defs><use width="74" height="79.866" data-name="Icon 80 (Full Color)" href="#i" transform="translate(3 .137)"/><path d="M97 56.474V25.766h6.571l9.52 17.343 9.476-17.343h6.616v30.708h-6.616V37.343l-9.476 17.343-9.52-17.343v19.131H97Zm49.347.536c-6.883 0-12.649-5.543-12.649-12.114 0-6.569 5.766-12.068 12.649-12.068 6.84 0 12.561 5.499 12.561 12.068 0 6.571-5.721 12.114-12.561 12.114Zm0-5.498c3.443 0 6.348-3.039 6.348-6.616 0-3.575-2.905-6.569-6.348-6.569-3.485 0-6.391 2.994-6.391 6.569 0 3.577 2.906 6.616 6.391 6.616Zm15.629 4.962V51.87l11.621-12.963h-11.308v-5.542h19.8v4.604l-11.62 12.962h11.71v5.543h-20.203Zm27.762-26.282a3.557 3.557 0 0 1-3.575-3.577c0-1.832 1.563-3.486 3.575-3.486 1.922 0 3.487 1.654 3.487 3.486 0 1.968-1.565 3.577-3.487 3.577Zm-3.308 26.282V33.365h6.526v23.109h-6.526Zm11.905 0V25.23h6.525v31.244h-6.525Zm11.901 0V25.23h6.526v31.244h-6.526Zm22.227-23.646c6.035 0 10.148 3.8 10.148 9.835v13.811h-6.303v-2.325c-1.654 1.878-4.291 2.861-6.794 2.861-4.917 0-8.716-2.95-8.716-7.375 0-4.559 4.246-7.688 9.61-7.688 1.877 0 3.933.403 5.9 1.162v-.446c0-2.459-1.52-4.605-5.319-4.605-2.145 0-4.157.715-5.989 1.654l-2.191-4.336c3.264-1.653 6.436-2.548 9.654-2.548Zm-1.474 19.668c2.503 0 4.872-1.162 5.319-3.308v-2.145a14.625 14.625 0 0 0-4.961-.849c-2.369 0-4.247 1.385-4.247 3.262 0 1.878 1.654 3.04 3.889 3.04Zm29.995 3.978V25.766h4.515l10.772 20.069 10.772-20.069h4.514v30.708h-4.514V34.616l-10.772 20.07-10.772-20.07v21.858h-4.515Zm47.691.536c-6.615 0-12.203-5.543-12.203-12.114 0-6.569 5.588-12.068 12.203-12.068 6.57 0 12.113 5.499 12.113 12.068 0 6.571-5.543 12.114-12.113 12.114Zm0-3.844c4.157 0 7.688-3.754 7.688-8.27 0-4.468-3.531-8.224-7.688-8.224-4.246 0-7.777 3.756-7.777 8.224 0 4.516 3.531 8.27 7.777 8.27Zm28.088-20.338c5.095 0 8.671 3.71 8.671 8.94v14.706h-4.335V42.528c0-3.442-2.191-5.856-5.319-5.856-3.219 0-5.99 2.101-6.348 4.828v14.974h-4.425V33.365h4.425v3.352c1.386-2.28 4.202-3.889 7.331-3.889Zm16.234-3.307c-1.519 0-2.681-1.251-2.681-2.682 0-1.386 1.162-2.637 2.681-2.637 1.43 0 2.638 1.251 2.638 2.637 0 1.431-1.208 2.682-2.638 2.682Zm-2.235 26.953V33.365h4.426v23.109h-4.426Zm20.686-4.157 1.609 3.04c-1.252 1.027-2.95 1.653-4.604 1.653-3.576 0-6.079-2.592-6.079-6.302V37.12h-3.486v-3.755h3.486v-6.347h4.336v6.347h5.453v3.755h-5.453v13.275c0 1.609 1.073 2.771 2.369 2.771.983 0 1.877-.357 2.369-.849Zm16.112 4.693c-6.615 0-12.202-5.543-12.202-12.114 0-6.569 5.587-12.068 12.202-12.068 6.571 0 12.112 5.499 12.112 12.068 0 6.571-5.541 12.114-12.112 12.114Zm0-3.844c4.157 0 7.688-3.754 7.688-8.27 0-4.468-3.531-8.224-7.688-8.224-4.247 0-7.778 3.756-7.778 8.224 0 4.516 3.531 8.27 7.778 8.27Zm20.982-15.376c1.475-3.04 4.604-4.962 8.582-4.962v3.844c-4.783 0-8.18 2.638-8.582 6.661v13.141h-4.425V33.365h4.425v4.425Z"/></svg>