<svg xmlns="http://www.w3.org/2000/svg" width="128" height="208" viewBox="0 0 128 208"><defs><linearGradient id="a" x1="54.419" x2="16.72" y1="9.758" y2="75.055" gradientUnits="userSpaceOnUse"><stop offset="0" stop-color="#ff9640"/><stop offset=".6" stop-color="#fc4055"/><stop offset="1" stop-color="#e31587"/></linearGradient><linearGradient id="b" x1="54.419" x2="16.72" y1="9.758" y2="75.055" gradientUnits="userSpaceOnUse"><stop offset="0" stop-color="#fff36e" stop-opacity=".8"/><stop offset=".094" stop-color="#fff36e" stop-opacity=".699"/><stop offset=".752" stop-color="#fff36e" stop-opacity="0"/></linearGradient><linearGradient id="c" x1="35.583" x2="67.226" y1="53.055" y2="21.412" gradientUnits="userSpaceOnUse"><stop offset="0" stop-color="#0090ed"/><stop offset=".325" stop-color="#5b6df8"/><stop offset=".529" stop-color="#9059ff"/><stop offset="1" stop-color="#b833e1"/></linearGradient><linearGradient id="d" x1="46.271" x2="51.587" y1="56.809" y2="63.145" gradientUnits="userSpaceOnUse"><stop offset="0" stop-color="#960e18" stop-opacity=".6"/><stop offset=".192" stop-color="#ac1624" stop-opacity=".476"/><stop offset=".579" stop-color="#e42c41" stop-opacity=".156"/><stop offset=".75" stop-color="#ff3750" stop-opacity="0"/></linearGradient><linearGradient id="e" x1="60.476" x2="74.703" y1="70.615" y2="33.486" gradientUnits="userSpaceOnUse"><stop offset="0" stop-color="#054096" stop-opacity=".5"/><stop offset=".054" stop-color="#0f3d9c" stop-opacity=".441"/><stop offset=".261" stop-color="#2f35b1" stop-opacity=".249"/><stop offset=".466" stop-color="#462fbf" stop-opacity=".111"/><stop offset=".669" stop-color="#542bc8" stop-opacity=".028"/><stop offset=".864" stop-color="#592acb" stop-opacity="0"/></linearGradient><linearGradient id="f" x1="41.912" x2="74.239" y1="5.95" y2="33.449" gradientUnits="userSpaceOnUse"><stop offset="0" stop-color="#722291" stop-opacity=".5"/><stop offset=".5" stop-color="#722291" stop-opacity="0"/></linearGradient><symbol id="g" data-name="Icon 80 (Full Color)" viewBox="0 0 74 79.866"><path fill="url(#a)" d="m69.363 16.646-28-15.518a9 9 0 0 0-8.726 0l-28 15.518A9 9 0 0 0 0 24.518v30.83a9 9 0 0 0 4.309 7.681l26.606 16.248a4 4 0 0 0 5.617-1.536 4.132 4.132 0 0 0-1.614-5.394L9.436 56.786A3 3 0 0 1 8 54.226V25.7a3 3 0 0 1 1.546-2.624l26-14.41a3 3 0 0 1 2.908 0l26 14.41A3 3 0 0 1 66 25.7v28.513a3 3 0 0 1-1.444 2.565l-9.233 5.6-4.278-6.948a21.106 21.106 0 1 0-6.845 4.135l6.4 10.394a4 4 0 0 0 5.482 1.324l13.594-8.25A9 9 0 0 0 74 55.339V24.518a9 9 0 0 0-4.637-7.872zM24 39.863a13 13 0 1 1 13 13 13.015 13.015 0 0 1-13-13z"/><path fill="url(#b)" d="m69.363 16.646-28-15.518a9 9 0 0 0-8.726 0l-28 15.518A9 9 0 0 0 0 24.518v30.83a9 9 0 0 0 4.309 7.681l26.606 16.248a4 4 0 0 0 5.617-1.536 4.132 4.132 0 0 0-1.614-5.394L9.436 56.786A3 3 0 0 1 8 54.226V25.7a3 3 0 0 1 1.546-2.624l26-14.41a3 3 0 0 1 2.908 0l26 14.41A3 3 0 0 1 66 25.7v28.513a3 3 0 0 1-1.444 2.565l-9.233 5.6-4.278-6.948a21.106 21.106 0 1 0-6.845 4.135l6.4 10.394a4 4 0 0 0 5.482 1.324l13.594-8.25A9 9 0 0 0 74 55.339V24.518a9 9 0 0 0-4.637-7.872zM24 39.863a13 13 0 1 1 13 13 13.015 13.015 0 0 1-13-13z"/><path fill="url(#c)" d="M40.868 5.673a8.875 8.875 0 0 1 8.651-.024l.8.443 19.044 10.554A9 9 0 0 1 74 24.518v30.821a9 9 0 0 1-4.331 7.694l-5.161 3.132a5.863 5.863 0 0 1-8.018-1.912l-1.167-1.872 9.233-5.6A3 3 0 0 0 66 54.213V25.7a3 3 0 0 0-1.546-2.624l-26-14.41a3 3 0 0 0-2.908 0z"/><path fill="url(#d)" d="M48.447 66.471 44.2 59.565a20.985 20.985 0 0 0 6.848-4.135l4.278 6.951z" opacity=".9"/><path fill="url(#e)" d="M66 54.213a3 3 0 0 1-1.444 2.565l-9.233 5.6 1.167 1.872a5.863 5.863 0 0 0 8.018 1.912l5.161-3.132A9 9 0 0 0 74 55.339v-16.01h-8z" opacity=".9"/><path fill="url(#f)" d="M69.363 16.646 50.32 6.092l-.8-.443a8.875 8.875 0 0 0-8.651.024l-5.322 2.99a3 3 0 0 1 2.908 0l26 14.41A3 3 0 0 1 66 25.7v13.629h8V24.518a9 9 0 0 0-4.637-7.872z"/></symbol></defs><use width="74" height="79.866" data-name="Icon 80 (Full Color)" href="#g" transform="matrix(1.5 0 0 1.5 8.5 .205)"/><path d="M6.97 168.02v-24.055h5.147l7.458 13.586 7.423-13.586h5.182v24.055h-5.182v-14.986l-7.423 13.585-7.458-13.585v14.986H6.97Zm38.655.42c-5.391 0-9.908-4.342-9.908-9.49 0-5.145 4.517-9.453 9.908-9.453 5.357 0 9.839 4.308 9.839 9.453 0 5.148-4.482 9.49-9.839 9.49Zm0-4.307c2.697 0 4.973-2.381 4.973-5.183 0-2.8-2.276-5.145-4.973-5.145-2.73 0-5.007 2.345-5.007 5.145 0 2.802 2.277 5.183 5.007 5.183Zm12.243 3.887v-3.606l9.102-10.155h-8.857v-4.341h15.509v3.606l-9.102 10.154h9.172v4.342H57.868Zm21.746-20.587c-1.577 0-2.8-1.26-2.8-2.802 0-1.435 1.223-2.731 2.8-2.731 1.505 0 2.731 1.296 2.731 2.731 0 1.542-1.226 2.802-2.731 2.802Zm-2.592 20.587v-18.102h5.113v18.102h-5.113Zm9.326 0v-24.474h5.111v24.474h-5.111Zm9.322 0v-24.474h5.112v24.474H95.67Zm17.411-18.523c4.728 0 7.949 2.977 7.949 7.704v10.819h-4.937v-1.821c-1.296 1.47-3.361 2.241-5.322 2.241-3.852 0-6.828-2.311-6.828-5.777 0-3.571 3.326-6.022 7.529-6.022 1.47 0 3.08.315 4.621.91v-.35c0-1.926-1.191-3.606-4.166-3.606-1.681 0-3.257.559-4.692 1.295l-1.716-3.396c2.556-1.295 5.041-1.997 7.562-1.997Zm-1.154 15.407c1.96 0 3.815-.911 4.166-2.591v-1.681a11.482 11.482 0 0 0-3.886-.664c-1.856 0-3.326 1.084-3.326 2.555 0 1.47 1.295 2.381 3.046 2.381Z" style="transform-box:fill-box;transform-origin:50% 50%"/><path d="M2.847 203.866v-24.055h3.536l8.439 15.721 8.437-15.721h3.536v24.055h-3.536v-17.122l-8.437 15.721-8.439-15.721v17.122H2.847Zm37.357.42c-5.182 0-9.559-4.342-9.559-9.49 0-5.145 4.377-9.453 9.559-9.453 5.146 0 9.488 4.308 9.488 9.453 0 5.148-4.342 9.49-9.488 9.49Zm0-3.012c3.256 0 6.022-2.94 6.022-6.478 0-3.499-2.766-6.441-6.022-6.441-3.326 0-6.091 2.942-6.091 6.441 0 3.538 2.765 6.478 6.091 6.478Zm22.002-15.931c3.991 0 6.792 2.907 6.792 7.003v11.52h-3.395v-10.924c0-2.696-1.717-4.587-4.167-4.587-2.521 0-4.692 1.645-4.973 3.782v11.729h-3.466v-18.102h3.466v2.626c1.086-1.786 3.292-3.047 5.743-3.047Zm12.716-2.589a2.106 2.106 0 0 1-2.099-2.102c0-1.085.909-2.065 2.099-2.065 1.12 0 2.066.98 2.066 2.065 0 1.121-.946 2.102-2.066 2.102Zm-1.75 21.112v-18.102h3.466v18.102h-3.466Zm16.203-3.256 1.26 2.381a5.829 5.829 0 0 1-3.606 1.295c-2.801 0-4.762-2.031-4.762-4.936v-10.644h-2.731v-2.942h2.731v-4.972h3.396v4.972h4.272v2.942h-4.272v10.398c0 1.26.841 2.17 1.857 2.17.769 0 1.47-.279 1.855-.664Zm12.621 3.676c-5.182 0-9.558-4.342-9.558-9.49 0-5.145 4.376-9.453 9.558-9.453 5.148 0 9.488 4.308 9.488 9.453 0 5.148-4.34 9.49-9.488 9.49Zm0-3.012c3.257 0 6.022-2.94 6.022-6.478 0-3.499-2.765-6.441-6.022-6.441-3.327 0-6.093 2.942-6.093 6.441 0 3.538 2.766 6.478 6.093 6.478Zm16.435-12.043c1.156-2.382 3.607-3.888 6.723-3.888v3.012c-3.746 0-6.408 2.066-6.723 5.218v10.293h-3.465v-18.102h3.465v3.467Z" style="transform-origin:-.225px 191.016px"/></svg>