<svg xmlns="http://www.w3.org/2000/svg" width="420" height="80" viewBox="0 0 420 80"><defs><linearGradient id="a" x1="54.419" x2="16.72" y1="9.758" y2="75.055" gradientUnits="userSpaceOnUse"><stop offset="0" stop-color="#ff9640"/><stop offset=".6" stop-color="#fc4055"/><stop offset="1" stop-color="#e31587"/></linearGradient><linearGradient id="b" x1="54.419" x2="16.72" y1="9.758" y2="75.055" gradientUnits="userSpaceOnUse"><stop offset="0" stop-color="#fff36e" stop-opacity=".8"/><stop offset=".094" stop-color="#fff36e" stop-opacity=".699"/><stop offset=".752" stop-color="#fff36e" stop-opacity="0"/></linearGradient><linearGradient id="c" x1="35.583" x2="67.226" y1="53.055" y2="21.412" gradientUnits="userSpaceOnUse"><stop offset="0" stop-color="#0090ed"/><stop offset=".325" stop-color="#5b6df8"/><stop offset=".529" stop-color="#9059ff"/><stop offset="1" stop-color="#b833e1"/></linearGradient><linearGradient id="d" x1="46.271" x2="51.587" y1="56.809" y2="63.145" gradientUnits="userSpaceOnUse"><stop offset="0" stop-color="#960e18" stop-opacity=".6"/><stop offset=".192" stop-color="#ac1624" stop-opacity=".476"/><stop offset=".579" stop-color="#e42c41" stop-opacity=".156"/><stop offset=".75" stop-color="#ff3750" stop-opacity="0"/></linearGradient><linearGradient id="e" x1="60.476" x2="74.703" y1="70.615" y2="33.486" gradientUnits="userSpaceOnUse"><stop offset="0" stop-color="#054096" stop-opacity=".5"/><stop offset=".054" stop-color="#0f3d9c" stop-opacity=".441"/><stop offset=".261" stop-color="#2f35b1" stop-opacity=".249"/><stop offset=".466" stop-color="#462fbf" stop-opacity=".111"/><stop offset=".669" stop-color="#542bc8" stop-opacity=".028"/><stop offset=".864" stop-color="#592acb" stop-opacity="0"/></linearGradient><linearGradient id="f" x1="41.912" x2="74.239" y1="5.95" y2="33.449" gradientUnits="userSpaceOnUse"><stop offset="0" stop-color="#722291" stop-opacity=".5"/><stop offset=".5" stop-color="#722291" stop-opacity="0"/></linearGradient><linearGradient id="g" x1="54.419" x2="16.72" y1="9.758" y2="75.055" gradientUnits="userSpaceOnUse"><stop offset="0" stop-color="#ff9640"/><stop offset=".6" stop-color="#fc4055"/><stop offset="1" stop-color="#e31587"/></linearGradient><linearGradient id="h" x1="54.419" x2="16.72" y1="9.758" y2="75.055" gradientUnits="userSpaceOnUse"><stop offset="0" stop-color="#fff36e" stop-opacity=".8"/><stop offset=".094" stop-color="#fff36e" stop-opacity=".699"/><stop offset=".752" stop-color="#fff36e" stop-opacity="0"/></linearGradient><linearGradient id="i" x1="35.583" x2="67.226" y1="53.055" y2="21.412" gradientUnits="userSpaceOnUse"><stop offset="0" stop-color="#0090ed"/><stop offset=".325" stop-color="#5b6df8"/><stop offset=".529" stop-color="#9059ff"/><stop offset="1" stop-color="#b833e1"/></linearGradient><linearGradient id="j" x1="46.271" x2="51.587" y1="56.809" y2="63.145" gradientUnits="userSpaceOnUse"><stop offset="0" stop-color="#960e18" stop-opacity=".6"/><stop offset=".192" stop-color="#ac1624" stop-opacity=".476"/><stop offset=".579" stop-color="#e42c41" stop-opacity=".156"/><stop offset=".75" stop-color="#ff3750" stop-opacity="0"/></linearGradient><linearGradient id="k" x1="60.476" x2="74.703" y1="70.615" y2="33.486" gradientUnits="userSpaceOnUse"><stop offset="0" stop-color="#054096" stop-opacity=".5"/><stop offset=".054" stop-color="#0f3d9c" stop-opacity=".441"/><stop offset=".261" stop-color="#2f35b1" stop-opacity=".249"/><stop offset=".466" stop-color="#462fbf" stop-opacity=".111"/><stop offset=".669" stop-color="#542bc8" stop-opacity=".028"/><stop offset=".864" stop-color="#592acb" stop-opacity="0"/></linearGradient><linearGradient id="l" x1="41.912" x2="74.239" y1="5.95" y2="33.449" gradientUnits="userSpaceOnUse"><stop offset="0" stop-color="#722291" stop-opacity=".5"/><stop offset=".5" stop-color="#722291" stop-opacity="0"/></linearGradient><symbol id="m" data-name="Icon 80 (Full Color)" viewBox="0 0 74 79.866"><path fill="url(#g)" d="m69.363 16.646-28-15.518a9 9 0 0 0-8.726 0l-28 15.518A9 9 0 0 0 0 24.518v30.83a9 9 0 0 0 4.309 7.681l26.606 16.248a4 4 0 0 0 5.617-1.536 4.132 4.132 0 0 0-1.614-5.394L9.436 56.786A3 3 0 0 1 8 54.226V25.7a3 3 0 0 1 1.546-2.624l26-14.41a3 3 0 0 1 2.908 0l26 14.41A3 3 0 0 1 66 25.7v28.513a3 3 0 0 1-1.444 2.565l-9.233 5.6-4.278-6.948a21.106 21.106 0 1 0-6.845 4.135l6.4 10.394a4 4 0 0 0 5.482 1.324l13.594-8.25A9 9 0 0 0 74 55.339V24.518a9 9 0 0 0-4.637-7.872zM24 39.863a13 13 0 1 1 13 13 13.015 13.015 0 0 1-13-13z"/><path fill="url(#h)" d="m69.363 16.646-28-15.518a9 9 0 0 0-8.726 0l-28 15.518A9 9 0 0 0 0 24.518v30.83a9 9 0 0 0 4.309 7.681l26.606 16.248a4 4 0 0 0 5.617-1.536 4.132 4.132 0 0 0-1.614-5.394L9.436 56.786A3 3 0 0 1 8 54.226V25.7a3 3 0 0 1 1.546-2.624l26-14.41a3 3 0 0 1 2.908 0l26 14.41A3 3 0 0 1 66 25.7v28.513a3 3 0 0 1-1.444 2.565l-9.233 5.6-4.278-6.948a21.106 21.106 0 1 0-6.845 4.135l6.4 10.394a4 4 0 0 0 5.482 1.324l13.594-8.25A9 9 0 0 0 74 55.339V24.518a9 9 0 0 0-4.637-7.872zM24 39.863a13 13 0 1 1 13 13 13.015 13.015 0 0 1-13-13z"/><path fill="url(#i)" d="M40.868 5.673a8.875 8.875 0 0 1 8.651-.024l.8.443 19.044 10.554A9 9 0 0 1 74 24.518v30.821a9 9 0 0 1-4.331 7.694l-5.161 3.132a5.863 5.863 0 0 1-8.018-1.912l-1.167-1.872 9.233-5.6A3 3 0 0 0 66 54.213V25.7a3 3 0 0 0-1.546-2.624l-26-14.41a3 3 0 0 0-2.908 0z"/><path fill="url(#j)" d="M48.447 66.471 44.2 59.565a20.985 20.985 0 0 0 6.848-4.135l4.278 6.951z" opacity=".9"/><path fill="url(#k)" d="M66 54.213a3 3 0 0 1-1.444 2.565l-9.233 5.6 1.167 1.872a5.863 5.863 0 0 0 8.018 1.912l5.161-3.132A9 9 0 0 0 74 55.339v-16.01h-8z" opacity=".9"/><path fill="url(#l)" d="M69.363 16.646 50.32 6.092l-.8-.443a8.875 8.875 0 0 0-8.651.024l-5.322 2.99a3 3 0 0 1 2.908 0l26 14.41A3 3 0 0 1 66 25.7v13.629h8V24.518a9 9 0 0 0-4.637-7.872z"/></symbol></defs><g transform="translate(-64.971 -203.1)"><use width="74" height="79.866" data-name="Icon 80 (Full Color)" href="#m" transform="translate(67.971 203.1)"/><path d="M161.971 259.437v-30.708h6.571l9.52 17.343 9.476-17.343h6.616v30.708h-6.616v-19.131l-9.476 17.343-9.52-17.343v19.131h-6.571Zm49.347.536c-6.883 0-12.649-5.543-12.649-12.114 0-6.569 5.766-12.068 12.649-12.068 6.84 0 12.561 5.499 12.561 12.068 0 6.571-5.721 12.114-12.561 12.114Zm0-5.498c3.443 0 6.348-3.039 6.348-6.616 0-3.575-2.905-6.569-6.348-6.569-3.485 0-6.391 2.994-6.391 6.569 0 3.577 2.906 6.616 6.391 6.616Zm15.629 4.962v-4.604l11.621-12.963H227.26v-5.542h19.8v4.604l-11.62 12.962h11.71v5.543h-20.203Zm27.762-26.282a3.557 3.557 0 0 1-3.575-3.577c0-1.832 1.563-3.486 3.575-3.486 1.922 0 3.487 1.654 3.487 3.486 0 1.968-1.565 3.577-3.487 3.577Zm-3.308 26.282v-23.109h6.526v23.109h-6.526Zm11.905 0v-31.244h6.525v31.244h-6.525Zm11.901 0v-31.244h6.526v31.244h-6.526Zm22.227-23.646c6.035 0 10.148 3.8 10.148 9.835v13.811h-6.303v-2.325c-1.654 1.878-4.291 2.861-6.794 2.861-4.917 0-8.716-2.95-8.716-7.375 0-4.559 4.246-7.688 9.61-7.688 1.877 0 3.933.403 5.9 1.162v-.446c0-2.459-1.52-4.605-5.319-4.605-2.145 0-4.157.715-5.989 1.654l-2.191-4.336c3.264-1.653 6.436-2.548 9.654-2.548Zm-1.474 19.668c2.503 0 4.872-1.162 5.319-3.308v-2.145a14.625 14.625 0 0 0-4.961-.849c-2.369 0-4.247 1.385-4.247 3.262 0 1.878 1.654 3.04 3.889 3.04Zm29.995 3.978v-30.708h4.515l10.772 20.069 10.772-20.069h4.514v30.708h-4.514v-21.858l-10.772 20.07-10.772-20.07v21.858h-4.515Zm47.691.536c-6.615 0-12.203-5.543-12.203-12.114 0-6.569 5.588-12.068 12.203-12.068 6.57 0 12.113 5.499 12.113 12.068 0 6.571-5.543 12.114-12.113 12.114Zm0-3.844c4.157 0 7.688-3.754 7.688-8.27 0-4.468-3.531-8.224-7.688-8.224-4.246 0-7.777 3.756-7.777 8.224 0 4.516 3.531 8.27 7.777 8.27Zm28.088-20.338c5.095 0 8.671 3.71 8.671 8.94v14.706h-4.335v-13.946c0-3.442-2.191-5.856-5.319-5.856-3.219 0-5.99 2.101-6.348 4.828v14.974h-4.425v-23.109h4.425v3.352c1.386-2.28 4.202-3.889 7.331-3.889Zm16.234-3.307c-1.519 0-2.681-1.251-2.681-2.682 0-1.386 1.162-2.637 2.681-2.637 1.43 0 2.638 1.251 2.638 2.637 0 1.431-1.208 2.682-2.638 2.682Zm-2.235 26.953v-23.109h4.426v23.109h-4.426Zm20.686-4.157 1.609 3.04c-1.252 1.027-2.95 1.653-4.604 1.653-3.576 0-6.079-2.592-6.079-6.302v-13.588h-3.486v-3.755h3.486v-6.347h4.336v6.347h5.453v3.755h-5.453v13.275c0 1.609 1.073 2.771 2.369 2.771.983 0 1.877-.357 2.369-.849Zm16.112 4.693c-6.615 0-12.202-5.543-12.202-12.114 0-6.569 5.587-12.068 12.202-12.068 6.571 0 12.112 5.499 12.112 12.068 0 6.571-5.541 12.114-12.112 12.114Zm0-3.844c4.157 0 7.688-3.754 7.688-8.27 0-4.468-3.531-8.224-7.688-8.224-4.247 0-7.778 3.756-7.778 8.224 0 4.516 3.531 8.27 7.778 8.27Zm20.982-15.376c1.475-3.04 4.604-4.962 8.582-4.962v3.844c-4.783 0-8.18 2.638-8.582 6.661v13.141h-4.425v-23.109h4.425v4.425Z" style="fill:#fff"/></g></svg>