<svg xmlns="http://www.w3.org/2000/svg" width="383" height="80" viewBox="0 0 383 80"><path d="m29.691 0 10.172 50.033h3.646L53.679 0h29.702v78.803H67.166v-64.99h-3.644l-14.137 64.99H34.044l-14.14-64.99h-3.639v64.99H0V0h29.691Zm93.06 16.695c18.713 0 29.593 11.203 29.593 31.652 0 20.448-10.823 31.653-29.593 31.653-18.761 0-29.585-11.203-29.585-31.653.057-20.503 10.88-31.652 29.585-31.652m0 50.688c8.433 0 12.457-4.571 12.457-14.63v-8.92c0-10.061-3.966-14.63-12.457-14.63-8.482 0-12.447 4.571-12.447 14.63v8.92c.05 10.061 4.022 14.63 12.447 14.63m36.229-.328 30.947-37.472h-30.515V17.837h49.824v11.746l-30.949 37.472h31.382v11.748h-50.691l.002-11.748Zm59.171-49.218h22.844v60.966h-16.208V29.581h-6.636V17.837ZM224.787 0h16.208v11.746h-16.208V0Zm26.923 0h22.844v78.803h-16.206V11.746h-6.638V0Zm33.618 0h22.842v78.803h-16.215V11.746h-6.627V0Zm57.646 16.695c9.034 0 14.962 4.46 16.701 12.237h3.644V17.837h19.305v11.746h-6.634v37.472h6.634v11.748h-9.241c-6.528 0-10.064-3.535-10.064-10.062v-1.032h-3.644c-1.739 7.776-7.667 12.235-16.701 12.235-14.245 0-24.309-12.127-24.309-31.651s10.064-31.598 24.309-31.598m4.79 50.688c8.209 0 11.963-4.571 11.963-14.63v-8.92c0-10.061-3.754-14.63-11.963-14.63-8.21 0-11.969 4.571-11.969 14.63v8.92c0 10.061 3.757 14.63 11.969 14.63"/></svg>