<?xml version="1.0" encoding="utf-8"?>
<svg xmlns="http://www.w3.org/2000/svg" width="250px" viewBox="0 0 250 80" height="80px">
  <path d="m25.748 33.41 4.271 21.01h1.53l4.27-21.01h12.47V66.5h-6.806V39.21h-1.53L34.015 66.5h-6.44l-5.937-27.29h-1.53V66.5H13.28V33.41zm39.074 7.011c7.856 0 12.423 4.705 12.423 13.291s-4.544 13.291-12.423 13.291S52.4 62.3 52.4 53.713c.023-8.61 4.567-13.292 12.423-13.292m0 21.284c3.54 0 5.23-1.918 5.23-6.143v-3.745c0-4.225-1.667-6.143-5.23-6.143s-5.23 1.918-5.23 6.143v3.745c.023 4.225 1.69 6.143 5.23 6.143m15.21-.137 12.994-15.735H80.214v-4.932h20.919v4.932L88.139 61.568h13.176v4.933H80.032zm24.846-20.667h9.591v25.6h-6.805V45.833h-2.786zm2.786-7.49h6.805v4.932h-6.805zm11.304 0h9.592V66.5h-6.806V38.343h-2.786zm14.113 0h9.592V66.5h-6.805V38.343h-2.787zm24.207 7.01c3.791 0 6.28 1.873 7.011 5.138h1.53v-4.658h8.107v4.932h-2.786v15.735h2.786v4.933h-3.882c-2.74 0-4.225-1.485-4.225-4.225v-.434h-1.53c-.73 3.266-3.22 5.138-7.01 5.138-5.984 0-10.209-5.092-10.209-13.29 0-8.2 4.225-13.269 10.208-13.269m2.01 21.284c3.448 0 5.024-1.918 5.024-6.143v-3.745c0-4.225-1.576-6.143-5.024-6.143s-5.024 1.918-5.024 6.143v3.745c0 4.225 1.576 6.143 5.024 6.143M199.262 66.5h-6.805V13.269h6.805zm5.55-26.079h26.947v-1.53l-17.561-6.371v-5.39l17.561-6.371v-1.553h-20.804v-5.938h26.947v10.848l-14.295 4.932v1.53l14.295 4.933V46.36h-33.09zm0-21.215h6.143v6.143h-6.143z"/>
</svg>