<?xml version="1.0" encoding="utf-8"?>
<svg xmlns="http://www.w3.org/2000/svg" width="383px" height="80px" viewBox="0 0 383 80">
  <path d="M 29.694 0 L 39.865 50.035 L 43.511 50.035 L 53.68 0 L 83.382 0 L 83.382 78.803 L 67.168 78.803 L 67.168 13.813 L 63.524 13.813 L 49.385 78.803 L 34.046 78.803 L 19.906 13.813 L 16.265 13.813 L 16.265 78.803 L 0 78.803 L 0 0 L 29.694 0 Z M 122.754 16.695 C 141.466 16.695 152.349 27.901 152.349 48.348 C 152.349 68.797 141.523 80 122.754 80 C 103.992 80 93.169 68.797 93.169 48.348 C 93.225 27.846 104.05 16.695 122.754 16.695 M 122.754 67.383 C 131.188 67.383 135.21 62.814 135.21 52.754 L 135.21 43.833 C 135.21 33.774 131.245 29.206 122.754 29.206 C 114.271 29.206 110.304 33.774 110.304 43.833 L 110.304 52.754 C 110.356 62.814 114.329 67.383 122.754 67.383 M 158.985 67.057 L 189.931 29.586 L 159.414 29.586 L 159.414 17.839 L 209.238 17.839 L 209.238 29.586 L 178.29 67.057 L 209.674 67.057 L 209.674 78.803 L 158.985 78.803 L 158.985 67.057 Z M 218.154 17.839 L 241 17.839 L 241 78.803 L 224.793 78.803 L 224.793 29.586 L 218.154 29.586 L 218.154 17.839 Z M 224.793 0 L 241 0 L 241 11.748 L 224.793 11.748 L 224.793 0 Z M 251.717 0 L 274.56 0 L 274.56 78.803 L 258.351 78.803 L 258.351 11.748 L 251.717 11.748 L 251.717 0 Z M 285.334 0 L 308.175 0 L 308.175 78.803 L 291.96 78.803 L 291.96 11.748 L 285.334 11.748 L 285.334 0 Z M 342.98 16.695 C 352.014 16.695 357.941 21.157 359.682 28.932 L 363.325 28.932 L 363.325 17.839 L 382.631 17.839 L 382.631 29.586 L 375.995 29.586 L 375.995 67.057 L 382.631 67.057 L 382.631 78.803 L 373.391 78.803 C 366.861 78.803 363.325 75.27 363.325 68.742 L 363.325 67.709 L 359.682 67.709 C 357.941 75.488 352.014 79.947 342.98 79.947 C 328.735 79.947 318.67 67.817 318.67 48.294 C 318.67 28.768 328.735 16.695 342.98 16.695 M 347.769 67.383 C 355.98 67.383 359.732 62.814 359.732 52.754 L 359.732 43.833 C 359.732 33.774 355.98 29.206 347.769 29.206 C 339.558 29.206 335.801 33.774 335.801 43.833 L 335.801 52.754 C 335.801 62.814 339.558 67.383 347.769 67.383" style="fill:#fff"/>
</svg>