<svg xmlns="http://www.w3.org/2000/svg" width="249" height="80"><path d="m49.626 20.023 15.306 75.288h5.484L85.72 20.023h44.693V138.6h-24.398V40.809h-5.483L79.258 138.6H56.175L34.901 40.809h-5.482V138.6H4.946V20.023zm140.03 25.123c28.156 0 44.529 16.859 44.529 47.628s-16.286 47.628-44.529 47.628c-28.231 0-44.518-16.859-44.518-47.628.085-30.851 16.372-47.628 44.518-47.628m0 76.27c12.689 0 18.743-6.875 18.743-22.013V85.981c0-15.138-5.967-22.013-18.743-22.013-12.764 0-18.731 6.875-18.731 22.013v13.422c.075 15.138 6.053 22.013 18.731 22.013m54.514-.491 46.568-56.385h-45.92V46.865h74.971V64.54l-46.566 56.385h47.221V138.6H244.17zm89.038-74.06h34.374V138.6h-24.388V64.54h-9.986zm9.986-26.842h24.388V37.7h-24.388zm40.512 0h34.373V138.6h-24.387V37.7h-9.986zm50.584 0h34.371V138.6h-24.398V37.7h-9.973zm86.743 25.123c13.593 0 22.513 6.711 25.13 18.413h5.482V46.865h29.051V64.54h-9.985v56.385h9.985V138.6h-13.905c-9.824 0-15.146-5.318-15.146-15.138v-1.555h-5.482c-2.617 11.702-11.537 18.412-25.13 18.412-21.435 0-36.58-18.25-36.58-47.628 0-29.377 15.145-47.545 36.58-47.545m7.207 76.27c12.354 0 18-6.875 18-22.013V85.981c0-15.138-5.646-22.013-18-22.013-12.356 0-18.011 6.875-18.011 22.013v13.422c0 15.138 5.655 22.013 18.011 22.013" style="fill:#fff" transform="matrix(.37076 0 0 .37076 15.822 10.223)"/></svg>