<svg xmlns="http://www.w3.org/2000/svg" width="249" height="80"><path d="m34.22 17.647 5.675 27.913h2.034l5.674-27.913h16.57V61.61h-9.046V25.353h-2.033L45.207 61.61h-8.558L28.76 25.353H26.73V61.61h-9.074V17.647zm51.917 9.314c10.44 0 16.51 6.25 16.51 17.658s-6.038 17.659-16.51 17.659c-10.466 0-16.505-6.25-16.505-17.659.032-11.438 6.07-17.658 16.505-17.658m0 28.278c4.705 0 6.95-2.55 6.95-8.162v-4.976c0-5.613-2.213-8.162-6.95-8.162-4.732 0-6.944 2.55-6.944 8.162v4.976c.028 5.613 2.244 8.162 6.944 8.162m20.212-.183 17.265-20.905H106.59v-6.553h27.796v6.553L117.12 55.056h17.508v6.554h-28.28zm33.011-27.458h12.744V61.61h-9.042V34.15h-3.702zm3.702-9.951h9.042V24.2h-9.042zm15.02 0h12.744V61.61h-9.041V24.2h-3.703zm18.755 0h12.743V61.61h-9.046V24.2h-3.697zm32.16 9.314c5.04 0 8.347 2.488 9.317 6.827h2.033v-6.19h10.77v6.553h-3.701v20.905h3.701v6.554h-5.155c-3.642 0-5.615-1.972-5.615-5.613v-.576h-2.033c-.97 4.338-4.277 6.826-9.317 6.826-7.947 0-13.562-6.766-13.562-17.658s5.615-17.628 13.562-17.628m2.672 28.278c4.58 0 6.674-2.55 6.674-8.162v-4.976c0-5.613-2.094-8.162-6.674-8.162s-6.677 2.55-6.677 8.162v4.976c0 5.613 2.096 8.162 6.677 8.162"/></svg>