<svg width="69" height="70" xmlns="http://www.w3.org/2000/svg"><g fill-rule="nonzero" fill="none"><path d="M33.522 47.5l13.19-15.72a3.48 3.48 0 014.79-.53v-8.93a4.27 4.27 0 00-4.28-4.28h-13.9a3.27 3.27 0 01-3.17-3.21c0-3.21 4.28-3.34 4.28-7.49-.04-3.7-3.88-6.42-8.6-6.42s-8.56 2.72-8.56 6.42c0 4.15 4.28 4.28 4.28 7.49a3.28 3.28 0 01-3.21 3.21H4.432a4.28 4.28 0 00-4.28 4.28v9.6a3.27 3.27 0 003.21 3.2c3.21.03 3.33-4.2 7.49-4.2 3.7 0 6.42 3.83 6.42 8.55a11.25 11.25 0 01-.68 3.84l13 5.22a3.46 3.46 0 003.93-1.03zM66.652 49.92a10.13 10.13 0 002-6.22c0-4.72-2.72-8.56-6.42-8.56-2.64 0-3.66 1.73-4.87 3l8.64 10.43c.31.399.532.859.65 1.35zM3.362 43.71a3.28 3.28 0 00-3.21 3.21v6.89l8.19-6.51c-1.91-1.22-2.59-3.59-4.98-3.59z" fill="#FF7139"/><path d="M4.432 69.39h13.91a3.28 3.28 0 003.21-3.21c0-3.21-4.28-3.34-4.28-7.49 0-3.7 3.83-6.42 8.56-6.42s8.56 2.72 8.56 6.42c0 4.15-4.28 4.28-4.28 7.49a3.27 3.27 0 003.21 3.21h13.9a4.28 4.28 0 004.28-4.28V51.2a3.28 3.28 0 013.21-3.21c3.21 0 3.34 4.28 7.49 4.28a5.64 5.64 0 004.45-2.35 3.56 3.56 0 00-.68-1.36l-8.64-10.42a3.49 3.49 0 01-2.62 1.29 3.27 3.27 0 01-3.21-3.21v-5a3.48 3.48 0 00-4.79.53L33.522 47.5a3.46 3.46 0 01-4 1l-13-5.22c-1 2.79-3.13 4.72-5.74 4.72a4.55 4.55 0 01-2.51-.69l-8.12 6.5v11.3a4.28 4.28 0 004.28 4.28z" fill="#E25920"/></g></svg>