<?xml version="1.0" encoding="utf-8"?>
<!-- Generator: Adobe Illustrator 22.1.0, SVG Export Plug-In . SVG Version: 6.00 Build 0)  -->
<svg version="1.1" id="Layer_1" xmlns="http://www.w3.org/2000/svg" xmlns:xlink="http://www.w3.org/1999/xlink" x="0px" y="0px"
	 viewBox="0 0 64 64" style="enable-background:new 0 0 64 64;" xml:space="preserve">
<style type="text/css">
	.st0{fill:#FFA266;}
	.st1{fill:#FF7139;}
</style>
<path id="Path" class="st0" d="M31.2,43.5l12.3-14.7c1.1-1.3,3.1-1.6,4.5-0.5V20c0-1.1-0.4-2.1-1.2-2.8S45,16,44,16H31
	c-1.6,0-2.9-1.4-3-3c0-3,4-3.1,4-7c0-3.5-3.6-6-8-6s-8,2.5-8,6c0,3.9,4,4,4,7c0,1.6-1.4,3-3,3H4c-2.2,0-4,1.8-4,4v9c0,1.6,1.4,3,3,3
	c3,0,3.1-3.9,7-3.9c3.5,0,6,3.6,6,8c0,1.2-0.2,2.4-0.6,3.6l12.1,4.9C28.8,45,30.3,44.6,31.2,43.5z"/>
<path id="Path_1_" class="st0" d="M62.1,45.8c1.2-1.7,1.9-3.7,1.9-5.8c0-4.4-2.5-8-6-8c-2.5,0-3.4,1.6-4.5,2.8l8.1,9.7
	C61.8,44.9,62,45.3,62.1,45.8z"/>
<path id="Path_2_" class="st0" d="M3,40c-1.6,0-3,1.4-3,3v6.4l7.7-6.1C5.9,42.2,5.2,40,3,40z"/>
<path id="Path_3_" class="st1" d="M4,64h13c1.6,0,3-1.4,3-3c0-3-4-3.1-4-7c0-3.5,3.6-6,8-6s8,2.5,8,6c0,3.9-4,4-4,7c0,1.6,1.4,3,3,3
	h13c2.2,0,4-1.8,4-4V47c0-1.6,1.4-3,3-3c3,0,3.1,4,7,4c1.7,0,3.2-0.9,4.2-2.2c-0.1-0.5-0.3-0.9-0.6-1.3l-8.1-9.7
	C52.8,35.5,51.9,36,51,36c-1.6,0-3-1.4-3-3v-4.7c-1.4-1.1-3.4-0.8-4.5,0.5L31.2,43.5c-0.9,1.1-2.4,1.5-3.7,0.9l-12.1-4.9
	c-0.9,2.6-2.9,4.4-5.4,4.4c-0.8,0-1.6-0.2-2.3-0.6L0,49.4V60C0,62.2,1.8,64,4,64z"/>
</svg>
