<svg width="53" height="21" xmlns="http://www.w3.org/2000/svg"><g transform="translate(.5)" fill-rule="nonzero" fill="none"><path fill="#FF7139" d="M5.22 11h4.07v6H5.22z"/><rect fill="#FF7139" x="3.18" y="11" width="2.03" height="9" rx="1"/><rect fill="#FF7139" x="9.29" y="11" width="2.03" height="9" rx="1"/><path fill="#FF7139" d="M9.29 11h2.03v6H9.29zM3.18 11h2.03v6H3.18z"/><path d="M41.32 0a10.67 10.67 0 00-10.17 7.3H3.71A3.7 3.7 0 000 11h33.72v-.5a7.64 7.64 0 1115.28 0v.5h3v-.5A10.59 10.59 0 0041.32 0z" fill="#FFB587"/><path d="M41.32 18a7.56 7.56 0 01-7.6-7H0a3.7 3.7 0 003.71 3.61h27.78A10.69 10.69 0 0041.32 21 10.58 10.58 0 0052 11h-3a7.56 7.56 0 01-7.68 7z" fill="#FF7139"/><path d="M41.32 18a7.56 7.56 0 007.6-7v-.5a7.63 7.63 0 00-15.26 0v.5a7.56 7.56 0 007.66 7zm-6-7.5a6 6 0 116 5.93 6 6 0 01-6.03-5.93h.03z" fill="#FF7139"/></g></svg>