<?xml version="1.0" encoding="utf-8"?>
<!-- Generator: Adobe Illustrator 22.1.0, SVG Export Plug-In . SVG Version: 6.00 Build 0)  -->
<svg version="1.1" id="Layer_1" xmlns="http://www.w3.org/2000/svg" xmlns:xlink="http://www.w3.org/1999/xlink" x="0px" y="0px"
	 viewBox="0 0 64 64" style="enable-background:new 0 0 64 64;" xml:space="preserve">
<style type="text/css">
	.st0{fill:#FFA266;}
	.st1{fill:#FF7139;}
	.st2{fill:#FFD5B2;}
</style>
<path id="Path" class="st0" d="M40.3,30.9l-8.3,8l-7.4-7L24,31.2l-1,1L1.3,54.3c0.9,0.9,2,1.3,3.2,1.3h54.9c1.2,0,2.4-0.5,3.2-1.3
	L41.3,31.9L40.3,30.9z"/>
<path id="Path_1_" class="st1" d="M24,31.2L1.3,9.9c-0.5,0.6-0.9,1.2-1.1,2C0.1,12.2,0,12.7,0,13.1v38c0,1.2,0.5,2.4,1.3,3.2
	l21.7-22C23,32.3,24,31.2,24,31.2z"/>
<path id="Path_2_" class="st1" d="M63.8,11.5c-0.2-0.7-0.7-1.4-1.2-2L40.3,30.9l1,1l21.3,22.4c0.9-0.9,1.3-2,1.3-3.2V12.9
	C64,12.5,63.9,12,63.8,11.5z"/>
<path id="Path_3_" class="st2" d="M24,31.2l0.6,0.6l7.4,7.1l8.3-8L62.5,9.6c-0.8-0.8-1.9-1.2-3-1.2H4.6c-1.2,0-2.4,0.5-3.2,1.4
	L24,31.2z"/>
</svg>
