<svg width="66" height="65" xmlns="http://www.w3.org/2000/svg" xmlns:xlink="http://www.w3.org/1999/xlink"><defs><path d="M1.908.063a.995.995 0 00-.995.995v4.17c0 .549.447.994.995.994h4.288c.55 0 .997-.445.997-.994v-4.17a.995.995 0 00-.997-.995H1.908z" id="prefix__a"/><path d="M1.075.591a.997.997 0 00-.996.996v4.288c0 .548.446.996.996.996h4.169c.55 0 .995-.448.995-.996V1.587a.996.996 0 00-.995-.996H1.075z" id="prefix__b"/><path d="M1.908.044a.997.997 0 00-.995.996v4.169c0 .55.447.995.995.995h4.288c.55 0 .997-.445.997-.995V1.04a.998.998 0 00-.997-.996H1.908z" id="prefix__c"/><path d="M1.827.591a.995.995 0 00-.995.996v4.288c0 .548.444.996.995.996h4.17a.996.996 0 00.994-.996V1.587a.996.996 0 00-.994-.996h-4.17z" id="prefix__d"/><path d="M1.908.797a.996.996 0 00-.995.995v4.17c0 .55.447.995.995.995h4.288c.55 0 .997-.445.997-.995v-4.17a.997.997 0 00-.997-.995H1.908z" id="prefix__e"/><path d="M1.094.591a.997.997 0 00-.996.996v4.288c0 .548.446.996.996.996h4.168c.55 0 .996-.448.996-.996V1.587a.997.997 0 00-.996-.996H1.094z" id="prefix__f"/><path d="M1.359.591a.996.996 0 00-.994.996v4.288c0 .548.445.996.994.996H5.53a.996.996 0 00.993-.996V1.587A.995.995 0 005.53.591H1.359z" id="prefix__g"/><path d="M1.908.329a.997.997 0 00-.995.995v4.169c0 .55.447.997.995.997h4.288c.55 0 .997-.447.997-.997V1.324a.997.997 0 00-.997-.995H1.908z" id="prefix__h"/><path d="M3.808.789A2.984 2.984 0 00.823 3.773V34.76a2.984 2.984 0 002.985 2.985h30.987a2.985 2.985 0 002.986-2.985V3.773A2.985 2.985 0 0034.795.789H3.808z" id="prefix__i"/><path d="M3.774.753A2.984 2.984 0 00.79 3.738v26.997a2.984 2.984 0 002.984 2.985h26.398a2.985 2.985 0 002.985-2.985V3.738A2.985 2.985 0 0030.172.753H3.774z" id="prefix__k"/></defs><g fill="none" fill-rule="evenodd"><path d="M9.832 12.93a1.493 1.493 0 01-1.493-1.493V2.198a1.493 1.493 0 012.986 0v9.24c0 .823-.67 1.491-1.493 1.491M64.103 26.462h-9.239a1.492 1.492 0 010-2.984h9.239a1.493 1.493 0 110 2.984M19.584 12.93a1.493 1.493 0 01-1.493-1.493V2.198a1.493 1.493 0 012.986 0v9.24c0 .823-.669 1.491-1.493 1.491M64.103 36.214h-9.239a1.492 1.492 0 010-2.984h9.239a1.493 1.493 0 110 2.984M29.85 12.93a1.493 1.493 0 01-1.493-1.493V2.198a1.493 1.493 0 012.986 0v9.24c0 .823-.669 1.491-1.493 1.491M64.103 46.48h-9.239a1.492 1.492 0 010-2.984h9.239a1.493 1.493 0 110 2.984M40.117 12.93a1.493 1.493 0 01-1.493-1.493V2.198a1.493 1.493 0 012.985 0v9.24c0 .823-.668 1.491-1.492 1.491M64.103 56.746h-9.239a1.492 1.492 0 010-2.984h9.239a1.493 1.493 0 110 2.984" fill="#FF7139"/><path d="M54.864 42.903v4.169c0 .55-.445.996-.995.996H49.58a.995.995 0 01-.995-.996v-4.169c0-.55.445-.995.995-.995h4.288c.55 0 .995.445.995.995" fill="#CA99FF"/><use fill="#FFA166" xlink:href="#prefix__a" transform="translate(47.672 41.845)"/><path d="M7.747 11.437h4.169c.55 0 .996.445.996.995v4.288c0 .55-.446.995-.996.995H7.747a.994.994 0 01-.995-.995v-4.288c0-.55.445-.995.995-.995" fill="#CA99FF"/><use fill="#FFA166" xlink:href="#prefix__b" transform="translate(6.672 10.845)"/><path d="M54.864 22.884v4.17c0 .55-.445.995-.995.995H49.58a.995.995 0 01-.995-.996v-4.169c0-.55.445-.995.995-.995h4.288c.55 0 .995.445.995.995" fill="#CA99FF"/><use fill="#FFA166" xlink:href="#prefix__c" transform="translate(47.672 21.845)"/><path d="M17.5 11.437h4.17c.548 0 .994.445.994.995v4.288c0 .55-.446.995-.995.995H17.5a.995.995 0 01-.995-.995v-4.288c0-.55.446-.995.995-.995" fill="#CA99FF"/><use fill="#FFA166" xlink:href="#prefix__d" transform="translate(15.672 10.845)"/><path d="M54.864 32.637v4.169c0 .55-.445.996-.995.996H49.58a.995.995 0 01-.995-.996v-4.17c0-.548.445-.994.995-.994h4.288c.55 0 .995.446.995.995" fill="#CA99FF"/><use fill="#FFA166" xlink:href="#prefix__e" transform="translate(47.672 30.845)"/><path d="M27.766 11.437h4.169c.55 0 .996.445.996.995v4.288c0 .55-.446.995-.996.995h-4.17a.994.994 0 01-.994-.995v-4.288c0-.55.445-.995.995-.995" fill="#CA99FF"/><g transform="translate(26.672 10.845)"><use fill="#FFA166" xlink:href="#prefix__f"/></g><path d="M38.032 11.437H42.2c.55 0 .995.445.995.995v4.288c0 .55-.445.995-.995.995h-4.17a.994.994 0 01-.994-.995v-4.288c0-.55.445-.995.995-.995" fill="#CA99FF"/><g transform="translate(36.672 10.845)"><use fill="#FFA166" xlink:href="#prefix__g"/></g><path d="M54.864 53.17v4.168c0 .55-.445.995-.995.995H49.58a.994.994 0 01-.995-.995V53.17c0-.55.445-.995.995-.995h4.288c.55 0 .995.445.995.995" fill="#CA99FF"/><g transform="translate(47.672 51.845)"><use fill="#FFA166" xlink:href="#prefix__h"/></g><path d="M3.32 15.473h43.308a2.984 2.984 0 012.984 2.985v43.307a2.984 2.984 0 01-2.984 2.984H3.32a2.985 2.985 0 01-2.985-2.984V18.458a2.985 2.985 0 012.985-2.985" fill="#FFA166"/><g transform="translate(5.672 20.845)"><mask id="prefix__j" fill="#fff"><use xlink:href="#prefix__i"/></mask><path fill="#E15820" mask="url(#prefix__j)" d="M-4.177 42.745h46.958V-4.212H-4.177z"/></g><g transform="translate(5.672 20.845)"><mask id="prefix__l" fill="#fff"><use xlink:href="#prefix__k"/></mask><path fill="#FF7139" mask="url(#prefix__l)" d="M-4.21 38.72h42.368V-4.247H-4.21z"/></g></g></svg>