<svg width="43" height="44" xmlns="http://www.w3.org/2000/svg"><g fill-rule="nonzero" fill="none"><path d="M32.579 7.478H21.324a.521.521 0 01-.51-.521v-5.94c0-.283.227-.515.51-.521H32.58a.521.521 0 01.405.845l-2.976 2.652 2.976 2.64a.521.521 0 01-.405.845zM41.205 43.025H1.315a1.274 1.274 0 01-1.157-1.91l14.254-23.552 2.732 3.74a.51.51 0 00.822 0l3.289-4.516 3.288 4.516a.51.51 0 00.822 0l2.721-3.751L42.34 41.115a1.274 1.274 0 01-1.135 1.91z" fill="#FF7139"/><path d="M22.39 8.103z" fill="#FFB2DB"/><path d="M28.086 17.552l-2.72 3.751a.51.51 0 01-.823 0l-3.288-4.516-3.289 4.516a.51.51 0 01-.822 0l-2.732-3.74.474-.776 5.246-8.684a1.47 1.47 0 01.243-.29 1.332 1.332 0 012.003.29l5.245 8.684.463.765z" fill="#FFD5B2"/></g></svg>