<?xml version="1.0" encoding="utf-8"?>
<!-- Generator: Adobe Illustrator 22.1.0, SVG Export Plug-In . SVG Version: 6.00 Build 0)  -->
<svg version="1.1" id="Layer_1" xmlns="http://www.w3.org/2000/svg" xmlns:xlink="http://www.w3.org/1999/xlink" x="0px" y="0px"
	 viewBox="0 0 64 64" style="enable-background:new 0 0 64 64;" xml:space="preserve">
<style type="text/css">
	.st0{fill:#FFD5B2;}
	.st1{fill:#FFA266;}
	.st2{fill:#E25920;}
</style>
<path class="st0" d="M43,39.9l-4.2-4.2l-13-13l-4-4l-0.1-0.1L18,14.9c-0.9,0.5-1.9,1-2.8,1.5c-0.9,0.5-1.8,1.1-2.6,1.7
	C7.5,21.8,3.2,26.5,0,32l0.2,0.4c0.5,0.9,1,1.7,1.6,2.5c4,5.7,14.7,17.6,30.2,17.6c4.3,0,8.5-0.9,12.4-2.7c1-0.4,2-0.9,2.9-1.4
	s1.8-1.1,2.7-1.6C50,46.8,43,39.9,43,39.9z M32,11.5c-3.6,0-7.2,0.6-10.6,1.9l3.3,3.3l1.4,1.4h0.1l3,3l11.6,11.6l4.4,4.4l7.8,7.8
	c3.5-2.8,6.7-6.1,9.3-9.8c0.7-1.1,1.3-2,1.5-2.5c0.1-0.1,0.2-0.3,0.2-0.4C64,31.4,52.1,11.5,32,11.5z"/>
<path id="Path_4_" class="st1" d="M38.9,35.8l4.1,4.1c-1.4,1.5-3.1,2.7-5,3.6c-4.6,2-10,1.5-14.2-1.2c-4.2-2.8-6.8-7.5-6.8-12.5
	c0-2.1,0.5-4.1,1.3-6c0.4-1,0.9-1.9,1.5-2.7c0.5-0.8,1.1-1.5,1.8-2.1l0.2-0.2l0.1,0.1l4,4C25.9,22.9,38.9,35.8,38.9,35.8z"/>
<path id="Path_5_" class="st1" d="M47,29.8c0,2.5-0.6,5.1-1.9,7.3l-4.4-4.4L29.1,21l-3-3l-1.4-1.4c4.7-2.6,10.4-2.5,14.9,0.2
	S47,24.4,47,29.8z"/>
<path id="Path_7_" class="st2" d="M41.1,29.8c0,1-0.2,2-0.5,2.9L29,21c0.9-0.3,1.9-0.5,2.9-0.5c2.4,0,4.8,0.9,6.5,2.7
	S41.1,27.3,41.1,29.8z"/>
<path id="Path_8_" class="st2" d="M25,23.7c-2.3,2.3-3.2,5.7-2.4,8.9c0.8,3.2,3.3,5.6,6.5,6.5s6.5,0,8.9-2.4
	C38,36.7,25,23.7,25,23.7z"/>
<path id="Path_12_" class="st2" d="M53.5,54.7c-0.6,0.6-1.3,0.9-2.2,0.9s-1.6-0.3-2.2-0.9L44.4,50L38,43.5l-4.7-4.7L22.8,28.4
	l-4.6-4.6l-5.6-5.6L8,13.6c-0.8-0.8-1.1-1.9-0.8-2.9c0.3-1.1,1.1-1.9,2.2-2.2s2.2,0,2.9,0.8l41.2,41.2
	C54.7,51.7,54.7,53.5,53.5,54.7z"/>
</svg>
