<?xml version="1.0" encoding="utf-8"?>
<!-- Generator: Adobe Illustrator 22.1.0, SVG Export Plug-In . SVG Version: 6.00 Build 0)  -->
<svg version="1.1" id="Layer_1" xmlns="http://www.w3.org/2000/svg" xmlns:xlink="http://www.w3.org/1999/xlink" x="0px" y="0px"
	 viewBox="0 0 64 64" style="enable-background:new 0 0 64 64;" xml:space="preserve">
<style type="text/css">
	.st0{fill:#FFA266;}
	.st1{fill:#FF7139;}
	.st2{fill:#FFD5B2;}
</style>
<path id="Path_1_" class="st0" d="M21.5,47.5L60.3,6.3c0.8-0.8,2.5-2.6,2.1-4.4c-2.2-1.5-4.5,0.8-5.4,1.6L15.8,42.3
	c-1.2,1.3-1.5,3.2-0.7,4.8c1,0.9,2.2,1.4,3.5,1.4C19.7,48.6,20.8,48.2,21.5,47.5z"/>
<path class="st1" d="M63,2.3c-0.2-0.2-0.4-0.4-0.6-0.5c0.4,1.9-1.3,3.7-2.1,4.4L21.5,47.5c-0.5,0.5-1.1,0.8-1.7,1l-0.3-0.6
	c-0.3-0.5-0.6-1-1-1.4c-1.3-1.3-2.9-1.9-3.6-1.2c-0.7,0.7-0.1,2.3,1.2,3.6c0.8,0.8,1.7,1.3,2.5,1.4c0.5,0.2,1,0.3,1.6,0.3
	c1.1,0,2.1-0.4,2.8-1.1L61.8,8.3C62.8,7.3,65.4,4.7,63,2.3z"/>
<path class="st0" d="M14.6,45.9L8,52.4c0.5-0.5,1.9,0.2,3.2,1.5s1.9,2.7,1.5,3.2l6.5-6.5c0.5-0.5-0.2-1.9-1.5-3.2
	C16.5,46.1,15.1,45.4,14.6,45.9z"/>
<path class="st1" d="M11.9,48.5l-1.2,1.2c0.5-0.5,1.9,0.2,3.2,1.5s1.9,2.7,1.5,3.2l1.2-1.2c0.5-0.5-0.2-1.9-1.5-3.2
	S12.4,48,11.9,48.5z"/>
<path id="Path_4_" class="st1" d="M8.8,51.7c-2,0-3.7,1.3-4.2,3.2V55c0,0.1,0,0.2-0.1,0.2c2.1,0.4,3.6,2.2,3.6,4.3
	c0,0.8-0.2,1.6-0.7,2.3c1.6-0.5,3.1-1.3,4.3-2.4c1.4-1.2,1.8-3.1,1.2-4.8C12.2,52.9,10.6,51.7,8.8,51.7z"/>
<path id="Path_5_" class="st2" d="M4.5,55.2c-0.8,2.4-1.6,4.4-3.8,5.4H0.6c-0.4,0.2-0.6,0.6-0.6,1c0,0.6,0.5,1.1,1.1,1.1
	c2.1,0,4.3-0.3,6.3-0.9c0.4-0.7,0.7-1.5,0.7-2.3C8.1,57.4,6.6,55.6,4.5,55.2z"/>
</svg>
