<svg width="65" height="52" xmlns="http://www.w3.org/2000/svg"><g fill="none" fill-rule="evenodd"><path d="M59.781 32.255a27.536 27.536 0 10-54.515 5.502h53.96c.367-1.811.553-3.654.555-5.502z" fill="#E7DFFF" fill-rule="nonzero"/><path d="M6.745 42.542zM6.199 41.072a18.54 18.54 0 01-.302-.942c.094.377.198.641.302.942zM8.12 45.462c.057.113.132.226.198.34-.066-.114-.141-.227-.198-.34zM5.275 37.757h12.247a14.95 14.95 0 1129.476 0h12.246c0 .226-.122.452-.17.678a27.517 27.517 0 10-54.364-6.18c.006 2.08.25 4.154.726 6.18-.038-.226-.114-.452-.16-.678zM58.302 41.072c.104-.301.207-.612.302-.942-.095.377-.198.641-.302.942zM57.407 43.333c.123-.273.236-.546.349-.829-.113.32-.226.594-.349.83zM56.38 45.462c-.056.113-.131.226-.197.34.066-.114.14-.227.197-.34z"/><path d="M32.255 0a32.199 32.199 0 00-25.51 51.915h51.01A32.199 32.199 0 0032.256 0z" fill="#FF7139" fill-rule="nonzero"/><rect fill="#FFD4B1" fill-rule="nonzero" x="53.488" y="31.464" width="4.72" height="1.573" rx=".787"/><rect fill="#FFD4B1" fill-rule="nonzero" transform="rotate(180 8.653 32.25)" x="6.293" y="31.464" width="4.72" height="1.573" rx=".787"/><path d="M31.464 10.226V7.079a.787.787 0 111.573 0v3.147a.787.787 0 11-1.573 0zM20.519 13.309l-1.7-2.643a.79.79 0 01.238-1.092.78.78 0 011.079.234l1.704 2.651a.78.78 0 01-.235 1.08.79.79 0 01-1.092-.238l.006.008zM12.556 21.922l-2.749-1.587a.782.782 0 01.782-1.354l2.75 1.587a.791.791 0 01.289 1.08.782.782 0 01-1.068.287l-.004-.013zM51.206 20.693l2.65-1.696a.782.782 0 011.08.238.791.791 0 01-.24 1.093l-2.642 1.69a.791.791 0 01-1.093-.24.782.782 0 01.237-1.08l.008-.005zM42.588 12.563l1.573-2.725a.782.782 0 011.068-.286.791.791 0 01.29 1.08L43.95 13.35a.791.791 0 01-1.081.29.782.782 0 01-.281-1.076z" fill="#FFD4B1" fill-rule="nonzero"/><circle fill="#FFA166" fill-rule="nonzero" cx="32.255" cy="35.392" r="8.648"/><circle fill="#FFD4B1" fill-rule="nonzero" cx="32.255" cy="35.317" r="5.511"/><path d="M33.037 35.147a1.573 1.573 0 01-1.394-2.308L43.54 10.278a1.593 1.593 0 112.826 1.47L34.478 34.355c-.293.514-.85.82-1.441.791z" fill="#FFD4B1" fill-rule="nonzero"/></g></svg>