<svg width="44" height="47" xmlns="http://www.w3.org/2000/svg" xmlns:xlink="http://www.w3.org/1999/xlink"><defs><path d="M3.3.521A2.907 2.907 0 00.394 3.427v39.577A2.907 2.907 0 003.3 45.911h37.215a2.907 2.907 0 002.906-2.907V3.427A2.907 2.907 0 0040.515.521H3.3z" id="prefix__a"/><path d="M3.3.521A2.907 2.907 0 00.394 3.427v39.577A2.907 2.907 0 003.3 45.911h37.215a2.907 2.907 0 002.906-2.907V3.427A2.907 2.907 0 0040.515.521H3.3z" id="prefix__c"/><path d="M25.602 1.297l-6.565 8.105a1.773 1.773 0 01-2.016.521l-6.693-2.64a1.739 1.739 0 00-1.748.278L.776 13.802v4.11c0 .284.226.515.51.522h34.261a.52.52 0 00.544-.615v-7.27L35.05 9.297l-6.738-8.001A1.751 1.751 0 0026.957.66c-.506 0-1.007.217-1.355.637z" id="prefix__e"/><path d="M25.602 1.297l-6.565 8.105a1.773 1.773 0 01-2.016.521l-6.693-2.64a1.739 1.739 0 00-1.748.278L.776 13.802v4.11c0 .284.226.515.51.522h34.261a.52.52 0 00.544-.615v-7.27L35.05 9.297l-6.738-8.001A1.751 1.751 0 0026.957.66c-.506 0-1.007.217-1.355.637z" id="prefix__g"/><path d="M3.3.521A2.907 2.907 0 00.394 3.427v39.577A2.907 2.907 0 003.3 45.911h37.215a2.907 2.907 0 002.906-2.907V3.427A2.907 2.907 0 0040.515.521H3.3z" id="prefix__i"/></defs><g fill="none" fill-rule="evenodd"><path fill="#FFD5B2" d="M2.895 33.427h38.21V3.322H2.895z"/><g transform="translate(0 .103)"><mask id="prefix__b" fill="#fff"><use xlink:href="#prefix__a"/></mask><path d="M3.3.52V4.4h37.215V3.38l-.684.684c.181.183.427.287.684.29V3.38l-.684.683.684-.683h-.961c.004.255.103.498.277.683l.684-.683h-.961v39.636h.96l-.683-.685c-.174.186-.273.43-.277.685h.96l-.683-.685.684.685v-.974a.982.982 0 00-.684.29l.684.684v-.974H3.3v.974l.683-.685a.982.982 0 00-.683-.29v.975l.683-.685-.683.685h.984a.973.973 0 00-.29-.685l-.683.685h.973V3.38h-.973l.684.683a.972.972 0 00.29-.683H3.31l.684.683-.695-.683v.972a.972.972 0 00.683-.289L3.3 3.381v-6.728a6.764 6.764 0 00-6.774 6.728v39.636A6.785 6.785 0 003.3 49.789h37.215a6.784 6.784 0 006.773-6.772V3.38a6.763 6.763 0 00-6.75-6.774H3.3V.521z" fill="#FF7139" mask="url(#prefix__b)"/></g><g transform="translate(0 .103)"><mask id="prefix__d" fill="#fff"><use xlink:href="#prefix__c"/></mask><path d="M4.76 34.644a.521.521 0 01-.51-.52v-4.111l7.804-6.241a1.736 1.736 0 011.748-.278l6.693 2.64a1.77 1.77 0 002.015-.521l6.565-8.106a1.761 1.761 0 012.71 0l6.738 8.001 1.042 1.25v7.273a.52.52 0 01-.544.613H4.76z" fill="#FF68BA" mask="url(#prefix__d)"/></g><g transform="translate(3.474 16.314)"><mask id="prefix__f" fill="#fff"><use xlink:href="#prefix__e"/></mask><path fill="#FF68BA" mask="url(#prefix__f)" d="M-3.265 29.712h43.548v-45.483H-3.265z"/></g><g transform="translate(3.474 16.314)"><mask id="prefix__h" fill="#fff"><use xlink:href="#prefix__g"/></mask><path fill="#FFA266" mask="url(#prefix__h)" d="M-4.064 23.227h45.007V-4.122H-4.064z"/></g><g transform="translate(0 .103)"><mask id="prefix__j" fill="#fff"><use xlink:href="#prefix__i"/></mask><path fill="#FF7139" mask="url(#prefix__j)" d="M.208 45.911h43.549V33.336H.208z"/></g></g></svg>