<svg width="44" height="43" xmlns="http://www.w3.org/2000/svg"><g fill-rule="nonzero" fill="none"><path d="M43.279 2.95v14.073c0 .474-.154.935-.44 1.313a2.25 2.25 0 01-1.825.916h-13.69a2.243 2.243 0 01-2.266-2.229v-2.222a2.243 2.243 0 012.265-2.221h6.391A15.818 15.818 0 0021.72 7.393c-7.38 0-13.597 4.566-14.794 10.856l-.21 1.09a2.258 2.258 0 01-2.64 1.781l-1.442-.267-.765-.144a2.222 2.222 0 01-1.832-2.59l.202-1.089C2.034 7.581 11.065.721 21.718.721a23.19 23.19 0 0114.73 5.18V2.95A2.25 2.25 0 0138.72.72h2.265a2.25 2.25 0 012.294 2.23z" fill="#FFA166"/><path d="M42.81 18.336a2.25 2.25 0 01-1.825.916H27.323a2.243 2.243 0 01-2.265-2.229v-2.222a2.243 2.243 0 012.265-2.221h6.391A15.818 15.818 0 0021.72 7.393c-7.38 0-13.597 4.566-14.794 10.856l-.21 1.09a2.258 2.258 0 01-2.64 1.781l-1.442-.267-.765-.144a2.222 2.222 0 01-1.832-2.59l.202-1.089C5.251 3.195 21.812 3.996 21.812 3.996c13.936 0 20.998 14.34 20.998 14.34zM.188 40.732V26.69a2.164 2.164 0 01.44-1.313 2.25 2.25 0 011.824-.945h13.662a2.243 2.243 0 012.265 2.258v2.163a2.243 2.243 0 01-2.265 2.222h-6.39a15.818 15.818 0 0011.995 5.186c7.379.03 13.625-4.522 14.794-10.827l.209-1.089a2.258 2.258 0 012.64-1.781l1.443.267.764.144a2.222 2.222 0 011.81 2.59l-.18 1.125c-1.796 9.449-10.82 16.309-21.48 16.309a23.191 23.191 0 01-14.73-5.216v2.95a2.25 2.25 0 01-2.272 2.23H2.452a2.25 2.25 0 01-2.264-2.23z" fill="#FF7139"/><path d="M.628 25.347a2.25 2.25 0 011.824-.916h13.662a2.243 2.243 0 012.265 2.258v2.163a2.243 2.243 0 01-2.265 2.222h-6.39a15.818 15.818 0 0011.995 5.186c7.379.03 13.625-4.522 14.794-10.827l.209-1.089a2.258 2.258 0 012.64-1.781l1.443.267.764.144a2.222 2.222 0 011.81 2.59l-.18 1.125c-5.013 13.805-21.56 12.983-21.56 12.983C7.69 39.672.628 25.347.628 25.347z" fill="#FFA166"/></g></svg>