<?xml version="1.0" encoding="utf-8"?>
<!-- Generator: Adobe Illustrator 22.1.0, SVG Export Plug-In . SVG Version: 6.00 Build 0)  -->
<svg version="1.1" id="Layer_1" xmlns="http://www.w3.org/2000/svg" xmlns:xlink="http://www.w3.org/1999/xlink" x="0px" y="0px"
	 viewBox="0 0 64 64" style="enable-background:new 0 0 64 64;" xml:space="preserve">
<style type="text/css">
	.st0{fill:#E31587;}
	.st1{fill:#FFB4DB;}
</style>
<path id="Path" class="st0" d="M23.8,5.1L1.1,50.7c-1.4,2.8-1.3,6.2,0.3,8.9C3,62.4,6,64,9.2,64h45.6c5.1,0,9.1-4.2,9.1-9.1
	c0-1.4-0.3-2.8-1-4.1L40.3,5.1C38.7,1.9,35.5,0,32,0S25.3,1.9,23.8,5.1z"/>
<path id="Path_1_" class="st1" d="M29.5,15.1c-1.2,0.9-1.9,2.4-1.7,3.9v17.2c0,0.2,0,0.4,0,0.6c0.1,1.5,1,2.9,2.3,3.6
	c1.4,0.7,3,0.6,4.3-0.3c1.3-0.9,2-2.4,1.9-3.9V19c0-0.2,0-0.4,0-0.6c-0.1-1.5-1-2.9-2.4-3.6c-0.6-0.3-1.2-0.4-1.9-0.5
	C31.1,14.4,30.2,14.6,29.5,15.1L29.5,15.1z"/>
<path id="Path_2_" class="st1" d="M26.6,49.2c0,2.2,1.3,4.2,3.3,5c2,0.9,4.3,0.4,5.9-1.1s2-3.9,1.2-5.9s-2.8-3.3-5-3.3
	C29,43.9,26.7,46.2,26.6,49.2L26.6,49.2z"/>
</svg>
