<svg width="55" height="47" xmlns="http://www.w3.org/2000/svg"><g fill-rule="nonzero" fill="none"><path d="M.934 22.843v3.676a8.677 8.677 0 008.604 8.749h5.134v-3.676H9.538a8.677 8.677 0 01-8.604-8.749z" fill="#C60084"/><path d="M9.538 11.346a8.677 8.677 0 00-8.604 8.737v2.784a8.677 8.677 0 008.604 8.725h5.134V11.346H9.538z" fill="#E31587"/><path d="M27.121 35.075L14.672 24.23v11.027l12.45 10.846a.783.783 0 001.3-.603V34.473a.783.783 0 01-1.3.602z" fill="#C60084"/><path d="M26.796.741L14.672 11.346V24.23l12.45 10.846a.783.783 0 001.3-.602V1.5a.988.988 0 00-1.626-.759zM44.475 3.898A1.048 1.048 0 1043.27 5.61a20.957 20.957 0 010 34.02 1.06 1.06 0 00-.241 1.47c.201.272.518.433.856.435a.966.966 0 00.614-.205 23.066 23.066 0 000-37.432h-.024z" fill="#E31587"/><path d="M38.763 10.141a1.073 1.073 0 00-1.458.337 1.06 1.06 0 00.337 1.447 12.594 12.594 0 010 21.342 1.048 1.048 0 00-.337 1.447c.195.304.53.49.891.494.201-.004.397-.063.567-.169a14.69 14.69 0 000-24.898z" fill="#E31587"/><path d="M34.69 17.577a1.048 1.048 0 00-1.47.205 1.048 1.048 0 00.216 1.47 4.158 4.158 0 010 6.724 1.048 1.048 0 00.627 1.892 1 1 0 00.626-.204 6.255 6.255 0 000-10.087z" fill="#E31587"/></g></svg>