<svg width="44" height="46" xmlns="http://www.w3.org/2000/svg"><g fill-rule="nonzero" fill="none"><path d="M.36 8.935H43.2v33.73a2.887 2.887 0 01-2.886 2.908H3.3a2.898 2.898 0 01-2.887-2.887L.36 8.936z" fill="#E31587"/><path fill="#FFB4DB" d="M3.569 12.39h10.045v28.472H3.569z"/><path d="M39.09 16.254H17.627a.547.547 0 01-.537-.536c0-.297.24-.537.537-.537H39.09a.537.537 0 010 1.073zM39.09 20.547H17.627a.547.547 0 01-.537-.537c0-.296.24-.536.537-.536H39.09a.537.537 0 110 1.073zM28.359 29.325H17.627a.537.537 0 110-1.073h10.732a.537.537 0 110 1.073zM39.09 25.033H17.627a.537.537 0 110-1.073H39.09a.537.537 0 010 1.073z" stroke="#FFB4DB" stroke-width=".4" fill="#FFB4DB"/><path d="M40.314.35H3.3A2.898 2.898 0 00.413 3.247v5.688h42.788V3.247A2.887 2.887 0 0040.314.35z" fill="#FFB4DB"/></g></svg>