<svg width="63" height="60" xmlns="http://www.w3.org/2000/svg" xmlns:xlink="http://www.w3.org/1999/xlink"><defs><path id="prefix__a" d="M0 .881h62.251v59.074H0z"/></defs><g transform="translate(.5 -.336)" fill="none" fill-rule="evenodd"><mask id="prefix__b" fill="#fff"><use xlink:href="#prefix__a"/></mask><path d="M60.69 22.006l-19.227-2.81-8.817-17.403c-.33-.62-.986-.912-1.642-.912-.657 0-1.313.292-1.642.912l-8.574 17.404-19.228 2.81c-1.495.218-2.08 2.042-1.021 3.1l13.9 13.572-3.283 19.12c-.256 1.495 1.313 2.626 2.663 1.933l17.185-9.049 17.428 9.05c1.35.73 2.919-.439 2.663-1.935L47.812 38.68l13.9-13.572c1.059-1.058.475-2.882-1.021-3.1" fill="#E30185" mask="url(#prefix__b)"/><path d="M61.712 25.107l-13.9 13.572 3.283 19.12c.256 1.495-1.313 2.662-2.663 1.933l-17.428-9.049V.881c.656 0 1.313.292 1.642.912l8.817 17.404 19.228 2.81c1.496.218 2.08 2.042 1.02 3.1" fill="#FF2188" mask="url(#prefix__b)"/></g></svg>