<svg width="40" height="40" xmlns="http://www.w3.org/2000/svg"><g fill="none" fill-rule="evenodd"><path d="M14.876 3.657L.93 31.603a5.6 5.6 0 004.994 8.151h27.968a5.654 5.654 0 005.632-5.632 5.805 5.805 0 00-.605-2.52L24.962 3.658a5.643 5.643 0 00-10.086 0z" fill="#E31587"/><path d="M18.378 9.657a2.703 2.703 0 00-1.08 2.421v10.703c-.012.119-.012.238 0 .357.059.942.603 1.785 1.437 2.227a2.681 2.681 0 003.86-2.606V12.057c.01-.115.01-.231 0-.346a2.681 2.681 0 00-2.67-2.53 2.692 2.692 0 00-1.547.476zM16.573 30.824a3.351 3.351 0 103.34-3.297 3.34 3.34 0 00-3.34 3.297z" fill="#FFB4DB"/></g></svg>