<svg width="64" height="62" xmlns="http://www.w3.org/2000/svg"><g fill-rule="nonzero" fill="none"><path d="M62.27 1.5a4.6 4.6 0 00-.57-.5c.44 1.86-1.31 3.62-2.07 4.38L21.32 46.05a3.91 3.91 0 01-2.81 1.12 5.34 5.34 0 01-3.5-1.43 5.88 5.88 0 001.2 1.76 5.39 5.39 0 003.76 1.63 3.89 3.89 0 002.81-1.12l38.3-40.64c1-.97 3.55-3.55 1.19-5.87z" fill="#E60087"/><path d="M21.32 46.05L59.63 5.38c.76-.76 2.51-2.52 2.07-4.38-2.19-1.49-4.44.75-5.3 1.61L15.66 40.98a4.26 4.26 0 00-.65 4.76 5.34 5.34 0 003.5 1.43 3.91 3.91 0 002.81-1.12z" fill="#FF68BB"/><path d="M19.35 46.4a5.75 5.75 0 00-1-1.34c-1.31-1.31-2.89-1.84-3.55-1.18-.66.66-.12 2.23 1.19 3.54s2.89 1.83 3.54 1.18l-1.18-1.18 1-1.02z" fill="#E60087"/><path fill="#FF68BB" d="M13.616 45.063l1.18-1.181 4.724 4.723-1.18 1.181z"/><path fill="#E60087" d="M12.435 46.24l1.18-1.18 4.724 4.723-1.18 1.181z"/><path fill="#FF68BB" d="M11.255 47.42l1.181-1.181 4.724 4.723-1.181 1.181z"/><path fill="#E60087" d="M10.075 48.599l1.181-1.181 4.724 4.723-1.181 1.181z"/><path fill="#FF68BB" d="M8.896 49.778l1.18-1.181L14.8 53.32l-1.181 1.181z"/><path fill="#E60087" d="M7.715 50.956l1.18-1.181 4.724 4.723-1.18 1.181zM19.35 46.4l-1 1 1.18 1.18c.42-.42.32-1.27-.18-2.18z"/><path d="M8.77 50.28a4.32 4.32 0 00-4.15 3.13v.05c0 .08 0 .15-.07.23a4.34 4.34 0 013.53 4.27 4.25 4.25 0 01-.68 2.29 10.34 10.34 0 004.23-2.38 4.33 4.33 0 00-2.9-7.55l.04-.04z" fill="#E60087"/><path d="M4.51 53.69c-.76 2.36-1.53 4.38-3.75 5.36h-.1a1.07 1.07 0 00-.58.94c0 .602.489 1.09 1.09 1.09a20.88 20.88 0 006.25-.89 4.25 4.25 0 00.66-2.23 4.34 4.34 0 00-3.57-4.27z" fill="#FFB2DB"/></g></svg>