<svg width="48" height="39" xmlns="http://www.w3.org/2000/svg"><g fill-rule="nonzero" fill="none"><path fill="#FFB3DB" d="M47.789 28.854v2.056H5.196v-2.056l5.496-1.374h30.914z"/><path d="M7.257 26.878V1.975C7.257.885 8.14 0 9.232 0h34.521c1.09 0 1.975.884 1.975 1.975v24.903c0 1.091-.884 1.976-1.975 1.976H9.232a1.975 1.975 0 01-1.975-1.976z" fill="#FFB3DB"/><path d="M42.98 2.057H10.005a.687.687 0 00-.696.691v22.67a.687.687 0 00.687.688H42.98c.38 0 .687-.308.687-.687V2.748a.687.687 0 00-.687-.691zM43.326 28.167H9.659a.346.346 0 010-.687h33.667a.346.346 0 010 .687zM28.796 29.833h-4.809a.346.346 0 110-.687h4.809a.346.346 0 010 .687z" fill="#E21486"/><g transform="translate(.5 8.348)"><path d="M16.365 0H2.042A2.042 2.042 0 000 2.042v25.916c0 1.127.914 2.041 2.042 2.041h14.323a2.042 2.042 0 002.042-2.041V2.042A2.042 2.042 0 0016.365 0z" fill="#FFB3DB"/><path d="M15.683 2.042H2.728a.682.682 0 00-.686.686v23.866a.682.682 0 00.686.682h12.955a.682.682 0 00.682-.682V2.728a.682.682 0 00-.682-.686z" fill="#E30185"/><circle fill="#FFB3DB" cx="5.794" cy="24.205" r="1.025"/><circle fill="#FFB3DB" cx="9.203" cy="24.205" r="1.025"/><circle fill="#FFB3DB" cx="12.613" cy="24.205" r="1.025"/><path d="M10.228 28.99H8.305a.339.339 0 010-.677h1.923a.339.339 0 110 .678z" fill="#FF2089"/></g></g></svg>