<?xml version="1.0" encoding="utf-8"?>
<!-- Generator: Adobe Illustrator 22.1.0, SVG Export Plug-In . SVG Version: 6.00 Build 0)  -->
<svg version="1.1" id="Layer_1" xmlns="http://www.w3.org/2000/svg" xmlns:xlink="http://www.w3.org/1999/xlink" x="0px" y="0px"
	 viewBox="0 0 64 64" style="enable-background:new 0 0 64 64;" xml:space="preserve">
<style type="text/css">
	.st0{fill:#E31587;}
	.st1{fill:#FF68BB;}
	.st2{fill:#FFB2DB;}
</style>
<path class="st0" d="M50.9,16c-10.4,0-13.6,4.1-18.5,4.3h-0.8c-5-0.2-8.2-4.3-18.6-4.3C2.4,16,0,18.6,0,26.9
	C0.1,40.2,6.2,48,14.4,48c3.2,0,6-2.1,8.9-4.1c2.8-2,5.5-3.9,8.7-3.9s6,2,8.8,4s5.6,4,8.9,4c8.2,0,14.3-7.8,14.4-21.1
	C64,18.6,61.6,16,50.9,16z M6.4,31.3c0-0.9,2.7-4.8,9.1-5.1c6.1-0.3,8.5,4.2,8.5,5.8s-4.9,2.9-9.1,2.9S6.4,32.2,6.4,31.3z
	 M49.1,34.9c-4.2,0-9.1-1.6-9.1-2.9c0-1.3,2.4-6.1,8.5-5.8c6.5,0.3,9.1,4.1,9.1,5.1C57.6,32.2,53.3,34.9,49.1,34.9z"/>
<path class="st1" d="M32,20.4h-0.4l-8.3,23.5c2.8-2,5.6-3.9,8.7-3.9V20.4z"/>
<path class="st2" d="M32,20.4V40c3.2,0,6,2,8.8,4l-8.3-23.7L32,20.4z"/>
</svg>
