<?xml version="1.0" encoding="utf-8"?>
<!-- Generator: Adobe Illustrator 22.1.0, SVG Export Plug-In . SVG Version: 6.00 Build 0)  -->
<svg version="1.1" id="Layer_1" xmlns="http://www.w3.org/2000/svg" xmlns:xlink="http://www.w3.org/1999/xlink" x="0px" y="0px"
	 viewBox="0 0 64 64" style="enable-background:new 0 0 64 64;" xml:space="preserve">
<style type="text/css">
	.st0{fill:#FF68BB;}
	.st1{fill:#E31587;}
</style>
<path id="Path" class="st0" d="M63.8,4.1v20.7c0,0.7-0.2,1.4-0.6,1.9c-0.6,0.9-1.6,1.4-2.7,1.4H40.3c-0.9,0-1.7-0.3-2.4-0.9
	s-1-1.5-1-2.3v-3.3c0-0.9,0.4-1.7,1-2.3c0.6-0.6,1.5-1,2.3-0.9h9.4c-4.5-5-11-7.8-17.7-7.6c-10.9,0-20,6.7-21.8,16l-0.3,1.6
	c-0.4,1.8-2.1,3-3.9,2.6l-2.1-0.4l-1.1-0.2c-0.9-0.1-1.6-0.6-2.2-1.3C0,28.4-0.2,27.5,0,26.6L0.3,25C3,11,16.3,0.8,32,0.8
	c7.9,0,15.6,2.7,21.7,7.6V4.1c0-0.9,0.4-1.7,1-2.3s1.5-1,2.4-0.9h3.3c0.9,0,1.7,0.3,2.4,0.9C63.4,2.4,63.8,3.2,63.8,4.1z"/>
<path id="Path_1_" class="st1" d="M63.1,26.8c-0.6,0.9-1.6,1.4-2.7,1.4H40.3c-0.9,0-1.7-0.3-2.4-0.9s-1-1.5-1-2.3v-3.3
	c0-0.9,0.4-1.7,1-2.3c0.6-0.6,1.5-1,2.3-0.9h9.4c-4.5-5-11-7.8-17.7-7.6c-10.9,0-20,6.7-21.8,16l-0.3,1.6c-0.4,1.8-2.1,3-3.9,2.6
	l-2.1-0.4l-1.1-0.2c-0.9-0.1-1.6-0.6-2.2-1.3C0,28.5-0.2,27.6,0,26.7l0.3-1.6C7.7,4.5,32.2,5.7,32.2,5.7
	C52.7,5.7,63.1,26.8,63.1,26.8z"/>
<path id="Path_2_" class="st1" d="M0.3,59.8V39.1c0-0.7,0.2-1.4,0.6-1.9c0.6-0.9,1.6-1.4,2.7-1.4h20.1c0.9,0,1.7,0.3,2.4,1
	c0.6,0.6,1,1.5,1,2.4v3.2c0,0.9-0.4,1.7-1,2.3s-1.5,1-2.3,0.9h-9.4c4.5,5,11,7.8,17.7,7.6c10.9,0,20.1-6.7,21.8-16l0.3-1.6
	c0.4-1.8,2.1-3,3.9-2.6l2.1,0.4l1.1,0.2c0.9,0.1,1.6,0.6,2.1,1.4c0.5,0.7,0.7,1.6,0.5,2.5l-0.3,1.7C61,53,47.7,63.2,32,63.2
	c-7.9,0-15.6-2.7-21.7-7.7v4.3c0,0.9-0.4,1.7-1,2.3s-1.5,1-2.4,0.9H3.6C1.8,63.1,0.3,61.6,0.3,59.8z"/>
<path id="Path_3_" class="st0" d="M0.9,37.1c0.6-0.9,1.6-1.4,2.7-1.4h20.1c0.9,0,1.7,0.3,2.4,1c0.6,0.6,1,1.5,1,2.4v3.2
	c0,0.9-0.4,1.7-1,2.3s-1.5,1-2.3,0.9h-9.4c4.5,5,11,7.8,17.7,7.6c10.9,0,20.1-6.7,21.8-16l0.3-1.6c0.4-1.8,2.1-3,3.9-2.6l2.1,0.4
	l1.1,0.2c0.9,0.1,1.6,0.6,2.1,1.4c0.5,0.7,0.7,1.6,0.5,2.5l-0.3,1.7c-7.4,20.4-31.8,19.1-31.8,19.1C11.3,58.3,0.9,37.1,0.9,37.1z"/>
</svg>
