<?xml version="1.0" encoding="utf-8"?>
<!-- Generator: Adobe Illustrator 22.1.0, SVG Export Plug-In . SVG Version: 6.00 Build 0)  -->
<svg version="1.1" id="Layer_1" xmlns="http://www.w3.org/2000/svg" xmlns:xlink="http://www.w3.org/1999/xlink" x="0px" y="0px"
	 viewBox="0 0 64 64" style="enable-background:new 0 0 64 64;" xml:space="preserve">
<style type="text/css">
	.st0{fill:#E31587;}
	.st1{fill:#FFB2DB;}
</style>
<path id="Path" class="st0" d="M32,64C14.3,64,0,49.7,0,32S14.3,0,32,0s32,14.3,32,32S49.7,64,32,64z"/>
<path id="Path_1_" class="st1" d="M32,35.9c-0.4,0-0.8-0.3-0.8-0.8V14.8c0-0.4,0.3-0.8,0.8-0.8c0.4,0,0.8,0.3,0.8,0.8v20.3
	C32.8,35.6,32.4,35.9,32,35.9z"/>
<path id="Path_2_" class="st1" d="M45.3,34.3h-14c-0.9,0-1.6-0.7-1.6-1.6c0-0.9,0.7-1.6,1.6-1.6h14c0.9,0,1.6,0.7,1.6,1.6
	C46.8,33.6,46.1,34.3,45.3,34.3z"/>
<path class="st1" d="M57,30.9h-3.2c-0.6,0-1,0.5-1,1.1c0,0.6,0.5,1,1,1H57c0.6,0,1-0.5,1-1.1C58.1,31.4,57.6,30.9,57,30.9z M11.2,32
	c0-0.6-0.5-1-1-1H7c-0.6,0-1,0.5-1,1.1s0.5,1,1,1h3.2C10.8,33.1,11.2,32.6,11.2,32z M32,52.8c-0.6,0-1,0.5-1,1V57c0,0.6,0.5,1,1.1,1
	s1-0.5,1-1v-3.2C33.1,53.2,32.6,52.8,32,52.8z M43.7,50.6c-0.3-0.5-1-0.6-1.5-0.3c-0.2,0.2-0.4,0.4-0.5,0.7s0,0.6,0.1,0.8l1.7,2.7
	c0.2,0.3,0.5,0.5,0.9,0.5c0.2,0,0.4-0.1,0.6-0.2c0.2-0.1,0.4-0.4,0.5-0.7s0-0.6-0.1-0.8L43.7,50.6z M54.4,43.6L51.7,42
	c-0.5-0.3-1.1-0.1-1.5,0.4c-0.1,0.2-0.2,0.5-0.1,0.8c0.1,0.3,0.2,0.5,0.5,0.6l2.8,1.6c0.2,0.1,0.3,0.1,0.5,0.1h0.3
	c0.3-0.1,0.5-0.2,0.6-0.5v-0.1C55.1,44.5,54.9,43.9,54.4,43.6z M12.2,41.8l-2.7,1.7c-0.5,0.3-0.7,1-0.3,1.6c0.2,0.3,0.4,0.4,0.7,0.5
	h0.2c0.2,0,0.4-0.1,0.6-0.2l2.7-1.7c0.5-0.3,0.7-1,0.3-1.6C13.4,41.6,12.7,41.5,12.2,41.8z M21.7,50.2c-0.6-0.3-1.2-0.2-1.5,0.3
	l-1.6,2.8c-0.1,0.2-0.2,0.5-0.1,0.8s0.2,0.5,0.5,0.6h0.1c0.2,0.1,0.3,0.1,0.5,0.1c0.4,0,0.7-0.2,0.9-0.5l1.6-2.8
	c0.1-0.2,0.2-0.5,0.1-0.8C22.2,50.7,21.7,50.2,21.7,50.2z M32,5.9c-0.6,0-1,0.5-1,1v3.2c0,0.6,0.5,1,1.1,1s1-0.5,1-1V7
	C33.1,6.4,32.6,5.9,32,5.9z M20.2,13.4c0.1,0.2,0.4,0.4,0.7,0.5h0.2c0.2,0,0.4-0.1,0.6-0.2c0.2-0.1,0.4-0.4,0.5-0.7s0-0.6-0.1-0.8
	l-1.7-2.7c-0.3-0.5-1-0.6-1.5-0.3c-0.2,0.2-0.4,0.4-0.5,0.7s0,0.6,0.1,0.8C18.5,10.7,20.2,13.4,20.2,13.4z M13.4,20.1l-2.8-1.6
	c-0.5-0.3-1.1-0.1-1.5,0.4C9,19.1,8.9,19.4,9,19.7c0.1,0.3,0.2,0.5,0.5,0.6l2.8,1.6c0.2,0.1,0.3,0.1,0.5,0.1h0.3
	c0.3-0.1,0.5-0.2,0.7-0.5c0.1-0.2,0.2-0.5,0.1-0.8C13.8,20.5,13.7,20.3,13.4,20.1z M51,22.3h0.2c0.2,0,0.4-0.1,0.6-0.2l2.7-1.7
	c0.2-0.1,0.4-0.4,0.5-0.7c0.1-0.3,0-0.6-0.2-0.8c-0.3-0.5-1-0.6-1.4-0.3l-2.7,1.7c-0.2,0.2-0.4,0.4-0.5,0.7c-0.1,0.3,0,0.6,0.2,0.8
	C50.5,22,50.7,22.2,51,22.3z M45,9.2c-0.2-0.1-0.5-0.2-0.8-0.1c-0.3,0.1-0.5,0.2-0.6,0.5L42,12.4c-0.1,0.2-0.2,0.5-0.1,0.8
	c0.1,0.3,0.2,0.5,0.5,0.7c0.2,0.1,0.3,0.1,0.5,0.1c0.4,0,0.7-0.2,0.9-0.5l1.6-2.8c0.1-0.2,0.2-0.5,0.1-0.8C45.5,9.6,45.3,9.4,45,9.2
	z"/>
</svg>
