<svg width="44" height="44" xmlns="http://www.w3.org/2000/svg"><g transform="translate(0 .548)" fill-rule="nonzero" fill="none"><path d="M21.937 42.952c-11.86 0-21.476-9.615-21.476-21.476C.461 9.616 10.076 0 21.937 0c11.861 0 21.476 9.615 21.476 21.476-.017 11.854-9.622 21.46-21.476 21.476z" fill="#E31587"/><path d="M21.937 24.095a.524.524 0 01-.524-.524V9.952a.524.524 0 011.048 0v13.62c0 .289-.235.523-.524.523z" fill="#FFB4DB"/><path d="M30.842 23.048h-9.429a1.048 1.048 0 110-2.096h9.429a1.048 1.048 0 110 2.096z" fill="#FFB4DB"/><rect stroke="#FFB4DB" stroke-width=".4" fill="#FFB4DB" x="36.08" y="20.952" width="3.143" height="1.048" rx=".5"/><rect stroke="#FFB4DB" stroke-width=".4" fill="#FFB4DB" transform="rotate(180 6.233 21.476)" x="4.662" y="20.952" width="3.143" height="1.048" rx=".5"/><path d="M22.461 36.119v2.143a.5.5 0 01-.5.5h-.048a.5.5 0 01-.5-.5v-2.143a.5.5 0 01.5-.5h.048a.5.5 0 01.5.5zM29.616 34.076l1.155 1.805a.5.5 0 01-.151.69l-.04.027a.5.5 0 01-.691-.152l-1.155-1.805a.5.5 0 01.152-.69l.04-.026a.5.5 0 01.69.151zM35.033 28.345l1.856 1.071a.5.5 0 01.183.683l-.024.042a.5.5 0 01-.683.183l-1.856-1.072a.5.5 0 01-.183-.683l.024-.04a.5.5 0 01.683-.184z" stroke="#FFB4DB" stroke-width=".4" fill="#FFB4DB"/><path d="M9.34 29.16l-1.805 1.155a.5.5 0 01-.69-.152l-.026-.04a.5.5 0 01.151-.69l1.806-1.155a.5.5 0 01.69.151l.026.04a.5.5 0 01-.152.691z" stroke="#FFB4DB" stroke-width=".5" fill="#FFB4DB"/><path d="M15.083 34.572l-1.071 1.856a.5.5 0 01-.683.183l-.041-.024a.5.5 0 01-.183-.683l1.071-1.855a.5.5 0 01.683-.183l.041.023a.5.5 0 01.183.683zM21.413 6.833V4.69a.5.5 0 01.5-.5h.048a.5.5 0 01.5.5v2.143a.5.5 0 01-.5.5h-.048a.5.5 0 01-.5-.5zM14.177 8.876L13.022 7.07a.5.5 0 01.152-.69l.04-.027a.5.5 0 01.69.152l1.156 1.805a.5.5 0 01-.152.69l-.04.027a.5.5 0 01-.69-.152zM8.842 14.602l-1.856-1.07a.5.5 0 01-.183-.684l.024-.041a.5.5 0 01.683-.183l1.855 1.071a.5.5 0 01.183.683l-.023.041a.5.5 0 01-.683.183zM34.536 13.796l1.805-1.155a.5.5 0 01.69.151l.026.04a.5.5 0 01-.151.691L35.1 14.678a.5.5 0 01-.691-.152l-.026-.04a.5.5 0 01.152-.69zM28.81 8.39l1.072-1.856a.5.5 0 01.683-.183l.04.024a.5.5 0 01.184.683l-1.072 1.856a.5.5 0 01-.683.183l-.04-.024a.5.5 0 01-.184-.683z" stroke="#FFB4DB" stroke-width=".4" fill="#FFB4DB"/></g></svg>