<svg width="48" height="35" xmlns="http://www.w3.org/2000/svg"><g fill-rule="nonzero" fill="none"><path d="M29.801 16.487l-6.106 5.839-5.436-5.146-.435-.436-.704.703L1.236 33.622a3.349 3.349 0 002.366.983h40.186c.888-.001 1.74-.354 2.367-.983L30.527 17.247l-.726-.76z" fill="#E31587"/><path d="M17.824 16.744L1.214 1.116a3.438 3.438 0 00-.815 1.43 3.483 3.483 0 00-.146.903v27.807c.001.888.355 1.739.983 2.366L17.12 17.47l.704-.726zM46.959 2.322a3.349 3.349 0 00-.916-1.429L29.801 16.487l.737.76 15.628 16.375c.624-.629.973-1.48.971-2.366V3.349a3.148 3.148 0 00-.178-1.027z" fill="#FF4AA2"/><path d="M17.824 16.744l.435.413 5.436 5.169 6.106-5.839L46.043.937a3.26 3.26 0 00-2.232-.915H3.625A3.248 3.248 0 001.269 1.06l16.555 15.684z" fill="#FF8AC5"/></g></svg>