<?xml version="1.0" encoding="utf-8"?>
<!-- Generator: Adobe Illustrator 22.1.0, SVG Export Plug-In . SVG Version: 6.00 Build 0)  -->
<svg version="1.1" id="Layer_1" xmlns="http://www.w3.org/2000/svg" xmlns:xlink="http://www.w3.org/1999/xlink" x="0px" y="0px"
	 viewBox="0 0 64 64" style="enable-background:new 0 0 64 64;" xml:space="preserve">
<style type="text/css">
	.st0{fill:#E31587;}
	.st1{fill:#FFB2DB;}
</style>
<path id="Path" class="st0" d="M49.1,10.5h-17c-0.4,0-0.8-0.4-0.8-0.8V0.8c0-0.4,0.3-0.8,0.8-0.8H49c0.3,0,0.6,0.2,0.7,0.4
	c0.1,0.3,0.1,0.6-0.1,0.8l-4.5,4l4.5,4c0.2,0.2,0.2,0.6,0.1,0.8C49.6,10.3,49.4,10.5,49.1,10.5z"/>
<path id="Path_1_" class="st0" d="M62,64H2c-0.7,0-1.4-0.3-1.7-0.9s-0.4-1.3,0-2l21.5-35.4l4.1,5.6c0.1,0.2,0.4,0.3,0.6,0.3
	s0.5-0.1,0.6-0.3l4.9-6.8l4.9,6.8c0.1,0.2,0.4,0.3,0.6,0.3c0.2,0,0.5-0.1,0.6-0.3l4.1-5.6l21.5,35.5c0.3,0.6,0.3,1.3,0,1.9
	C63.4,63.7,62.7,64,62,64z"/>
<path id="Path_3_" class="st1" d="M42.3,25.7l-4.1,5.6c-0.1,0.2-0.4,0.3-0.6,0.3c-0.2,0-0.5-0.1-0.6-0.3l-5-6.8l-4.9,6.8
	c-0.1,0.2-0.4,0.3-0.6,0.3s-0.5-0.1-0.6-0.3l-4.1-5.6l0.7-1.2l7.9-13.1c0.1-0.2,0.2-0.3,0.4-0.4c0.4-0.4,1-0.6,1.6-0.5
	s1.1,0.4,1.4,0.9l7.9,13.1C41.7,24.5,42.3,25.7,42.3,25.7z"/>
</svg>
