<svg width="55" height="22" xmlns="http://www.w3.org/2000/svg"><g fill-rule="nonzero" fill="none"><path d="M46.767 1.03H8.06a6.646 6.646 0 00-6.623 6.624v5.998a6.646 6.646 0 006.623 6.623h38.708a6.635 6.635 0 006.623-6.623V7.654a6.635 6.635 0 00-6.623-6.623z" fill="#E31587"/><path d="M46.767 1.03V.14H8.06a7.526 7.526 0 00-7.48 7.503v5.998a7.526 7.526 0 007.503 7.503h38.685a7.538 7.538 0 007.515-7.503V7.654A7.538 7.538 0 0046.767.15v1.783a5.79 5.79 0 015.79 5.731v5.998a5.79 5.79 0 01-5.79 5.79H8.06a5.79 5.79 0 01-5.79-5.79v-6.01a5.79 5.79 0 015.79-5.73h38.708V1.03z" fill="#C60084"/><path d="M43.212 11.579a.37.37 0 01.209.232.347.347 0 010 .3l-.822 1.39a.347.347 0 01-.243.174.394.394 0 01-.302-.07l-1.69-1.354.278 2.246a.359.359 0 01-.37.417h-1.645a.37.37 0 01-.278-.128.336.336 0 01-.08-.29l.265-2.315-1.829 1.366a.359.359 0 01-.544-.115l-.788-1.39a.347.347 0 010-.3.382.382 0 01.209-.22l2.05-.87-2.096-.926a.313.313 0 01-.209-.22.37.37 0 010-.312l.8-1.355a.417.417 0 01.254-.185.463.463 0 01.3.07l1.842 1.365-.278-2.234a.359.359 0 01.37-.417h1.598a.37.37 0 01.278.127c.07.08.103.185.093.29l-.301 2.316 1.84-1.355a.417.417 0 01.302-.081c.104.03.194.095.255.185l.776 1.39a.347.347 0 010 .3.37.37 0 01-.209.232l-2.084.915 2.05.822zM31.251 11.579a.359.359 0 01.22.232.347.347 0 010 .3l-.787 1.332a.37.37 0 01-.243.174.394.394 0 01-.301-.07l-1.772-1.354.278 2.246a.382.382 0 01-.093.29.37.37 0 01-.277.127h-1.633a.347.347 0 01-.278-.128.382.382 0 01-.093-.29l.278-2.315-1.84 1.424a.359.359 0 01-.302.07.417.417 0 01-.255-.185l-.775-1.39a.347.347 0 010-.3.336.336 0 01.208-.22l2.084-.87-2.096-.926a.313.313 0 01-.196-.22.37.37 0 010-.312l.799-1.355a.417.417 0 01.254-.185.417.417 0 01.29.07l1.818 1.412-.278-2.189a.394.394 0 01.092-.3.37.37 0 01.278-.128h1.598c.11.003.214.048.29.127a.521.521 0 01.092.301l-.243 2.189L30.21 7.78a.37.37 0 01.29-.081c.104.022.193.09.243.185l.787 1.39a.347.347 0 010 .3.405.405 0 01-.208.232l-2.096.915 2.026.857zM19.302 11.579c.097.046.172.13.208.232a.347.347 0 010 .3l-.822 1.39a.359.359 0 01-.255.174.37.37 0 01-.29-.07l-1.77-1.354.289 2.246a.382.382 0 01-.093.29.37.37 0 01-.278.127h-1.644a.37.37 0 01-.278-.128.382.382 0 01-.092-.29l.29-2.315-1.842 1.366a.347.347 0 01-.301.07.417.417 0 01-.266-.185l-.776-1.39a.347.347 0 010-.3.336.336 0 01.208-.22l2.084-.87-2.095-.926a.336.336 0 01-.197-.22.37.37 0 010-.312l.776-1.355a.359.359 0 01.243-.185.463.463 0 01.3.07l1.842 1.412-.243-2.189a.359.359 0 01.092-.3.347.347 0 01.267-.128h1.61a.347.347 0 01.277.127.394.394 0 01.093.301l-.301 2.235 1.84-1.355a.405.405 0 01.302-.08c.104.03.194.095.254.185l.765 1.39a.347.347 0 010 .3.359.359 0 01-.197.232l-2.096.914 2.096.81z" fill="#FFB4DB"/></g></svg>