<?xml version="1.0" encoding="utf-8"?>
<!-- Generator: Adobe Illustrator 22.1.0, SVG Export Plug-In . SVG Version: 6.00 Build 0)  -->
<svg version="1.1" id="Layer_1" xmlns="http://www.w3.org/2000/svg" xmlns:xlink="http://www.w3.org/1999/xlink" x="0px" y="0px"
	 viewBox="0 0 60.7 64" style="enable-background:new 0 0 60.7 64;" xml:space="preserve">
<style type="text/css">
	.st0{fill:#FF68BB;}
	.st1{fill:#FFB2DB;}
	.st2{fill:#E31587;}
</style>
<path class="st0" d="M53.7,64H7c-3.9,0-7-3-7-7V7c0-3.8,3-7,7-7h46.9c3.8,0,6.8,3,6.8,7v50C60.7,61,57.6,64,53.7,64z"/>
<path class="st1" d="M5.5,5.5h49.9v40.8H5.5V5.5z"/>
<path class="st2" d="M55.4,37l-11-13c-0.5-0.6-1.2-0.9-2-0.9s-1.4,0.3-2,0.9l-9.3,11.4c-0.8,0.9-1.8,1.2-2.9,0.8l-9.4-3.6
	c-0.9-0.3-1.8-0.2-2.4,0.5l-11,8.6v4.5h50V37z"/>
</svg>
