<svg width="61" height="60" xmlns="http://www.w3.org/2000/svg"><g fill-rule="nonzero" fill="none"><path d="M60 3.59V23.1a3 3 0 01-.61 1.82 3.12 3.12 0 01-2.53 1.27H37.88a3.11 3.11 0 01-3.14-3.09v-3.08a3.11 3.11 0 013.14-3.08h8.86a21.93 21.93 0 00-16.63-7.19c-10.23 0-18.85 6.33-20.51 15.05l-.29 1.51a3.13 3.13 0 01-3.66 2.47l-2-.37-1.06-.2a3.08 3.08 0 01-2.54-3.59l.28-1.51C2.82 10.01 15.34.5 30.11.5a32.15 32.15 0 0120.42 7.18V3.59A3.12 3.12 0 0153.68.5h3.14A3.12 3.12 0 0160 3.59z" fill="#FF68BB"/><path d="M59.35 24.92a3.12 3.12 0 01-2.53 1.27H37.88a3.11 3.11 0 01-3.14-3.09v-3.08a3.11 3.11 0 013.14-3.08h8.86a21.93 21.93 0 00-16.63-7.19c-10.23 0-18.85 6.33-20.51 15.05l-.29 1.51a3.13 3.13 0 01-3.66 2.47l-2-.37-1.06-.2a3.08 3.08 0 01-2.54-3.59l.28-1.51C7.28 3.93 30.24 5.04 30.24 5.04c19.32 0 29.11 19.88 29.11 19.88zM.26 55.97V36.5a3 3 0 01.61-1.82 3.12 3.12 0 012.53-1.31h18.94a3.11 3.11 0 013.14 3.13v3a3.11 3.11 0 01-3.14 3.08h-8.86a21.93 21.93 0 0016.63 7.19c10.23.04 18.89-6.27 20.51-15.01l.29-1.51a3.13 3.13 0 013.66-2.47l2 .37 1.06.2a3.08 3.08 0 012.51 3.59l-.25 1.56c-2.49 13.1-15 22.61-29.78 22.61a32.151 32.151 0 01-20.42-7.23v4.09a3.12 3.12 0 01-3.15 3.09H3.4a3.12 3.12 0 01-3.14-3.09z" fill="#E30185"/><path d="M.87 34.64a3.12 3.12 0 012.53-1.27h18.94a3.11 3.11 0 013.14 3.13v3a3.11 3.11 0 01-3.14 3.08h-8.86a21.93 21.93 0 0016.63 7.19c10.23.04 18.89-6.27 20.51-15.01l.29-1.51a3.13 3.13 0 013.66-2.47l2 .37 1.06.2a3.08 3.08 0 012.51 3.59l-.25 1.56C52.94 55.64 30 54.5 30 54.5 10.66 54.5.87 34.64.87 34.64z" fill="#FF68BB"/></g></svg>