<?xml version="1.0" encoding="utf-8"?>
<!-- Generator: Adobe Illustrator 22.1.0, SVG Export Plug-In . SVG Version: 6.00 Build 0)  -->
<svg version="1.1" id="Layer_1" xmlns="http://www.w3.org/2000/svg" xmlns:xlink="http://www.w3.org/1999/xlink" x="0px" y="0px"
	 viewBox="0 0 60.6 64" style="enable-background:new 0 0 60.6 64;" xml:space="preserve">
<style type="text/css">
	.st0{fill:#E31587;}
	.st1{fill:#FFB2DB;}
	.st2{fill:#FFB2DB;stroke:#FFB2DB;stroke-width:0.5661;}
</style>
<path id="Path" class="st0" d="M0,12.1h60.6v47.7c0,1.1-0.4,2.1-1.2,2.9c-0.8,0.8-1.8,1.2-2.9,1.2H4.2c-2.3,0-4.1-1.8-4.1-4.1
	L0,12.1z"/>
<path id="Rectangle" class="st1" d="M4.5,17h14.2v40.3H4.5V17z"/>
<path id="Path_1_" class="st2" d="M54.8,22.5H24.4c-0.4,0-0.8-0.3-0.8-0.8c0-0.4,0.3-0.8,0.8-0.8h30.4c0.4,0,0.8,0.3,0.8,0.8
	S55.2,22.5,54.8,22.5z"/>
<path id="Path_2_" class="st2" d="M54.8,28.6H24.4c-0.4,0-0.8-0.3-0.8-0.8c0-0.4,0.3-0.8,0.8-0.8h30.4c0.4,0,0.8,0.3,0.8,0.8
	C55.6,28.2,55.2,28.6,54.8,28.6z"/>
<path id="Path_3_" class="st2" d="M39.6,41H24.4c-0.4,0-0.8-0.3-0.8-0.8c0-0.4,0.3-0.8,0.8-0.8h15.2c0.4,0,0.8,0.3,0.8,0.8
	S40,41,39.6,41z"/>
<path id="Path_4_" class="st2" d="M54.8,34.9H24.4c-0.4,0-0.8-0.3-0.8-0.8c0-0.4,0.3-0.8,0.8-0.8h30.4c0.4,0,0.8,0.3,0.8,0.8
	S55.2,34.9,54.8,34.9z"/>
<path id="Path_5_" class="st1" d="M56.5,0H4.2C1.9,0,0.1,1.8,0.1,4.1v8h60.6v-8c0-1.1-0.4-2.1-1.2-2.9S57.6,0,56.5,0z"/>
</svg>
