<svg version="1.1" id="Layer_1" xmlns="http://www.w3.org/2000/svg" x="0" y="0" viewBox="0 0 64 64" xml:space="preserve"><style>.st1{fill:#7bebff}</style><path id="Path" d="M23.9 5.5L1.5 50.4c-1.4 2.8-1.3 6.1.3 8.8 1.6 2.7 4.6 4.3 7.7 4.3h44.9c5 0 9-4.1 9-9 0-1.4-.3-2.8-1-4l-22.3-45c-1.5-3.1-4.7-5-8.1-5s-6.6 1.9-8.1 5z" fill="#008ef0"/><path id="Path_1_" class="st1" d="M29.5 15.1c-1.2.9-1.9 2.4-1.7 3.9v17.8c.1 1.5 1 2.9 2.3 3.6 1.4.7 3 .6 4.3-.3 1.3-.9 2-2.4 1.9-3.9V19v-.6c-.1-1.5-1-2.9-2.4-3.6-.6-.3-1.2-.4-1.9-.5-.9.1-1.8.3-2.5.8z"/><path id="Path_2_" class="st1" d="M26.6 49.2c0 2.2 1.3 4.2 3.3 5 2 .9 4.3.4 5.9-1.1 1.6-1.5 2-3.9 1.2-5.9-.8-2-2.8-3.3-5-3.3-3 0-5.3 2.3-5.4 5.3z"/></svg>