<svg version="1.1" id="Layer_1" xmlns="http://www.w3.org/2000/svg" x="0" y="0" viewBox="0 0 64 64" xml:space="preserve"><style>.st0{fill:#008ef0}.st1{fill:#00b3f4}</style><path id="Path" class="st0" d="M0 31.3v4.4c0 2.8 1.1 5.4 3 7.4s4.6 3.1 7.4 3.1h6.2v-4.4h-6.2c-2.8 0-5.4-1.1-7.4-3.1s-3-4.6-3-7.4z"/><path id="Path_1_" class="st1" d="M10.4 17.5C4.6 17.5 0 22.2 0 28v3.4c0 5.8 4.6 10.5 10.4 10.5h6.2V17.5h-6.2z"/><path id="Path_2_" class="st0" d="M31.5 46.1L16.5 33v13.3l15 13.1c.3.2.7.3 1 .1s.6-.5.5-.9V45.3c0 .4-.2.7-.5.9s-.7.1-1-.1z"/><path id="Path_3_" class="st1" d="M31.1 4.7L16.5 17.5V33l15 13.1c.3.2.7.3 1 .1s.6-.5.5-.9V5.6c0-.5-.3-.9-.7-1.1-.3-.2-.8-.1-1.2.2z"/><path id="Path_4_" class="st1" d="M52.4 8.5c-.4-.3-.9-.4-1.3-.2s-.7.6-.8 1.1c0 .5.2.9.6 1.2 6.6 4.7 10.5 12.4 10.5 20.5S57.6 46.8 51 51.5c-.6.4-.7 1.2-.3 1.8.2.3.6.5 1 .5.3 0 .5-.1.7-.2C59.7 48.4 64 40 64 31.1S59.7 13.7 52.4 8.5z"/><path id="Path_5_" class="st1" d="M45.6 16c-.6-.4-1.4-.2-1.8.4-.4.6-.2 1.4.4 1.7 4.4 2.8 7.1 7.6 7.1 12.8S48.6 41 44.2 43.7c-.3.2-.5.5-.6.8s0 .7.2 1c.2.4.6.6 1.1.6.2 0 .5-.1.7-.2 5.2-3.2 8.3-8.9 8.3-15S50.7 19.3 45.6 16z"/><path id="Path_6_" class="st1" d="M40.6 25c-.3-.2-.6-.3-.9-.2-.3 0-.6.2-.8.5s-.3.6-.2.9c0 .3.2.6.5.8 1.3.9 2.1 2.4 2.1 4s-.8 3.1-2.1 4c-.4.3-.6.9-.4 1.4.2.5.7.9 1.2.9.3 0 .5-.1.8-.2 1.9-1.4 3.1-3.7 3.1-6.1s-1.3-4.6-3.3-6z"/></svg>