<svg width="47" height="46" xmlns="http://www.w3.org/2000/svg"><g fill="none" fill-rule="evenodd"><path d="M17.688 3.63L1.65 35.768a6.44 6.44 0 005.743 9.374h32.163a6.502 6.502 0 006.477-6.477 6.676 6.676 0 00-.696-2.897L29.287 3.63a6.49 6.49 0 00-11.6 0z" fill="#008EF0"/><path d="M21.716 10.53a3.108 3.108 0 00-1.244 2.785v12.308a2.263 2.263 0 000 .41 3.12 3.12 0 001.654 2.562 3.083 3.083 0 004.438-2.997V13.29a2.126 2.126 0 000-.398 3.083 3.083 0 00-3.07-2.909 3.096 3.096 0 00-1.778.547zM19.64 34.873a3.854 3.854 0 103.841-3.792 3.842 3.842 0 00-3.842 3.792z" fill="#7BEBFF"/></g></svg>