<svg version="1.1" id="Layer_1" xmlns="http://www.w3.org/2000/svg" x="0" y="0" viewBox="0 0 64 64" xml:space="preserve"><style>.st2{fill:#7bebff}</style><path d="M63.4 33.7c-.2-.5-.4-.9-.7-1.3v-.1s0-.1-.1-.1c-.8.3-1.6.4-2.4.3-1.6-.1-3.1-.9-4.1-2.2H56c-.5-.6-.9-1.4-1.1-2.2-2 1.4-4.8 1.4-6.8 0-2.1-1.5-3-4.1-2.4-6.6-2.5.2-4.8-1.2-5.9-3.5-.7-1.5-.8-3.2-.2-4.8-.2-1-.2-2 0-3C38.1 8.9 37.4 7 37.5 5c0-.5.2-1 .3-1.5.1-.3.3-.6.4-.9-.2-.2-.4-.3-.6-.5 0 .3 0 .6.1 1-.1-.3-.1-.7-.1-1C35.5.3 32.4.3 30.2 2c-1.2-.6-2.7-.9-4.2-.6s-2.8 1.1-3.7 2.3c-1.4-.4-3-.3-4.3.3-1.4.7-2.4 1.8-3 3.2-1.5 0-2.9.5-4.1 1.5-1.1 1-1.9 2.4-2.1 3.9-1.5.4-2.7 1.2-3.6 2.5s-1.2 2.8-1 4.3c-1.3.7-2.3 1.9-2.7 3.3-.2.5-.3 1-.3 1.5 0-.1.1-.1.2-.2l-.2.2C0 25.7-.4 27.7.1 29.5c.2.8.5 1.6 1 2.2-.4.7-.7 1.6-.8 2.4.2.4.4.8.7 1.1-.3-.4-.5-.7-.6-1.1-.1.6-.1 1.3 0 2 0 .1.1.2.1.4.3 1.3 1.1 2.5 2.1 3.4-.4 1.5-.3 3 .3 4.4s1.7 2.5 3.1 3.1c0 1.5.5 3 1.4 4.2 1 1.1 2.3 1.9 3.8 2.1.3 1.5 1.2 2.8 2.4 3.7s2.7 1.2 4.2 1c.7 1.3 1.9 2.4 3.3 2.9s3 .5 4.4-.1c2.1 2.3 5.6 2.6 8 .7 1.3.8 2.8 1.1 4.2.8 1.5-.3 2.8-1.1 3.7-2.3 1.4.4 3 .3 4.3-.3 1.4-.7 2.4-1.8 3-3.2 1.5.1 2.9-.5 4.1-1.4 1.1-1 1.9-2.4 2.1-3.9 1.5-.4 2.7-1.2 3.6-2.5.9-1.3 1.2-2.8 1-4.3 1.3-.7 2.3-1.9 2.8-3.3v-.1c.2-.5.3-1 .3-1.5v-.4c.8-1 1.3-2.2 1.3-3.6 0-.6-.1-1.1-.2-1.6-.2-.2-.2-.4-.3-.6z" fill="#008ef0"/><path d="M62.8 28.6c-.8.3-1.6.4-2.5.4-2.5-.2-4.6-2-5.3-4.4-2 1.4-4.8 1.4-6.8 0-2.1-1.5-3-4.1-2.4-6.5-2.5.2-4.9-1.2-5.9-3.5-.2-.4-.3-.8-.4-1.2-.5 1.5-.5 3.2.2 4.7 1 2.3 3.4 3.7 5.9 3.5-.6 2.5.4 5 2.4 6.5 2 1.4 4.8 1.4 6.8 0 .2.8.7 1.6 1.2 2.3 1 1.2 2.5 2 4.1 2.2.8.1 1.6-.1 2.4-.3h.1c.3.5.6.9.7 1.5.1.2.1.3.2.5v.1c.2-.5.3-1 .4-1.6.2-1.5-.2-3-1.1-4.2z" fill="#00b3f4"/><ellipse id="Oval" class="st2" cx="32.1" cy="32.1" rx="4.5" ry="4.6"/><ellipse id="Oval_1_" class="st2" cx="13" cy="32.1" rx="4.5" ry="4.6"/><ellipse id="Oval_2_" class="st2" cx="23.4" cy="15.7" rx="4.5" ry="4.6"/><ellipse id="Oval_3_" class="st2" cx="40.8" cy="48.2" rx="4.5" ry="4.6"/><ellipse id="Oval_4_" class="st2" cx="23.4" cy="48.2" rx="4.5" ry="4.6"/><path id="Path_9_" class="st2" d="M48.1 28.1c-1.1.9-1.8 2.2-1.8 3.6-.1 1.7.8 3.2 2.2 4.1 1.4.9 3.2.9 4.6 0 1.4-.9 2.3-2.4 2.2-4.1 0-1.1-.4-2.3-1.2-3.1-1.9 1-4.3.8-6-.5z"/></svg>