<?xml version="1.0" encoding="utf-8"?>
<!-- Generator: Adobe Illustrator 22.1.0, SVG Export Plug-In . SVG Version: 6.00 Build 0)  -->
<svg version="1.1" id="Layer_1" xmlns="http://www.w3.org/2000/svg" xmlns:xlink="http://www.w3.org/1999/xlink" x="0px" y="0px"
	 viewBox="0 0 53 64" style="enable-background:new 0 0 53 64;" xml:space="preserve">
<style type="text/css">
	.st0{fill:#7638E9;}
	.st1{fill:#DABDFF;}
	.st2{fill:#00B3F4;}
	.st3{fill:#0060DF;}
	.st4{fill:#008EF0;}
	.st5{fill:#76E1F5;}
</style>
<path id="Path" class="st0" d="M52.6,16c0-2.7-0.1-5.7-0.1-9.1c0-1.4-1-2.6-2.4-2.9L27,0h-1L2.9,4C1.5,4.3,0.4,5.5,0.5,6.9
	c0,3.4,0,6.4-0.1,9.1c-0.1,4.8-0.1,8.3,0.1,10.4c1.3,13.8,4.2,20.2,9.2,27c4,5.4,9.8,9.1,16.3,10.5c0.2,0,0.4,0.1,0.6,0.1
	s0.4,0,0.6-0.1c6.5-1.4,12.3-5.1,16.3-10.5c5-6.8,7.9-13.1,9.1-27C52.7,24.2,52.7,20.8,52.6,16z"/>
<path id="Path_1_" class="st0" d="M26,0.1l-23.1,4C1.5,4.3,0.5,5.5,0.5,6.9c0,3.4-0.1,6.4-0.1,9.1c-0.1,4.8-0.1,8.3,0.1,10.4
	c1.3,13.9,4.2,20.2,9.1,27c4,5.4,9.8,9.1,16.3,10.5c0.2,0,0.4,0.1,0.6,0.1V0C26.3,0,26.2,0,26,0.1z"/>
<path id="Path_2_" class="st0" d="M26.1,4.5L6.7,7.8c-1.2,0.2-2,1.2-2,2.4c0,2.9,0,5.4-0.1,7.6c-0.1,4-0.1,7,0.1,8.7
	c1,11.6,3.5,17,7.6,22.7c3.3,4.5,8.2,7.7,13.7,8.8h0.5V4.4C26.4,4.4,26.2,4.4,26.1,4.5z"/>
<path id="Path_3_" class="st1" d="M48.4,17.8c0-2.2-0.1-4.8-0.1-7.6c0-1.2-0.8-2.2-2-2.4L26.9,4.5h-0.4v53.6H27
	c5.5-1.2,10.4-4.3,13.7-8.9c4.2-5.7,6.6-11,7.7-22.7C48.5,24.8,48.5,21.9,48.4,17.8z"/>
<path id="Path_4_" class="st2" d="M52.6,16c0-2.7-0.1-5.7-0.1-9.1c0-1.4-1-2.6-2.4-2.9L27,0h-1L2.9,4C1.5,4.3,0.4,5.5,0.5,6.9
	c0,3.4,0,6.4-0.1,9.1c-0.1,4.8-0.1,8.3,0.1,10.4c1.3,13.8,4.2,20.2,9.2,27c4,5.4,9.8,9.1,16.3,10.5c0.2,0,0.4,0.1,0.6,0.1
	s0.4,0,0.6-0.1c6.5-1.4,12.3-5.1,16.3-10.5c5-6.8,7.9-13.1,9.1-27C52.7,24.2,52.7,20.8,52.6,16z"/>
<path id="Path_5_" class="st3" d="M26,0.1l-23.1,4C1.5,4.3,0.5,5.5,0.5,6.9c0,3.4-0.1,6.4-0.1,9.1c-0.1,4.8-0.1,8.3,0.1,10.4
	c1.3,13.9,4.2,20.2,9.1,27c4,5.4,9.8,9.1,16.3,10.5c0.2,0,0.4,0.1,0.6,0.1V0C26.3,0,26.2,0,26,0.1z"/>
<path id="Path_6_" class="st4" d="M26.1,4.5L6.7,7.8c-1.2,0.2-2,1.2-2,2.4c0,2.9,0,5.4-0.1,7.6c-0.1,4-0.1,7,0.1,8.7
	c1,11.6,3.5,17,7.6,22.7c3.3,4.5,8.2,7.7,13.7,8.8h0.5V4.4C26.4,4.4,26.2,4.4,26.1,4.5z"/>
<path id="Path_7_" class="st5" d="M48.4,17.8c0-2.2-0.1-4.8-0.1-7.6c0-1.2-0.8-2.2-2-2.4L26.9,4.5h-0.4v53.6H27
	c5.5-1.2,10.4-4.3,13.7-8.9c4.2-5.7,6.6-11,7.7-22.7C48.5,24.8,48.5,21.9,48.4,17.8z"/>
</svg>
