<svg xmlns="http://www.w3.org/2000/svg" viewBox="0 0 64 64"><path d="M50.9 16c-10.4 0-13.6 4.1-18.5 4.3h-.8c-5-.2-8.2-4.3-18.6-4.3C2.4 16 0 18.6 0 26.9.1 40.2 6.2 48 14.4 48c3.2 0 6-2.1 8.9-4.1 2.8-2 5.5-3.9 8.7-3.9 3.2 0 6 2 8.8 4 2.8 2 5.6 4 8.9 4 8.2 0 14.3-7.8 14.4-21.1C64 18.6 61.6 16 50.9 16zM6.4 31.3c0-.9 2.7-4.8 9.1-5.1 6.1-.3 8.5 4.2 8.5 5.8s-4.9 2.9-9.1 2.9-8.5-2.7-8.5-3.6zm42.7 3.6c-4.2 0-9.1-1.6-9.1-2.9 0-1.3 2.4-6.1 8.5-5.8 6.5.3 9.1 4.1 9.1 5.1 0 .9-4.3 3.6-8.5 3.6z" fill="#008ef0"/><path d="M32 20.4h-.4l-8.3 23.5c2.8-2 5.6-3.9 8.7-3.9V20.4z" fill="#00b3f4"/><path d="M32 20.4V40c3.2 0 6 2 8.8 4l-8.3-23.7-.5.1z" fill="#7bebff"/></svg>