<?xml version="1.0" encoding="utf-8"?>
<!-- Generator: Adobe Illustrator 22.1.0, SVG Export Plug-In . SVG Version: 6.00 Build 0)  -->
<svg version="1.1" id="Layer_1" xmlns="http://www.w3.org/2000/svg" xmlns:xlink="http://www.w3.org/1999/xlink" x="0px" y="0px"
	 viewBox="0 0 64 64" style="enable-background:new 0 0 64 64;" xml:space="preserve">
<style type="text/css">
	.st0{fill:#008EF0;}
	.st1{fill:#00B3F4;}
</style>
<path id="Fill-1" class="st0" d="M62.4,23.4l-19.8-2.9l-9-17.9c-0.3-0.6-1-0.9-1.7-0.9S30.6,2,30.2,2.6l-8.8,17.9L1.6,23.4
	c-1.5,0.2-2.1,2.1-1,3.2l14.3,14l-3.4,19.7c-0.3,1.5,1.3,2.7,2.7,2L31.9,53l17.9,9.3c1.4,0.8,3-0.5,2.7-2l-3.4-19.7l14.3-14
	C64.5,25.5,63.9,23.6,62.4,23.4"/>
<path id="Fill-4" class="st1" d="M63.4,26.5l-14.3,14l3.4,19.7c0.3,1.5-1.3,2.7-2.7,2l-17.9-9.3V1.6c0.7,0,1.3,0.3,1.7,0.9l9.1,17.9
	l19.8,2.9C63.9,23.6,64.5,25.5,63.4,26.5"/>
</svg>
