<svg version="1.1" id="Layer_1" xmlns="http://www.w3.org/2000/svg" x="0" y="0" viewBox="0 0 64 64" xml:space="preserve"><style>.st0{fill:#00b3f4}</style><path id="Path" class="st0" d="M31.2 43.5l12.3-14.7c1.1-1.3 3.1-1.6 4.5-.5V20c0-1.1-.4-2.1-1.2-2.8S45 16 44 16H31c-1.6 0-2.9-1.4-3-3 0-3 4-3.1 4-7 0-3.5-3.6-6-8-6s-8 2.5-8 6c0 3.9 4 4 4 7 0 1.6-1.4 3-3 3H4c-2.2 0-4 1.8-4 4v9c0 1.6 1.4 3 3 3 3 0 3.1-3.9 7-3.9 3.5 0 6 3.6 6 8 0 1.2-.2 2.4-.6 3.6l12.1 4.9c1.3.4 2.8 0 3.7-1.1z"/><path id="Path_1_" class="st0" d="M62.1 45.8c1.2-1.7 1.9-3.7 1.9-5.8 0-4.4-2.5-8-6-8-2.5 0-3.4 1.6-4.5 2.8l8.1 9.7c.2.4.4.8.5 1.3z"/><path id="Path_2_" class="st0" d="M3 40c-1.6 0-3 1.4-3 3v6.4l7.7-6.1C5.9 42.2 5.2 40 3 40z"/><path id="Path_3_" d="M4 64h13c1.6 0 3-1.4 3-3 0-3-4-3.1-4-7 0-3.5 3.6-6 8-6s8 2.5 8 6c0 3.9-4 4-4 7 0 1.6 1.4 3 3 3h13c2.2 0 4-1.8 4-4V47c0-1.6 1.4-3 3-3 3 0 3.1 4 7 4 1.7 0 3.2-.9 4.2-2.2-.1-.5-.3-.9-.6-1.3l-8.1-9.7c-.7.7-1.6 1.2-2.5 1.2-1.6 0-3-1.4-3-3v-4.7c-1.4-1.1-3.4-.8-4.5.5L31.2 43.5c-.9 1.1-2.4 1.5-3.7.9l-12.1-4.9c-.9 2.6-2.9 4.4-5.4 4.4-.8 0-1.6-.2-2.3-.6L0 49.4V60c0 2.2 1.8 4 4 4z" fill="#008ef0"/></svg>