<svg xmlns="http://www.w3.org/2000/svg" viewBox="0 0 64 64"><path d="M6.4 32.6h5V40h-5v-7.4z" fill="#008ef0"/><path d="M50.8 19.1c-5.7 0-10.7 3.6-12.6 9H4.6c-2.5 0-4.6 2-4.6 4.6h41.5V32c0-5.2 4.2-9.4 9.4-9.4s9.5 4.2 9.5 9.4v.6H64V32c0-7.1-5.9-12.9-13.2-12.9z" fill="#7bebff"/><path d="M60.4 32.6v-.5c0-5.3-4.3-9.5-9.5-9.5-5.3 0-9.5 4.3-9.5 9.5v.5H0c0 2.2 1.7 4.1 3.9 4.4v5.4c0 .7.5 1.2 1.2 1.2s1.2-.5 1.2-1.2V37h5v5.4c0 .7.5 1.2 1.2 1.2s1.2-.5 1.2-1.2V37h24.9c2.1 4.8 6.9 7.9 12.1 7.9 7 .1 12.8-5.3 13.2-12.3h-3.5zM51 39.5c-4.2 0-7.5-3.3-7.5-7.5s3.3-7.5 7.5-7.5 7.5 3.3 7.5 7.5-3.4 7.5-7.5 7.5z" fill="#00b3f4"/></svg>