<svg version="1.1" id="Layer_1" xmlns="http://www.w3.org/2000/svg" x="0" y="0" viewBox="0 0 66 65" xml:space="preserve"><style>.st0{fill:#00b3f4}</style><path id="Fill-1" class="st0" d="M9.8 12.9c-.8 0-1.5-.7-1.5-1.5V2.2c0-.8.7-1.5 1.5-1.5s1.5.7 1.5 1.5v9.2c0 .9-.6 1.5-1.5 1.5"/><path id="Fill-3" class="st0" d="M64.1 26.5h-9.2c-.8 0-1.5-.7-1.5-1.5s.7-1.5 1.5-1.5h9.2c.8 0 1.5.7 1.5 1.5s-.7 1.5-1.5 1.5"/><path id="Fill-5" class="st0" d="M19.6 12.9c-.8 0-1.5-.7-1.5-1.5V2.2c0-.8.7-1.5 1.5-1.5s1.5.7 1.5 1.5v9.2c0 .9-.7 1.5-1.5 1.5"/><path id="Fill-7" class="st0" d="M64.1 36.2h-9.2c-.8 0-1.5-.7-1.5-1.5s.7-1.5 1.5-1.5h9.2c.8 0 1.5.7 1.5 1.5s-.7 1.5-1.5 1.5"/><path id="Fill-9" class="st0" d="M29.9 12.9c-.8 0-1.5-.7-1.5-1.5V2.2c0-.8.7-1.5 1.5-1.5s1.5.7 1.5 1.5v9.2c-.1.9-.7 1.5-1.5 1.5"/><path id="Fill-11" class="st0" d="M64.1 46.5h-9.2c-.8 0-1.5-.7-1.5-1.5s.7-1.5 1.5-1.5h9.2c.8 0 1.5.7 1.5 1.5s-.7 1.5-1.5 1.5"/><path id="Fill-13" class="st0" d="M40.1 12.9c-.8 0-1.5-.7-1.5-1.5V2.2c0-.8.7-1.5 1.5-1.5s1.5.7 1.5 1.5v9.2c0 .9-.7 1.5-1.5 1.5"/><path id="Fill-15" class="st0" d="M64.1 56.7h-9.2c-.8 0-1.5-.7-1.5-1.5s.7-1.5 1.5-1.5h9.2c.8 0 1.5.7 1.5 1.5 0 .9-.7 1.5-1.5 1.5"/><path d="M53.9 28c.5 0 1-.4 1-1v-4.2c0-.5-.4-1-1-1h-4.3v-3.4c0-1.6-1.3-3-3-3h-3.4v-3c0-.5-.4-1-1-1H38c-.5 0-1 .4-1 1v3h-4.1v-3c0-.5-.4-1-1-1h-4.2c-.5 0-1 .4-1 1v3h-4.1v-3c0-.5-.4-1-1-1h-4.2c-.6 0-1 .4-1 1v3h-3.6v-3c0-.5-.4-1-1-1H7.7c-.5 0-1 .4-1 1v3H3.3c-1.6 0-3 1.3-3 3v43.3c0 1.6 1.3 3 3 3h43.3c1.6 0 3-1.3 3-3v-3.4h4.3c.5 0 1-.4 1-1v-4.2c0-.5-.4-1-1-1h-4.3V48h4.3c.5 0 1-.4 1-1v-4.2c0-.6-.4-1-1-1h-4.3v-4.1h4.3c.5 0 1-.4 1-1v-4.2c0-.5-.4-1-1-1h-4.3V28h4.3z" fill="#7bebff"/><path d="M40.1 58.8H9.5c-1.8 0-3.2-1.4-3.2-3.2V25c0-1.8 1.4-3.2 3.2-3.2h30.6c1.8 0 3.2 1.4 3.2 3.2v30.6c0 1.8-1.4 3.2-3.2 3.2z" fill="#008ef0"/><path class="st0" d="M36.2 54.5h-27c-1.6 0-2.8-1.3-2.8-2.8v-27c0-1.6 1.3-2.8 2.8-2.8h27c1.6 0 2.8 1.3 2.8 2.8v27c0 1.5-1.3 2.8-2.8 2.8z"/></svg>