<svg version="1.1" id="Layer_1" xmlns="http://www.w3.org/2000/svg" x="0" y="0" viewBox="0 0 64 64" xml:space="preserve"><style>.st0{fill:#00b3f4}.st1{fill:#008ef0}</style><path id="Path_1_" class="st0" d="M21.5 47.5L60.3 6.3c.8-.8 2.5-2.6 2.1-4.4-2.2-1.5-4.5.8-5.4 1.6L15.8 42.3c-1.2 1.3-1.5 3.2-.7 4.8 1 .9 2.2 1.4 3.5 1.4 1.1.1 2.2-.3 2.9-1z"/><path class="st1" d="M63 2.3c-.2-.2-.4-.4-.6-.5.4 1.9-1.3 3.7-2.1 4.4L21.5 47.5c-.5.5-1.1.8-1.7 1l-.3-.6c-.3-.5-.6-1-1-1.4-1.3-1.3-2.9-1.9-3.6-1.2-.7.7-.1 2.3 1.2 3.6.8.8 1.7 1.3 2.5 1.4.5.2 1 .3 1.6.3 1.1 0 2.1-.4 2.8-1.1L61.8 8.3c1-1 3.6-3.6 1.2-6z"/><path class="st0" d="M14.6 45.9L8 52.4c.5-.5 1.9.2 3.2 1.5s1.9 2.7 1.5 3.2l6.5-6.5c.5-.5-.2-1.9-1.5-3.2-1.2-1.3-2.6-2-3.1-1.5z"/><path class="st1" d="M11.9 48.5l-1.2 1.2c.5-.5 1.9.2 3.2 1.5s1.9 2.7 1.5 3.2l1.2-1.2c.5-.5-.2-1.9-1.5-3.2s-2.7-2-3.2-1.5z"/><path id="Path_4_" class="st1" d="M8.8 51.7c-2 0-3.7 1.3-4.2 3.2v.1c0 .1 0 .2-.1.2 2.1.4 3.6 2.2 3.6 4.3 0 .8-.2 1.6-.7 2.3 1.6-.5 3.1-1.3 4.3-2.4 1.4-1.2 1.8-3.1 1.2-4.8-.7-1.7-2.3-2.9-4.1-2.9z"/><path id="Path_5_" d="M4.5 55.2c-.8 2.4-1.6 4.4-3.8 5.4H.6c-.4.2-.6.6-.6 1 0 .6.5 1.1 1.1 1.1 2.1 0 4.3-.3 6.3-.9.4-.7.7-1.5.7-2.3 0-2.1-1.5-3.9-3.6-4.3z" fill="#7bebff"/></svg>