<svg version="1.1" id="Layer_1" xmlns="http://www.w3.org/2000/svg" x="0" y="0" viewBox="0 0 64 64" xml:space="preserve"><style>.st2{fill:#7bebff}</style><path id="Path" d="M55 20.5H8.9C4.5 20.5 1 24 1 28.4v7.1c0 4.4 3.5 7.9 7.9 7.9H55c4.4 0 7.9-3.5 7.9-7.9v-7.1c0-4.3-3.5-7.9-7.9-7.9z" fill="#00b3f4"/><path d="M55 19.5H8.9c-4.9 0-8.9 4-8.9 8.9v7.1c0 4.9 4 8.9 8.9 8.9H55c4.9 0 8.9-4 9-8.9v-7.1c0-4.9-4-8.9-9-8.9m0 2.1c3.8 0 6.9 3 6.9 6.8v7.1c0 3.8-3.1 6.9-6.9 6.9H8.9c-3.8 0-6.9-3.1-6.9-6.9v-7.2c0-3.8 3.1-6.8 6.9-6.8l46.1.1" fill="#008ef0"/><path id="Path_2_" class="st2" d="M50.8 33.1c.1.1.2.2.2.3.1.1.1.2 0 .4l-1 1.7c-.1.1-.2.2-.3.2s-.3 0-.4-.1l-2-1.6.3 2.7c0 .1 0 .3-.1.4-.1.1-.2.1-.3.1h-2c-.1 0-.2-.1-.3-.2-.1-.1-.1-.2-.1-.3l.3-2.8-2.2 1.6c-.1.1-.2.1-.4.1-.1 0-.2-.1-.3-.2l-.9-1.7c-.1-.1-.1-.2 0-.4 0-.1.1-.2.2-.3l2.4-1-2.5-1.1c-.1 0-.2-.1-.2-.3-.1-.1-.1-.3 0-.4l1-1.6c.1-.1.2-.2.3-.2s.3 0 .4.1l2.2 1.6-.3-2.7c0-.1 0-.3.1-.4s.2-.1.3-.1h1.9c.1 0 .2.1.3.2s.1.2.1.3l-.4 2.8 2.2-1.6c.1-.1.2-.1.4-.1.1 0 .2.1.3.2l.9 1.7c.1.1.1.2 0 .4 0 .1-.1.2-.2.3l-2.5 1.1 2.6.9z"/><path id="Path_3_" class="st2" d="M36.6 33.1c.1 0 .2.1.3.3.1.1.1.2 0 .4l-.9 1.6c-.1.1-.2.2-.3.2s-.3 0-.4-.1l-2.1-1.6.3 2.7c0 .1 0 .3-.1.3s-.3.1-.4.1h-1.9c-.1 0-.3-.1-.3-.2-.1-.1-.1-.2-.1-.3l.3-2.8-2.2 1.7c-.1.1-.2.1-.4.1-.1 0-.2-.1-.3-.2l-.9-1.7c-.1-.1-.1-.2 0-.4 0-.1.1-.2.2-.3l2.5-1-2.5-1.1c-.1 0-.2-.1-.2-.3-.1-.1-.1-.3 0-.4l1-1.6c.1-.1.2-.2.3-.2.1 0 .2 0 .3.1l2.2 1.7-.3-2.6c0-.1 0-.3.1-.4s.2-.2.3-.2H33c.1 0 .3.1.3.2.1.1.1.2.1.4l-.3 2.6 2.2-1.6c.1-.1.2-.1.3-.1s.2.1.3.2l.9 1.7c.1.1.1.2 0 .4 0 .1-.1.2-.2.3l-2.5 1 2.5 1.1z"/><path id="Path_4_" class="st2" d="M22.3 33c.1.1.2.2.2.3.1.1.1.2 0 .4l-1 1.7c-.1.1-.2.2-.3.2-.1 0-.2 0-.3-.1l-2.1-1.6.3 2.7c0 .1 0 .3-.1.3 0 0-.1.1-.3.1h-2c-.1 0-.2-.1-.3-.2-.1-.1-.1-.2-.1-.3l.3-2.8-2.2 1.6c-.1.1-.2.1-.4.1-.1 0-.2-.1-.3-.2l-.9-1.7c-.1-.1-.1-.2 0-.4 0-.1.1-.2.2-.3l2.5-1-2.5-1.1c-.1 0-.2-.1-.2-.3-.1-.1-.1-.3 0-.4l.9-1.6c.1-.1.2-.2.3-.2s.3 0 .4.1l2.2 1.7-.3-2.6c0-.1 0-.3.1-.4s.2-.2.3-.2h1.9c.1 0 .3.1.3.2.1.1.1.2.1.4l-.4 2.7 2.2-1.6c.1-.1.2-.1.4-.1.1 0 .2.1.3.2l.9 1.7c.1.1.1.2 0 .4 0 .1-.1.2-.2.3l-2.5 1.1 2.6.9z"/></svg>