<svg version="1.1" id="Layer_1" xmlns="http://www.w3.org/2000/svg" x="0" y="0" viewBox="0 0 64 64" xml:space="preserve"><style>.st1{fill:#7bebff}</style><path id="Path_8_" d="M32 6.2c-12.2 0-23.3 6.9-28.7 17.9s-4.1 24 3.4 33.7h50.6c7.5-9.6 8.8-22.7 3.4-33.7S44.2 6.2 32 6.2z" fill="#008ef0"/><path id="Rectangle" class="st1" d="M53.9 37.5H57c.4 0 .8.3.8.8 0 .4-.3.8-.8.8h-3.1c-.4 0-.8-.3-.8-.8s.3-.8.8-.8z"/><path id="Rectangle_1_" class="st1" d="M10.1 39H7c-.4 0-.8-.3-.8-.8 0-.4.3-.8.8-.8h3.1c.4 0 .8.3.8.8s-.3.8-.8.8z"/><path id="Rectangle_2_" class="st1" d="M31.2 16.4v-3.1c0-.4.3-.8.8-.8s.8.3.8.8v3.1c0 .4-.3.8-.8.8s-.8-.4-.8-.8z"/><path id="Path_9_" class="st1" d="M20.4 19.4l-1.7-2.6c-.2-.4-.1-.8.2-1.1.4-.2.8-.1 1.1.2l1.7 2.6c.2.4.1.8-.2 1.1-.4.3-.9.2-1.1-.2z"/><path id="Path_10_" class="st1" d="M12.5 28l-2.7-1.6c-.4-.2-.5-.7-.3-1.1.2-.4.7-.5 1.1-.3l2.7 1.6c.4.2.5.7.3 1.1-.1.2-.3.3-.5.4-.2 0-.5 0-.6-.1z"/><path id="Path_11_" class="st1" d="M50.8 26.8l2.6-1.7c.4-.2.8-.1 1.1.2.1.2.2.4.1.6 0 .2-.2.4-.3.5l-2.6 1.7c-.4.2-.9.1-1.1-.2-.3-.4-.2-.9.2-1.1z"/><path id="Path_12_" class="st1" d="M42.3 18.7l1.6-2.7c.2-.4.7-.5 1.1-.3.4.2.5.7.3 1.1l-1.6 2.7c-.2.4-.7.5-1.1.3-.2-.1-.3-.3-.4-.5-.1-.2 0-.4.1-.6z"/><circle id="Oval" cx="32" cy="41.4" r="8.6" fill="#00b3f4"/><circle id="Oval_1_" class="st1" cx="32" cy="41.3" r="5.5"/><path id="Path_13_" class="st1" d="M32.8 41.1c-.5 0-1.1-.3-1.3-.8-.3-.5-.3-1.1 0-1.5l11.8-22.4c.3-.5.8-.8 1.3-.8.6 0 1.1.3 1.4.7.3.5.3 1.1.1 1.6L34.2 40.3c-.3.5-.8.8-1.4.8z"/></svg>