<svg version="1.1" id="Layer_1" xmlns="http://www.w3.org/2000/svg" x="0" y="0" viewBox="0 0 60.6 64" xml:space="preserve"><style>.st1,.st2{fill:#7bebff}.st2{stroke:#7bebff;stroke-width:.5661}</style><path id="Path" d="M0 12.1h60.6v47.7c0 1.1-.4 2.1-1.2 2.9-.8.8-1.8 1.2-2.9 1.2H4.2c-2.3 0-4.1-1.8-4.1-4.1L0 12.1z" fill="#00b3f4"/><path id="Rectangle" class="st1" d="M4.5 17h14.2v40.3H4.5z"/><path id="Path_1_" class="st2" d="M54.8 22.5H24.4c-.4 0-.8-.3-.8-.8 0-.4.3-.8.8-.8h30.4c.4 0 .8.3.8.8s-.4.8-.8.8z"/><path id="Path_2_" class="st2" d="M54.8 28.6H24.4c-.4 0-.8-.3-.8-.8 0-.4.3-.8.8-.8h30.4c.4 0 .8.3.8.8 0 .4-.4.8-.8.8z"/><path id="Path_3_" class="st2" d="M39.6 41H24.4c-.4 0-.8-.3-.8-.8 0-.4.3-.8.8-.8h15.2c.4 0 .8.3.8.8s-.4.8-.8.8z"/><path id="Path_4_" class="st2" d="M54.8 34.9H24.4c-.4 0-.8-.3-.8-.8 0-.4.3-.8.8-.8h30.4c.4 0 .8.3.8.8s-.4.8-.8.8z"/><path id="Path_5_" class="st1" d="M56.5 0H4.2C1.9 0 .1 1.8.1 4.1v8h60.6v-8c0-1.1-.4-2.1-1.2-2.9-.8-.8-1.9-1.2-3-1.2z"/></svg>