<svg xmlns="http://www.w3.org/2000/svg" width="373" height="80" fill="none" viewBox="0 0 373 80"><path fill="#000" d="M122.795 24.51v5.742h-13.771v7.232h13.771v5.654h-13.771v12.666H103V24.51h19.795Zm4.664-1.14a3.846 3.846 0 0 1 2.685-1.098c1.001 0 1.963.394 2.686 1.099a3.827 3.827 0 0 1 1.032 2.761c.019.478-.056.956-.219 1.405-.163.45-.412.861-.732 1.212a3.56 3.56 0 0 1-2.491 1.161h-.31a3.53 3.53 0 0 1-1.443-.252 3.588 3.588 0 0 1-1.225-.818 3.808 3.808 0 0 1-1.033-2.709 3.823 3.823 0 0 1 1.05-2.76Zm5.663 9.284v23.15h-5.955v-23.15h5.955Zm10.328 0v3.559a5.961 5.961 0 0 1 2.461-3.025 7.281 7.281 0 0 1 3.813-.964 8.313 8.313 0 0 1 2.126.254 7.748 7.748 0 0 1 1.721.649l-2.109 5.83a4.076 4.076 0 0 0-1.282-.597 6.327 6.327 0 0 0-1.721-.236 4.994 4.994 0 0 0-3.58 1.262c-.924.859-1.386 2.27-1.386 4.234v12.184h-5.766v-23.15h5.723Zm17.557 22.703a11.246 11.246 0 0 1-3.787-2.55 11.282 11.282 0 0 1-2.444-3.814 13 13 0 0 1-.861-4.716 12.411 12.411 0 0 1 .861-4.742 11.649 11.649 0 0 1 2.582-3.805 11.787 11.787 0 0 1 3.795-2.63 11.754 11.754 0 0 1 4.716-.876 12.088 12.088 0 0 1 4.717.877c1.381.563 2.639 1.4 3.7 2.463a11.167 11.167 0 0 1 2.445 3.752c.594 1.512.886 3.13.86 4.76v2.173h-18.073a6.42 6.42 0 0 0 2.298 3.585 6.794 6.794 0 0 0 4.226 1.307 6.573 6.573 0 0 0 3.442-.877 6.586 6.586 0 0 0 2.229-2.253l4.742 2.92a13.496 13.496 0 0 1-4.217 3.9 12.226 12.226 0 0 1-6.291 1.49 13.083 13.083 0 0 1-4.94-.964Zm1.015-16.997a6.774 6.774 0 0 0-2.315 3.261h12.144a5.835 5.835 0 0 0-2.152-3.26 6.32 6.32 0 0 0-3.873-1.14 6.179 6.179 0 0 0-3.804 1.14Zm21.017-5.706v-.816c-.034-1.586.128-3.17.482-4.716a6.428 6.428 0 0 1 1.601-3.024 6.211 6.211 0 0 1 2.986-1.604 18.938 18.938 0 0 1 4.648-.49h1.514v5.399h-.972a14.656 14.656 0 0 0-2.401.149 2.695 2.695 0 0 0-1.369.605c-.335.333-.55.771-.611 1.245a15.83 15.83 0 0 0-.12 2.12v1.114h5.473v5.312h-5.473v17.856h-5.758V37.966h-3.761v-5.312h3.761Zm19.795 22.66a11.844 11.844 0 0 1-3.813-2.63 11.939 11.939 0 0 1-2.56-3.904 12.109 12.109 0 0 1-.882-4.608 12.15 12.15 0 0 1 .86-4.699 11.542 11.542 0 0 1 2.582-3.769 11.41 11.41 0 0 1 3.938-2.682 11.238 11.238 0 0 1 4.668-.824 11.86 11.86 0 0 1 4.743.876 11.754 11.754 0 0 1 5.32 4.414 12.08 12.08 0 0 1 1.978 6.693 11.932 11.932 0 0 1-.921 4.672 12.63 12.63 0 0 1-2.548 3.83 11.761 11.761 0 0 1-3.812 2.63 12.514 12.514 0 0 1-9.553 0Zm7.238-5.19a6.53 6.53 0 0 0 1.979-1.376 6.463 6.463 0 0 0 1.326-2.034 6.921 6.921 0 0 0 0-5.084 6.384 6.384 0 0 0-1.326-2.06 6.34 6.34 0 0 0-1.979-1.368 6.017 6.017 0 0 0-4.889 0 6.42 6.42 0 0 0-1.971 1.368 6.275 6.275 0 0 0-1.334 2.06 6.921 6.921 0 0 0 0 5.084c.312.76.765 1.45 1.334 2.034a6.597 6.597 0 0 0 1.971 1.376 6.16 6.16 0 0 0 4.915.026l-.026-.026Zm10.25-17.47h6.885l4.751 6.88 4.802-6.863h6.816l-8.038 11.3 8.675 11.833h-7.031l-5.224-7.24-5.087 7.24h-6.988l8.486-11.886-8.047-11.264Zm49.228-8.144c1.47-.025 2.931.236 4.303.772a10.003 10.003 0 0 1 3.365 2.121 9.622 9.622 0 0 1 2.212 3.217 10.617 10.617 0 0 1 .353 6.942 9.898 9.898 0 0 1-1.239 2.63 9.52 9.52 0 0 1-2.005 2.165 9.088 9.088 0 0 1-2.72 1.49l6.696 11.957h-3.959l-6.025-11.019h-9.665v11.019h-3.494V24.51h12.178Zm-8.684 17.015h8.417a8.02 8.02 0 0 0 3.133-.579 6.988 6.988 0 0 0 2.315-1.543 6.407 6.407 0 0 0 1.438-2.226c.317-.84.481-1.73.481-2.63a7.062 7.062 0 0 0-.507-2.7 6.19 6.19 0 0 0-1.506-2.156 6.635 6.635 0 0 0-2.316-1.394 9.062 9.062 0 0 0-3.02-.456h-8.435v13.684Zm29.839 13.832a11.25 11.25 0 0 1-3.787-2.533 10.891 10.891 0 0 1-2.419-3.796 13 13 0 0 1-.86-4.716 12.55 12.55 0 0 1 .86-4.777 11.817 11.817 0 0 1 2.582-3.805 11.393 11.393 0 0 1 3.744-2.63 11.724 11.724 0 0 1 4.734-.946 11.933 11.933 0 0 1 4.613.877 10.785 10.785 0 0 1 3.657 2.445 11.398 11.398 0 0 1 2.427 3.76c.595 1.504.887 3.114.861 4.734v1.587h-20.096a8.396 8.396 0 0 0 1.658 4.285 8.17 8.17 0 0 0 3.644 2.727 9.622 9.622 0 0 0 3.304.553 7.939 7.939 0 0 0 4.459-1.08 8.14 8.14 0 0 0 3.158-3.382l2.952 1.753a13.398 13.398 0 0 1-4.303 4.33 11.874 11.874 0 0 1-6.274 1.543 12.774 12.774 0 0 1-4.914-.929Zm1.773-19.513a7.81 7.81 0 0 0-2.505 1.508 8.299 8.299 0 0 0-1.833 2.27 9.309 9.309 0 0 0-1.033 2.85h16.464a7.833 7.833 0 0 0-2.59-5.252 7.557 7.557 0 0 0-5.457-1.91 8.582 8.582 0 0 0-3.046.534Zm23.297-13.84v33.8h-3.443v-33.8h3.443Zm9.519 33.739a7.124 7.124 0 0 1-2.531-1.482 6.205 6.205 0 0 1-1.514-2.165 6.71 6.71 0 0 1-.508-2.63 6.433 6.433 0 0 1 .667-3.143 6.3 6.3 0 0 1 2.095-2.405c1.834-1.298 4.355-1.955 7.557-1.955h7.195v-.877a5.722 5.722 0 0 0-.374-2.328 5.62 5.62 0 0 0-1.279-1.967c-1.11-1.07-2.78-1.604-4.991-1.604a7.851 7.851 0 0 0-4.149.931 8.035 8.035 0 0 0-3.089 2.97l-2.987-1.929a12.881 12.881 0 0 1 4.209-3.629 12.5 12.5 0 0 1 6.024-1.35 13.307 13.307 0 0 1 4.303.64 8.57 8.57 0 0 1 3.116 1.824 7.827 7.827 0 0 1 1.936 2.84 9.694 9.694 0 0 1 .646 3.602v14.718h-3.365v-4.067a10.268 10.268 0 0 1-4.002 3.34 12.38 12.38 0 0 1-5.396 1.2 10.654 10.654 0 0 1-3.563-.534Zm6.713-2.893a10.707 10.707 0 0 0 2.435-.99 10.04 10.04 0 0 0 2.152-1.631 9.096 9.096 0 0 0 1.661-2.227v-3.208h-7.032c-2.384 0-4.139.377-5.258 1.114a3.964 3.964 0 0 0-1.612 2.539 4.014 4.014 0 0 0 .622 2.957c.16.23.342.445.542.64a5.693 5.693 0 0 0 3.942 1.14c.871.004 1.739-.105 2.582-.325l-.034-.009Zm13.408 10.589a7.37 7.37 0 0 1-2.444-1.499l2.238-2.875c.414.459.896.85 1.428 1.157a3.8 3.8 0 0 0 1.859.43 5.327 5.327 0 0 0 1.575-.21c.48-.16.925-.412 1.308-.746a6.34 6.34 0 0 0 1.154-1.508c.435-.763.829-1.55 1.179-2.358l.508-1.113-9.528-22.063h3.753l7.582 17.926 7.221-17.926H367l-10.328 24.184a29.237 29.237 0 0 1-1.661 3.296 9.46 9.46 0 0 1-1.79 2.236 6.288 6.288 0 0 1-2.126 1.244 8.939 8.939 0 0 1-5.714-.175h.034Z"/><defs><linearGradient id="a" x1="4.8" x2="75.208" y1="40.003" y2="40.003" gradientTransform="translate(250.323 26.471)" gradientUnits="userSpaceOnUse"><stop stop-color="#9059FF"/><stop offset="1" stop-color="#F770FF"/></linearGradient></defs><g><path fill="url(#a)" d="m322.111 43.924-28.48-16.597a6.64 6.64 0 0 0-3.258-.856 6.656 6.656 0 0 0-3.259.856l-28.581 16.597a6.805 6.805 0 0 0-2.49 2.532 7.103 7.103 0 0 0-.92 3.484v33.088a6.98 6.98 0 0 0 .903 3.495 6.678 6.678 0 0 0 2.507 2.522l28.48 16.492c.992.62 2.14.944 3.31.934a6.41 6.41 0 0 0 3.309-.934l28.48-16.492a6.812 6.812 0 0 0 2.49-2.532 7.12 7.12 0 0 0 .919-3.485V49.941a6.8 6.8 0 0 0-.876-3.51 6.507 6.507 0 0 0-2.534-2.506v-.001Z" transform="matrix(1.04166 0 0 1 -260.751 -26.471)"/><path fill="#20133A" d="m21.472 48.25-1.748 1.042a2.729 2.729 0 0 0-1.29 1.657 2.772 2.772 0 0 0 .263 2.093c.229.435.57.8.985 1.056.416.256.892.395 1.378.402.464-.004.919-.11 1.337-.313l1.748-1.041a2.724 2.724 0 0 0 1.288-1.657 2.778 2.778 0 0 0-.26-2.093 2.684 2.684 0 0 0-.66-.864 2.638 2.638 0 0 0-.944-.526 2.601 2.601 0 0 0-2.097.244Zm10.691-6.146-3.599 2.083a2.735 2.735 0 0 0-1.29 1.657 2.773 2.773 0 0 0 .263 2.093c.23.435.57.8.986 1.057.416.256.891.395 1.378.402a3.129 3.129 0 0 0 1.336-.313L34.835 47a2.711 2.711 0 0 0 1.29-1.657c.192-.704.1-1.452-.26-2.093a2.642 2.642 0 0 0-1.605-1.39 2.597 2.597 0 0 0-2.098.244h.001Zm14.493-5.094a2.439 2.439 0 0 0-1.439-1.25V14.813a2.812 2.812 0 0 0-.81-1.992A2.74 2.74 0 0 0 42.442 12a2.671 2.671 0 0 0-1.925.833 2.72 2.72 0 0 0-.572.913c-.129.34-.188.702-.177 1.066v21.042c-.31.1-.597.262-.844.477-.25.218-.451.48-.594.773a2.804 2.804 0 0 0-.103 2.396 2.804 2.804 0 0 0 .103 2.396c.145.295.347.558.594.773.243.213.53.376.844.477v21.041c0 .746.293 1.462.813 1.99a2.755 2.755 0 0 0 3.926-.001 2.83 2.83 0 0 0 .812-1.989V43.042a2.426 2.426 0 0 0 1.44-1.25c.392-.747.43-1.62.103-2.396a3.252 3.252 0 0 0-.206-2.386Zm7-7.198-3.597 2.084a2.727 2.727 0 0 0-1.29 1.657 2.768 2.768 0 0 0 .262 2.093c.23.435.57.8.985 1.056.417.256.892.395 1.38.402a3.13 3.13 0 0 0 1.336-.312l3.598-2.084a2.729 2.729 0 0 0 1.29-1.657 2.774 2.774 0 0 0-.263-2.093 2.653 2.653 0 0 0-1.603-1.39 2.605 2.605 0 0 0-2.097.244h-.001Zm8.523 1.042a3.13 3.13 0 0 0 1.336-.312l1.748-1.042a2.747 2.747 0 0 0 1.29-1.66 2.8 2.8 0 0 0-.25-2.097 2.722 2.722 0 0 0-1.644-1.299 2.67 2.67 0 0 0-2.069.264l-1.747 1.042a2.724 2.724 0 0 0-1.288 1.657 2.773 2.773 0 0 0 .26 2.093c.23.418.575.767.997 1.01.417.239.89.358 1.368.344h-.001Zm3.083 18.438-1.747-1.042a2.685 2.685 0 0 0-2.057-.248 2.717 2.717 0 0 0-1.631 1.296 2.78 2.78 0 0 0-.254 2.085 2.743 2.743 0 0 0 1.27 1.659l1.748 1.041c.417.202.873.309 1.337.313a2.7 2.7 0 0 0 1.378-.402c.416-.257.756-.622.985-1.057a2.587 2.587 0 0 0 .277-2.051 2.546 2.546 0 0 0-1.304-1.594h-.002Zm-8.943-5.105-3.597-2.083a2.67 2.67 0 0 0-2.07-.264 2.71 2.71 0 0 0-1.643 1.299 2.79 2.79 0 0 0 .231 3.057c.221.285.496.523.809.7l3.598 2.083c.416.202.873.309 1.336.313.49-.008.967-.147 1.378-.403.417-.256.756-.62.987-1.056.378-.62.48-1.361.286-2.055a2.562 2.562 0 0 0-1.315-1.591Zm-27.756-9.583 3.598 2.083c.418.202.875.309 1.338.313a2.7 2.7 0 0 0 1.378-.402c.417-.257.756-.621.985-1.056a2.768 2.768 0 0 0-.217-3.053 2.708 2.708 0 0 0-.81-.697l-3.599-2.084a2.65 2.65 0 0 0-2.065-.265 2.701 2.701 0 0 0-1.636 1.307 2.943 2.943 0 0 0 1.028 3.854Zm-4.417-8.854-1.75-1.042a2.67 2.67 0 0 0-2.07-.264 2.743 2.743 0 0 0-1.643 1.299 2.79 2.79 0 0 0 .231 3.057c.222.285.497.523.809.7l1.748 1.042c.416.202.874.308 1.336.312a2.7 2.7 0 0 0 1.378-.402c.417-.257.756-.621.987-1.056a2.671 2.671 0 0 0 .249-2.044 2.617 2.617 0 0 0-1.277-1.602h.002Z"/></g></svg>