<svg width="191" height="126" fill="none" viewBox="0 0 191 126" xmlns="http://www.w3.org/2000/svg"><path d="M14.321 97.793v4.101H4.36v5.166h9.962v4.038H4.36v9.048H0V97.793h14.321Zm3.375-.814a2.8 2.8 0 0 1 3.885 0 2.703 2.703 0 0 1 .747 1.972 2.614 2.614 0 0 1-.688 1.87 2.59 2.59 0 0 1-1.802.829h-.224a2.589 2.589 0 0 1-1.93-.764 2.674 2.674 0 0 1-.748-1.935 2.706 2.706 0 0 1 .76-1.972Zm4.097 6.631v16.536h-4.309V103.61h4.309Zm7.472 0v2.542a4.27 4.27 0 0 1 1.78-2.16 5.318 5.318 0 0 1 2.76-.689 6.086 6.086 0 0 1 2.782.645l-1.525 4.164a2.956 2.956 0 0 0-.928-.426 4.599 4.599 0 0 0-1.245-.169 3.64 3.64 0 0 0-2.59.901c-.669.614-1.003 1.622-1.003 3.025v8.703h-4.172V103.61h4.14Zm12.702 16.216a8.13 8.13 0 0 1-2.74-1.822 8.047 8.047 0 0 1-1.768-2.723 9.183 9.183 0 0 1-.623-3.369 8.762 8.762 0 0 1 .623-3.387 8.34 8.34 0 0 1 1.868-2.718 8.525 8.525 0 0 1 2.746-1.878 8.613 8.613 0 0 1 3.412-.626 8.837 8.837 0 0 1 3.412.626c1 .403 1.91 1.001 2.678 1.759a7.963 7.963 0 0 1 1.768 2.68 8.815 8.815 0 0 1 .623 3.4v1.553H40.89a4.58 4.58 0 0 0 1.662 2.561c.89.64 1.964.968 3.058.933a4.808 4.808 0 0 0 2.49-.626 4.738 4.738 0 0 0 1.613-1.61l3.43 2.085a9.73 9.73 0 0 1-3.05 2.787 8.938 8.938 0 0 1-4.552 1.064 9.56 9.56 0 0 1-3.574-.689Zm.735-12.14a4.838 4.838 0 0 0-1.675 2.329h8.786a4.165 4.165 0 0 0-1.557-2.329 4.612 4.612 0 0 0-2.802-.814 4.509 4.509 0 0 0-2.752.814Zm15.205-4.076v-.583a13.611 13.611 0 0 1 .349-3.368 4.572 4.572 0 0 1 1.158-2.16 4.512 4.512 0 0 1 2.16-1.146 13.864 13.864 0 0 1 3.362-.35h1.097v3.856h-.704a10.75 10.75 0 0 0-1.737.107 1.961 1.961 0 0 0-.99.432 1.517 1.517 0 0 0-.442.889 11.023 11.023 0 0 0-.087 1.515v.795h3.96v3.795h-3.96v12.754h-4.166v-12.742h-2.72v-3.794h2.72Zm14.32 16.185a8.586 8.586 0 0 1-2.757-1.878 8.509 8.509 0 0 1-1.853-2.789 8.565 8.565 0 0 1-.638-3.291 8.591 8.591 0 0 1 .623-3.356 8.217 8.217 0 0 1 1.868-2.692 8.251 8.251 0 0 1 6.227-2.505 8.672 8.672 0 0 1 3.43.626 8.488 8.488 0 0 1 3.85 3.153 8.554 8.554 0 0 1 1.43 4.78 8.43 8.43 0 0 1-.665 3.338 9.032 9.032 0 0 1-1.844 2.736 8.53 8.53 0 0 1-2.758 1.878 9.166 9.166 0 0 1-6.912 0Zm5.237-3.707a4.696 4.696 0 0 0 1.433-.983c.408-.418.735-.911.959-1.452a4.885 4.885 0 0 0 0-3.632 4.568 4.568 0 0 0-.959-1.471 4.581 4.581 0 0 0-1.433-.977 4.394 4.394 0 0 0-3.536 0 4.646 4.646 0 0 0-1.426.977 4.447 4.447 0 0 0-.964 1.471 4.885 4.885 0 0 0 0 3.632c.224.542.552 1.036.964 1.452.412.413.896.746 1.426.983a4.49 4.49 0 0 0 1.776.375 4.479 4.479 0 0 0 1.78-.356l-.02-.019Zm7.416-12.478h4.982l3.436 4.915 3.476-4.903h4.93l-5.815 8.071 6.276 8.453h-5.087l-3.78-5.172-3.679 5.172h-5.055l6.139-8.491-5.823-8.045Zm35.616-5.817a8.274 8.274 0 0 1 3.114.551 7.254 7.254 0 0 1 2.434 1.515 6.889 6.889 0 0 1 1.601 2.298 7.507 7.507 0 0 1 .255 4.959 7.012 7.012 0 0 1-.897 1.878 6.771 6.771 0 0 1-1.451 1.547 6.596 6.596 0 0 1-1.967 1.064l4.845 8.541h-2.865l-4.358-7.871h-6.993v7.871h-2.528V97.793h8.81Zm-6.282 12.153h6.089a5.864 5.864 0 0 0 2.267-.413 5.072 5.072 0 0 0 1.675-1.102 4.562 4.562 0 0 0 1.039-1.59 5.27 5.27 0 0 0 .35-1.879 4.994 4.994 0 0 0-.368-1.928 4.42 4.42 0 0 0-1.089-1.541 4.828 4.828 0 0 0-1.675-.995 6.648 6.648 0 0 0-2.186-.326h-6.102v9.774Zm21.587 9.88a8.142 8.142 0 0 1-2.739-1.809 7.771 7.771 0 0 1-1.75-2.711 9.215 9.215 0 0 1-.623-3.369 8.868 8.868 0 0 1 .623-3.412 8.422 8.422 0 0 1 1.868-2.718 8.26 8.26 0 0 1 2.709-1.878 8.57 8.57 0 0 1 3.425-.676 8.733 8.733 0 0 1 3.337.626 7.821 7.821 0 0 1 2.646 1.747 8.14 8.14 0 0 1 1.755 2.686 8.692 8.692 0 0 1 .623 3.381v1.133h-14.539a5.959 5.959 0 0 0 1.2 3.061 5.895 5.895 0 0 0 2.636 1.948 7.049 7.049 0 0 0 2.391.395 5.8 5.8 0 0 0 3.225-.772 5.84 5.84 0 0 0 2.285-2.415l2.136 1.252a9.632 9.632 0 0 1-3.113 3.093 8.673 8.673 0 0 1-4.539 1.102 9.355 9.355 0 0 1-3.556-.664Zm1.283-13.937a5.66 5.66 0 0 0-1.812 1.077 5.944 5.944 0 0 0-1.326 1.621 6.64 6.64 0 0 0-.748 2.035h11.912a5.567 5.567 0 0 0-1.874-3.751 5.511 5.511 0 0 0-3.948-1.364 6.282 6.282 0 0 0-2.204.382Zm16.855-9.887v24.144h-2.49V96.002h2.49Zm6.887 24.1a5.154 5.154 0 0 1-1.83-1.058 4.442 4.442 0 0 1-1.097-1.547 4.76 4.76 0 0 1-.367-1.878 4.531 4.531 0 0 1 1.999-3.964c1.326-.926 3.15-1.396 5.467-1.396h5.205v-.626a4.02 4.02 0 0 0-1.195-3.068c-.803-.764-2.012-1.146-3.611-1.146a5.755 5.755 0 0 0-5.237 2.787l-2.161-1.378a9.29 9.29 0 0 1 3.045-2.592 9.139 9.139 0 0 1 4.359-.964 9.73 9.73 0 0 1 3.113.457 6.204 6.204 0 0 1 2.254 1.302 5.603 5.603 0 0 1 1.401 2.029c.319.819.477 1.693.467 2.573v10.513h-2.435v-2.906a7.398 7.398 0 0 1-2.895 2.386 9.07 9.07 0 0 1-3.904.858 7.803 7.803 0 0 1-2.578-.382Zm4.856-2.066a7.78 7.78 0 0 0 1.763-.708 7.256 7.256 0 0 0 1.557-1.164 6.506 6.506 0 0 0 1.201-1.591v-2.291h-5.087c-1.724 0-2.995.269-3.804.795a2.831 2.831 0 0 0-.324 4.383 4.16 4.16 0 0 0 2.851.814 7.363 7.363 0 0 0 1.869-.232l-.026-.006Zm9.701 7.563a5.327 5.327 0 0 1-1.767-1.07l1.618-2.054c.3.328.648.607 1.034.826.416.214.878.32 1.345.307.385.007.769-.044 1.14-.15.347-.113.668-.294.945-.532.332-.315.612-.678.836-1.077.314-.545.6-1.108.852-1.684l.368-.796-6.893-15.759h2.715l5.485 12.804 5.225-12.804H191l-7.472 17.275a21.017 21.017 0 0 1-1.202 2.354 6.773 6.773 0 0 1-1.294 1.596c-.45.395-.974.697-1.539.889a6.536 6.536 0 0 1-4.134-.125h.024Z" fill="#fff"/><path d="M126.788 17.453 98.308.856C97.308.294 96.188 0 95.05 0a6.651 6.651 0 0 0-3.259.856L63.21 17.453a6.813 6.813 0 0 0-2.49 2.532 7.111 7.111 0 0 0-.92 3.484v33.088a6.985 6.985 0 0 0 .903 3.495 6.688 6.688 0 0 0 2.507 2.522l28.48 16.492A6.15 6.15 0 0 0 95 80a6.413 6.413 0 0 0 3.308-.934l28.48-16.492a6.804 6.804 0 0 0 2.49-2.532 7.106 7.106 0 0 0 .92-3.485V23.47a6.794 6.794 0 0 0-.876-3.51 6.5 6.5 0 0 0-2.534-2.506Z" fill="url(#a)"/><path d="m75.613 48.25-1.678 1.042c-.3.175-.564.412-.776.697-.213.284-.37.61-.462.96a2.874 2.874 0 0 0 .251 2.093c.22.435.548.8.947 1.056.4.256.856.395 1.323.402.444-.004.882-.11 1.283-.313l1.678-1.041c.3-.176.564-.413.777-.697.212-.285.37-.61.46-.96a2.878 2.878 0 0 0-.25-2.093 2.66 2.66 0 0 0-.633-.864 2.5 2.5 0 0 0-.907-.526 2.408 2.408 0 0 0-2.013.244Zm10.263-6.146-3.454 2.083c-.3.176-.564.413-.776.697a2.79 2.79 0 0 0-.462.96 2.88 2.88 0 0 0-.073 1.073c.043.36.153.707.325 1.02.22.435.547.8.946 1.057.4.256.856.395 1.323.402a2.91 2.91 0 0 0 1.283-.313L88.442 47c.3-.176.565-.413.777-.697.213-.284.37-.61.461-.96a2.872 2.872 0 0 0-.25-2.093 2.659 2.659 0 0 0-.634-.864 2.497 2.497 0 0 0-.907-.526 2.407 2.407 0 0 0-2.013.244Zm13.915-5.094a2.447 2.447 0 0 0-.57-.773 2.299 2.299 0 0 0-.811-.477V14.813a2.937 2.937 0 0 0-.2-1.078 2.818 2.818 0 0 0-.578-.914 2.65 2.65 0 0 0-.866-.61 2.533 2.533 0 0 0-1.02-.211 2.46 2.46 0 0 0-1.004.219 2.578 2.578 0 0 0-.844.614c-.24.262-.426.573-.55.913-.123.34-.18.702-.169 1.066v21.042c-.298.1-.574.262-.81.477a2.447 2.447 0 0 0-.571.773 2.91 2.91 0 0 0-.099 2.396 2.91 2.91 0 0 0 .099 2.396c.139.295.333.558.57.773.237.215.513.377.811.477v21.041c0 .746.281 1.462.78 1.99.5.527 1.178.823 1.885.823.707 0 1.384-.296 1.884-.824.5-.527.78-1.243.78-1.989V43.042c.298-.1.574-.262.812-.477.237-.215.431-.478.57-.773a2.897 2.897 0 0 0 .099-2.396 3.372 3.372 0 0 0-.198-2.386Zm6.721-7.198-3.454 2.084c-.3.175-.564.412-.777.697-.213.284-.369.61-.461.96a2.874 2.874 0 0 0 .251 2.093c.22.435.547.8.946 1.056.4.256.856.395 1.324.402.444-.004.882-.11 1.283-.312l3.454-2.084c.3-.175.564-.412.776-.697.213-.284.37-.61.462-.96a2.874 2.874 0 0 0-.251-2.093 2.673 2.673 0 0 0-.633-.864 2.506 2.506 0 0 0-.907-.526 2.413 2.413 0 0 0-2.013.244Zm8.181 1.042c.444-.004.882-.11 1.283-.312l1.678-1.042c.299-.177.563-.415.776-.7.212-.284.369-.61.462-.96a2.9 2.9 0 0 0-.24-2.097 2.731 2.731 0 0 0-.667-.815 2.556 2.556 0 0 0-.911-.484 2.477 2.477 0 0 0-1.986.264l-1.678 1.042c-.3.176-.564.413-.777.697a2.8 2.8 0 0 0-.461.96 2.876 2.876 0 0 0 .251 2.093c.226.422.557.771.957 1.01.4.239.854.358 1.313.344Zm2.961 18.438-1.678-1.042a2.487 2.487 0 0 0-1.976-.248 2.635 2.635 0 0 0-1.566 1.296 2.888 2.888 0 0 0-.244 2.085 2.737 2.737 0 0 0 1.22 1.659l1.678 1.041c.401.202.838.309 1.283.313a2.513 2.513 0 0 0 1.323-.402c.399-.257.726-.622.946-1.057.177-.303.292-.643.338-.996a2.721 2.721 0 0 0-.072-1.055 2.634 2.634 0 0 0-.467-.936 2.47 2.47 0 0 0-.785-.658Zm-8.586-5.105-3.454-2.083a2.474 2.474 0 0 0-1.986-.264 2.56 2.56 0 0 0-.912.483c-.27.223-.497.5-.666.816a2.9 2.9 0 0 0-.241 2.097c.093.35.25.676.463.96.212.285.476.523.776.7l3.454 2.083a2.91 2.91 0 0 0 1.283.313 2.511 2.511 0 0 0 1.323-.403c.4-.256.726-.62.947-1.056.179-.303.297-.642.344-.996a2.697 2.697 0 0 0-.069-1.058 2.607 2.607 0 0 0-.471-.937 2.44 2.44 0 0 0-.791-.655Zm-26.645-9.583 3.453 2.083c.401.202.84.309 1.283.313a2.515 2.515 0 0 0 1.324-.402c.4-.257.726-.621.946-1.056a2.872 2.872 0 0 0 .251-2.093 2.784 2.784 0 0 0-.46-.96 2.63 2.63 0 0 0-.778-.697l-3.454-2.084a2.455 2.455 0 0 0-1.983-.265c-.33.097-.64.263-.91.487a2.7 2.7 0 0 0-.66.82 3.061 3.061 0 0 0-.229 2.133 2.908 2.908 0 0 0 1.216 1.721Zm-4.244-8.854L76.5 24.708a2.473 2.473 0 0 0-1.986-.264c-.33.096-.64.26-.911.484-.271.223-.498.5-.666.815a2.9 2.9 0 0 0-.24 2.097c.092.35.249.676.461.96.213.285.477.523.776.7l1.678 1.042c.4.202.839.308 1.283.312a2.515 2.515 0 0 0 1.323-.402c.4-.257.726-.621.947-1.056.168-.306.276-.645.317-.996a2.782 2.782 0 0 0-.077-1.048 2.693 2.693 0 0 0-.46-.933 2.531 2.531 0 0 0-.767-.669Z" fill="#20133A"/><defs><linearGradient id="a" x1="59.8" y1="40.003" x2="130.208" y2="40.003" gradientUnits="userSpaceOnUse"><stop stop-color="#9059FF"/><stop offset="1" stop-color="#F770FF"/></linearGradient></defs></svg>