<svg width="44" height="50" fill="none" xmlns="http://www.w3.org/2000/svg"><path d="M41.868 10.908 24.068.535A4.157 4.157 0 0 0 22.03 0c-.712 0-1.412.184-2.037.535L2.13 10.908A4.258 4.258 0 0 0 .575 12.49 4.444 4.444 0 0 0 0 14.668v20.68c-.006.768.19 1.522.565 2.184A4.18 4.18 0 0 0 2.13 39.11l17.8 10.307c.624.389 1.34.59 2.069.584a4.007 4.007 0 0 0 2.068-.584l17.8-10.307a4.257 4.257 0 0 0 1.556-1.583c.374-.66.573-1.412.575-2.178v-20.68a4.247 4.247 0 0 0-.548-2.194 4.06 4.06 0 0 0-1.583-1.566Z" fill="#000"/><path d="m9.883 30.99-1.048.65c-.188.11-.353.258-.486.436s-.23.382-.288.6a1.797 1.797 0 0 0 .157 1.308c.138.272.342.5.591.66.25.16.535.248.827.252.278-.003.552-.07.802-.196l1.049-.65c.187-.11.352-.258.485-.436s.231-.382.289-.6a1.797 1.797 0 0 0-.157-1.308 1.664 1.664 0 0 0-.396-.54 1.562 1.562 0 0 0-.567-.329 1.503 1.503 0 0 0-1.258.153Zm6.415-3.841-2.159 1.302c-.188.11-.353.257-.486.435-.132.178-.23.382-.288.6a1.798 1.798 0 0 0 .157 1.308c.138.272.342.5.592.66.25.16.535.247.827.252.277-.003.551-.07.802-.195l2.158-1.303c.188-.11.353-.257.486-.435s.23-.382.288-.6a1.796 1.796 0 0 0-.157-1.308 1.663 1.663 0 0 0-.395-.54 1.56 1.56 0 0 0-.567-.329 1.506 1.506 0 0 0-1.258.152Zm8.697-3.184a1.526 1.526 0 0 0-.357-.483 1.435 1.435 0 0 0-.507-.298V10.09c0-.23-.042-.46-.125-.674a1.761 1.761 0 0 0-.36-.57 1.656 1.656 0 0 0-.542-.382 1.583 1.583 0 0 0-.638-.132c-.216.001-.43.048-.628.137-.198.09-.377.22-.527.384-.15.164-.266.358-.343.57-.077.213-.113.44-.106.667v13.151a1.436 1.436 0 0 0-.507.298c-.148.134-.27.299-.356.483a1.806 1.806 0 0 0-.062 1.498 1.815 1.815 0 0 0 .062 1.497c.087.185.208.35.356.484s.32.235.507.297V40.95c0 .467.176.914.488 1.243.312.33.736.515 1.177.515.442 0 .866-.185 1.178-.515.312-.33.488-.776.488-1.243V27.734c.186-.062.358-.163.507-.298.148-.134.27-.298.356-.483a1.805 1.805 0 0 0 .062-1.497 2.107 2.107 0 0 0-.123-1.491Zm4.2-4.499-2.159 1.302c-.187.11-.353.258-.485.436-.133.178-.231.381-.289.6a1.796 1.796 0 0 0 .157 1.308c.138.272.342.5.592.66.25.16.535.247.827.252.277-.003.551-.07.802-.196l2.159-1.302c.187-.11.352-.258.485-.436.133-.177.23-.381.288-.6a1.798 1.798 0 0 0-.157-1.308 1.667 1.667 0 0 0-.395-.54 1.563 1.563 0 0 0-.567-.328 1.506 1.506 0 0 0-1.258.152Zm5.113.651c.278-.002.551-.069.802-.195l1.048-.651c.188-.11.353-.26.486-.437a1.811 1.811 0 0 0 .139-1.91 1.697 1.697 0 0 0-.417-.51 1.597 1.597 0 0 0-.57-.303 1.546 1.546 0 0 0-1.241.165l-1.049.651c-.187.11-.352.258-.485.436s-.231.381-.288.6a1.8 1.8 0 0 0 .157 1.308c.14.264.347.482.597.631.25.15.534.224.821.215Zm1.85 11.524-1.048-.651a1.554 1.554 0 0 0-1.235-.155 1.648 1.648 0 0 0-.979.81 1.806 1.806 0 0 0-.152 1.302c.114.439.388.812.762 1.037l1.049.651c.25.127.524.193.802.196a1.57 1.57 0 0 0 .827-.252c.25-.16.454-.388.591-.66a1.692 1.692 0 0 0 .166-1.282 1.64 1.64 0 0 0-.292-.585 1.54 1.54 0 0 0-.49-.411Zm-5.366-3.19-2.158-1.303a1.546 1.546 0 0 0-1.241-.165 1.6 1.6 0 0 0-.57.303 1.7 1.7 0 0 0-.417.51 1.788 1.788 0 0 0-.15 1.31c.058.218.156.422.289.6.133.178.298.327.485.437l2.159 1.302c.25.127.524.193.802.196a1.57 1.57 0 0 0 .827-.252c.25-.16.453-.388.591-.66a1.68 1.68 0 0 0 .172-1.284 1.628 1.628 0 0 0-.294-.586 1.527 1.527 0 0 0-.495-.409ZM14.14 22.46l2.159 1.302c.25.126.524.193.802.195.292-.004.577-.09.827-.251.25-.16.454-.388.591-.66a1.796 1.796 0 0 0 .157-1.308 1.745 1.745 0 0 0-.288-.6 1.645 1.645 0 0 0-.486-.436l-2.158-1.302a1.535 1.535 0 0 0-1.24-.166c-.207.061-.4.164-.568.305-.168.14-.309.314-.413.512a1.914 1.914 0 0 0-.143 1.333c.114.448.386.832.76 1.076Zm-2.652-5.534-1.049-.65a1.546 1.546 0 0 0-1.241-.165c-.207.06-.4.162-.57.301-.169.14-.31.313-.416.51a1.787 1.787 0 0 0-.15 1.31c.057.219.156.423.289.6.132.179.297.327.485.438l1.048.65c.25.127.524.194.802.196a1.57 1.57 0 0 0 .827-.251c.25-.16.454-.388.592-.66a1.714 1.714 0 0 0 .15-1.278 1.682 1.682 0 0 0-.287-.583 1.582 1.582 0 0 0-.48-.418Z" fill="#fff"/></svg>