<svg width="44" height="50" fill="none" xmlns="http://www.w3.org/2000/svg"><path d="M41.868 10.908 24.068.535A4.157 4.157 0 0 0 22.03 0c-.712 0-1.412.184-2.037.535L2.13 10.908A4.258 4.258 0 0 0 .575 12.49 4.444 4.444 0 0 0 0 14.668v20.68c-.006.768.19 1.522.565 2.184A4.18 4.18 0 0 0 2.13 39.11l17.8 10.307c.624.389 1.34.59 2.069.584a4.007 4.007 0 0 0 2.068-.584l17.8-10.307a4.257 4.257 0 0 0 1.556-1.583c.374-.66.573-1.412.575-2.178v-20.68a4.247 4.247 0 0 0-.548-2.194 4.06 4.06 0 0 0-1.583-1.566Z" fill="#fff"/><path d="m9.883 30.156-1.048.651c-.188.11-.353.258-.486.436s-.23.382-.288.6a1.797 1.797 0 0 0 .157 1.308c.138.272.342.5.591.66.25.16.535.247.827.252.278-.003.552-.07.802-.196l1.049-.65c.187-.11.352-.259.485-.436.133-.178.231-.382.289-.6a1.796 1.796 0 0 0-.157-1.309 1.664 1.664 0 0 0-.396-.54 1.563 1.563 0 0 0-.567-.328 1.506 1.506 0 0 0-1.258.152Zm6.415-3.84-2.159 1.301c-.188.11-.353.258-.486.436-.132.177-.23.381-.288.6a1.798 1.798 0 0 0 .157 1.308c.138.272.342.5.592.66.25.16.535.247.827.251.277-.002.551-.069.802-.195l2.158-1.302c.188-.11.353-.258.486-.436a1.794 1.794 0 0 0 .131-1.908 1.663 1.663 0 0 0-.395-.54 1.56 1.56 0 0 0-.567-.328 1.505 1.505 0 0 0-1.258.152Zm8.697-3.184a1.53 1.53 0 0 0-.357-.484 1.438 1.438 0 0 0-.507-.298V9.258c0-.231-.042-.46-.125-.674a1.761 1.761 0 0 0-.36-.571 1.656 1.656 0 0 0-.542-.38 1.584 1.584 0 0 0-.638-.133c-.216 0-.43.047-.628.137a1.61 1.61 0 0 0-.527.384c-.15.164-.266.358-.343.57-.077.213-.113.44-.106.667v13.15a1.435 1.435 0 0 0-.507.299 1.53 1.53 0 0 0-.357.483 1.806 1.806 0 0 0-.061 1.497 1.817 1.817 0 0 0 .061 1.498c.087.185.209.349.357.483s.32.236.507.298v13.151c0 .466.176.914.488 1.243.312.33.736.515 1.177.515.442 0 .866-.185 1.178-.515.312-.33.488-.777.488-1.243V26.901c.186-.062.358-.164.507-.298.148-.134.27-.299.356-.483a1.808 1.808 0 0 0 .062-1.498 2.107 2.107 0 0 0-.123-1.49Zm4.2-4.5-2.159 1.303c-.188.11-.353.258-.485.436-.133.177-.231.381-.289.6a1.796 1.796 0 0 0 .157 1.308c.138.271.342.5.592.66.25.16.535.247.827.251.278-.002.551-.069.802-.195l2.159-1.302c.187-.11.352-.258.485-.436s.23-.382.288-.6a1.796 1.796 0 0 0-.157-1.308 1.662 1.662 0 0 0-.395-.54 1.564 1.564 0 0 0-.567-.329 1.504 1.504 0 0 0-1.258.153Zm5.113.652c.278-.003.551-.07.802-.195l1.048-.651c.188-.111.353-.26.486-.438a1.76 1.76 0 0 0 .289-.6 1.814 1.814 0 0 0-.15-1.31 1.7 1.7 0 0 0-.417-.51 1.6 1.6 0 0 0-.57-.302 1.546 1.546 0 0 0-1.241.165l-1.049.65a1.64 1.64 0 0 0-.485.436 1.74 1.74 0 0 0-.288.6 1.797 1.797 0 0 0 .157 1.308c.14.264.347.483.597.632.25.149.534.223.821.215Zm1.85 11.523-1.048-.65a1.554 1.554 0 0 0-1.235-.155 1.647 1.647 0 0 0-.979.81 1.804 1.804 0 0 0-.152 1.302c.114.439.388.811.762 1.037l1.049.651c.25.126.524.193.802.195.292-.004.577-.09.827-.251.25-.16.454-.388.591-.66a1.696 1.696 0 0 0 .166-1.282 1.638 1.638 0 0 0-.292-.585 1.54 1.54 0 0 0-.49-.412Zm-5.366-3.19-2.158-1.302a1.569 1.569 0 0 0-1.241-.165c-.207.06-.401.163-.57.302-.17.14-.311.313-.417.51a1.787 1.787 0 0 0-.15 1.31c.058.219.156.423.289.6.133.179.298.327.485.438l2.159 1.302c.25.126.524.193.802.195a1.57 1.57 0 0 0 .827-.251c.25-.16.453-.388.591-.66a1.656 1.656 0 0 0 .172-1.284 1.624 1.624 0 0 0-.294-.586 1.526 1.526 0 0 0-.495-.409Zm-16.653-5.99 2.159 1.303c.25.126.524.192.802.195.292-.004.577-.091.827-.251s.454-.389.591-.66a1.794 1.794 0 0 0 .157-1.308 1.737 1.737 0 0 0-.288-.6 1.64 1.64 0 0 0-.486-.436l-2.158-1.302a1.535 1.535 0 0 0-1.24-.166c-.207.06-.4.164-.568.304-.168.14-.309.315-.413.513a1.913 1.913 0 0 0-.143 1.333c.114.448.386.832.76 1.076Zm-2.652-5.533-1.049-.651a1.546 1.546 0 0 0-1.241-.165 1.6 1.6 0 0 0-.57.302c-.169.14-.31.312-.416.51a1.788 1.788 0 0 0-.15 1.31c.057.219.156.423.289.6.132.178.297.327.485.438l1.048.65c.25.127.524.193.802.196.292-.004.578-.091.827-.252.25-.16.454-.388.592-.66a1.74 1.74 0 0 0 .15-1.277 1.683 1.683 0 0 0-.287-.583 1.582 1.582 0 0 0-.48-.418Z" fill="#000"/></svg>