<svg width="80" height="80" fill="none" viewBox="0 0 80 80" xmlns="http://www.w3.org/2000/svg"><path d="M71.788 17.453 43.308.856C42.309.294 41.189 0 40.05 0a6.651 6.651 0 0 0-3.259.856L8.21 17.453a6.813 6.813 0 0 0-2.49 2.532 7.111 7.111 0 0 0-.92 3.484v33.088a6.985 6.985 0 0 0 .903 3.495 6.688 6.688 0 0 0 2.507 2.522l28.48 16.492A6.15 6.15 0 0 0 40 80a6.413 6.413 0 0 0 3.309-.934l28.48-16.492a6.81 6.81 0 0 0 2.49-2.532c.598-1.057.916-2.26.919-3.485V23.47a6.793 6.793 0 0 0-.876-3.51 6.496 6.496 0 0 0-2.534-2.506Z" fill="#000"/><path d="m20.613 49.583-1.678 1.042c-.3.175-.564.413-.776.697-.213.284-.37.61-.462.96a2.874 2.874 0 0 0 .252 2.093c.22.435.547.8.946 1.056.399.257.856.396 1.323.402.445-.004.882-.11 1.283-.312l1.678-1.042c.3-.175.564-.413.777-.697.212-.284.369-.61.461-.96a2.876 2.876 0 0 0-.251-2.093 2.663 2.663 0 0 0-.633-.864 2.5 2.5 0 0 0-.907-.526 2.408 2.408 0 0 0-2.013.244Zm10.264-6.145-3.455 2.083a2.63 2.63 0 0 0-.777.697 2.79 2.79 0 0 0-.46.96 2.874 2.874 0 0 0 .25 2.093c.22.435.548.8.947 1.056.399.256.856.395 1.323.402a2.91 2.91 0 0 0 1.283-.312l3.454-2.084c.3-.175.565-.412.777-.697.213-.284.37-.61.461-.96a2.876 2.876 0 0 0-.25-2.093 2.66 2.66 0 0 0-.634-.864 2.498 2.498 0 0 0-.907-.525 2.409 2.409 0 0 0-2.013.243Zm13.914-5.094a2.443 2.443 0 0 0-.57-.774 2.3 2.3 0 0 0-.811-.476V16.146a2.94 2.94 0 0 0-.2-1.078 2.818 2.818 0 0 0-.578-.914 2.649 2.649 0 0 0-.866-.61 2.532 2.532 0 0 0-1.02-.21 2.46 2.46 0 0 0-1.005.218 2.578 2.578 0 0 0-.843.614c-.24.263-.426.573-.55.913a2.86 2.86 0 0 0-.169 1.067v21.042c-.298.1-.574.261-.811.476a2.446 2.446 0 0 0-.57.774 2.904 2.904 0 0 0-.099 2.396 2.903 2.903 0 0 0 .099 2.395c.139.296.333.559.57.774a2.3 2.3 0 0 0 .811.476v21.042c0 .746.281 1.461.78 1.989.5.527 1.178.823 1.885.823.706 0 1.384-.296 1.884-.823.5-.528.78-1.243.78-1.99V44.376c.298-.1.574-.262.811-.477.238-.215.432-.477.571-.773a2.908 2.908 0 0 0 .099-2.396 3.37 3.37 0 0 0-.198-2.385Zm6.72-7.198-3.453 2.083a2.63 2.63 0 0 0-.777.697c-.213.285-.37.61-.461.96a2.874 2.874 0 0 0 .25 2.093c.221.435.548.8.947 1.056.4.257.856.396 1.324.403.444-.004.882-.111 1.283-.313l3.454-2.083c.3-.176.564-.413.777-.697.212-.285.369-.611.46-.96a2.874 2.874 0 0 0-.25-2.093 2.666 2.666 0 0 0-.633-.865 2.502 2.502 0 0 0-.907-.525 2.41 2.41 0 0 0-2.013.244Zm8.182 1.042c.444-.004.882-.111 1.283-.313l1.678-1.042c.3-.176.563-.414.776-.699.212-.285.37-.611.462-.96a2.9 2.9 0 0 0-.24-2.097 2.715 2.715 0 0 0-.667-.816 2.555 2.555 0 0 0-.912-.483 2.474 2.474 0 0 0-1.985.264l-1.678 1.041c-.3.176-.564.413-.777.697-.212.285-.37.611-.461.96-.092.35-.117.714-.074 1.073.043.36.154.707.325 1.02.226.423.557.772.957 1.01.4.239.854.358 1.313.345Zm2.96 18.437-1.677-1.042A2.486 2.486 0 0 0 59 49.336a2.636 2.636 0 0 0-1.566 1.296 2.889 2.889 0 0 0-.244 2.084 2.736 2.736 0 0 0 1.22 1.659l1.678 1.042c.4.201.838.308 1.283.312a2.515 2.515 0 0 0 1.323-.402c.4-.256.726-.621.947-1.056a2.71 2.71 0 0 0 .266-2.052 2.621 2.621 0 0 0-.469-.936 2.463 2.463 0 0 0-.784-.658Zm-8.585-5.104-3.454-2.084a2.473 2.473 0 0 0-1.986-.264c-.331.097-.64.26-.912.484-.27.223-.497.5-.666.816a2.9 2.9 0 0 0-.24 2.097c.092.349.25.675.462.96.212.285.476.522.776.7l3.454 2.083c.4.201.839.308 1.283.312a2.513 2.513 0 0 0 1.323-.402c.4-.257.726-.621.947-1.056a2.691 2.691 0 0 0 .275-2.055 2.602 2.602 0 0 0-.471-.937 2.442 2.442 0 0 0-.791-.654Zm-26.646-9.583 3.454 2.083c.401.202.84.308 1.283.312a2.515 2.515 0 0 0 1.324-.402c.399-.256.726-.621.946-1.056a2.876 2.876 0 0 0 .251-2.093 2.791 2.791 0 0 0-.46-.96 2.632 2.632 0 0 0-.778-.697l-3.454-2.083a2.455 2.455 0 0 0-1.983-.265 2.54 2.54 0 0 0-.91.486c-.269.225-.493.504-.66.82a3.064 3.064 0 0 0-.229 2.134 2.908 2.908 0 0 0 1.216 1.72Zm-4.243-8.855L21.5 26.042a2.473 2.473 0 0 0-1.986-.264c-.33.096-.64.26-.911.483-.271.223-.497.5-.666.816a2.9 2.9 0 0 0-.24 2.097c.092.349.249.675.461.96.213.285.477.523.776.7l1.678 1.041c.4.202.839.309 1.283.313a2.515 2.515 0 0 0 1.323-.403c.4-.256.726-.62.947-1.056a2.778 2.778 0 0 0 .24-2.044 2.694 2.694 0 0 0-.46-.932 2.532 2.532 0 0 0-.767-.67Z" fill="url(#a)"/><defs><linearGradient id="a" x1="5.6" y1="41.667" x2="74.4" y2="41.667" gradientUnits="userSpaceOnUse"><stop stop-color="#9059FF"/><stop offset="1" stop-color="#F770FF"/></linearGradient></defs></svg>