<svg width="160" height="85" fill="none" xmlns="http://www.w3.org/2000/svg"><path d="M11.934 61.494v3.418H3.632v4.304h8.302v3.366H3.632v7.54H0V61.493h11.934Zm2.813-.678a2.333 2.333 0 0 1 3.237 0 2.253 2.253 0 0 1 .623 1.643 2.177 2.177 0 0 1-.573 1.558 2.155 2.155 0 0 1-1.502.691h-.187a2.153 2.153 0 0 1-1.609-.636 2.236 2.236 0 0 1-.622-1.613 2.254 2.254 0 0 1 .633-1.643Zm3.414 5.525v13.78h-3.59v-13.78h3.59Zm6.226 0v2.119a3.56 3.56 0 0 1 1.484-1.8 4.433 4.433 0 0 1 2.3-.574 5.07 5.07 0 0 1 2.318.537l-1.27 3.47a2.48 2.48 0 0 0-.774-.355 3.86 3.86 0 0 0-1.038-.14 3.035 3.035 0 0 0-2.158.75c-.557.512-.836 1.352-.836 2.52v7.253h-3.476v-13.78h3.45Zm10.586 13.514a6.708 6.708 0 0 1-3.757-3.788 7.649 7.649 0 0 1-.519-2.807 7.302 7.302 0 0 1 .519-2.823 6.941 6.941 0 0 1 1.556-2.264 7.105 7.105 0 0 1 2.289-1.565 7.166 7.166 0 0 1 2.843-.522 7.367 7.367 0 0 1 2.844.522 6.778 6.778 0 0 1 2.23 1.466 6.634 6.634 0 0 1 1.474 2.233c.359.9.535 1.864.52 2.833v1.294H34.074c.205.85.694 1.604 1.385 2.134a4.135 4.135 0 0 0 2.548.778 4.004 4.004 0 0 0 2.076-.522c.55-.33 1.01-.79 1.343-1.341l2.86 1.737a8.102 8.102 0 0 1-2.543 2.322 7.449 7.449 0 0 1-3.793.887 7.975 7.975 0 0 1-2.978-.574Zm.612-10.117a4.032 4.032 0 0 0-1.396 1.941h7.322a3.47 3.47 0 0 0-1.298-1.94 3.845 3.845 0 0 0-2.335-.68 3.757 3.757 0 0 0-2.293.68Zm12.67-3.397v-.485c-.02-.944.078-1.887.291-2.807a3.81 3.81 0 0 1 .966-1.8 3.76 3.76 0 0 1 1.8-.955c.919-.211 1.86-.31 2.802-.292h.914v3.214h-.587c-.484-.01-.968.02-1.447.089-.303.04-.59.165-.825.36-.203.198-.332.46-.37.74-.052.42-.076.841-.071 1.263v.663h3.3v3.162h-3.3v10.628h-3.472V69.503h-2.268v-3.162h2.268ZM60.19 79.83a7.15 7.15 0 0 1-2.298-1.565 7.089 7.089 0 0 1-1.544-2.324 7.142 7.142 0 0 1-.532-2.742 7.16 7.16 0 0 1 .519-2.797 6.854 6.854 0 0 1 1.557-2.244 6.855 6.855 0 0 1 5.189-2.087 7.232 7.232 0 0 1 2.859.522 7.07 7.07 0 0 1 3.208 2.627 7.129 7.129 0 0 1 1.192 3.984 7.024 7.024 0 0 1-.555 2.78 7.525 7.525 0 0 1-1.536 2.28 7.108 7.108 0 0 1-2.3 1.566 7.636 7.636 0 0 1-5.76 0Zm4.364-3.089a3.93 3.93 0 0 0 1.194-.819c.34-.348.612-.76.799-1.21a4.07 4.07 0 0 0 0-3.027 3.804 3.804 0 0 0-.8-1.226 3.822 3.822 0 0 0-1.193-.814 3.665 3.665 0 0 0-2.947 0c-.443.194-.846.47-1.188.814-.347.351-.62.768-.804 1.226a4.07 4.07 0 0 0 0 3.027c.187.452.46.863.804 1.21.343.344.746.621 1.188.82a3.756 3.756 0 0 0 2.963.015l-.016-.016Zm6.18-10.398h4.15l2.865 4.095 2.896-4.085h4.109l-4.846 6.725 5.23 7.044h-4.24l-3.15-4.31-3.065 4.31H70.47l5.116-7.075-4.852-6.705Zm29.68-4.848a6.896 6.896 0 0 1 2.595.46c.752.28 1.442.71 2.028 1.262a5.732 5.732 0 0 1 1.334 1.915 6.253 6.253 0 0 1 .213 4.132 5.863 5.863 0 0 1-.748 1.566c-.333.49-.741.925-1.209 1.289a5.5 5.5 0 0 1-1.639.886l4.037 7.117h-2.387l-3.632-6.558h-5.827v6.558h-2.107V61.494h7.342Zm-5.235 10.128h5.074a4.891 4.891 0 0 0 1.889-.345c.521-.21.996-.522 1.396-.918.378-.375.673-.827.866-1.325.192-.5.29-1.03.291-1.566a4.172 4.172 0 0 0-.306-1.607 3.683 3.683 0 0 0-.908-1.283 4.02 4.02 0 0 0-1.396-.83 5.526 5.526 0 0 0-1.821-.271h-5.085v8.145Zm17.989 8.233a6.789 6.789 0 0 1-2.283-1.508 6.476 6.476 0 0 1-1.458-2.259 7.674 7.674 0 0 1-.519-2.807 7.394 7.394 0 0 1 .519-2.844 7.01 7.01 0 0 1 1.557-2.264 6.87 6.87 0 0 1 2.257-1.565 7.147 7.147 0 0 1 2.854-.564 7.278 7.278 0 0 1 2.781.522 6.516 6.516 0 0 1 2.205 1.456 6.784 6.784 0 0 1 1.463 2.238c.359.895.535 1.853.519 2.817v.945h-12.116a4.962 4.962 0 0 0 1 2.55 4.918 4.918 0 0 0 2.197 1.624c.64.224 1.314.335 1.992.329a4.835 4.835 0 0 0 2.688-.643 4.869 4.869 0 0 0 1.904-2.013l1.78 1.043a8.028 8.028 0 0 1-2.594 2.578 7.236 7.236 0 0 1-3.783.918 7.792 7.792 0 0 1-2.963-.553Zm1.069-11.614a4.725 4.725 0 0 0-1.51.897c-.445.381-.819.839-1.105 1.352a5.52 5.52 0 0 0-.623 1.695h9.926a4.639 4.639 0 0 0-1.561-3.126 4.593 4.593 0 0 0-3.29-1.137 5.238 5.238 0 0 0-1.837.319ZM128.283 60v20.12h-2.075v-20.12h2.075Zm5.739 20.084a4.298 4.298 0 0 1-1.525-.882 3.698 3.698 0 0 1-.914-1.289 3.964 3.964 0 0 1-.306-1.565 3.79 3.79 0 0 1 .402-1.871 3.766 3.766 0 0 1 1.264-1.432c1.105-.772 2.625-1.163 4.556-1.163h4.337v-.522a3.346 3.346 0 0 0-.996-2.557c-.669-.636-1.676-.955-3.009-.955a4.785 4.785 0 0 0-2.502.555 4.815 4.815 0 0 0-1.862 1.767l-1.801-1.148a7.738 7.738 0 0 1 2.538-2.16 7.617 7.617 0 0 1 3.632-.803 8.12 8.12 0 0 1 2.594.38 5.192 5.192 0 0 1 1.879 1.086 4.666 4.666 0 0 1 1.167 1.69c.266.683.398 1.412.389 2.145v8.76h-2.029v-2.42a6.17 6.17 0 0 1-2.412 1.987 7.549 7.549 0 0 1-3.254.715 6.493 6.493 0 0 1-2.148-.318Zm4.047-1.722a6.505 6.505 0 0 0 1.469-.59 6.02 6.02 0 0 0 1.297-.97c.4-.387.737-.834 1.001-1.325v-1.91h-4.239c-1.437 0-2.496.224-3.17.663a2.363 2.363 0 0 0-.27 3.652 3.461 3.461 0 0 0 2.376.678 6.104 6.104 0 0 0 1.557-.193l-.021-.005Zm8.084 6.303a4.453 4.453 0 0 1-1.473-.892l1.349-1.712c.25.274.54.506.861.69.347.177.732.265 1.121.255.321.005.641-.037.95-.125.289-.095.557-.245.788-.444a3.78 3.78 0 0 0 .696-.897c.262-.455.5-.923.71-1.404l.307-.663-5.744-13.133h2.262l4.571 10.67 4.354-10.67h2.262l-6.227 14.396a17.35 17.35 0 0 1-1.001 1.962c-.29.496-.654.945-1.079 1.33-.375.33-.811.581-1.282.741a5.454 5.454 0 0 1-3.445-.104h.02Z" fill="#fff"/><path d="M99.868 10.908 82.068.535A4.157 4.157 0 0 0 80.03 0c-.712 0-1.412.184-2.037.535L60.13 10.908a4.258 4.258 0 0 0-1.556 1.582A4.444 4.444 0 0 0 58 14.668v20.68c-.006.768.19 1.522.565 2.184a4.18 4.18 0 0 0 1.566 1.577l17.8 10.307c.624.389 1.34.59 2.069.584a4.007 4.007 0 0 0 2.068-.584l17.8-10.307a4.253 4.253 0 0 0 1.556-1.583c.374-.66.573-1.412.575-2.178v-20.68a4.247 4.247 0 0 0-.548-2.194 4.059 4.059 0 0 0-1.583-1.566Z" fill="url(#a)"/><path d="m67.883 30.156-1.048.651c-.188.11-.353.258-.486.436s-.23.382-.288.6a1.798 1.798 0 0 0 .157 1.308c.138.272.342.5.591.66.25.16.535.247.827.252.278-.003.552-.07.802-.196l1.049-.65c.187-.11.353-.259.485-.436.133-.178.231-.382.288-.6a1.796 1.796 0 0 0-.156-1.309 1.664 1.664 0 0 0-.396-.54 1.562 1.562 0 0 0-.567-.328 1.506 1.506 0 0 0-1.258.152Zm6.415-3.84-2.159 1.301c-.188.11-.353.258-.486.436-.132.177-.23.381-.288.6a1.798 1.798 0 0 0 .157 1.308c.138.272.342.5.592.66.25.16.535.247.827.251.277-.002.551-.069.802-.195l2.159-1.302c.187-.11.352-.258.485-.436a1.74 1.74 0 0 0 .288-.6 1.796 1.796 0 0 0-.157-1.308 1.663 1.663 0 0 0-.395-.54 1.56 1.56 0 0 0-.567-.328 1.505 1.505 0 0 0-1.258.152Zm8.697-3.184a1.53 1.53 0 0 0-.357-.484 1.438 1.438 0 0 0-.507-.298V9.258c0-.231-.042-.46-.125-.674a1.761 1.761 0 0 0-.36-.571 1.656 1.656 0 0 0-.542-.38 1.584 1.584 0 0 0-.638-.133c-.216 0-.43.047-.627.137-.199.09-.378.22-.528.384-.15.164-.266.358-.343.57-.077.213-.113.44-.106.667v13.15a1.435 1.435 0 0 0-.507.299 1.53 1.53 0 0 0-.356.483 1.808 1.808 0 0 0-.062 1.497 1.817 1.817 0 0 0 .062 1.498c.086.185.208.349.356.483s.32.236.507.298v13.151c0 .466.175.914.488 1.243.312.33.736.515 1.177.515.442 0 .866-.185 1.178-.515.312-.33.488-.777.488-1.243V26.901c.186-.062.358-.164.507-.298.148-.134.27-.299.356-.483a1.808 1.808 0 0 0 .062-1.498 2.107 2.107 0 0 0-.123-1.49Zm4.2-4.5-2.159 1.303c-.188.11-.353.258-.485.436-.133.177-.231.381-.289.6a1.796 1.796 0 0 0 .157 1.308c.138.271.342.5.592.66.25.16.535.247.827.251.278-.002.551-.069.802-.195l2.159-1.302a1.64 1.64 0 0 0 .485-.436c.133-.178.23-.382.288-.6a1.796 1.796 0 0 0-.157-1.308 1.662 1.662 0 0 0-.395-.54 1.564 1.564 0 0 0-.567-.329 1.504 1.504 0 0 0-1.258.153Zm5.113.652c.278-.003.551-.07.802-.195l1.049-.651c.187-.111.352-.26.485-.438.132-.177.23-.381.289-.6a1.814 1.814 0 0 0-.15-1.31 1.7 1.7 0 0 0-.417-.51 1.6 1.6 0 0 0-.57-.302 1.546 1.546 0 0 0-1.241.165l-1.049.65a1.64 1.64 0 0 0-.485.436 1.74 1.74 0 0 0-.288.6 1.797 1.797 0 0 0 .156 1.308c.142.264.348.483.598.632.25.149.534.223.821.215Zm1.85 11.523-1.048-.65a1.554 1.554 0 0 0-1.235-.155 1.647 1.647 0 0 0-.979.81 1.804 1.804 0 0 0-.152 1.302c.114.439.388.811.762 1.037l1.049.651c.25.126.524.193.802.195.292-.004.577-.09.827-.251.25-.16.454-.388.591-.66a1.698 1.698 0 0 0 .166-1.282 1.64 1.64 0 0 0-.292-.585 1.541 1.541 0 0 0-.49-.412Zm-5.366-3.19-2.158-1.302a1.569 1.569 0 0 0-1.241-.165c-.207.06-.401.163-.57.302-.17.14-.311.313-.417.51a1.787 1.787 0 0 0-.15 1.31c.058.219.156.423.289.6.133.179.298.327.485.438l2.159 1.302c.25.126.524.193.802.195a1.57 1.57 0 0 0 .827-.251c.25-.16.453-.388.591-.66a1.656 1.656 0 0 0 .172-1.284 1.624 1.624 0 0 0-.294-.586 1.526 1.526 0 0 0-.495-.409Zm-16.653-5.99 2.159 1.303c.25.126.524.192.802.195.292-.004.577-.091.827-.251s.454-.389.591-.66a1.796 1.796 0 0 0 .157-1.308 1.739 1.739 0 0 0-.288-.6 1.64 1.64 0 0 0-.486-.436l-2.158-1.302a1.535 1.535 0 0 0-1.24-.166c-.207.06-.4.164-.568.304-.169.14-.309.315-.413.513a1.913 1.913 0 0 0-.143 1.333c.114.448.386.832.76 1.076Zm-2.652-5.533-1.049-.651a1.546 1.546 0 0 0-1.241-.165 1.6 1.6 0 0 0-.57.302 1.7 1.7 0 0 0-.416.51 1.788 1.788 0 0 0-.15 1.31c.057.219.156.423.288.6.133.178.298.327.486.438l1.048.65c.25.127.524.193.802.196.292-.004.578-.091.827-.252.25-.16.454-.388.592-.66a1.74 1.74 0 0 0 .15-1.277 1.683 1.683 0 0 0-.287-.583 1.582 1.582 0 0 0-.48-.418Z" fill="#20133A"/><defs><linearGradient id="a" x1="58" y1="25.002" x2="102.005" y2="25.002" gradientUnits="userSpaceOnUse"><stop stop-color="#9059FF"/><stop offset="1" stop-color="#F770FF"/></linearGradient></defs></svg>