<svg width="208" height="40" fill="none" xmlns="http://www.w3.org/2000/svg"><path d="M60.268 8.994v3.418h-8.303v4.304h8.303v3.366h-8.303v7.54h-3.632V8.993h11.935Zm2.812-.678a2.334 2.334 0 0 1 3.238 0 2.257 2.257 0 0 1 .622 1.643 2.177 2.177 0 0 1-.573 1.558 2.155 2.155 0 0 1-1.502.691h-.187a2.153 2.153 0 0 1-1.608-.636 2.236 2.236 0 0 1-.623-1.613 2.255 2.255 0 0 1 .633-1.643Zm3.414 5.525v13.78h-3.59v-13.78h3.59Zm6.227 0v2.119a3.56 3.56 0 0 1 1.484-1.8 4.433 4.433 0 0 1 2.298-.574 5.07 5.07 0 0 1 2.32.537l-1.271 3.47a2.478 2.478 0 0 0-.774-.355 3.86 3.86 0 0 0-1.037-.14 3.035 3.035 0 0 0-2.159.75c-.557.512-.835 1.352-.835 2.52v7.253H69.27v-13.78h3.45Zm10.585 13.514a6.71 6.71 0 0 1-3.757-3.788 7.65 7.65 0 0 1-.519-2.807 7.306 7.306 0 0 1 .52-2.823 6.94 6.94 0 0 1 1.556-2.264 7.105 7.105 0 0 1 2.288-1.565 7.166 7.166 0 0 1 2.844-.522 7.368 7.368 0 0 1 2.843.522 6.778 6.778 0 0 1 2.231 1.466 6.635 6.635 0 0 1 1.474 2.233c.358.9.534 1.864.519 2.833v1.294H82.408c.205.85.694 1.604 1.386 2.134a4.135 4.135 0 0 0 2.547.778 4.004 4.004 0 0 0 2.076-.522c.55-.33 1.011-.79 1.344-1.341l2.859 1.737a8.1 8.1 0 0 1-2.543 2.322 7.449 7.449 0 0 1-3.793.887 7.975 7.975 0 0 1-2.978-.574Zm.612-10.117a4.032 4.032 0 0 0-1.396 1.941h7.322a3.47 3.47 0 0 0-1.297-1.94 3.845 3.845 0 0 0-2.335-.68 3.757 3.757 0 0 0-2.294.68Zm12.671-3.396v-.486c-.02-.944.078-1.887.29-2.807.153-.677.487-1.3.966-1.8a3.76 3.76 0 0 1 1.8-.955c.919-.211 1.86-.31 2.802-.292h.914v3.214h-.587c-.484-.01-.968.02-1.447.089-.303.04-.589.165-.825.36-.203.198-.332.46-.369.74-.053.42-.077.841-.072 1.263v.663h3.3v3.162h-3.3v10.628h-3.472V17.003h-2.267v-3.162h2.267Zm11.935 13.487a7.144 7.144 0 0 1-2.299-1.565 7.089 7.089 0 0 1-1.544-2.324 7.142 7.142 0 0 1-.532-2.742 7.177 7.177 0 0 1 .519-2.797 6.854 6.854 0 0 1 1.557-2.244 6.855 6.855 0 0 1 5.189-2.087 7.232 7.232 0 0 1 2.859.522 7.07 7.07 0 0 1 3.208 2.627 7.129 7.129 0 0 1 1.192 3.984 7.024 7.024 0 0 1-.555 2.78 7.525 7.525 0 0 1-1.536 2.28 7.108 7.108 0 0 1-2.299 1.566 7.634 7.634 0 0 1-5.759 0Zm4.363-3.089a3.93 3.93 0 0 0 1.194-.819c.34-.348.612-.76.799-1.21a4.07 4.07 0 0 0 0-3.027 3.804 3.804 0 0 0-.799-1.226 3.822 3.822 0 0 0-1.194-.814 3.661 3.661 0 0 0-2.947 0c-.443.195-.846.47-1.188.814-.347.351-.62.768-.804 1.226a4.07 4.07 0 0 0 0 3.027c.187.452.46.863.804 1.21.343.344.746.621 1.188.82a3.756 3.756 0 0 0 2.963.015l-.016-.016Zm6.18-10.398h4.151l2.864 4.095 2.896-4.085h4.109l-4.846 6.726 5.23 7.043h-4.239l-3.15-4.31-3.066 4.31h-4.213l5.116-7.075-4.852-6.704Zm29.68-4.848a6.897 6.897 0 0 1 2.595.46c.752.28 1.442.71 2.028 1.262a5.732 5.732 0 0 1 1.334 1.915 6.253 6.253 0 0 1 .213 4.132 5.863 5.863 0 0 1-.748 1.566c-.333.49-.741.925-1.209 1.288a5.5 5.5 0 0 1-1.639.887l4.037 7.117h-2.387l-3.632-6.558h-5.827v6.558h-2.107V8.994h7.342Zm-5.235 10.128h5.074a4.891 4.891 0 0 0 1.889-.345c.521-.21.996-.521 1.396-.918.378-.376.673-.827.866-1.325.192-.5.29-1.03.291-1.565a4.172 4.172 0 0 0-.306-1.608 3.683 3.683 0 0 0-.908-1.283 4.01 4.01 0 0 0-1.396-.83 5.526 5.526 0 0 0-1.821-.271h-5.085v8.145Zm17.989 8.233a6.798 6.798 0 0 1-2.283-1.508 6.476 6.476 0 0 1-1.458-2.259 7.674 7.674 0 0 1-.519-2.807 7.394 7.394 0 0 1 .519-2.844 7.01 7.01 0 0 1 1.557-2.264 6.87 6.87 0 0 1 2.257-1.565 7.147 7.147 0 0 1 2.854-.564 7.278 7.278 0 0 1 2.781.522 6.516 6.516 0 0 1 2.205 1.456 6.784 6.784 0 0 1 1.463 2.238c.359.895.535 1.853.519 2.817v.945H159.28a4.962 4.962 0 0 0 1 2.55 4.918 4.918 0 0 0 2.197 1.624c.64.224 1.314.335 1.992.329a4.835 4.835 0 0 0 2.688-.643 4.869 4.869 0 0 0 1.904-2.013l1.78 1.044a8.028 8.028 0 0 1-2.594 2.577 7.234 7.234 0 0 1-3.783.918 7.792 7.792 0 0 1-2.963-.553Zm1.069-11.614a4.725 4.725 0 0 0-1.51.897c-.445.381-.819.839-1.105 1.351a5.52 5.52 0 0 0-.623 1.696h9.927a4.644 4.644 0 0 0-1.562-3.125 4.593 4.593 0 0 0-3.29-1.138 5.238 5.238 0 0 0-1.837.319Zm14.046-8.24v20.12h-2.075V7.501h2.075Zm5.739 20.084a4.298 4.298 0 0 1-1.525-.882 3.698 3.698 0 0 1-.914-1.289 3.964 3.964 0 0 1-.306-1.565 3.79 3.79 0 0 1 .402-1.871 3.766 3.766 0 0 1 1.264-1.432c1.105-.772 2.625-1.163 4.556-1.163h4.337v-.522a3.346 3.346 0 0 0-.996-2.557c-.669-.636-1.676-.955-3.009-.955a4.785 4.785 0 0 0-2.502.555 4.815 4.815 0 0 0-1.862 1.767l-1.801-1.148a7.738 7.738 0 0 1 2.538-2.16 7.617 7.617 0 0 1 3.632-.803 8.12 8.12 0 0 1 2.594.38 5.192 5.192 0 0 1 1.879 1.086 4.666 4.666 0 0 1 1.167 1.69c.266.683.398 1.412.389 2.145v8.76h-2.029v-2.42a6.17 6.17 0 0 1-2.412 1.987 7.549 7.549 0 0 1-3.254.715 6.497 6.497 0 0 1-2.148-.318Zm4.047-1.722a6.505 6.505 0 0 0 1.469-.59 6.02 6.02 0 0 0 1.297-.97c.4-.387.737-.834 1.001-1.325v-1.91h-4.239c-1.437 0-2.496.224-3.17.663a2.363 2.363 0 0 0-.27 3.652 3.461 3.461 0 0 0 2.376.678 6.104 6.104 0 0 0 1.557-.193l-.021-.005Zm8.084 6.303a4.453 4.453 0 0 1-1.473-.892l1.349-1.712c.25.274.54.506.861.69.347.177.732.265 1.121.255.321.005.641-.037.95-.125.289-.095.557-.245.788-.444a3.78 3.78 0 0 0 .696-.897c.262-.455.5-.923.711-1.404l.306-.663-5.744-13.133h2.262l4.571 10.67 4.354-10.67h2.262l-6.227 14.396a17.35 17.35 0 0 1-1.001 1.962c-.29.496-.654.945-1.079 1.33-.375.33-.811.581-1.282.741a5.454 5.454 0 0 1-3.445-.104h.02Z" fill="#fff"/><path d="M34.89 8.726 20.056.428a3.577 3.577 0 0 0-3.395 0L1.777 8.726c-.537.301-.985.738-1.297 1.266A3.446 3.446 0 0 0 0 11.734V28.28a3.384 3.384 0 0 0 .47 1.747c.313.53.764.965 1.306 1.26l14.833 8.247c.52.31 1.117.472 1.724.467a3.445 3.445 0 0 0 1.724-.467l14.833-8.246c.537-.3.985-.738 1.297-1.266.312-.529.477-1.13.479-1.742V11.734a3.29 3.29 0 0 0-.457-1.755 3.322 3.322 0 0 0-1.32-1.253Z" fill="url(#a)"/><path d="m8.236 24.792-.874.52a1.352 1.352 0 0 0-.645.829 1.382 1.382 0 0 0 .131 1.047c.115.217.285.4.493.528.208.128.446.197.69.2.23-.001.459-.055.668-.156l.873-.52a1.352 1.352 0 0 0 .645-.829 1.382 1.382 0 0 0-.13-1.046 1.336 1.336 0 0 0-.803-.695 1.304 1.304 0 0 0-1.048.122Zm5.345-3.073-1.798 1.041a1.351 1.351 0 0 0-.645.829 1.384 1.384 0 0 0 .13 1.046c.115.218.285.4.493.528.208.129.446.198.69.202.231-.002.46-.056.668-.157l1.799-1.041a1.352 1.352 0 0 0 .645-.829 1.38 1.38 0 0 0-.131-1.046 1.334 1.334 0 0 0-.802-.695 1.303 1.303 0 0 0-1.049.122Zm7.248-2.547a1.228 1.228 0 0 0-.72-.625V8.073a1.417 1.417 0 0 0-.405-.996 1.381 1.381 0 0 0-.983-.41 1.326 1.326 0 0 0-.962.416 1.362 1.362 0 0 0-.374.99v10.52a1.208 1.208 0 0 0-.72.626 1.4 1.4 0 0 0-.051 1.198 1.402 1.402 0 0 0 .051 1.198 1.228 1.228 0 0 0 .72.625v10.52c0 .373.146.731.406.995a1.379 1.379 0 0 0 1.963 0c.26-.264.407-.622.407-.995V22.188a1.208 1.208 0 0 0 .72-.625 1.4 1.4 0 0 0 .05-1.198 1.624 1.624 0 0 0-.102-1.193Zm3.5-3.6-1.799 1.043a1.351 1.351 0 0 0-.645.828 1.382 1.382 0 0 0 .131 1.047c.115.217.285.4.493.528.208.128.446.197.69.2.23-.001.459-.055.667-.155l1.8-1.042a1.351 1.351 0 0 0 .644-.829 1.382 1.382 0 0 0-.13-1.046 1.335 1.335 0 0 0-.803-.695 1.305 1.305 0 0 0-1.048.122Zm4.261.522c.231-.002.46-.056.668-.157l.874-.52a1.363 1.363 0 0 0 .645-.83 1.394 1.394 0 0 0-.125-1.049 1.373 1.373 0 0 0-.822-.65 1.34 1.34 0 0 0-1.034.133l-.874.52a1.351 1.351 0 0 0-.645.829 1.382 1.382 0 0 0 .13 1.047c.119.21.29.385.5.505.207.119.444.178.683.172Zm1.542 9.218-.874-.52a1.342 1.342 0 0 0-1.029-.124 1.361 1.361 0 0 0-.815.648 1.392 1.392 0 0 0-.128 1.042c.096.35.324.649.636.83l.874.52c.208.101.437.155.668.157.243-.004.481-.073.69-.201.207-.129.377-.311.492-.529a1.296 1.296 0 0 0-.514-1.823ZM25.66 22.76l-1.799-1.041a1.344 1.344 0 0 0-1.509.11 1.372 1.372 0 0 0-.513.919 1.394 1.394 0 0 0 .282 1.017c.11.142.248.261.404.35l1.799 1.041c.209.101.437.155.668.157.243-.004.482-.073.69-.202.207-.128.378-.31.492-.528a1.288 1.288 0 0 0-.514-1.823ZM11.783 17.97l1.799 1.041c.208.101.436.155.668.157a1.35 1.35 0 0 0 .689-.201c.208-.129.378-.311.493-.529a1.375 1.375 0 0 0-.514-1.875l-1.8-1.041a1.335 1.335 0 0 0-1.85.52 1.475 1.475 0 0 0-.119 1.067c.096.358.322.666.634.86Zm-2.21-4.427-.874-.521a1.344 1.344 0 0 0-1.857.517 1.389 1.389 0 0 0 .52 1.879l.874.52c.209.101.437.155.668.157.244-.004.482-.073.69-.201.207-.129.378-.31.492-.528a1.33 1.33 0 0 0-.514-1.823Z" fill="#20133A"/><defs><linearGradient id="a" x1="0" y1="20.001" x2="36.671" y2="20.001" gradientUnits="userSpaceOnUse"><stop stop-color="#9059FF"/><stop offset="1" stop-color="#F770FF"/></linearGradient></defs></svg>