<svg width="138" height="50" fill="none" xmlns="http://www.w3.org/2000/svg"><path d="M65.775 3.358v3.105h-8.191v3.91h8.19v3.058h-8.19v6.85H54V3.359h11.775Zm2.774-.617a2.41 2.41 0 0 1 1.598-.594 2.41 2.41 0 0 1 1.597.594c.205.198.365.433.471.69.106.256.154.53.144.804.01.258-.034.517-.131.76a1.949 1.949 0 0 1-.435.655c-.19.19-.42.343-.674.45-.254.109-.529.169-.808.178h-.185a2.289 2.289 0 0 1-.858-.136c-.273-.1-.521-.25-.729-.442a2.018 2.018 0 0 1-.466-.676 1.894 1.894 0 0 1-.148-.79c-.01-.274.04-.549.147-.805.108-.257.27-.49.477-.688Zm3.37 5.02v12.52h-3.543V7.762h3.542Zm6.142 0v1.925a3.31 3.31 0 0 1 1.465-1.635 4.674 4.674 0 0 1 2.268-.522c.426-.004.85.043 1.264.138.355.08.699.197 1.024.35l-1.254 3.153a2.551 2.551 0 0 0-.763-.322 4.12 4.12 0 0 0-1.024-.128 3.157 3.157 0 0 0-2.13.682c-.55.465-.824 1.228-.824 2.29v6.59h-3.43V7.762h3.404ZM88.505 20.04a6.76 6.76 0 0 1-2.252-1.38 6.069 6.069 0 0 1-1.454-2.062 6.466 6.466 0 0 1-.512-2.55 6.172 6.172 0 0 1 .512-2.565 6.317 6.317 0 0 1 1.536-2.057 7.06 7.06 0 0 1 2.257-1.423 7.609 7.609 0 0 1 2.806-.474 7.823 7.823 0 0 1 2.805.474c.822.305 1.57.758 2.202 1.333a6.013 6.013 0 0 1 1.454 2.028c.353.819.527 1.694.511 2.575v1.175H87.62a3.456 3.456 0 0 0 1.366 1.94 4.33 4.33 0 0 0 2.514.706 4.221 4.221 0 0 0 2.048-.474c.542-.3.998-.719 1.326-1.219l2.82 1.579a7.793 7.793 0 0 1-2.508 2.11 7.87 7.87 0 0 1-3.742.805 8.463 8.463 0 0 1-2.939-.521Zm.604-9.192a3.691 3.691 0 0 0-1.377 1.763h7.224a3.154 3.154 0 0 0-1.28-1.763 4.032 4.032 0 0 0-2.304-.616 3.938 3.938 0 0 0-2.263.616Zm12.502-3.086V7.32a9.507 9.507 0 0 1 .287-2.55c.15-.616.479-1.182.952-1.636a3.825 3.825 0 0 1 1.776-.868 12.35 12.35 0 0 1 2.765-.265h.901v2.92h-.579a9.575 9.575 0 0 0-1.427.08 1.68 1.68 0 0 0-.814.328c-.201.18-.328.417-.364.673-.053.38-.076.764-.072 1.147v.602h3.256v2.873h-3.256v9.657h-3.425v-9.648h-2.237V7.762h2.237Zm11.774 12.254a7.11 7.11 0 0 1-2.267-1.422 6.427 6.427 0 0 1-1.523-2.111 6.03 6.03 0 0 1-.525-2.492 6.053 6.053 0 0 1 .512-2.541 6.246 6.246 0 0 1 1.536-2.039 6.85 6.85 0 0 1 2.342-1.45 7.288 7.288 0 0 1 2.778-.446 7.682 7.682 0 0 1 2.821.474 6.892 6.892 0 0 1 3.165 2.387 6.119 6.119 0 0 1 1.176 3.62 5.947 5.947 0 0 1-.548 2.526 6.837 6.837 0 0 1-1.515 2.072 7.071 7.071 0 0 1-2.269 1.422 8.135 8.135 0 0 1-5.683 0Zm4.306-2.806a3.9 3.9 0 0 0 1.178-.745c.336-.316.604-.69.788-1.1a3.425 3.425 0 0 0 0-2.749 3.425 3.425 0 0 0-.788-1.114 3.795 3.795 0 0 0-1.178-.74 3.894 3.894 0 0 0-4.08.74 3.368 3.368 0 0 0-.793 1.114 3.425 3.425 0 0 0 0 2.75c.185.41.454.784.793 1.1.339.312.736.564 1.172.744a3.982 3.982 0 0 0 2.924.014l-.016-.014Zm6.097-9.448h4.096l2.826 3.721 2.857-3.712h4.054l-4.781 6.11 5.16 6.4h-4.182l-3.108-3.915-3.025 3.916h-4.157l5.048-6.429-4.788-6.091ZM61.244 27.643a7.33 7.33 0 0 1 2.56.418 6.068 6.068 0 0 1 2.001 1.147 5.226 5.226 0 0 1 1.316 1.74 5.261 5.261 0 0 1 .21 3.754 5.155 5.155 0 0 1-.738 1.422c-.328.446-.73.84-1.192 1.171a5.586 5.586 0 0 1-1.617.806l3.982 6.466h-2.355l-3.583-5.959h-5.75v5.96H54V27.642h7.244Zm-5.165 9.202h5.006c.637.01 1.27-.096 1.864-.313.514-.19.983-.474 1.377-.834.373-.342.664-.752.855-1.204.189-.454.286-.936.287-1.423a3.53 3.53 0 0 0-.302-1.46 3.363 3.363 0 0 0-.896-1.166 4.048 4.048 0 0 0-1.377-.754 5.885 5.885 0 0 0-1.797-.246h-5.017v7.4Zm17.748 7.48a6.772 6.772 0 0 1-2.252-1.37 5.856 5.856 0 0 1-1.439-2.052 6.487 6.487 0 0 1-.512-2.55 6.25 6.25 0 0 1 .512-2.584 6.382 6.382 0 0 1 1.537-2.058A6.816 6.816 0 0 1 73.9 32.29a7.58 7.58 0 0 1 2.815-.512c.94-.009 1.871.152 2.744.474a6.498 6.498 0 0 1 2.176 1.323 6.124 6.124 0 0 1 1.956 4.594v.858H71.635c.087.843.428 1.646.987 2.317a4.845 4.845 0 0 0 2.167 1.475 6.24 6.24 0 0 0 1.966.299 5.1 5.1 0 0 0 2.652-.584 4.601 4.601 0 0 0 1.878-1.83l1.757.949a7.645 7.645 0 0 1-2.56 2.342 7.636 7.636 0 0 1-3.732.834c-1 .01-1.993-.161-2.924-.502Zm1.055-10.552a4.76 4.76 0 0 0-1.49.815 4.603 4.603 0 0 0-1.09 1.228 4.77 4.77 0 0 0-.615 1.54h9.794c-.093-1.096-.645-2.115-1.54-2.84a4.78 4.78 0 0 0-3.246-1.032 5.568 5.568 0 0 0-1.813.289Zm13.858-7.486v18.28h-2.047v-18.28h2.047Zm5.663 18.247a4.34 4.34 0 0 1-1.505-.8 3.378 3.378 0 0 1-.902-1.172 3.353 3.353 0 0 1-.301-1.422 3.216 3.216 0 0 1 .396-1.7 3.53 3.53 0 0 1 1.247-1.3c1.09-.703 2.59-1.058 4.495-1.058h4.279v-.474a2.815 2.815 0 0 0-.222-1.26 3.025 3.025 0 0 0-.76-1.063c-.66-.578-1.654-.867-2.97-.867a5.06 5.06 0 0 0-2.468.503 4.609 4.609 0 0 0-1.837 1.606l-1.777-1.043a7.506 7.506 0 0 1 2.504-1.963 8.057 8.057 0 0 1 3.584-.73 8.645 8.645 0 0 1 2.559.347c.686.204 1.317.54 1.854.986.502.426.896.95 1.151 1.535a4.82 4.82 0 0 1 .384 1.949v7.96h-2.002v-2.2a5.997 5.997 0 0 1-2.38 1.806 7.99 7.99 0 0 1-3.21.65 6.917 6.917 0 0 1-2.12-.29Zm3.993-1.564a6.75 6.75 0 0 0 1.45-.536c.467-.24.897-.536 1.279-.882.394-.352.727-.758.987-1.204v-1.735H97.93c-1.418 0-2.463.204-3.128.602a2.13 2.13 0 0 0-.959 1.374c-.11.557.023 1.132.37 1.599.095.124.204.24.323.346a3.629 3.629 0 0 0 2.344.616 6.517 6.517 0 0 0 1.536-.175l-.02-.005Zm7.976 5.727a4.485 4.485 0 0 1-1.454-.811l1.331-1.555c.247.248.533.46.85.626.342.162.722.242 1.106.232.317.005.632-.033.937-.114.285-.085.55-.222.778-.403.272-.238.503-.513.686-.815.259-.413.494-.838.701-1.275l.303-.602-5.668-11.933h2.232l4.51 9.695 4.296-9.695h2.232l-6.144 13.08a15.311 15.311 0 0 1-.988 1.782c-.286.451-.645.859-1.064 1.21-.37.298-.8.527-1.265.672a5.82 5.82 0 0 1-3.399-.094h.02ZM41.868 10.908 24.068.535A4.157 4.157 0 0 0 22.03 0c-.712 0-1.412.184-2.037.535L2.13 10.908A4.258 4.258 0 0 0 .575 12.49 4.444 4.444 0 0 0 0 14.668v20.68c-.006.768.19 1.522.565 2.184A4.18 4.18 0 0 0 2.13 39.11l17.8 10.307c.624.389 1.34.59 2.069.584a4.007 4.007 0 0 0 2.068-.584l17.8-10.307a4.257 4.257 0 0 0 1.556-1.583c.374-.66.573-1.412.575-2.178v-20.68a4.246 4.246 0 0 0-.548-2.194 4.06 4.06 0 0 0-1.583-1.566Z" fill="#000"/><path d="m9.883 30.99-1.048.65c-.188.11-.353.258-.486.436s-.23.382-.288.6a1.797 1.797 0 0 0 .157 1.308c.138.272.342.5.591.66.25.16.535.248.827.252.278-.003.552-.07.802-.196l1.049-.65c.187-.11.352-.258.485-.436s.231-.382.289-.6a1.797 1.797 0 0 0-.157-1.308 1.664 1.664 0 0 0-.396-.54 1.562 1.562 0 0 0-.567-.329 1.503 1.503 0 0 0-1.258.153Zm6.415-3.841-2.159 1.302c-.188.11-.353.257-.486.435-.132.178-.23.382-.288.6a1.798 1.798 0 0 0 .157 1.308c.138.272.342.5.592.66.25.16.535.247.827.252.277-.003.551-.07.802-.195l2.158-1.303c.188-.11.353-.257.486-.435s.23-.382.288-.6a1.796 1.796 0 0 0-.157-1.308 1.663 1.663 0 0 0-.395-.54 1.56 1.56 0 0 0-.567-.329 1.506 1.506 0 0 0-1.258.152Zm8.697-3.184a1.526 1.526 0 0 0-.357-.483 1.435 1.435 0 0 0-.507-.298V10.09c0-.23-.042-.46-.125-.674a1.761 1.761 0 0 0-.36-.57 1.656 1.656 0 0 0-.542-.382 1.583 1.583 0 0 0-.638-.132c-.216.001-.43.048-.628.137-.198.09-.377.22-.527.384-.15.164-.266.358-.343.57-.077.213-.113.44-.106.667v13.151a1.435 1.435 0 0 0-.507.298c-.148.134-.27.299-.356.483a1.806 1.806 0 0 0-.062 1.498 1.815 1.815 0 0 0 .062 1.497c.087.185.208.35.356.484s.32.235.507.297V40.95c0 .467.176.914.488 1.243.312.33.736.515 1.177.515.442 0 .866-.185 1.178-.515.312-.33.488-.776.488-1.243V27.734c.186-.062.358-.163.507-.298.148-.134.27-.298.356-.483a1.805 1.805 0 0 0 .062-1.497 2.107 2.107 0 0 0-.123-1.491Zm4.2-4.499-2.159 1.302c-.187.11-.353.258-.485.436-.133.178-.231.381-.289.6a1.796 1.796 0 0 0 .157 1.308c.138.272.342.5.592.66.25.16.535.247.827.252.277-.003.551-.07.802-.196l2.159-1.302c.187-.11.352-.258.485-.436.133-.177.23-.381.288-.6a1.798 1.798 0 0 0-.157-1.308 1.667 1.667 0 0 0-.395-.54 1.563 1.563 0 0 0-.567-.328 1.506 1.506 0 0 0-1.258.152Zm5.113.651c.278-.002.551-.069.802-.195l1.048-.651c.188-.11.353-.26.486-.437a1.811 1.811 0 0 0 .139-1.91 1.697 1.697 0 0 0-.417-.51 1.597 1.597 0 0 0-.57-.303 1.546 1.546 0 0 0-1.241.165l-1.049.651c-.187.11-.352.258-.485.436s-.231.381-.288.6a1.8 1.8 0 0 0 .157 1.308c.14.264.347.482.597.631.25.15.534.224.821.215Zm1.85 11.524-1.048-.651a1.554 1.554 0 0 0-1.235-.155 1.648 1.648 0 0 0-.979.81 1.806 1.806 0 0 0-.152 1.302c.114.439.388.812.762 1.037l1.049.651c.25.127.524.193.802.196a1.57 1.57 0 0 0 .827-.252c.25-.16.454-.388.591-.66a1.692 1.692 0 0 0 .166-1.282 1.64 1.64 0 0 0-.292-.585 1.54 1.54 0 0 0-.49-.411Zm-5.366-3.19-2.158-1.303a1.546 1.546 0 0 0-1.241-.165 1.6 1.6 0 0 0-.57.303 1.7 1.7 0 0 0-.417.51 1.788 1.788 0 0 0-.15 1.31c.058.218.156.422.289.6.133.178.298.327.485.437l2.159 1.302c.25.127.524.193.802.196a1.57 1.57 0 0 0 .827-.252c.25-.16.453-.388.591-.66a1.68 1.68 0 0 0 .172-1.284 1.628 1.628 0 0 0-.294-.586 1.527 1.527 0 0 0-.495-.409ZM14.14 22.46l2.159 1.302c.25.126.524.193.802.195.292-.004.577-.09.827-.251.25-.16.454-.388.591-.66a1.796 1.796 0 0 0 .157-1.308 1.745 1.745 0 0 0-.288-.6 1.645 1.645 0 0 0-.486-.436l-2.158-1.302a1.535 1.535 0 0 0-1.24-.166c-.207.061-.4.164-.568.305-.168.14-.309.314-.413.512a1.914 1.914 0 0 0-.143 1.333c.114.448.386.832.76 1.076Zm-2.652-5.534-1.049-.65a1.546 1.546 0 0 0-1.241-.165c-.207.06-.4.162-.57.301-.169.14-.31.313-.416.51a1.787 1.787 0 0 0-.15 1.31c.057.219.156.423.289.6.132.179.297.327.485.438l1.048.65c.25.127.524.194.802.196a1.57 1.57 0 0 0 .827-.251c.25-.16.454-.388.592-.66a1.714 1.714 0 0 0 .15-1.278 1.682 1.682 0 0 0-.287-.583 1.582 1.582 0 0 0-.48-.418Z" fill="url(#a)"/><defs><linearGradient id="a" x1=".5" y1="26.042" x2="43.5" y2="26.042" gradientUnits="userSpaceOnUse"><stop stop-color="#9059FF"/><stop offset="1" stop-color="#F770FF"/></linearGradient></defs></svg>