<svg width="138" height="50" fill="none" xmlns="http://www.w3.org/2000/svg"><path d="M65.775 2.398v3.198h-8.191v4.028h8.19v3.149h-8.19v7.055H54V2.398h11.775Zm2.774-.635a2.37 2.37 0 0 1 1.598-.611c.595 0 1.167.219 1.597.611a2.1 2.1 0 0 1 .471.71c.106.264.154.546.144.828.01.267-.034.533-.131.783s-.245.48-.435.675c-.19.195-.42.353-.674.464a2.21 2.21 0 0 1-.808.183h-.185a2.228 2.228 0 0 1-.858-.14 2.147 2.147 0 0 1-.729-.456 2.082 2.082 0 0 1-.466-.695 2.003 2.003 0 0 1-.148-.814c-.01-.283.04-.565.147-.83.108-.264.27-.505.477-.708Zm3.37 5.17v12.895h-3.543V6.934h3.542Zm6.142 0v1.983a3.377 3.377 0 0 1 1.465-1.685 4.563 4.563 0 0 1 2.268-.537c.426-.004.85.044 1.264.142a4.8 4.8 0 0 1 1.024.361l-1.254 3.247a2.511 2.511 0 0 0-.763-.332 4.001 4.001 0 0 0-1.024-.132 3.097 3.097 0 0 0-2.13.703c-.55.479-.824 1.265-.824 2.358v6.787h-3.43V6.934h3.404ZM88.505 19.58a6.73 6.73 0 0 1-2.252-1.421 6.254 6.254 0 0 1-1.454-2.124 6.833 6.833 0 0 1-.512-2.626 6.524 6.524 0 0 1 .512-2.642 6.493 6.493 0 0 1 1.536-2.119 7.034 7.034 0 0 1 2.257-1.464 7.41 7.41 0 0 1 2.806-.489 7.62 7.62 0 0 1 2.805.489 6.73 6.73 0 0 1 2.202 1.372 6.193 6.193 0 0 1 1.454 2.09c.353.842.527 1.743.511 2.65v1.211H87.62a3.56 3.56 0 0 0 1.367 1.997c.73.499 1.614.755 2.513.727a4.121 4.121 0 0 0 2.048-.488c.542-.309.998-.74 1.326-1.255l2.82 1.626a7.855 7.855 0 0 1-2.508 2.173 7.677 7.677 0 0 1-3.742.83 8.247 8.247 0 0 1-2.939-.537Zm.604-9.467a3.788 3.788 0 0 0-1.377 1.816h7.224a3.244 3.244 0 0 0-1.28-1.816 3.944 3.944 0 0 0-2.304-.635 3.852 3.852 0 0 0-2.263.635Zm12.502-3.178V6.48a10.07 10.07 0 0 1 .287-2.627c.15-.634.479-1.216.952-1.684a3.78 3.78 0 0 1 1.777-.894 11.99 11.99 0 0 1 2.764-.273h.901v3.007h-.579a9.3 9.3 0 0 0-1.427.083 1.654 1.654 0 0 0-.814.337c-.201.186-.328.43-.364.693a8.192 8.192 0 0 0-.072 1.182v.62h3.256v2.959h-3.256v9.945h-3.425V9.892h-2.237V6.934h2.237Zm11.775 12.62a7.078 7.078 0 0 1-2.268-1.464 6.616 6.616 0 0 1-1.523-2.175 6.369 6.369 0 0 1-.525-2.566 6.411 6.411 0 0 1 .512-2.617 6.418 6.418 0 0 1 1.536-2.1 6.821 6.821 0 0 1 2.342-1.493 7.096 7.096 0 0 1 2.778-.46 7.481 7.481 0 0 1 2.821.49 6.916 6.916 0 0 1 3.165 2.457 6.43 6.43 0 0 1 1.176 3.728 6.28 6.28 0 0 1-.548 2.602 7.036 7.036 0 0 1-3.784 3.598 7.911 7.911 0 0 1-5.682 0Zm4.305-2.89a3.887 3.887 0 0 0 1.178-.767 3.57 3.57 0 0 0 .788-1.132 3.624 3.624 0 0 0 0-2.832 3.528 3.528 0 0 0-.788-1.147 3.78 3.78 0 0 0-1.178-.762 3.794 3.794 0 0 0-2.908 0c-.437.182-.834.44-1.172.762a3.47 3.47 0 0 0-.793 1.147 3.624 3.624 0 0 0 0 2.832c.185.423.454.807.793 1.133.339.32.736.58 1.172.766a3.879 3.879 0 0 0 2.924.015l-.016-.015Zm6.097-9.73h4.096l2.826 3.832 2.857-3.823h4.054l-4.781 6.294 5.16 6.59h-4.182l-3.108-4.032-3.025 4.033h-4.157l5.048-6.62-4.788-6.274ZM61.244 26.006a7.136 7.136 0 0 1 2.56.43 6.026 6.026 0 0 1 2.001 1.18 5.37 5.37 0 0 1 1.316 1.792 5.568 5.568 0 0 1 .21 3.867 5.367 5.367 0 0 1-1.93 2.67 5.526 5.526 0 0 1-1.617.83l3.982 6.66h-2.355l-3.583-6.137h-5.75v6.137H54v-17.43h7.244Zm-5.165 9.476h5.006c.637.01 1.27-.1 1.864-.322a4.194 4.194 0 0 0 1.377-.86c.373-.351.664-.774.855-1.24.189-.467.286-.963.287-1.464a3.73 3.73 0 0 0-.302-1.504 3.455 3.455 0 0 0-.896-1.201c-.4-.345-.867-.61-1.377-.776a5.724 5.724 0 0 0-1.797-.254h-5.017v7.621Zm17.748 7.704c-.842-.32-1.609-.8-2.252-1.41-.63-.602-1.12-1.322-1.439-2.115a6.854 6.854 0 0 1-.512-2.627 6.604 6.604 0 0 1 .512-2.66 6.562 6.562 0 0 1 1.537-2.12A6.796 6.796 0 0 1 73.9 30.79a7.384 7.384 0 0 1 2.815-.527c.94-.01 1.871.156 2.744.488a6.467 6.467 0 0 1 2.176 1.362 6.328 6.328 0 0 1 1.443 2.095 6.47 6.47 0 0 1 .512 2.636v.884H71.636a4.51 4.51 0 0 0 .987 2.386 4.842 4.842 0 0 0 2.167 1.52c.632.21 1.297.313 1.966.307a4.98 4.98 0 0 0 2.652-.601 4.668 4.668 0 0 0 1.878-1.884l1.757.976a7.733 7.733 0 0 1-2.56 2.412 7.45 7.45 0 0 1-3.732.86c-1 .01-1.993-.166-2.924-.518Zm1.055-10.868a4.72 4.72 0 0 0-1.49.84 4.697 4.697 0 0 0-1.09 1.264 5 5 0 0 0-.615 1.587h9.795a4.27 4.27 0 0 0-1.541-2.925 4.687 4.687 0 0 0-3.246-1.064 5.42 5.42 0 0 0-1.813.298ZM88.74 24.61v18.826h-2.047V24.61h2.047Zm5.663 18.792a4.302 4.302 0 0 1-1.505-.825 3.469 3.469 0 0 1-.902-1.206 3.541 3.541 0 0 1-.301-1.465 3.392 3.392 0 0 1 .396-1.75 3.59 3.59 0 0 1 1.247-1.34c1.09-.723 2.59-1.089 4.495-1.089h4.279v-.488a2.976 2.976 0 0 0-.222-1.297 3.116 3.116 0 0 0-.76-1.096c-.66-.595-1.654-.893-2.97-.893a4.935 4.935 0 0 0-2.468.519 4.654 4.654 0 0 0-1.837 1.654l-1.777-1.074a7.543 7.543 0 0 1 2.504-2.022 7.857 7.857 0 0 1 3.584-.752 8.411 8.411 0 0 1 2.559.357c.686.21 1.317.556 1.854 1.015.502.44.896.98 1.151 1.582.263.64.393 1.32.384 2.007v8.197h-2.002V41.17a6.02 6.02 0 0 1-2.38 1.86 7.789 7.789 0 0 1-3.21.669 6.73 6.73 0 0 1-2.12-.298Zm3.993-1.611a6.62 6.62 0 0 0 1.45-.552 5.921 5.921 0 0 0 1.279-.908 5.1 5.1 0 0 0 .987-1.24v-1.787H97.93c-1.418 0-2.463.21-3.128.62-.504.332-.848.84-.959 1.414-.11.574.023 1.167.37 1.647.095.129.204.248.323.357a3.55 3.55 0 0 0 2.344.634 6.333 6.333 0 0 0 1.536-.18l-.02-.005Zm7.976 5.898a4.452 4.452 0 0 1-1.454-.835l1.331-1.602c.247.256.533.473.85.645.342.166.722.249 1.106.239a3.37 3.37 0 0 0 .937-.117c.285-.088.55-.23.778-.415a3.56 3.56 0 0 0 .686-.84c.259-.425.494-.863.702-1.313l.302-.62-5.668-12.289h2.232l4.51 9.984 4.296-9.984h2.232l-6.144 13.47a15.916 15.916 0 0 1-.988 1.836 5.348 5.348 0 0 1-1.064 1.245c-.37.308-.8.543-1.265.693a5.66 5.66 0 0 1-3.399-.097h.02Z" fill="#fff"/><path d="M41.868 10.908 24.068.535A4.157 4.157 0 0 0 22.03 0c-.712 0-1.412.184-2.037.535L2.13 10.908A4.258 4.258 0 0 0 .575 12.49 4.444 4.444 0 0 0 0 14.668v20.68c-.006.768.19 1.522.565 2.184A4.18 4.18 0 0 0 2.13 39.11l17.8 10.307c.624.389 1.34.59 2.069.584a4.007 4.007 0 0 0 2.068-.584l17.8-10.307a4.257 4.257 0 0 0 1.556-1.583c.374-.66.573-1.412.575-2.178v-20.68a4.246 4.246 0 0 0-.548-2.194 4.06 4.06 0 0 0-1.583-1.566Z" fill="url(#a)"/><path d="m9.883 30.156-1.048.651c-.188.11-.353.258-.486.436s-.23.382-.288.6a1.797 1.797 0 0 0 .157 1.308c.138.272.342.5.591.66.25.16.535.247.827.252.278-.003.552-.07.802-.196l1.049-.65c.187-.11.352-.259.485-.436.133-.178.231-.382.289-.6a1.796 1.796 0 0 0-.157-1.309 1.664 1.664 0 0 0-.396-.54 1.563 1.563 0 0 0-.567-.328 1.506 1.506 0 0 0-1.258.152Zm6.415-3.84-2.159 1.301c-.188.11-.353.258-.486.436-.132.177-.23.381-.288.6a1.798 1.798 0 0 0 .157 1.308c.138.272.342.5.592.66.25.16.535.247.827.251.277-.002.551-.069.802-.195l2.158-1.302c.188-.11.353-.258.486-.436a1.794 1.794 0 0 0 .131-1.908 1.663 1.663 0 0 0-.395-.54 1.56 1.56 0 0 0-.567-.328 1.505 1.505 0 0 0-1.258.152Zm8.697-3.184a1.53 1.53 0 0 0-.357-.484 1.438 1.438 0 0 0-.507-.298V9.258c0-.231-.042-.46-.125-.674a1.761 1.761 0 0 0-.36-.571 1.656 1.656 0 0 0-.542-.38 1.584 1.584 0 0 0-.638-.133c-.216 0-.43.047-.628.137a1.61 1.61 0 0 0-.527.384c-.15.164-.266.358-.343.57-.077.213-.113.44-.106.667v13.15a1.435 1.435 0 0 0-.507.299 1.53 1.53 0 0 0-.357.483 1.806 1.806 0 0 0-.061 1.497 1.817 1.817 0 0 0 .061 1.498c.087.185.209.349.357.483s.32.236.507.298v13.151c0 .466.176.914.488 1.243.312.33.736.515 1.177.515.442 0 .866-.185 1.178-.515.312-.33.488-.777.488-1.243V26.901c.186-.062.358-.164.507-.298.148-.134.27-.299.356-.483a1.808 1.808 0 0 0 .062-1.498 2.107 2.107 0 0 0-.123-1.49Zm4.2-4.5-2.159 1.303c-.188.11-.353.258-.485.436-.133.177-.231.381-.289.6a1.796 1.796 0 0 0 .157 1.308c.138.271.342.5.592.66.25.16.535.247.827.251.278-.002.551-.069.802-.195l2.159-1.302a1.64 1.64 0 0 0 .485-.436c.133-.178.23-.382.288-.6a1.796 1.796 0 0 0-.157-1.308 1.662 1.662 0 0 0-.395-.54 1.564 1.564 0 0 0-.567-.329 1.504 1.504 0 0 0-1.258.153Zm5.113.652c.278-.003.551-.07.802-.195l1.048-.651c.188-.111.353-.26.486-.438a1.76 1.76 0 0 0 .289-.6 1.814 1.814 0 0 0-.15-1.31 1.7 1.7 0 0 0-.417-.51 1.6 1.6 0 0 0-.57-.302 1.546 1.546 0 0 0-1.241.165l-1.049.65a1.64 1.64 0 0 0-.485.436 1.74 1.74 0 0 0-.288.6 1.797 1.797 0 0 0 .157 1.308c.14.264.347.483.597.632.25.149.534.223.821.215Zm1.85 11.523-1.048-.65a1.554 1.554 0 0 0-1.235-.155 1.647 1.647 0 0 0-.979.81 1.804 1.804 0 0 0-.152 1.302c.114.439.388.811.762 1.037l1.049.651c.25.126.524.193.802.195.292-.004.577-.09.827-.251.25-.16.454-.388.591-.66a1.696 1.696 0 0 0 .166-1.282 1.638 1.638 0 0 0-.292-.585 1.54 1.54 0 0 0-.49-.412Zm-5.366-3.19-2.158-1.302a1.569 1.569 0 0 0-1.241-.165c-.207.06-.401.163-.57.302-.17.14-.311.313-.417.51a1.787 1.787 0 0 0-.15 1.31c.058.219.156.423.289.6.133.179.298.327.485.438l2.159 1.302c.25.126.524.193.802.195a1.57 1.57 0 0 0 .827-.251c.25-.16.453-.388.591-.66a1.656 1.656 0 0 0 .172-1.284 1.624 1.624 0 0 0-.294-.586 1.526 1.526 0 0 0-.495-.409Zm-16.653-5.99 2.159 1.303c.25.126.524.192.802.195.292-.004.577-.091.827-.251s.454-.389.591-.66a1.794 1.794 0 0 0 .157-1.308 1.737 1.737 0 0 0-.288-.6 1.64 1.64 0 0 0-.486-.436l-2.158-1.302a1.535 1.535 0 0 0-1.24-.166c-.207.06-.4.164-.568.304-.168.14-.309.315-.413.513a1.913 1.913 0 0 0-.143 1.333c.114.448.386.832.76 1.076Zm-2.652-5.533-1.049-.651a1.546 1.546 0 0 0-1.241-.165 1.6 1.6 0 0 0-.57.302c-.169.14-.31.312-.416.51a1.788 1.788 0 0 0-.15 1.31c.057.219.156.423.289.6.132.178.297.327.485.438l1.048.65c.25.127.524.193.802.196.292-.004.578-.091.827-.252.25-.16.454-.388.592-.66a1.74 1.74 0 0 0 .15-1.277 1.683 1.683 0 0 0-.287-.583 1.582 1.582 0 0 0-.48-.418Z" fill="#20133A"/><defs><linearGradient id="a" x1="0" y1="25.002" x2="44.005" y2="25.002" gradientUnits="userSpaceOnUse"><stop stop-color="#9059FF"/><stop offset="1" stop-color="#F770FF"/></linearGradient></defs></svg>