<svg width="84" height="107" fill="none" xmlns="http://www.w3.org/2000/svg"><path d="M61.868 10.908 44.068.535A4.157 4.157 0 0 0 42.03 0c-.712 0-1.412.184-2.037.535L22.13 10.908a4.258 4.258 0 0 0-1.556 1.582A4.444 4.444 0 0 0 20 14.668v20.68c-.006.768.19 1.522.564 2.184a4.18 4.18 0 0 0 1.567 1.577l17.8 10.307c.624.389 1.34.59 2.069.584a4.007 4.007 0 0 0 2.068-.584l17.8-10.307a4.257 4.257 0 0 0 1.556-1.583c.374-.66.573-1.412.575-2.178v-20.68a4.246 4.246 0 0 0-.548-2.194 4.06 4.06 0 0 0-1.583-1.566Z" fill="#000"/><path d="m29.883 30.99-1.048.65c-.188.11-.353.258-.486.436s-.23.382-.288.6a1.796 1.796 0 0 0 .157 1.308c.138.272.342.5.591.66.25.16.535.248.827.252.278-.003.552-.07.802-.196l1.049-.65c.187-.11.353-.258.485-.436.133-.178.231-.382.289-.6a1.797 1.797 0 0 0-.157-1.308 1.664 1.664 0 0 0-.396-.54 1.562 1.562 0 0 0-.567-.329 1.503 1.503 0 0 0-1.258.153Zm6.415-3.841-2.159 1.302c-.188.11-.353.257-.486.435-.132.178-.23.382-.288.6a1.798 1.798 0 0 0 .157 1.308c.138.272.342.5.592.66.25.16.535.247.827.252.277-.003.551-.07.802-.195l2.158-1.303c.188-.11.353-.257.486-.435s.23-.382.288-.6a1.796 1.796 0 0 0-.157-1.308 1.663 1.663 0 0 0-.395-.54 1.56 1.56 0 0 0-.567-.329 1.506 1.506 0 0 0-1.258.152Zm8.697-3.184a1.526 1.526 0 0 0-.357-.483 1.435 1.435 0 0 0-.507-.298V10.09c0-.23-.042-.46-.125-.674a1.761 1.761 0 0 0-.36-.57 1.656 1.656 0 0 0-.542-.382 1.583 1.583 0 0 0-.638-.132c-.216.001-.43.048-.628.137-.198.09-.377.22-.527.384-.15.164-.266.358-.343.57-.077.213-.113.44-.106.667v13.151a1.435 1.435 0 0 0-.507.298c-.148.134-.27.299-.356.483a1.806 1.806 0 0 0-.062 1.498 1.815 1.815 0 0 0 .062 1.497c.087.185.208.35.356.484s.32.235.507.297V40.95c0 .467.176.914.488 1.243.312.33.736.515 1.177.515.442 0 .866-.185 1.178-.515.312-.33.488-.776.488-1.243V27.734c.186-.062.358-.163.507-.298.148-.134.27-.298.356-.483a1.805 1.805 0 0 0 .062-1.497 2.107 2.107 0 0 0-.123-1.491Zm4.2-4.499-2.159 1.302c-.187.11-.353.258-.485.436-.133.178-.231.381-.289.6a1.796 1.796 0 0 0 .157 1.308c.138.272.342.5.592.66.25.16.535.247.827.252.277-.003.551-.07.802-.196l2.159-1.302c.187-.11.352-.258.485-.436.133-.177.23-.381.288-.6a1.798 1.798 0 0 0-.157-1.308 1.667 1.667 0 0 0-.395-.54 1.563 1.563 0 0 0-.567-.328 1.506 1.506 0 0 0-1.258.152Zm5.113.651c.278-.002.551-.069.802-.195l1.048-.651c.188-.11.353-.26.486-.437a1.811 1.811 0 0 0 .139-1.91 1.697 1.697 0 0 0-.417-.51 1.597 1.597 0 0 0-.57-.303 1.546 1.546 0 0 0-1.241.165l-1.049.651c-.187.11-.352.258-.485.436s-.231.381-.288.6a1.8 1.8 0 0 0 .157 1.308c.14.264.347.482.597.631.25.15.534.224.821.215Zm1.85 11.524-1.048-.651a1.554 1.554 0 0 0-1.235-.155 1.648 1.648 0 0 0-.979.81 1.806 1.806 0 0 0-.152 1.302c.114.439.388.812.762 1.037l1.049.651c.25.127.524.193.802.196a1.57 1.57 0 0 0 .827-.252c.25-.16.454-.388.591-.66a1.692 1.692 0 0 0 .166-1.282 1.64 1.64 0 0 0-.292-.585 1.54 1.54 0 0 0-.49-.411Zm-5.366-3.19-2.158-1.303a1.546 1.546 0 0 0-1.241-.165 1.6 1.6 0 0 0-.57.303 1.7 1.7 0 0 0-.417.51 1.788 1.788 0 0 0-.15 1.31c.058.218.156.422.289.6.133.178.298.327.485.437l2.159 1.302c.25.127.524.193.801.196a1.57 1.57 0 0 0 .828-.252c.25-.16.453-.388.591-.66a1.68 1.68 0 0 0 .172-1.284 1.628 1.628 0 0 0-.294-.586 1.527 1.527 0 0 0-.495-.409ZM34.14 22.46l2.159 1.302c.25.126.524.193.802.195.292-.004.577-.09.827-.251.25-.16.453-.388.591-.66a1.796 1.796 0 0 0 .157-1.308 1.745 1.745 0 0 0-.288-.6 1.645 1.645 0 0 0-.486-.436l-2.158-1.302a1.535 1.535 0 0 0-1.24-.166c-.206.061-.4.164-.568.305-.169.14-.309.314-.413.512a1.914 1.914 0 0 0-.143 1.333c.114.448.386.832.76 1.076Zm-2.652-5.534-1.049-.65a1.546 1.546 0 0 0-1.241-.165c-.207.06-.4.162-.57.301a1.7 1.7 0 0 0-.416.51 1.787 1.787 0 0 0-.15 1.31c.058.219.156.423.288.6.133.179.298.327.486.438l1.048.65c.25.127.524.194.802.196a1.57 1.57 0 0 0 .827-.251c.25-.16.454-.388.592-.66a1.714 1.714 0 0 0 .15-1.278 1.682 1.682 0 0 0-.287-.583 1.582 1.582 0 0 0-.48-.418Z" fill="url(#a)"/><path d="M11.775 61.398v3.198H3.584v4.028h8.19v3.149h-8.19v7.055H0v-17.43h11.775Zm2.774-.635a2.37 2.37 0 0 1 1.598-.611c.595 0 1.167.219 1.597.611a2.1 2.1 0 0 1 .471.71c.106.264.154.546.143.828.011.267-.033.533-.13.783s-.245.48-.435.675c-.19.196-.42.353-.674.464a2.21 2.21 0 0 1-.808.183h-.185a2.227 2.227 0 0 1-.858-.14 2.148 2.148 0 0 1-.729-.456 2.082 2.082 0 0 1-.466-.695 2.003 2.003 0 0 1-.148-.814c-.01-.283.04-.565.147-.83.108-.264.27-.505.478-.708Zm3.37 5.17v12.895h-3.543V65.934h3.542Zm6.142 0v1.983a3.377 3.377 0 0 1 1.465-1.684 4.563 4.563 0 0 1 2.268-.537 5.26 5.26 0 0 1 1.264.141c.355.082.699.203 1.024.361l-1.254 3.247a2.511 2.511 0 0 0-.763-.332 4 4 0 0 0-1.024-.132 3.097 3.097 0 0 0-2.13.703c-.55.479-.824 1.265-.824 2.358v6.787h-3.43V65.934h3.404ZM34.505 78.58a6.73 6.73 0 0 1-2.252-1.421 6.254 6.254 0 0 1-1.454-2.124 6.833 6.833 0 0 1-.512-2.627 6.524 6.524 0 0 1 .512-2.64 6.494 6.494 0 0 1 1.536-2.12 7.035 7.035 0 0 1 2.257-1.464 7.412 7.412 0 0 1 2.806-.489 7.621 7.621 0 0 1 2.805.489 6.73 6.73 0 0 1 2.202 1.372 6.192 6.192 0 0 1 1.454 2.09c.353.842.527 1.743.511 2.65v1.211H33.62a3.56 3.56 0 0 0 1.367 1.997c.73.499 1.614.755 2.513.727a4.121 4.121 0 0 0 2.048-.488c.542-.309.998-.74 1.326-1.255l2.82 1.626a7.855 7.855 0 0 1-2.508 2.173 7.677 7.677 0 0 1-3.742.83 8.247 8.247 0 0 1-2.939-.537Zm.604-9.467a3.788 3.788 0 0 0-1.377 1.816h7.224a3.244 3.244 0 0 0-1.28-1.816 3.944 3.944 0 0 0-2.304-.635 3.852 3.852 0 0 0-2.263.635Zm12.502-3.178v-.454c-.02-.884.076-1.766.287-2.627.15-.634.48-1.216.952-1.684a3.778 3.778 0 0 1 1.776-.894c.907-.197 1.835-.29 2.765-.273h.901v3.007h-.579a9.307 9.307 0 0 0-1.428.083 1.657 1.657 0 0 0-.813.337c-.2.186-.328.43-.364.693a8.149 8.149 0 0 0-.072 1.182v.62h3.256v2.959h-3.256v9.945h-3.425v-9.936h-2.237v-2.958h2.237Zm11.775 12.62a7.076 7.076 0 0 1-2.268-1.464 6.62 6.62 0 0 1-1.523-2.175 6.384 6.384 0 0 1-.525-2.566 6.411 6.411 0 0 1 .512-2.617 6.42 6.42 0 0 1 1.536-2.1 6.822 6.822 0 0 1 2.342-1.493 7.092 7.092 0 0 1 2.778-.46 7.48 7.48 0 0 1 2.82.49 6.91 6.91 0 0 1 3.166 2.457 6.427 6.427 0 0 1 1.176 3.728c.006.894-.18 1.78-.548 2.602a7.034 7.034 0 0 1-3.784 3.598 7.911 7.911 0 0 1-5.682 0Zm4.305-2.89a3.892 3.892 0 0 0 1.178-.767c.336-.326.604-.71.788-1.132a3.626 3.626 0 0 0 0-2.832 3.546 3.546 0 0 0-.788-1.147 3.784 3.784 0 0 0-1.178-.762 3.78 3.78 0 0 0-2.908 0 3.83 3.83 0 0 0-1.172.762 3.458 3.458 0 0 0-.793 1.147 3.626 3.626 0 0 0 0 2.832c.185.423.454.807.793 1.132.339.322.736.582 1.172.767a3.876 3.876 0 0 0 2.924.015l-.016-.015Zm6.097-9.73h4.096l2.826 3.832 2.857-3.823h4.054l-4.781 6.294 5.16 6.59h-4.182l-3.108-4.032-3.025 4.033h-4.157l5.048-6.62-4.787-6.274ZM17.245 85.006a7.136 7.136 0 0 1 2.56.43 6.026 6.026 0 0 1 2.001 1.18 5.37 5.37 0 0 1 1.316 1.792 5.568 5.568 0 0 1 .21 3.867 5.367 5.367 0 0 1-1.93 2.67 5.526 5.526 0 0 1-1.617.83l3.983 6.66H21.41l-3.583-6.137h-5.75v6.137H10v-17.43h7.244Zm-5.165 9.476h5.006c.637.01 1.27-.1 1.864-.322a4.194 4.194 0 0 0 1.377-.86c.373-.351.664-.774.855-1.24.189-.467.286-.963.287-1.464a3.73 3.73 0 0 0-.302-1.504 3.455 3.455 0 0 0-.896-1.201c-.4-.346-.867-.61-1.377-.776a5.724 5.724 0 0 0-1.797-.254h-5.017v7.621Zm17.748 7.704c-.842-.32-1.609-.8-2.252-1.411a6.03 6.03 0 0 1-1.439-2.114 6.854 6.854 0 0 1-.512-2.627 6.604 6.604 0 0 1 .512-2.66 6.562 6.562 0 0 1 1.537-2.12A6.796 6.796 0 0 1 29.9 89.79a7.384 7.384 0 0 1 2.815-.527c.94-.01 1.871.156 2.744.488a6.467 6.467 0 0 1 2.176 1.362 6.328 6.328 0 0 1 1.443 2.095 6.47 6.47 0 0 1 .512 2.636v.884H27.636a4.51 4.51 0 0 0 .987 2.386 4.846 4.846 0 0 0 2.167 1.52 6.086 6.086 0 0 0 1.966.307 4.977 4.977 0 0 0 2.652-.601 4.671 4.671 0 0 0 1.878-1.884l1.757.977a7.726 7.726 0 0 1-2.56 2.411 7.454 7.454 0 0 1-3.732.86 8.06 8.06 0 0 1-2.923-.518Zm1.055-10.868a4.72 4.72 0 0 0-1.49.84 4.697 4.697 0 0 0-1.09 1.264 5 5 0 0 0-.615 1.587h9.795a4.27 4.27 0 0 0-1.541-2.925 4.687 4.687 0 0 0-3.246-1.064 5.42 5.42 0 0 0-1.813.298ZM44.74 83.61v18.826h-2.047V83.609h2.047Zm5.663 18.792a4.292 4.292 0 0 1-1.505-.825 3.47 3.47 0 0 1-.902-1.206 3.541 3.541 0 0 1-.302-1.465 3.392 3.392 0 0 1 .397-1.75 3.59 3.59 0 0 1 1.247-1.34c1.09-.723 2.59-1.089 4.495-1.089h4.28v-.488a2.985 2.985 0 0 0-.223-1.297 3.12 3.12 0 0 0-.76-1.096c-.66-.595-1.654-.893-2.97-.893a4.935 4.935 0 0 0-2.468.519 4.654 4.654 0 0 0-1.837 1.654l-1.777-1.074a7.543 7.543 0 0 1 2.504-2.022 7.857 7.857 0 0 1 3.584-.751 8.414 8.414 0 0 1 2.56.356c.685.21 1.316.556 1.853 1.015.502.44.896.98 1.151 1.582.263.64.393 1.32.384 2.007v8.197h-2.002v-2.265a6.03 6.03 0 0 1-2.38 1.86 7.803 7.803 0 0 1-3.21.669 6.75 6.75 0 0 1-2.12-.298Zm3.993-1.611a6.62 6.62 0 0 0 1.45-.552 5.918 5.918 0 0 0 1.279-.908c.394-.362.727-.78.987-1.24v-1.787H53.93c-1.418 0-2.463.21-3.128.62-.504.332-.848.84-.959 1.414a2.12 2.12 0 0 0 .37 1.647c.095.129.204.248.323.357a3.547 3.547 0 0 0 2.344.634 6.347 6.347 0 0 0 1.536-.18l-.02-.005Zm7.976 5.898a4.461 4.461 0 0 1-1.454-.835l1.331-1.602c.247.256.533.473.85.645.342.167.722.249 1.106.239.317.005.632-.034.937-.117.285-.088.55-.229.778-.415a3.57 3.57 0 0 0 .686-.84c.259-.425.494-.863.702-1.313l.302-.62-5.667-12.289h2.231l4.51 9.984 4.296-9.984h2.232l-6.144 13.47a15.924 15.924 0 0 1-.988 1.836 5.353 5.353 0 0 1-1.064 1.245c-.37.308-.8.543-1.265.693a5.657 5.657 0 0 1-3.399-.097h.02Z" fill="#000"/><defs><linearGradient id="a" x1="20.5" y1="26.042" x2="63.5" y2="26.042" gradientUnits="userSpaceOnUse"><stop stop-color="#9059FF"/><stop offset="1" stop-color="#F770FF"/></linearGradient></defs></svg>