<svg xmlns="http://www.w3.org/2000/svg" width="191" height="126" fill="none" viewBox="0 0 191 126"><path fill="#000" d="M14.321 97.793v4.101H4.36v5.166h9.962v4.038H4.36v9.048H0V97.793h14.321Zm3.375-.814a2.8 2.8 0 0 1 3.885 0c.506.529.775 1.241.747 1.972a2.613 2.613 0 0 1-.688 1.87 2.587 2.587 0 0 1-1.802.829h-.224a2.587 2.587 0 0 1-1.93-.764 2.674 2.674 0 0 1-.748-1.935 2.708 2.708 0 0 1 .76-1.972Zm4.097 6.631v16.536h-4.309V103.61h4.309Zm7.472 0v2.542c.334-.9.961-1.66 1.78-2.16a5.32 5.32 0 0 1 2.76-.689 6.078 6.078 0 0 1 2.782.645l-1.525 4.164a2.943 2.943 0 0 0-.928-.426 4.593 4.593 0 0 0-1.245-.169 3.641 3.641 0 0 0-2.59.901c-.669.614-1.003 1.622-1.003 3.025v8.703h-4.172V103.61h4.141Zm12.702 16.216a8.127 8.127 0 0 1-2.74-1.822 8.05 8.05 0 0 1-1.768-2.723 9.177 9.177 0 0 1-.623-3.369 8.766 8.766 0 0 1 .623-3.387 8.36 8.36 0 0 1 1.868-2.718 8.532 8.532 0 0 1 2.746-1.878 8.61 8.61 0 0 1 3.412-.626 8.833 8.833 0 0 1 3.412.626c1 .403 1.91 1.001 2.678 1.759a7.963 7.963 0 0 1 1.768 2.68 8.811 8.811 0 0 1 .623 3.4v1.553H40.89a4.576 4.576 0 0 0 1.662 2.561c.89.64 1.964.968 3.058.933a4.804 4.804 0 0 0 2.49-.626 4.733 4.733 0 0 0 1.613-1.61l3.43 2.085a9.726 9.726 0 0 1-3.05 2.787 8.944 8.944 0 0 1-4.552 1.064 9.576 9.576 0 0 1-3.574-.689Zm.735-12.14a4.836 4.836 0 0 0-1.675 2.329h8.786a4.168 4.168 0 0 0-1.557-2.329 4.616 4.616 0 0 0-2.802-.814 4.504 4.504 0 0 0-2.752.814Zm15.205-4.076v-.583a13.63 13.63 0 0 1 .349-3.368 4.572 4.572 0 0 1 1.158-2.16 4.509 4.509 0 0 1 2.16-1.146 13.874 13.874 0 0 1 3.362-.35h1.097v3.856h-.704a10.736 10.736 0 0 0-1.737.107 1.955 1.955 0 0 0-.99.432 1.511 1.511 0 0 0-.442.889 10.961 10.961 0 0 0-.087 1.515v.795h3.96v3.795h-3.96v12.754h-4.166v-12.742h-2.72v-3.794h2.72Zm14.32 16.185a8.589 8.589 0 0 1-2.757-1.878 8.52 8.52 0 0 1-1.853-2.789 8.575 8.575 0 0 1-.638-3.291 8.591 8.591 0 0 1 .623-3.356 8.222 8.222 0 0 1 1.868-2.692 8.25 8.25 0 0 1 6.227-2.505 8.661 8.661 0 0 1 3.43.626 8.49 8.49 0 0 1 3.85 3.153 8.554 8.554 0 0 1 1.43 4.78 8.43 8.43 0 0 1-.665 3.338 9.037 9.037 0 0 1-1.844 2.736 8.535 8.535 0 0 1-2.758 1.878 9.166 9.166 0 0 1-6.912 0h-.001Zm5.237-3.707a4.693 4.693 0 0 0 1.433-.983c.408-.418.735-.911.959-1.452a4.883 4.883 0 0 0 0-3.632 4.573 4.573 0 0 0-.959-1.471 4.566 4.566 0 0 0-1.433-.977 4.395 4.395 0 0 0-3.536 0 4.656 4.656 0 0 0-1.426.977 4.438 4.438 0 0 0-.964 1.471 4.883 4.883 0 0 0 0 3.632c.224.542.552 1.036.964 1.452.412.413.896.746 1.426.983.56.245 1.165.372 1.776.375a4.48 4.48 0 0 0 1.78-.356l-.02-.019Zm7.416-12.478h4.982l3.436 4.915 3.476-4.903h4.93l-5.815 8.071 6.276 8.453h-5.087l-3.78-5.172-3.679 5.172h-5.055l6.139-8.491-5.823-8.045Zm35.616-5.817a8.282 8.282 0 0 1 3.114.551 7.248 7.248 0 0 1 2.434 1.515 6.892 6.892 0 0 1 1.601 2.298 7.507 7.507 0 0 1 .255 4.959 7.01 7.01 0 0 1-.897 1.878 6.75 6.75 0 0 1-1.451 1.547 6.596 6.596 0 0 1-1.967 1.064l4.845 8.541h-2.865l-4.358-7.871h-6.993v7.871h-2.528V97.793h8.81Zm-6.282 12.153h6.089a5.86 5.86 0 0 0 2.267-.413 5.067 5.067 0 0 0 1.675-1.102 4.562 4.562 0 0 0 1.039-1.59c.23-.6.349-1.237.35-1.879a4.994 4.994 0 0 0-.368-1.928 4.416 4.416 0 0 0-1.089-1.541 4.825 4.825 0 0 0-1.675-.995 6.644 6.644 0 0 0-2.186-.326h-6.102v9.774Zm21.587 9.88a8.147 8.147 0 0 1-2.739-1.809 7.761 7.761 0 0 1-1.75-2.711 9.219 9.219 0 0 1-.623-3.369 8.871 8.871 0 0 1 .623-3.412 8.413 8.413 0 0 1 1.868-2.718 8.264 8.264 0 0 1 2.709-1.878 8.57 8.57 0 0 1 3.425-.676 8.725 8.725 0 0 1 3.337.626c.992.396 1.893.99 2.646 1.747a8.145 8.145 0 0 1 1.755 2.686 8.677 8.677 0 0 1 .623 3.381v1.133h-14.539a5.96 5.96 0 0 0 1.2 3.061 5.9 5.9 0 0 0 2.636 1.948 7.049 7.049 0 0 0 2.391.395 5.798 5.798 0 0 0 3.225-.772 5.844 5.844 0 0 0 2.285-2.415l2.136 1.252a9.632 9.632 0 0 1-3.113 3.093 8.666 8.666 0 0 1-4.539 1.102 9.351 9.351 0 0 1-3.556-.664Zm1.283-13.937a5.657 5.657 0 0 0-1.812 1.077 5.96 5.96 0 0 0-1.326 1.621 6.64 6.64 0 0 0-.748 2.035h11.912a5.565 5.565 0 0 0-1.874-3.751 5.511 5.511 0 0 0-3.948-1.364 6.274 6.274 0 0 0-2.204.382Zm16.855-9.887v24.144h-2.49V96.002h2.49Zm6.887 24.1a5.145 5.145 0 0 1-1.83-1.058 4.438 4.438 0 0 1-1.097-1.547 4.767 4.767 0 0 1-.367-1.878 4.531 4.531 0 0 1 1.999-3.964c1.326-.926 3.15-1.396 5.467-1.396h5.205v-.626a4.02 4.02 0 0 0-1.195-3.068c-.803-.764-2.012-1.146-3.611-1.146a5.755 5.755 0 0 0-5.237 2.787l-2.161-1.378a9.294 9.294 0 0 1 3.045-2.592 9.136 9.136 0 0 1 4.359-.964 9.722 9.722 0 0 1 3.113.457c.835.27 1.603.713 2.254 1.302a5.607 5.607 0 0 1 1.401 2.029c.319.819.477 1.693.467 2.573v10.513h-2.435v-2.906a7.394 7.394 0 0 1-2.895 2.386 9.063 9.063 0 0 1-3.904.858 7.803 7.803 0 0 1-2.578-.382Zm4.856-2.066a7.798 7.798 0 0 0 1.763-.708 7.231 7.231 0 0 0 1.557-1.164 6.48 6.48 0 0 0 1.201-1.591v-2.291h-5.087c-1.724 0-2.995.269-3.804.795a2.83 2.83 0 0 0-.324 4.383 4.162 4.162 0 0 0 2.851.814 7.368 7.368 0 0 0 1.869-.232l-.026-.006Zm9.701 7.563a5.327 5.327 0 0 1-1.767-1.07l1.618-2.054c.3.328.648.607 1.034.826.416.214.878.32 1.345.307.385.007.769-.044 1.14-.15.347-.113.668-.294.945-.532.332-.315.612-.678.836-1.077.314-.545.6-1.108.852-1.684l.368-.796-6.893-15.759h2.715l5.485 12.804 5.225-12.804H191l-7.472 17.275a21.017 21.017 0 0 1-1.202 2.354 6.773 6.773 0 0 1-1.294 1.596c-.45.395-.974.697-1.539.889a6.536 6.536 0 0 1-4.134-.125h.024Z"/><defs><linearGradient id="a" x1="4.8" x2="75.208" y1="40.003" y2="40.003" gradientTransform="translate(79.272 -15.786)" gradientUnits="userSpaceOnUse"><stop stop-color="#9059FF"/><stop offset="1" stop-color="#F770FF"/></linearGradient></defs><g><path fill="url(#a)" d="M151.06 1.667 122.58-14.93a6.635 6.635 0 0 0-6.517 0L87.482 1.667a6.812 6.812 0 0 0-2.49 2.532 7.1 7.1 0 0 0-.92 3.484v33.088a6.993 6.993 0 0 0 .903 3.495 6.7 6.7 0 0 0 2.507 2.522l28.48 16.492c.992.619 2.14.943 3.31.934a6.426 6.426 0 0 0 3.309-.934l28.48-16.492a6.812 6.812 0 0 0 2.49-2.532 7.12 7.12 0 0 0 .919-3.485V7.684a6.787 6.787 0 0 0-.876-3.51 6.487 6.487 0 0 0-2.534-2.506v-.001Z" transform="translate(-24.173 15.786)"/><path fill="#20133A" d="m75.712 48.25-1.678 1.042c-.3.175-.564.412-.776.697-.213.284-.37.61-.462.96a2.876 2.876 0 0 0 .252 2.093c.22.435.547.8.946 1.056.4.256.856.395 1.323.402.445-.004.882-.11 1.283-.313l1.678-1.041c.3-.176.564-.413.777-.697.212-.285.37-.61.46-.96a2.879 2.879 0 0 0-.25-2.093 2.66 2.66 0 0 0-.633-.864 2.492 2.492 0 0 0-.907-.526 2.406 2.406 0 0 0-2.013.244Zm10.264-6.146-3.455 2.083c-.3.176-.564.413-.776.697a2.79 2.79 0 0 0-.462.96 2.876 2.876 0 0 0 .252 2.093c.22.435.547.8.946 1.057.4.256.856.395 1.323.402a2.919 2.919 0 0 0 1.283-.313L88.541 47c.3-.176.565-.413.777-.697.213-.284.37-.61.461-.96a2.869 2.869 0 0 0-.25-2.093 2.66 2.66 0 0 0-.633-.864 2.488 2.488 0 0 0-.908-.526 2.403 2.403 0 0 0-2.013.244h.001ZM99.89 37.01a2.441 2.441 0 0 0-.57-.773 2.288 2.288 0 0 0-.81-.477V14.813a2.92 2.92 0 0 0-.2-1.078 2.804 2.804 0 0 0-.579-.914 2.63 2.63 0 0 0-.866-.61 2.506 2.506 0 0 0-1.02-.211 2.453 2.453 0 0 0-1.004.219c-.32.144-.607.353-.844.614-.24.262-.426.573-.55.913-.123.34-.18.702-.169 1.066v21.042c-.298.1-.574.262-.81.477-.24.217-.434.48-.57.773a2.909 2.909 0 0 0-.1 2.396 2.91 2.91 0 0 0 .1 2.396c.138.295.332.558.57.773.234.213.51.375.81.477v21.041a2.9 2.9 0 0 0 .78 1.99c.5.527 1.178.823 1.885.823.707 0 1.384-.296 1.884-.824.5-.527.78-1.243.78-1.989V43.042c.298-.1.574-.262.812-.477.237-.215.431-.478.57-.773a2.91 2.91 0 0 0 .1-2.396 3.37 3.37 0 0 0-.199-2.386Zm6.72-7.198-3.453 2.084a2.62 2.62 0 0 0-.777.697c-.212.284-.37.61-.46.96a2.875 2.875 0 0 0 .25 2.093c.22.435.547.8.946 1.056.4.256.856.395 1.324.402.444-.004.882-.11 1.283-.312l3.454-2.084c.3-.175.564-.412.776-.697.213-.284.37-.61.462-.96a2.874 2.874 0 0 0-.252-2.093 2.658 2.658 0 0 0-.632-.864 2.492 2.492 0 0 0-.907-.526 2.406 2.406 0 0 0-2.013.244Zm8.182 1.042c.444-.004.882-.11 1.283-.312l1.678-1.042c.3-.177.563-.415.776-.7.212-.284.37-.61.462-.96.186-.705.1-1.453-.24-2.097a2.71 2.71 0 0 0-.667-.815 2.544 2.544 0 0 0-.91-.484 2.474 2.474 0 0 0-1.987.264l-1.677 1.042c-.3.176-.564.413-.777.697-.212.284-.37.61-.46.96a2.875 2.875 0 0 0 .25 2.093c.221.417.552.766.957 1.01.4.239.854.358 1.313.344Zm2.96 18.438-1.677-1.042a2.478 2.478 0 0 0-1.975-.248 2.633 2.633 0 0 0-1.566 1.296 2.888 2.888 0 0 0-.244 2.085c.175.69.613 1.286 1.22 1.659l1.678 1.041c.4.202.838.309 1.283.313.47-.008.928-.147 1.323-.402a2.7 2.7 0 0 0 .946-1.057c.177-.303.292-.643.338-.996a2.72 2.72 0 0 0-.072-1.055 2.607 2.607 0 0 0-.467-.936 2.453 2.453 0 0 0-.785-.658h-.002Zm-8.585-5.105-3.454-2.083a2.47 2.47 0 0 0-1.986-.264c-.33.096-.64.26-.912.483-.27.223-.497.5-.666.816a2.898 2.898 0 0 0-.24 2.097c.092.35.25.676.462.96.212.285.476.523.776.7l3.454 2.083c.4.202.84.309 1.283.313.47-.008.928-.148 1.323-.403.4-.256.726-.62.947-1.056a2.687 2.687 0 0 0 .275-2.055 2.592 2.592 0 0 0-.47-.936 2.43 2.43 0 0 0-.792-.655ZM82.52 34.604l3.454 2.083c.401.202.84.309 1.284.313.47-.008.928-.148 1.323-.402.4-.257.726-.621.946-1.056a2.87 2.87 0 0 0 .251-2.093 2.768 2.768 0 0 0-.46-.96 2.606 2.606 0 0 0-.778-.697l-3.454-2.084a2.451 2.451 0 0 0-1.983-.265c-.33.097-.64.263-.91.487a2.69 2.69 0 0 0-.66.82 3.058 3.058 0 0 0-.229 2.133c.176.705.61 1.319 1.216 1.721Zm-4.24-8.854-1.68-1.042a2.466 2.466 0 0 0-1.987-.264c-.33.096-.64.26-.91.484-.272.223-.498.5-.667.815a2.899 2.899 0 0 0-.24 2.097c.092.35.25.676.461.96.213.285.477.523.776.7l1.678 1.042c.4.202.84.308 1.283.312.47-.008.928-.147 1.323-.402.4-.257.726-.621.947-1.056a2.749 2.749 0 0 0 .24-2.044 2.691 2.691 0 0 0-.459-.933 2.515 2.515 0 0 0-.768-.669h.002Z"/></g></svg>