<svg xmlns="http://www.w3.org/2000/svg" width="194" height="80" fill="none" viewBox="0 0 194 80"><path fill="#000" d="M101.432 11.733v3.964H90.975v4.993h10.457v3.903H90.975v8.745H86.4V11.733h15.032Zm3.542-.787a3.076 3.076 0 0 1 2.039-.758c.76 0 1.49.272 2.039.758.262.253.467.552.601.88.135.327.197.676.183 1.027.014.33-.042.66-.166.97-.124.31-.313.594-.556.837-.247.245-.539.44-.86.575a2.885 2.885 0 0 1-1.032.226h-.235a2.903 2.903 0 0 1-1.096-.174 2.748 2.748 0 0 1-.93-.564 2.575 2.575 0 0 1-.596-.862 2.42 2.42 0 0 1-.188-1.008 2.419 2.419 0 0 1 .188-1.029 2.59 2.59 0 0 1 .609-.878Zm4.3 6.41v15.982h-4.522V17.355h4.522v.001Zm7.843 0v2.456a4.226 4.226 0 0 1 1.869-2.088 5.965 5.965 0 0 1 2.895-.665 6.914 6.914 0 0 1 1.615.175c.451.101.889.251 1.307.448l-1.602 4.025c-.3-.19-.628-.329-.973-.412a5.236 5.236 0 0 0-1.307-.163 4.034 4.034 0 0 0-2.719.871c-.702.593-1.052 1.568-1.052 2.923v8.412h-4.379V17.355h4.346v.001Zm13.332 15.674a8.626 8.626 0 0 1-2.875-1.761 7.734 7.734 0 0 1-1.856-2.633 8.242 8.242 0 0 1-.654-3.256 7.89 7.89 0 0 1 .654-3.274 8.073 8.073 0 0 1 1.96-2.626 9.018 9.018 0 0 1 2.882-1.816 9.724 9.724 0 0 1 3.582-.605 9.98 9.98 0 0 1 3.581.605 8.654 8.654 0 0 1 2.811 1.7 7.677 7.677 0 0 1 1.856 2.59 7.92 7.92 0 0 1 .653 3.287v1.5h-13.724c.258.987.874 1.86 1.745 2.476a5.52 5.52 0 0 0 3.208.902 5.39 5.39 0 0 0 2.615-.605 4.793 4.793 0 0 0 1.692-1.556l3.601 2.016a9.933 9.933 0 0 1-3.202 2.693 10.037 10.037 0 0 1-4.777 1.029 10.818 10.818 0 0 1-3.752-.666Zm.772-11.735a4.717 4.717 0 0 0-1.759 2.251h9.222a4.024 4.024 0 0 0-1.634-2.25 5.148 5.148 0 0 0-2.941-.788 5.023 5.023 0 0 0-2.888.787Zm15.959-3.94v-.563a12.162 12.162 0 0 1 .366-3.255 4.323 4.323 0 0 1 1.216-2.088 4.872 4.872 0 0 1 2.267-1.108 15.79 15.79 0 0 1 3.529-.339h1.151v3.728h-.739c-.61-.011-1.219.024-1.822.103a2.153 2.153 0 0 0-1.04.418c-.255.23-.418.532-.464.86a9.816 9.816 0 0 0-.091 1.464v.768h4.156v3.668h-4.156v12.327h-4.373V21.023h-2.856v-3.668h2.856ZM162.211 33a9.082 9.082 0 0 1-2.894-1.816 8.208 8.208 0 0 1-1.945-2.695 7.73 7.73 0 0 1-.67-3.181 7.718 7.718 0 0 1 .654-3.244 7.955 7.955 0 0 1 1.961-2.603 8.728 8.728 0 0 1 2.99-1.852 9.293 9.293 0 0 1 3.545-.568 9.783 9.783 0 0 1 3.601.605c1.645.619 3.052 1.68 4.041 3.047a7.805 7.805 0 0 1 1.501 4.62 7.578 7.578 0 0 1-.699 3.226 8.717 8.717 0 0 1-1.934 2.645A9.028 9.028 0 0 1 169.466 33c-2.34.872-4.915.872-7.255 0Zm5.497-3.583a5.003 5.003 0 0 0 1.504-.95c.428-.405.77-.881 1.006-1.404a4.374 4.374 0 0 0 0-3.51 4.387 4.387 0 0 0-1.006-1.423c-.432-.4-.942-.72-1.504-.944a4.965 4.965 0 0 0-5.208.944c-.437.407-.781.89-1.013 1.422a4.374 4.374 0 0 0 0 3.51c.24.532.584 1.009 1.013 1.405.432.398.939.72 1.496.95.588.236 1.223.36 1.864.362a5.079 5.079 0 0 0 1.868-.344l-.02-.018Zm7.784-12.062h5.228l3.607 4.751 3.648-4.739h5.175l-6.103 7.801 6.587 8.17h-5.339l-3.968-4.998-3.861 4.998h-5.307l6.444-8.206-6.111-7.777ZM95.648 42.736a9.371 9.371 0 0 1 3.268.533 7.74 7.74 0 0 1 2.554 1.464 6.684 6.684 0 0 1 1.681 2.221 6.719 6.719 0 0 1 .268 4.794 6.587 6.587 0 0 1-.942 1.815 6.836 6.836 0 0 1-1.523 1.495c-.628.453-1.325.8-2.064 1.029l5.084 8.254h-3.006l-4.575-7.607h-7.34v7.607H86.4V42.736h9.248Zm-6.594 11.747h6.39a6.634 6.634 0 0 0 2.38-.4 5.378 5.378 0 0 0 1.758-1.065c.476-.435.848-.96 1.091-1.537.242-.58.365-1.195.367-1.815a4.498 4.498 0 0 0-.386-1.864 4.292 4.292 0 0 0-1.144-1.49 5.178 5.178 0 0 0-1.758-.961 7.507 7.507 0 0 0-2.293-.315h-6.405v9.447Zm22.658 9.55a8.648 8.648 0 0 1-2.876-1.75 7.486 7.486 0 0 1-1.836-2.62 8.277 8.277 0 0 1-.654-3.256A7.966 7.966 0 0 1 107 53.11a8.14 8.14 0 0 1 1.961-2.626 8.7 8.7 0 0 1 2.843-1.816 9.684 9.684 0 0 1 3.594-.654 9.868 9.868 0 0 1 3.503.606 8.294 8.294 0 0 1 2.777 1.688 7.823 7.823 0 0 1 2.497 5.864v1.096h-15.261a5.505 5.505 0 0 0 1.26 2.958 6.182 6.182 0 0 0 2.767 1.883c.806.26 1.655.389 2.509.382a6.514 6.514 0 0 0 3.386-.746 5.88 5.88 0 0 0 2.398-2.335l2.242 1.21a9.759 9.759 0 0 1-3.267 2.99 9.752 9.752 0 0 1-4.765 1.065 10.555 10.555 0 0 1-3.732-.641v-.001Zm1.346-13.472a6.076 6.076 0 0 0-1.902 1.041 5.892 5.892 0 0 0-1.392 1.568 6.106 6.106 0 0 0-.784 1.966h12.502c-.118-1.4-.824-2.701-1.966-3.625-1.143-.924-2.63-1.398-4.144-1.319a7.087 7.087 0 0 0-2.314.37v-.001Zm17.692-9.556v23.336h-2.614V41.005h2.614Zm7.228 23.294a5.534 5.534 0 0 1-1.921-1.023 4.316 4.316 0 0 1-1.151-1.494 4.277 4.277 0 0 1-.385-1.816c-.036-.752.138-1.5.506-2.17a4.514 4.514 0 0 1 1.592-1.661c1.392-.896 3.306-1.35 5.738-1.35h5.463v-.605c.029-.55-.067-1.1-.283-1.607a3.88 3.88 0 0 0-.971-1.358c-.843-.738-2.111-1.108-3.79-1.108a6.456 6.456 0 0 0-3.152.643 5.882 5.882 0 0 0-2.345 2.05l-2.268-1.33a9.58 9.58 0 0 1 3.196-2.506 10.29 10.29 0 0 1 4.575-.932c1.107-.017 2.21.132 3.267.441a6.68 6.68 0 0 1 2.367 1.26 5.426 5.426 0 0 1 1.47 1.96c.335.792.501 1.637.49 2.487v10.161h-2.556v-2.808a7.662 7.662 0 0 1-3.038 2.306 10.198 10.198 0 0 1-4.098.83 8.818 8.818 0 0 1-2.706-.37Zm5.097-1.997a8.612 8.612 0 0 0 1.851-.684 7.573 7.573 0 0 0 1.633-1.126 6.321 6.321 0 0 0 1.261-1.537V56.74h-5.339c-1.81 0-3.144.26-3.993.769a2.722 2.722 0 0 0-1.224 1.753c-.14.716.032 1.459.472 2.041.121.16.26.308.412.442.86.593 1.925.873 2.993.787a8.351 8.351 0 0 0 1.961-.224l-.027-.006Zm10.182 7.31a5.732 5.732 0 0 1-1.855-1.034l1.699-1.985c.315.317.68.586 1.085.799.437.206.922.308 1.412.296.404.006.807-.043 1.196-.145.364-.11.702-.284.993-.515.347-.303.642-.654.876-1.04.33-.527.63-1.07.895-1.628l.386-.769-7.234-15.233h2.849l5.757 12.377 5.484-12.377h2.849l-7.843 16.697c-.369.786-.79 1.546-1.261 2.276a6.692 6.692 0 0 1-1.359 1.543 4.896 4.896 0 0 1-1.615.86 7.437 7.437 0 0 1-4.339-.121h.025v-.001Z"/><defs><linearGradient id="a" x1="4.8" x2="75.208" y1="40.003" y2="40.003" gradientTransform="translate(-4.8)" gradientUnits="userSpaceOnUse"><stop stop-color="#9059FF"/><stop offset="1" stop-color="#F770FF"/></linearGradient></defs><g><path fill="url(#a)" d="M66.988 17.453 38.508.856A6.64 6.64 0 0 0 35.25 0a6.659 6.659 0 0 0-3.259.856L3.41 17.453a6.82 6.82 0 0 0-2.49 2.532A7.124 7.124 0 0 0 0 23.469v33.088a6.99 6.99 0 0 0 .903 3.495 6.686 6.686 0 0 0 2.507 2.522l28.48 16.492c.992.62 2.141.944 3.31.934a6.405 6.405 0 0 0 3.309-.934l28.48-16.492a6.805 6.805 0 0 0 2.49-2.532 7.12 7.12 0 0 0 .919-3.485V23.47a6.787 6.787 0 0 0-.876-3.51 6.494 6.494 0 0 0-2.534-2.506v-.001Z"/><path fill="#20133A" d="m15.813 48.25-1.678 1.042c-.3.175-.564.412-.776.697-.213.284-.37.61-.462.96a2.875 2.875 0 0 0 .252 2.093c.22.435.547.8.946 1.056.399.256.856.395 1.323.402.445-.004.882-.11 1.283-.313l1.678-1.041c.3-.176.564-.413.777-.697.212-.285.37-.61.46-.96a2.875 2.875 0 0 0-.25-2.093 2.646 2.646 0 0 0-.633-.864 2.498 2.498 0 0 0-.907-.526 2.407 2.407 0 0 0-2.013.244Zm10.264-6.146-3.455 2.083c-.3.176-.564.413-.776.697a2.79 2.79 0 0 0-.462.96 2.886 2.886 0 0 0 .252 2.093c.22.435.547.8.946 1.057.4.256.856.395 1.323.402a2.919 2.919 0 0 0 1.283-.313L28.642 47c.3-.176.565-.413.777-.697.213-.284.37-.61.461-.96a2.865 2.865 0 0 0-.25-2.093 2.646 2.646 0 0 0-.633-.864 2.488 2.488 0 0 0-.908-.526 2.407 2.407 0 0 0-2.013.244h.001ZM39.99 37.01a2.437 2.437 0 0 0-.57-.773 2.286 2.286 0 0 0-.811-.477V14.813a2.924 2.924 0 0 0-.2-1.078 2.808 2.808 0 0 0-.578-.914 2.649 2.649 0 0 0-.866-.61 2.536 2.536 0 0 0-1.02-.211 2.469 2.469 0 0 0-1.004.219c-.32.145-.607.354-.844.614-.24.262-.426.573-.55.913-.123.34-.18.702-.169 1.066v21.042c-.298.1-.574.262-.811.477-.239.218-.433.48-.57.773a2.909 2.909 0 0 0-.099 2.396 2.909 2.909 0 0 0 .099 2.396c.139.295.333.558.57.773.235.213.511.376.811.477v21.041a2.9 2.9 0 0 0 .78 1.99c.5.527 1.178.823 1.885.823.707 0 1.384-.296 1.884-.824.5-.527.78-1.243.78-1.989V43.042c.298-.1.574-.262.812-.477.237-.215.431-.478.57-.773.377-.747.413-1.62.099-2.396a3.365 3.365 0 0 0-.198-2.386Zm6.72-7.198-3.453 2.084a2.62 2.62 0 0 0-.777.697c-.212.284-.37.61-.461.96a2.88 2.88 0 0 0 .251 2.093c.22.435.547.8.946 1.056.4.256.856.395 1.324.402.444-.004.882-.11 1.283-.312l3.454-2.084c.3-.175.564-.412.776-.697.213-.284.37-.61.462-.96a2.876 2.876 0 0 0-.252-2.093 2.658 2.658 0 0 0-.632-.864 2.498 2.498 0 0 0-.907-.526 2.41 2.41 0 0 0-2.013.244h-.001Zm8.182 1.042c.444-.004.882-.11 1.283-.312l1.678-1.042c.3-.177.563-.415.776-.7.212-.284.37-.61.462-.96a2.9 2.9 0 0 0-.24-2.097 2.719 2.719 0 0 0-.667-.815 2.559 2.559 0 0 0-.911-.484 2.475 2.475 0 0 0-1.986.264L53.61 25.75c-.3.176-.564.413-.777.697-.212.284-.37.61-.46.96a2.88 2.88 0 0 0 .25 2.093c.222.417.553.767.957 1.01.4.239.854.358 1.313.344h-.001Zm2.96 18.438-1.677-1.042a2.486 2.486 0 0 0-1.975-.248 2.637 2.637 0 0 0-1.566 1.296 2.888 2.888 0 0 0-.244 2.085 2.736 2.736 0 0 0 1.22 1.659l1.678 1.041c.4.202.838.309 1.283.313.47-.008.929-.147 1.323-.402a2.7 2.7 0 0 0 .946-1.057c.177-.303.292-.643.338-.996a2.702 2.702 0 0 0-.072-1.055 2.624 2.624 0 0 0-.467-.936 2.455 2.455 0 0 0-.785-.658h-.002Zm-8.585-5.105-3.454-2.083a2.474 2.474 0 0 0-1.986-.264c-.331.096-.64.26-.912.483-.27.223-.497.5-.666.816a2.904 2.904 0 0 0-.24 2.097c.092.35.25.676.462.96.212.285.476.523.776.7l3.454 2.083c.4.202.839.309 1.283.313.47-.008.929-.148 1.323-.403.4-.256.726-.62.947-1.056a2.687 2.687 0 0 0 .275-2.055 2.6 2.6 0 0 0-.471-.936 2.442 2.442 0 0 0-.791-.655Zm-26.646-9.583 3.454 2.083c.401.202.84.309 1.284.313.47-.008.929-.147 1.323-.402.4-.257.726-.621.946-1.056a2.865 2.865 0 0 0 .251-2.093 2.768 2.768 0 0 0-.46-.96 2.62 2.62 0 0 0-.778-.697l-3.454-2.084a2.455 2.455 0 0 0-1.983-.265c-.33.097-.64.263-.91.487a2.704 2.704 0 0 0-.66.82 3.065 3.065 0 0 0-.229 2.133c.176.706.61 1.32 1.216 1.721ZM18.38 25.75l-1.68-1.042a2.474 2.474 0 0 0-1.986-.264c-.33.096-.64.26-.911.484-.271.223-.497.5-.666.815a2.904 2.904 0 0 0-.24 2.097c.092.35.249.676.461.96.213.285.477.523.776.7l1.678 1.042c.4.202.839.308 1.283.312.47-.008.929-.147 1.323-.402.4-.257.726-.621.947-1.056a2.749 2.749 0 0 0 .239-2.044 2.674 2.674 0 0 0-.458-.933 2.528 2.528 0 0 0-.768-.669h.002Z"/></g></svg>