<svg width="192" height="80" fill="none" viewBox="0 0 192 80" xmlns="http://www.w3.org/2000/svg"><path d="M99.945 11.785v4.082H89.549v5.142h10.396v4.02H89.549v9.006H85v-22.25h14.945Zm3.522-.81a2.997 2.997 0 0 1 2.027-.782c.756 0 1.482.28 2.027.782.261.26.464.568.598.905.134.338.196.697.182 1.058.014.34-.042.68-.165.999-.124.32-.311.612-.553.862a2.69 2.69 0 0 1-.855.592c-.322.142-.671.221-1.026.233h-.234a2.816 2.816 0 0 1-1.09-.179 2.723 2.723 0 0 1-.924-.581 2.644 2.644 0 0 1-.592-.888 2.57 2.57 0 0 1-.188-1.038 2.585 2.585 0 0 1 .187-1.06 2.66 2.66 0 0 1 .606-.903Zm4.275 6.6v16.46h-4.496v-16.46h4.496Zm7.798 0v2.53a4.3 4.3 0 0 1 1.858-2.15 5.764 5.764 0 0 1 2.879-.685 6.63 6.63 0 0 1 1.604.18c.451.105.887.26 1.3.462l-1.592 4.144a3.174 3.174 0 0 0-.968-.424 5.048 5.048 0 0 0-1.3-.168 3.917 3.917 0 0 0-2.703.898c-.697.61-1.046 1.614-1.046 3.01v8.663h-4.353v-16.46h4.321Zm13.255 16.142a8.541 8.541 0 0 1-2.859-1.813 7.983 7.983 0 0 1-1.845-2.711 8.766 8.766 0 0 1-.65-3.354 8.377 8.377 0 0 1 .65-3.371 8.3 8.3 0 0 1 1.949-2.705 8.92 8.92 0 0 1 2.866-1.87 9.353 9.353 0 0 1 3.56-.623 9.618 9.618 0 0 1 3.561.623 8.53 8.53 0 0 1 2.794 1.751 7.916 7.916 0 0 1 1.846 2.668 8.419 8.419 0 0 1 .649 3.384v1.546h-13.645a4.548 4.548 0 0 0 1.735 2.549 5.353 5.353 0 0 0 3.19.929 5.203 5.203 0 0 0 2.599-.624 4.823 4.823 0 0 0 1.683-1.602l3.581 2.076a9.99 9.99 0 0 1-3.184 2.774 9.697 9.697 0 0 1-4.75 1.06 10.412 10.412 0 0 1-3.73-.687Zm.767-12.085a4.83 4.83 0 0 0-1.748 2.319h9.168a4.138 4.138 0 0 0-1.624-2.319 4.984 4.984 0 0 0-2.924-.81 4.868 4.868 0 0 0-2.872.81Zm15.868-4.057v-.58a12.933 12.933 0 0 1 .363-3.353 4.493 4.493 0 0 1 1.209-2.15 4.785 4.785 0 0 1 2.255-1.14c1.15-.253 2.328-.37 3.508-.35h1.145v3.84h-.736a11.751 11.751 0 0 0-1.812.105 2.1 2.1 0 0 0-1.033.43 1.49 1.49 0 0 0-.462.886c-.066.5-.096 1.004-.09 1.508v.791h4.133v3.777h-4.133v12.696h-4.347V21.352h-2.84v-3.777h2.84Zm14.945 16.111a8.983 8.983 0 0 1-2.879-1.87 8.44 8.44 0 0 1-1.933-2.775 8.19 8.19 0 0 1-.667-3.276 8.244 8.244 0 0 1 .65-3.341 8.203 8.203 0 0 1 1.95-2.68 8.652 8.652 0 0 1 2.973-1.907 8.953 8.953 0 0 1 3.525-.586 9.444 9.444 0 0 1 3.58.623 8.778 8.778 0 0 1 4.018 3.138 8.24 8.24 0 0 1 1.492 4.759 8.046 8.046 0 0 1-.695 3.322 8.983 8.983 0 0 1-1.923 2.724 8.936 8.936 0 0 1-2.879 1.87 9.99 9.99 0 0 1-7.212 0Zm5.464-3.69a4.94 4.94 0 0 0 1.495-.978 4.57 4.57 0 0 0 1-1.446 4.646 4.646 0 0 0 0-3.615 4.524 4.524 0 0 0-1-1.465 4.81 4.81 0 0 0-1.495-.972 4.788 4.788 0 0 0-3.691 0 4.846 4.846 0 0 0-1.487.973c-.435.419-.777.917-1.007 1.464a4.655 4.655 0 0 0 0 3.615c.234.54.576 1.031 1.007 1.446.429.41.934.742 1.487.979a4.9 4.9 0 0 0 3.711.018l-.02-.018Zm7.739-12.421h5.198l3.586 4.893 3.627-4.88h5.146l-6.069 8.033 6.549 8.414h-5.308l-3.945-5.148-3.839 5.148h-5.276l6.407-8.451-6.076-8.009ZM94.194 41.922a9.012 9.012 0 0 1 3.25.548 7.641 7.641 0 0 1 2.54 1.509 6.858 6.858 0 0 1 1.67 2.287 7.145 7.145 0 0 1 .267 4.936 6.872 6.872 0 0 1-.937 1.87 6.905 6.905 0 0 1-1.514 1.54 6.998 6.998 0 0 1-2.052 1.06l5.055 8.5h-2.99l-4.547-7.834h-7.298v7.834H85v-22.25h9.194ZM87.638 54.02h6.355a6.388 6.388 0 0 0 2.365-.412 5.32 5.32 0 0 0 1.748-1.097 4.534 4.534 0 0 0 1.085-1.583c.24-.596.363-1.23.364-1.87a4.781 4.781 0 0 0-.383-1.92 4.408 4.408 0 0 0-1.137-1.532 5.08 5.08 0 0 0-1.748-.992 7.23 7.23 0 0 0-2.28-.324h-6.369v9.73Zm22.528 9.835a8.547 8.547 0 0 1-2.859-1.802 7.7 7.7 0 0 1-1.826-2.698 8.785 8.785 0 0 1-.65-3.353 8.48 8.48 0 0 1 .65-3.397 8.362 8.362 0 0 1 1.95-2.705 8.617 8.617 0 0 1 2.826-1.87 9.329 9.329 0 0 1 3.574-.673 9.51 9.51 0 0 1 3.483.623 8.208 8.208 0 0 1 2.761 1.739 8.09 8.09 0 0 1 1.832 2.674 8.313 8.313 0 0 1 .65 3.365v1.128h-15.173a5.78 5.78 0 0 0 1.253 3.047 6.14 6.14 0 0 0 2.751 1.94c.801.267 1.645.4 2.494.392a6.288 6.288 0 0 0 3.366-.768 5.942 5.942 0 0 0 2.385-2.404l2.229 1.246a9.844 9.844 0 0 1-3.249 3.08 9.41 9.41 0 0 1-4.737 1.096 10.173 10.173 0 0 1-3.71-.66Zm1.338-13.874a5.993 5.993 0 0 0-1.891 1.072 5.985 5.985 0 0 0-1.383 1.614 6.403 6.403 0 0 0-.781 2.026h12.432a5.46 5.46 0 0 0-1.956-3.734 5.927 5.927 0 0 0-4.12-1.359 6.849 6.849 0 0 0-2.301.38Zm17.59-9.842v24.033h-2.599V40.14h2.599Zm7.186 23.99a5.442 5.442 0 0 1-1.909-1.054 4.424 4.424 0 0 1-1.145-1.539 4.553 4.553 0 0 1-.383-1.87 4.36 4.36 0 0 1 .503-2.235 4.58 4.58 0 0 1 1.583-1.71c1.384-.922 3.287-1.39 5.706-1.39h5.431v-.623a3.838 3.838 0 0 0-.282-1.656 3.98 3.98 0 0 0-.966-1.398c-.837-.76-2.098-1.14-3.768-1.14a6.234 6.234 0 0 0-3.133.661 5.922 5.922 0 0 0-2.332 2.112l-2.255-1.371a9.591 9.591 0 0 1 3.178-2.58 9.926 9.926 0 0 1 4.549-.96c1.1-.018 2.197.136 3.248.455.87.268 1.672.71 2.353 1.296a5.575 5.575 0 0 1 1.461 2.02c.334.815.499 1.685.488 2.56v10.465h-2.541v-2.891a7.663 7.663 0 0 1-3.021 2.374 9.838 9.838 0 0 1-4.075.854 8.5 8.5 0 0 1-2.69-.38Zm5.068-2.057a8.363 8.363 0 0 0 1.84-.704 7.492 7.492 0 0 0 1.624-1.16 6.513 6.513 0 0 0 1.254-1.582v-2.282h-5.309c-1.799 0-3.125.268-3.969.792a2.805 2.805 0 0 0-1.218 1.805 2.72 2.72 0 0 0 .47 2.103c.12.164.258.316.41.455.855.61 1.913.898 2.975.81a8 8 0 0 0 1.95-.23l-.027-.007Zm10.124 7.53a5.635 5.635 0 0 1-1.845-1.067l1.689-2.044c.314.326.677.604 1.079.823.434.213.916.318 1.403.305.402.007.803-.044 1.19-.15.362-.112.698-.292.987-.53.346-.312.639-.674.871-1.071.329-.543.627-1.103.891-1.677l.383-.791-7.193-15.688h2.833l5.724 12.746 5.452-12.746h2.833l-7.798 17.196a20.373 20.373 0 0 1-1.254 2.343 6.813 6.813 0 0 1-1.351 1.59 4.817 4.817 0 0 1-1.605.885 7.142 7.142 0 0 1-4.314-.125h.025Z" fill="#fff"/><path d="M66.549 17.453 38.256.856A6.574 6.574 0 0 0 35.018 0c-1.13 0-2.244.294-3.238.856L3.387 17.453a6.792 6.792 0 0 0-2.473 2.532A7.148 7.148 0 0 0 0 23.469v33.088c-.009 1.228.301 2.435.897 3.495a6.666 6.666 0 0 0 2.49 2.522l28.294 16.492a6.08 6.08 0 0 0 3.287.934 6.34 6.34 0 0 0 3.288-.934l28.293-16.492a6.79 6.79 0 0 0 2.473-2.532 7.144 7.144 0 0 0 .914-3.485V23.47a6.828 6.828 0 0 0-.87-3.51 6.474 6.474 0 0 0-2.517-2.506Z" fill="url(#a)"/><path d="m15.71 48.25-1.667 1.041c-.299.176-.561.413-.772.698-.211.284-.367.61-.458.96a2.895 2.895 0 0 0 .25 2.093c.218.434.543.8.94 1.056.396.256.85.395 1.314.402.441-.004.876-.11 1.275-.313l1.666-1.041c.299-.176.56-.413.772-.697.211-.285.367-.61.458-.96a2.895 2.895 0 0 0-.25-2.093 2.66 2.66 0 0 0-.628-.864 2.48 2.48 0 0 0-.901-.526 2.377 2.377 0 0 0-2 .244Zm10.195-6.146-3.431 2.083c-.298.176-.56.413-.772.697-.21.285-.367.611-.458.96a2.897 2.897 0 0 0-.073 1.073c.043.36.152.707.323 1.02.218.435.543.8.94 1.056.396.257.85.396 1.314.403.442-.004.877-.11 1.275-.313L28.454 47c.299-.176.56-.413.772-.697a2.79 2.79 0 0 0 .458-.96 2.889 2.889 0 0 0-.25-2.093 2.66 2.66 0 0 0-.628-.864 2.478 2.478 0 0 0-.901-.526 2.376 2.376 0 0 0-2 .244ZM39.73 37.01a2.445 2.445 0 0 0-.567-.773 2.28 2.28 0 0 0-.806-.477V14.813a2.953 2.953 0 0 0-.199-1.079 2.82 2.82 0 0 0-.573-.913 2.629 2.629 0 0 0-.86-.61A2.502 2.502 0 0 0 35.709 12a2.43 2.43 0 0 0-.997.219 2.56 2.56 0 0 0-.838.614 2.748 2.748 0 0 0-.546.913c-.122.34-.18.702-.168 1.066v21.042c-.296.1-.57.262-.806.477a2.446 2.446 0 0 0-.566.773 2.924 2.924 0 0 0-.098 2.396 2.923 2.923 0 0 0 .098 2.396c.138.295.33.558.566.773.236.215.51.377.806.477v21.041c0 .746.28 1.462.776 1.99a2.57 2.57 0 0 0 1.871.823 2.57 2.57 0 0 0 1.872-.824 2.904 2.904 0 0 0 .775-1.989V43.042c.296-.1.57-.262.806-.477.236-.215.429-.478.567-.773a2.925 2.925 0 0 0 .098-2.396 3.391 3.391 0 0 0-.196-2.386Zm6.676-7.198-3.431 2.084c-.298.175-.56.412-.772.697-.21.284-.367.61-.458.96a2.893 2.893 0 0 0 .25 2.093c.218.435.543.8.94 1.056.396.256.85.395 1.315.402.44-.004.876-.11 1.274-.312l3.431-2.084c.299-.175.56-.412.772-.697.211-.284.367-.61.458-.96a2.893 2.893 0 0 0-.25-2.093 2.662 2.662 0 0 0-.628-.864 2.485 2.485 0 0 0-.901-.526 2.38 2.38 0 0 0-2 .244Zm8.128 1.042c.441-.004.876-.11 1.274-.312l1.667-1.042a2.64 2.64 0 0 0 .771-.7 2.82 2.82 0 0 0 .46-.96 2.92 2.92 0 0 0-.24-2.097 2.715 2.715 0 0 0-.662-.815 2.536 2.536 0 0 0-.905-.484 2.443 2.443 0 0 0-1.973.264l-1.667 1.042c-.298.176-.56.413-.771.697-.212.284-.367.61-.459.96a2.892 2.892 0 0 0 .25 2.093c.224.422.553.771.95 1.01.398.239.849.358 1.305.344Zm2.94 18.438-1.666-1.042a2.456 2.456 0 0 0-1.963-.248 2.622 2.622 0 0 0-1.555 1.296 2.904 2.904 0 0 0-.243 2.084 2.734 2.734 0 0 0 1.212 1.66l1.667 1.041c.398.202.833.309 1.274.313a2.486 2.486 0 0 0 1.315-.403c.397-.256.721-.62.94-1.056.176-.303.29-.643.335-.996a2.728 2.728 0 0 0-.07-1.055 2.631 2.631 0 0 0-.465-.936 2.455 2.455 0 0 0-.78-.659Zm-8.529-5.105-3.43-2.083a2.484 2.484 0 0 0-.962-.341 2.442 2.442 0 0 0-1.011.077c-.33.096-.637.26-.906.483-.27.223-.494.5-.662.816a2.917 2.917 0 0 0-.239 2.097c.092.35.248.676.46.96.21.285.472.523.77.7l3.431 2.083c.399.202.834.309 1.275.313a2.484 2.484 0 0 0 1.315-.403c.396-.256.721-.62.94-1.056a2.704 2.704 0 0 0 .273-2.055 2.609 2.609 0 0 0-.468-.936 2.429 2.429 0 0 0-.785-.655Zm-26.47-9.583 3.431 2.083c.399.202.833.309 1.275.313a2.487 2.487 0 0 0 1.315-.402c.396-.257.72-.621.94-1.056a2.889 2.889 0 0 0 .25-2.093 2.79 2.79 0 0 0-.459-.96 2.618 2.618 0 0 0-.772-.697l-3.431-2.084a2.424 2.424 0 0 0-1.97-.265 2.515 2.515 0 0 0-.903.487c-.268.224-.491.503-.656.82a3.08 3.08 0 0 0-.228 2.133 2.908 2.908 0 0 0 1.208 1.721Zm-4.216-8.854-1.666-1.042a2.484 2.484 0 0 0-.962-.34 2.442 2.442 0 0 0-1.011.076c-.329.096-.637.26-.906.484-.269.223-.494.5-.662.815a2.92 2.92 0 0 0-.24 2.097c.093.35.25.676.46.96.212.285.474.523.772.7l1.666 1.042c.399.202.834.308 1.275.312a2.487 2.487 0 0 0 1.315-.402c.396-.257.72-.621.94-1.056a2.798 2.798 0 0 0 .238-2.044 2.7 2.7 0 0 0-.456-.933 2.52 2.52 0 0 0-.763-.669Z" fill="#20133A"/><defs><linearGradient id="a" x1="0" y1="40.003" x2="69.946" y2="40.003" gradientUnits="userSpaceOnUse"><stop stop-color="#9059FF"/><stop offset="1" stop-color="#F770FF"/></linearGradient></defs></svg>