<svg width="108" height="160" fill="none" viewBox="0 0 108 160" xmlns="http://www.w3.org/2000/svg"><path d="M84.989 17.453 56.508.856C55.508.294 54.387 0 53.248 0a6.651 6.651 0 0 0-3.259.856L21.41 17.453a6.813 6.813 0 0 0-2.49 2.532 7.111 7.111 0 0 0-.92 3.484v33.088a6.985 6.985 0 0 0 .903 3.495 6.688 6.688 0 0 0 2.507 2.522l28.48 16.492A6.15 6.15 0 0 0 53.2 80a6.413 6.413 0 0 0 3.308-.934l28.48-16.492a6.811 6.811 0 0 0 2.49-2.532 7.108 7.108 0 0 0 .92-3.485V23.47a6.794 6.794 0 0 0-.876-3.51 6.497 6.497 0 0 0-2.534-2.506Z" fill="#000"/><path d="m33.813 49.583-1.678 1.042c-.3.175-.564.413-.776.697-.213.284-.37.61-.462.96a2.874 2.874 0 0 0 .252 2.093c.22.435.547.8.946 1.056.399.257.856.396 1.323.402.444-.004.882-.11 1.283-.312l1.678-1.042c.3-.175.564-.413.777-.697.212-.284.369-.61.461-.96a2.876 2.876 0 0 0-.251-2.093 2.663 2.663 0 0 0-.633-.864 2.5 2.5 0 0 0-.907-.526 2.408 2.408 0 0 0-2.013.244Zm10.264-6.145-3.455 2.083a2.63 2.63 0 0 0-.776.697 2.79 2.79 0 0 0-.462.96 2.874 2.874 0 0 0 .252 2.093c.22.435.547.8.946 1.056.399.256.856.395 1.323.402a2.91 2.91 0 0 0 1.283-.312l3.454-2.084c.3-.175.565-.412.777-.697.213-.284.37-.61.461-.96a2.876 2.876 0 0 0-.25-2.093 2.66 2.66 0 0 0-.634-.864 2.498 2.498 0 0 0-.907-.526 2.409 2.409 0 0 0-2.012.245Zm13.914-5.094a2.443 2.443 0 0 0-.57-.774 2.3 2.3 0 0 0-.811-.476V16.146a2.94 2.94 0 0 0-.2-1.078 2.818 2.818 0 0 0-.578-.914 2.65 2.65 0 0 0-.866-.61 2.534 2.534 0 0 0-1.02-.21 2.46 2.46 0 0 0-1.005.218 2.58 2.58 0 0 0-.843.614c-.24.263-.426.573-.55.913-.123.34-.18.703-.169 1.067v21.041c-.298.1-.573.262-.811.477a2.448 2.448 0 0 0-.57.773 2.904 2.904 0 0 0-.099 2.396 2.903 2.903 0 0 0 .099 2.396c.139.296.333.559.57.773a2.3 2.3 0 0 0 .811.477v21.042c0 .746.281 1.461.78 1.989.5.527 1.178.823 1.885.823.707 0 1.384-.296 1.884-.823.5-.528.78-1.243.78-1.99V44.376c.298-.1.574-.262.812-.477.237-.215.431-.478.57-.773a2.908 2.908 0 0 0 .099-2.396 3.37 3.37 0 0 0-.198-2.385Zm6.72-7.198-3.453 2.083a2.63 2.63 0 0 0-.777.697c-.213.285-.37.61-.461.96a2.874 2.874 0 0 0 .25 2.093c.221.435.548.8.947 1.056.4.257.856.396 1.324.403.444-.005.882-.111 1.283-.313l3.454-2.083c.3-.176.564-.413.777-.697.212-.285.369-.611.46-.96a2.874 2.874 0 0 0-.25-2.093 2.664 2.664 0 0 0-.633-.865 2.502 2.502 0 0 0-.907-.525 2.41 2.41 0 0 0-2.013.244Zm8.182 1.041c.444-.003.882-.11 1.283-.312l1.678-1.042c.3-.176.563-.414.776-.699.212-.285.37-.611.462-.96a2.898 2.898 0 0 0-.24-2.097 2.714 2.714 0 0 0-.667-.816 2.555 2.555 0 0 0-.912-.483 2.474 2.474 0 0 0-1.985.264l-1.678 1.041c-.3.176-.564.413-.777.697-.212.285-.37.61-.461.96-.092.35-.117.714-.074 1.073.043.36.154.707.325 1.02.226.423.557.772.957 1.01.4.239.854.358 1.313.345Zm2.96 18.438-1.677-1.042a2.486 2.486 0 0 0-1.976-.247 2.636 2.636 0 0 0-1.566 1.296 2.889 2.889 0 0 0-.244 2.084 2.736 2.736 0 0 0 1.22 1.659l1.678 1.042c.4.201.838.308 1.283.312a2.515 2.515 0 0 0 1.323-.402c.4-.256.726-.621.947-1.056a2.71 2.71 0 0 0 .266-2.052 2.621 2.621 0 0 0-.469-.936 2.463 2.463 0 0 0-.784-.658Zm-8.585-5.104-3.454-2.084a2.473 2.473 0 0 0-1.986-.264c-.331.096-.64.26-.912.484-.27.223-.497.5-.666.816a2.9 2.9 0 0 0-.24 2.097c.092.349.25.675.462.96.212.285.476.522.776.7l3.454 2.083c.4.201.839.308 1.283.312a2.513 2.513 0 0 0 1.323-.402c.4-.257.726-.621.947-1.056a2.691 2.691 0 0 0 .275-2.055 2.602 2.602 0 0 0-.471-.937 2.442 2.442 0 0 0-.791-.654Zm-26.646-9.584 3.455 2.084c.4.202.838.308 1.282.312a2.515 2.515 0 0 0 1.324-.402c.399-.256.726-.621.946-1.056a2.876 2.876 0 0 0 .251-2.093 2.791 2.791 0 0 0-.46-.96 2.632 2.632 0 0 0-.778-.697l-3.454-2.083a2.455 2.455 0 0 0-1.983-.265 2.54 2.54 0 0 0-.91.486c-.269.225-.493.503-.66.82a3.064 3.064 0 0 0-.229 2.134 2.908 2.908 0 0 0 1.216 1.72Zm-4.243-8.854L34.7 26.042a2.473 2.473 0 0 0-1.986-.264c-.33.096-.64.26-.911.483-.271.223-.497.5-.666.816a2.9 2.9 0 0 0-.24 2.097c.092.349.249.675.461.96.213.285.477.523.776.7l1.678 1.04c.4.203.839.31 1.283.314a2.515 2.515 0 0 0 1.323-.403c.4-.256.726-.62.947-1.056a2.78 2.78 0 0 0 .24-2.044 2.694 2.694 0 0 0-.46-.933 2.532 2.532 0 0 0-.767-.669Z" fill="url(#a)"/><path d="M15.032 101.785v4.082H4.575v5.142h10.457v4.02H4.575v9.006H0v-22.25h15.032Zm3.542-.81a3.023 3.023 0 0 1 2.039-.782c.76 0 1.49.28 2.04.782.261.26.466.568.6.905.135.338.197.697.183 1.058.014.34-.042.68-.166.999a2.577 2.577 0 0 1-.556.862 2.709 2.709 0 0 1-.86.592 2.814 2.814 0 0 1-1.032.233h-.235a2.838 2.838 0 0 1-1.096-.179 2.738 2.738 0 0 1-.93-.581 2.651 2.651 0 0 1-.596-.888 2.553 2.553 0 0 1-.188-1.038 2.572 2.572 0 0 1 .188-1.06c.137-.337.344-.644.609-.903Zm4.3 6.6v16.46h-4.522v-16.46h4.522Zm7.843 0v2.53a4.314 4.314 0 0 1 1.869-2.15 5.82 5.82 0 0 1 2.895-.685 6.689 6.689 0 0 1 1.614.18c.454.105.892.259 1.308.462l-1.602 4.144a3.22 3.22 0 0 0-.973-.424 5.139 5.139 0 0 0-1.308-.168 3.952 3.952 0 0 0-2.718.898c-.702.61-1.052 1.614-1.052 3.01v8.663h-4.38v-16.46h4.347Zm13.332 16.142a8.599 8.599 0 0 1-2.875-1.813 7.993 7.993 0 0 1-1.856-2.711 8.73 8.73 0 0 1-.654-3.354c-.02-1.154.203-2.3.654-3.371a8.278 8.278 0 0 1 1.96-2.705 8.97 8.97 0 0 1 2.882-1.87 9.435 9.435 0 0 1 3.582-.623 9.723 9.723 0 0 1 3.581.623 8.6 8.6 0 0 1 2.81 1.751 7.907 7.907 0 0 1 1.857 2.668 8.37 8.37 0 0 1 .653 3.384v1.546H42.92a4.547 4.547 0 0 0 1.745 2.549 5.416 5.416 0 0 0 3.209.929 5.264 5.264 0 0 0 2.614-.624 4.846 4.846 0 0 0 1.692-1.601l3.602 2.075a10.034 10.034 0 0 1-3.203 2.774 9.802 9.802 0 0 1-4.777 1.059 10.512 10.512 0 0 1-3.752-.686Zm.772-12.085a4.84 4.84 0 0 0-1.759 2.319h9.222a4.145 4.145 0 0 0-1.634-2.319 5.035 5.035 0 0 0-2.94-.81 4.92 4.92 0 0 0-2.89.81Zm15.96-4.057v-.58a12.875 12.875 0 0 1 .365-3.353 4.483 4.483 0 0 1 1.216-2.15 4.824 4.824 0 0 1 2.268-1.141 15.353 15.353 0 0 1 3.528-.349h1.151v3.84h-.739a11.81 11.81 0 0 0-1.822.106 2.112 2.112 0 0 0-1.04.43 1.481 1.481 0 0 0-.464.885 10.42 10.42 0 0 0-.091 1.508v.791h4.156v3.778h-4.156v12.695H60.78v-12.683h-2.856v-3.777h2.856Zm15.031 16.111a9.03 9.03 0 0 1-2.895-1.87 8.445 8.445 0 0 1-1.945-2.775 8.149 8.149 0 0 1-.67-3.276 8.182 8.182 0 0 1 .654-3.341 8.198 8.198 0 0 1 1.96-2.68 8.704 8.704 0 0 1 2.99-1.907 9.047 9.047 0 0 1 3.546-.586 9.54 9.54 0 0 1 3.602.623 8.829 8.829 0 0 1 4.04 3.138 8.206 8.206 0 0 1 1.501 4.759 8.017 8.017 0 0 1-.699 3.322 8.963 8.963 0 0 1-1.934 2.723 8.963 8.963 0 0 1-2.896 1.87 10.091 10.091 0 0 1-7.254 0Zm5.496-3.689a4.97 4.97 0 0 0 1.504-.979 4.57 4.57 0 0 0 1.006-1.446 4.63 4.63 0 0 0 0-3.615 4.54 4.54 0 0 0-1.006-1.465 4.828 4.828 0 0 0-1.504-.972 4.839 4.839 0 0 0-3.712 0 4.895 4.895 0 0 0-1.496.972c-.438.42-.781.918-1.013 1.465a4.629 4.629 0 0 0 0 3.615c.235.54.58 1.031 1.013 1.446.432.41.94.742 1.496.979a4.949 4.949 0 0 0 3.732.018l-.02-.018Zm7.784-12.422h5.228l3.607 4.893 3.648-4.881h5.175l-6.103 8.034 6.587 8.414h-5.339l-3.968-5.148-3.861 5.148h-5.307l6.444-8.451-6.111-8.009Zm-67.079 24.347a9.125 9.125 0 0 1 3.269.548 7.687 7.687 0 0 1 2.554 1.509 6.85 6.85 0 0 1 1.68 2.287 7.108 7.108 0 0 1 .269 4.936 6.844 6.844 0 0 1-2.465 3.41 7.06 7.06 0 0 1-2.064 1.059l5.084 8.501h-3.006l-4.575-7.834h-7.34v7.834h-2.653v-22.25h9.248ZM15.42 144.02h6.39a6.465 6.465 0 0 0 2.38-.412 5.34 5.34 0 0 0 1.758-1.097 4.527 4.527 0 0 0 1.091-1.583c.242-.596.365-1.23.367-1.87a4.756 4.756 0 0 0-.386-1.919 4.417 4.417 0 0 0-1.143-1.534 5.101 5.101 0 0 0-1.759-.99 7.321 7.321 0 0 0-2.293-.325H15.42v9.73Zm22.658 9.835a8.624 8.624 0 0 1-2.876-1.802 7.7 7.7 0 0 1-1.836-2.698 8.75 8.75 0 0 1-.654-3.354 8.428 8.428 0 0 1 .654-3.396 8.362 8.362 0 0 1 1.96-2.705 8.683 8.683 0 0 1 2.844-1.87 9.419 9.419 0 0 1 3.594-.673 9.606 9.606 0 0 1 3.503.623 8.26 8.26 0 0 1 2.777 1.739 8.085 8.085 0 0 1 1.843 2.674 8.257 8.257 0 0 1 .654 3.365v1.128H35.28a5.754 5.754 0 0 0 1.259 3.047 6.184 6.184 0 0 0 2.767 1.94c.806.267 1.655.4 2.509.392a6.349 6.349 0 0 0 3.386-.768 5.956 5.956 0 0 0 2.398-2.404l2.242 1.246a9.861 9.861 0 0 1-3.268 3.079 9.504 9.504 0 0 1-4.764 1.097 10.285 10.285 0 0 1-3.732-.66Zm1.346-13.874a6.014 6.014 0 0 0-1.902 1.072 5.99 5.99 0 0 0-1.392 1.614 6.38 6.38 0 0 0-.784 2.026h12.503a5.45 5.45 0 0 0-1.967-3.734 5.982 5.982 0 0 0-4.144-1.358 6.911 6.911 0 0 0-2.314.38Zm17.691-9.842v24.033h-2.613v-24.033h2.613Zm7.229 23.99a5.507 5.507 0 0 1-1.92-1.053 4.433 4.433 0 0 1-1.152-1.54 4.523 4.523 0 0 1-.385-1.87 4.331 4.331 0 0 1 .506-2.235 4.583 4.583 0 0 1 1.592-1.71c1.392-.922 3.306-1.39 5.738-1.39h5.463v-.623a3.815 3.815 0 0 0-.283-1.656 3.98 3.98 0 0 0-.972-1.398c-.842-.76-2.11-1.141-3.79-1.141a6.307 6.307 0 0 0-3.15.662 5.95 5.95 0 0 0-2.346 2.112l-2.269-1.371a9.636 9.636 0 0 1 3.197-2.581 10.035 10.035 0 0 1 4.575-.959 10.71 10.71 0 0 1 3.267.455c.875.268 1.682.71 2.367 1.296a5.576 5.576 0 0 1 1.47 2.019c.335.816.5 1.686.49 2.562v10.464h-2.556v-2.891a7.702 7.702 0 0 1-3.038 2.374 9.934 9.934 0 0 1-4.099.854 8.594 8.594 0 0 1-2.705-.38Zm5.097-2.057a8.448 8.448 0 0 0 1.85-.704 7.598 7.598 0 0 0 1.634-1.159 6.507 6.507 0 0 0 1.261-1.584v-2.281h-5.34c-1.81 0-3.143.268-3.992.792a2.8 2.8 0 0 0-1.224 1.805 2.709 2.709 0 0 0 .472 2.103c.121.164.26.316.412.455.86.61 1.925.898 2.993.81a8.084 8.084 0 0 0 1.96-.231l-.026-.006Zm10.182 7.529a5.67 5.67 0 0 1-1.855-1.066l1.7-2.044c.314.326.68.604 1.084.823a3.04 3.04 0 0 0 1.412.305 4.31 4.31 0 0 0 1.196-.149c.364-.113.702-.293.993-.53.347-.313.642-.675.876-1.072.33-.543.63-1.103.896-1.677l.385-.791-7.234-15.688h2.849l5.757 12.746 5.484-12.746h2.849l-7.843 17.196a20.331 20.331 0 0 1-1.26 2.343 6.823 6.823 0 0 1-1.36 1.59 4.884 4.884 0 0 1-1.615.885 7.228 7.228 0 0 1-4.339-.125h.025Z" fill="#000"/><defs><linearGradient id="a" x1="18.8" y1="41.667" x2="87.6" y2="41.667" gradientUnits="userSpaceOnUse"><stop stop-color="#9059FF"/><stop offset="1" stop-color="#F770FF"/></linearGradient></defs></svg>