<svg xmlns="http://www.w3.org/2000/svg" width="80" height="80" viewBox="0 0 80 80"><linearGradient id="a" x1="74.8081" x2="7.7404" y1="738.5447" y2="780.7919" gradientTransform="translate(0 -718)" gradientUnits="userSpaceOnUse"><stop offset="0" stop-color="#9658f9"/><stop offset=".13" stop-color="#9356f4"/><stop offset=".29" stop-color="#8951e5"/><stop offset=".46" stop-color="#7a49cd"/><stop offset=".64" stop-color="#643dab"/><stop offset=".82" stop-color="#492e81"/><stop offset="1" stop-color="#291d4f"/></linearGradient><path fill="url(#a)" d="M75.91 26.82c-1.69-4.05-5.1-8.43-7.78-9.81 2.18 4.27 3.44 8.56 3.93 11.76v.06C67.68 17.91 60.24 13.51 54.17 3.92c-.31-.49-.61-.97-.92-1.49-.17-.29-.3-.55-.42-.8-.25-.49-.45-1-.58-1.53 0-.03-.01-.05-.02-.07-.02-.02-.04-.03-.06-.03-.02-.01-.05-.01-.07 0l-.02.01c-.01 0-.02.01-.03.01l.01-.02c-9.74 5.7-13.04 16.25-13.34 21.53-3.89.27-7.61 1.7-10.67 4.11-.32-.27-.66-.52-1-.76-.88-3.09-.92-6.36-.11-9.47-3.98 1.81-7.08 4.68-9.33 7.21h.01c-1.54-1.95-1.43-8.37-1.34-9.71-.02-.08-1.15.59-1.29.69-1.36.97-2.62 2.05-3.79 3.25-1.33 1.34-2.54 2.8-3.62 4.34-2.5 3.53-4.27 7.52-5.21 11.74-.02.08-.03.17-.05.26-.07.34-.34 2.05-.38 2.42v.08c-.34 1.76-.55 3.55-.63 5.35v.2C1.31 62.65 18.66 80 40.07 80c19.17 0 35.09-13.92 38.21-32.2.07-.49.12-.99.18-1.49.74-6.66-.13-13.65-2.55-19.49zM31.23 57.16c.18.09.35.18.54.26l.03.02c-.19-.09-.38-.19-.57-.28zm40.84-28.31v-.04.04z"/><radialGradient id="b" cx="-711.744" cy="-14.9569" r="1.3333" gradientTransform="matrix(-23.5301 55.8694 -59 -24.8486 -17564.7129 39405.7695)" gradientUnits="userSpaceOnUse"><stop offset="0" stop-color="#9658f9"/><stop offset=".65" stop-color="#291d4f"/></radialGradient><path fill="url(#b)" d="M75.91 26.82c-1.69-4.05-5.1-8.43-7.78-9.81 2.18 4.27 3.44 8.56 3.93 11.76v.08c3.66 9.91 1.66 20-1.21 26.16-4.44 9.53-15.2 19.3-32.02 18.83-18.18-.52-34.2-14.01-37.19-31.69-.55-2.79 0-4.2.27-6.46-.33 1.74-.46 2.25-.63 5.35v.2C1.28 62.65 18.63 80 40.04 80c19.17 0 35.09-13.92 38.21-32.2.07-.5.12-.99.18-1.49.77-6.66-.1-13.65-2.52-19.49z"/><radialGradient id="c" cx="-705.9343" cy="12.0621" r="1.3333" gradientTransform="translate(42793.1289 -680.7689) scale(60.5531)" gradientUnits="userSpaceOnUse"><stop offset=".25" stop-color="#ab71ff" stop-opacity="0"/><stop offset=".42" stop-color="#9462e0" stop-opacity=".18"/><stop offset=".73" stop-color="#573b8d" stop-opacity=".65"/><stop offset=".94" stop-color="#291d4f"/></radialGradient><path fill="url(#c)" d="M75.91 26.82c-1.69-4.05-5.1-8.43-7.78-9.81 2.18 4.27 3.44 8.56 3.93 11.76v.08c3.66 9.91 1.66 20-1.21 26.16-4.44 9.53-15.2 19.3-32.02 18.83-18.18-.52-34.2-14.01-37.19-31.69-.55-2.79 0-4.2.27-6.46-.33 1.74-.46 2.25-.63 5.35v.2C1.28 62.65 18.63 80 40.04 80c19.17 0 35.09-13.92 38.21-32.2.07-.5.12-.99.18-1.49.77-6.66-.1-13.65-2.52-19.49z"/><radialGradient id="d" cx="-701.2536" cy="16.3927" r="1.3333" gradientTransform="translate(30752.75 -719.2598) scale(43.7736)" gradientUnits="userSpaceOnUse"><stop offset=".18" stop-color="#9658f9"/><stop offset=".33" stop-color="#7e48ea"/><stop offset=".37" stop-color="#7542e5"/><stop offset=".41" stop-color="#6a3dd0"/><stop offset=".48" stop-color="#5332a2"/><stop offset=".56" stop-color="#41297e"/><stop offset=".63" stop-color="#342264"/><stop offset=".69" stop-color="#2c1e54"/><stop offset=".74" stop-color="#291d4f"/></radialGradient><path fill="url(#d)" d="m57.08 31.38.24.18c-.97-1.73-2.18-3.31-3.6-4.7C41.67 14.81 50.56.73 52.06.02l.01-.02c-9.74 5.7-13.04 16.25-13.34 21.53.45-.03.9-.07 1.36-.07 7.27 0 13.6 3.99 16.99 9.92z"/><radialGradient id="e" cx="-692.8353" cy="25.3932" r="1.3333" gradientTransform="translate(20022.3984 -673.6136) scale(28.8575)" gradientUnits="userSpaceOnUse"><stop offset=".07" stop-color="#9358fc"/><stop offset=".13" stop-color="#9857f8"/><stop offset=".21" stop-color="#a755eb"/><stop offset=".3" stop-color="#bf52d7"/><stop offset=".39" stop-color="#e14eba"/><stop offset=".42" stop-color="#ef4caf"/><stop offset=".74" stop-color="#ff7583"/><stop offset=".97" stop-color="#ffb753"/></radialGradient><path fill="url(#e)" d="M40.2 33.78c-.06.96-3.47 4.29-4.66 4.29-11.02 0-12.81 6.67-12.81 6.67.49 5.62 4.4 10.24 9.13 12.69.22.11.43.21.65.31.38.17.76.32 1.14.47 1.62.57 3.32.9 5.04.97 19.32.91 23.06-23.1 9.12-30.07 3.57-.62 7.28.82 9.35 2.27-3.39-5.92-9.72-9.92-16.98-9.92-.46 0-.92.04-1.36.07-3.89.27-7.61 1.7-10.67 4.11.59.5 1.26 1.17 2.66 2.55 2.62 2.59 9.37 5.27 9.39 5.59z"/><radialGradient id="f" cx="-683.1455" cy="48.9787" r="1.3333" gradientTransform="matrix(14.8399 -3.6717 4.3134 17.4334 9964.7227 -3330.5896)" gradientUnits="userSpaceOnUse"><stop offset=".22" stop-color="#ffb653" stop-opacity=".3"/><stop offset=".34" stop-color="#ff807a" stop-opacity=".5"/><stop offset=".44" stop-color="#ff7781" stop-opacity=".48"/><stop offset=".57" stop-color="#ff5c94" stop-opacity=".43"/><stop offset=".64" stop-color="#ff4aa2" stop-opacity=".4"/><stop offset=".86" stop-color="#9658f9" stop-opacity=".3"/></radialGradient><path fill="url(#f)" d="M40.2 33.78c-.06.96-3.47 4.29-4.66 4.29-11.02 0-12.81 6.67-12.81 6.67.49 5.62 4.4 10.24 9.13 12.69.22.11.43.21.65.31.38.17.76.32 1.14.47 1.62.57 3.32.9 5.04.97 19.32.91 23.06-23.1 9.12-30.07 3.57-.62 7.28.82 9.35 2.27-3.39-5.92-9.72-9.92-16.98-9.92-.46 0-.92.04-1.36.07-3.89.27-7.61 1.7-10.67 4.11.59.5 1.26 1.17 2.66 2.55 2.62 2.59 9.37 5.27 9.39 5.59z"/><radialGradient id="g" cx="-682.7914" cy="34.7728" r="1.3333" gradientTransform="translate(14209.3584 -707.9966) scale(20.7439)" gradientUnits="userSpaceOnUse"><stop offset=".03" stop-color="#9658f9"/><stop offset=".62" stop-color="#7542e5"/><stop offset=".72" stop-color="#6339c2"/><stop offset=".93" stop-color="#37246b"/><stop offset="1" stop-color="#291d4f"/></radialGradient><path fill="url(#g)" d="M26.25 24.35c.31.2.57.37.8.53-.88-3.09-.92-6.36-.11-9.47-3.98 1.81-7.08 4.68-9.33 7.21.19 0 5.82-.11 8.64 1.73z"/><radialGradient id="h" cx="-711.7429" cy="-13.0574" r="1.3333" gradientTransform="matrix(-18.9321 82.9278 -65.0914 -14.8601 -14274.707 58808.9648)" gradientUnits="userSpaceOnUse"><stop offset=".2" stop-color="#ab71ff"/><stop offset=".29" stop-color="#a46bfc"/><stop offset=".41" stop-color="#9059f2"/><stop offset=".54" stop-color="#7542e5"/><stop offset=".64" stop-color="#6239bf"/><stop offset=".94" stop-color="#291d4f"/></radialGradient><path fill="url(#h)" d="M1.64 42.15c2.99 17.67 19.01 31.17 37.2 31.68 16.83.48 27.59-9.29 32.02-18.83 2.87-6.16 4.86-16.24 1.21-26.16v-.08.06c1.37 8.98-3.19 17.67-10.33 23.55l-.02.05C47.81 63.75 34.5 59.25 31.8 57.41c-.18-.09-.37-.18-.56-.28-8.11-3.88-11.46-11.27-10.74-17.6-6.85 0-9.18-5.78-9.18-5.78s6.15-4.38 14.25-.57c7.51 3.53 14.55.57 14.55.57-.01-.32-6.76-3-9.39-5.59-1.41-1.38-2.07-2.05-2.66-2.55-.32-.27-.66-.52-1-.76-.23-.16-.49-.33-.8-.53-2.83-1.84-8.45-1.74-8.63-1.73h-.01c-1.54-1.95-1.43-8.37-1.34-9.71-.02-.08-1.15.59-1.29.69-1.36.97-2.62 2.05-3.79 3.25-1.33 1.34-2.54 2.8-3.62 4.34-2.5 3.53-4.27 7.52-5.21 11.74-.05.11-1.42 6.13-.74 9.25z"/><radialGradient id="i" cx="-705.7443" cy="-15.3074" r="1.3333" gradientTransform="matrix(6.8048 64.4667 -42.375 4.4729 4206.1538 45579.9805)" gradientUnits="userSpaceOnUse"><stop offset=".09" stop-color="#9658f9"/><stop offset=".14" stop-color="#8c51f3"/><stop offset=".26" stop-color="#7542e5"/><stop offset=".29" stop-color="#6e3ed6"/><stop offset=".4" stop-color="#5533a6"/><stop offset=".5" stop-color="#422980"/><stop offset=".59" stop-color="#342365"/><stop offset=".67" stop-color="#2c1e55"/><stop offset=".74" stop-color="#291d4f"/></radialGradient><path fill="url(#i)" d="M53.72 26.86c1.41 1.39 2.62 2.97 3.6 4.7.21.16.41.32.58.47 8.79 8.1 4.18 19.55 3.84 20.37 7.14-5.89 11.71-14.58 10.33-23.55-4.38-10.94-11.81-15.34-17.88-24.93-.31-.49-.61-.97-.92-1.49-.17-.29-.31-.55-.43-.8-.25-.49-.45-1-.58-1.53 0-.03-.01-.05-.02-.07-.02-.02-.04-.03-.06-.03-.02-.01-.05-.01-.07 0l-.02.01c-.01 0-.02.01-.03.01-1.5.71-10.39 14.79 1.66 26.84z"/><radialGradient id="j" cx="-704.783" cy="13.1026" r="1.3333" gradientTransform="translate(38982.2383 -700.314) scale(55.2472)" gradientUnits="userSpaceOnUse"><stop offset="0" stop-color="#9658f9"/><stop offset=".12" stop-color="#9155f6"/><stop offset=".25" stop-color="#834cee"/><stop offset=".34" stop-color="#7542e5"/><stop offset=".78" stop-color="#291d4f"/></radialGradient><path fill="url(#j)" d="M57.9 32.03c-.17-.15-.37-.31-.58-.47l-.24-.18c-2.07-1.45-5.77-2.89-9.35-2.27 13.94 6.97 10.2 30.97-9.12 30.07-1.72-.07-3.42-.4-5.04-.97-.38-.14-.76-.3-1.14-.47-.22-.1-.44-.2-.65-.31l.03.02c2.7 1.84 16.01 6.33 29.92-4.99l.02-.05c.33-.83 4.93-12.28-3.85-20.38z"/><radialGradient id="k" cx="-705.8187" cy="12.0139" r="1.3333" gradientTransform="translate(42655.8242 -697.0847) scale(60.3433)" gradientUnits="userSpaceOnUse"><stop offset=".19" stop-color="#9658f9"/><stop offset=".49" stop-color="#834bed"/><stop offset=".66" stop-color="#7542e5"/><stop offset=".7" stop-color="#6b3dd2"/><stop offset=".79" stop-color="#52319f"/><stop offset=".91" stop-color="#291d4f"/></radialGradient><path fill="url(#k)" d="M22.64 44.74s1.79-6.67 12.81-6.67c1.19 0 4.6-3.32 4.66-4.29 0 0-7.05 2.96-14.55-.57-8.1-3.81-14.25.57-14.25.57s2.34 5.78 9.18 5.78c-.72 6.34 2.63 13.72 10.74 17.6.18.09.35.18.54.26-4.73-2.44-8.64-7.07-9.13-12.68z"/><linearGradient id="l" x1="70.0235" x2="15.2757" y1="730.0678" y2="784.8154" gradientTransform="translate(0 -718)" gradientUnits="userSpaceOnUse"><stop offset="0" stop-color="#9059ff" stop-opacity=".9"/><stop offset=".61" stop-color="#291d4f" stop-opacity="0"/></linearGradient><path fill="url(#l)" d="M75.91 26.82c-1.69-4.05-5.1-8.43-7.78-9.81 2.18 4.27 3.44 8.56 3.93 11.76v.06C67.68 17.91 60.24 13.51 54.17 3.92c-.31-.49-.61-.97-.92-1.49-.17-.29-.3-.55-.42-.8-.25-.49-.45-1-.58-1.53 0-.03-.01-.05-.02-.07-.02-.02-.04-.03-.06-.03-.02-.01-.05-.01-.07 0l-.02.01c-.01 0-.02.01-.03.01l.01-.02c-9.74 5.7-13.04 16.25-13.34 21.53.45-.03.9-.07 1.36-.07 7.27 0 13.6 4 16.98 9.92-2.07-1.45-5.77-2.89-9.35-2.27 13.94 6.97 10.2 30.97-9.12 30.07-1.72-.07-3.42-.4-5.04-.97-.38-.14-.76-.3-1.14-.47-.22-.1-.44-.2-.65-.31l.03.02c-.18-.09-.37-.18-.56-.28.18.09.35.18.54.26-4.73-2.45-8.65-7.07-9.13-12.68 0 0 1.79-6.67 12.81-6.67 1.19 0 4.6-3.32 4.66-4.29-.01-.32-6.76-3-9.39-5.59-1.41-1.38-2.07-2.05-2.66-2.55-.32-.27-.66-.52-1-.76-.88-3.09-.92-6.36-.11-9.47-3.98 1.81-7.08 4.68-9.33 7.21-1.54-1.95-1.43-8.37-1.34-9.71-.02-.08-1.15.59-1.29.69-1.36.97-2.62 2.05-3.79 3.25-1.33 1.34-2.54 2.8-3.62 4.34-2.5 3.53-4.27 7.52-5.21 11.74-.02.08-.03.17-.05.26-.07.34-.4 2.07-.45 2.44-.3 1.79-.49 3.6-.57 5.41v.2c0 21.41 17.35 38.76 38.76 38.76 19.17 0 35.09-13.92 38.21-32.2.07-.49.12-.99.18-1.49.75-6.67-.12-13.66-2.54-19.5zm-3.84 1.99v.04-.04z"/></svg>
