<svg width="434" height="80" viewBox="0 0 434 80" xmlns="http://www.w3.org/2000/svg"><defs><radialGradient id="a" cx="0" cy="80" r="1" gradientTransform="matrix(-80.8 0 0 80.8 45.1 -6420.7)" gradientUnits="userSpaceOnUse"><stop offset="0" stop-color="#fff"/><stop offset=".3" stop-color="#fff"/><stop offset=".33" stop-color="#dcdcdc"/><stop offset=".39" stop-color="#8a8a8a"/><stop offset=".44" stop-color="#4d4d4d"/><stop offset=".48" stop-color="#282828"/><stop offset=".5" stop-color="#1a1a1a"/><stop offset="1" stop-color="#1a1a1a"/></radialGradient><radialGradient id="b" cx="0" cy="80" r="1" gradientTransform="matrix(20.4 0 0 -23.89 41.42 1943.31)" gradientUnits="userSpaceOnUse"><stop offset="0"/><stop offset=".21"/><stop offset=".35" stop-color="#2b2b2b"/><stop offset=".66" stop-color="#818181"/><stop offset=".87" stop-color="#b7b7b7"/><stop offset=".97" stop-color="#ccc"/><stop offset="1" stop-color="#ccc"/></radialGradient><radialGradient id="c" cx="0" cy="80" r="1" gradientTransform="matrix(-27.68 0 0 27.68 43.21 -2193.6)" gradientUnits="userSpaceOnUse"><stop offset="0" stop-color="#fff"/><stop offset=".43" stop-color="#fff"/><stop offset=".52" stop-color="#f8f8f8"/><stop offset=".66" stop-color="#e5e5e5"/><stop offset=".82" stop-color="#c6c6c6"/><stop offset=".99" stop-color="#9b9b9b"/><stop offset="1" stop-color="#999"/></radialGradient><radialGradient id="d" cx="0" cy="80" r="1" gradientTransform="matrix(-118.08 0 0 118.08 95.47 -9418.92)" gradientUnits="userSpaceOnUse"><stop offset="0" stop-color="#fff"/><stop offset=".41" stop-color="#fff"/><stop offset="1" stop-color="#b3b3b3"/></radialGradient><linearGradient id="e" y1="80.3" x2="1" y2="80.3" gradientTransform="matrix(0 -10.01 -10.01 0 861.18 57.1)" gradientUnits="userSpaceOnUse"><stop offset="0" stop-color="#fff"/><stop offset=".14" stop-color="#d1d1d1"/><stop offset=".38" stop-color="#888"/><stop offset=".59" stop-color="#4d4d4d"/><stop offset=".77" stop-color="#232323"/><stop offset=".92" stop-color="#0a0a0a"/><stop offset="1"/></linearGradient><linearGradient id="f" y1="79.98" x2="1" y2="79.98" gradientTransform="matrix(-77.42 0 0 77.42 81.05 -6152.44)" gradientUnits="userSpaceOnUse"><stop offset="0" stop-color="#ccc"/><stop offset=".3" stop-color="#ccc"/><stop offset=".38" stop-color="#a2a2a2"/><stop offset=".57" stop-color="#373737"/><stop offset=".66"/><stop offset="1"/></linearGradient><clipPath id="g"><path fill="none" d="M0 0h434v80H0z"/></clipPath><clipPath id="h"><path d="M31.25 57.17l.53.26-.56-.28m8.87-23.38zM52.11 0c-9.73 5.7-13 16.25-13.34 21.53a19.39 19.39 0 0 0-10.67 4.11 11.88 11.88 0 0 0-1-.76 17.93 17.93 0 0 1-.1-9.46 28.68 28.68 0 0 0-9.33 7.21c-1.53-1.95-1.43-8.37-1.34-9.71a6.94 6.94 0 0 0-1.29.69 28.53 28.53 0 0 0-3.79 3.24 35 35 0 0 0-3.62 4.34 32.85 32.85 0 0 0-5.2 11.75c0 .08 0 .17-.05.25-.08.34-.34 2.05-.38 2.42a.28.28 0 0 0 0 .09 36.2 36.2 0 0 0-.63 5.35v.19a38.75 38.75 0 0 0 77 6.56c.07-.49.12-1 .18-1.49a40 40 0 0 0-2.51-19.48c-1.69-4-5.1-8.43-7.78-9.81a40.53 40.53 0 0 1 3.93 11.76v.07c-4.5-10.93-11.93-15.33-18-24.92-.31-.49-.61-1-.91-1.49-.17-.29-.31-.55-.43-.8a7.37 7.37 0 0 1-.58-1.53.1.1 0 0 0-.08-.11h-.08" fill="none"/></clipPath><linearGradient id="i" y1="79.99" x2="1" y2="79.99" gradientTransform="matrix(-89.4 0 0 89.4 81.39 -7110.88)" gradientUnits="userSpaceOnUse"><stop offset="0" stop-color="#c60084"/><stop offset=".76" stop-color="#c60084"/><stop offset="1" stop-color="#4e1a69"/></linearGradient><clipPath id="j"><path d="M72.07 28.78v.08A35.13 35.13 0 0 1 70.87 55c-4.44 9.53-15.19 19.3-32 18.83-18.19-.52-34.21-14-37.2-31.69-.54-2.78 0-4.2.28-6.46a28.55 28.55 0 0 0-.63 5.35v.19a38.75 38.75 0 0 0 77 6.56c.07-.49.12-1 .18-1.49a40 40 0 0 0-2.51-19.48c-1.69-4-5.1-8.43-7.78-9.81a40.53 40.53 0 0 1 3.93 11.76" fill="none"/></clipPath><radialGradient id="k" cx="0" cy="80" r="1" gradientTransform="matrix(-80.8 0 0 80.8 88.35 -6418.78)" gradientUnits="userSpaceOnUse"><stop offset="0" stop-color="#fff"/><stop offset=".13" stop-color="#fff"/><stop offset="1" stop-color="#fff"/></radialGradient><mask id="l" x="-29.72" y="-21.21" width="139.75" height="139.44" maskUnits="userSpaceOnUse"><path transform="rotate(-50.87 40.148 48.512)" fill="url(#a)" d="M-8.91-1.65h98.14V98.67H-8.91z"/></mask><radialGradient id="m" cx="0" cy="80" r="1" gradientTransform="matrix(-80.8 0 0 80.8 45.1 -6420.7)" gradientUnits="userSpaceOnUse"><stop offset="0" stop-color="#4e1a69"/><stop offset=".3" stop-color="#4e1a69"/><stop offset=".31" stop-color="#57186b"/><stop offset=".4" stop-color="#930b78"/><stop offset=".46" stop-color="#b80381"/><stop offset=".5" stop-color="#c60084"/><stop offset="1" stop-color="#c60084"/></radialGradient><clipPath id="n"><path d="M38.74 21.54c.45 0 .9-.07 1.36-.07a19.54 19.54 0 0 1 17 9.92l.24.17a21.16 21.16 0 0 0-3.6-4.69C41.68 14.82 50.57.75 52.06 0c-9.73 5.7-13 16.25-13.34 21.53" fill="none"/></clipPath><radialGradient id="o" cx="0" cy="80" r="1" gradientTransform="matrix(-58.53 0 0 58.53 72.9 -4671.26)" gradientUnits="userSpaceOnUse"><stop offset="0" stop-color="#fff"/><stop offset=".17" stop-color="#fff"/><stop offset=".25" stop-color="#fefbfd"/><stop offset=".32" stop-color="#fcf0f8"/><stop offset=".39" stop-color="#f7ddee"/><stop offset=".45" stop-color="#f1c2e1"/><stop offset=".52" stop-color="#e99fd1"/><stop offset=".59" stop-color="#e074bc"/><stop offset=".65" stop-color="#d543a4"/><stop offset=".71" stop-color="#ca138d"/><stop offset=".86" stop-color="#4e1a69"/><stop offset="1" stop-color="#4e1a69"/></radialGradient><clipPath id="p"><path d="M38.74 21.54a19.39 19.39 0 0 0-10.67 4.11c.59.5 1.26 1.17 2.67 2.55 2.63 2.59 9.37 5.28 9.38 5.59-.06 1-3.47 4.29-4.66 4.29-11 0-12.81 6.67-12.81 6.67.49 5.61 4.4 10.24 9.13 12.68.22.12.44.22.66.32.38.16.76.32 1.13.46a17.23 17.23 0 0 0 5 1c19.32.91 23.06-23.09 9.12-30.06a13.34 13.34 0 0 1 9.34 2.27 19.54 19.54 0 0 0-17-9.92c-.46 0-.91 0-1.36.07" fill="none"/></clipPath><radialGradient id="q" cx="0" cy="80" r="1" gradientTransform="matrix(38.47 0 0 -38.47 29.35 3140.71)" gradientUnits="userSpaceOnUse"><stop offset="0" stop-color="#c60084"/><stop offset=".35" stop-color="#c60084"/><stop offset=".4" stop-color="#cb0384"/><stop offset="1" stop-color="#ff298a"/></radialGradient><mask id="r" x="13.83" y="12.55" width="56.68" height="56.46" maskUnits="userSpaceOnUse"><path transform="rotate(-13.6 42.171 40.794)" fill="url(#b)" d="M18.66 17.42h47.01v46.71H18.66z"/></mask><radialGradient id="s" cx="0" cy="80" r="1" gradientTransform="matrix(20.4 0 0 -23.89 41.42 1943.31)" gradientUnits="userSpaceOnUse"><stop offset="0" stop-color="#592acb"/><stop offset=".21" stop-color="#592acb"/><stop offset=".37" stop-color="#5626b3"/><stop offset=".78" stop-color="#501d7e"/><stop offset=".97" stop-color="#4e1a69"/><stop offset="1" stop-color="#4e1a69"/></radialGradient><clipPath id="t"><path d="M17.63 22.63c.19 0 5.81-.11 8.63 1.73l.81.53a17.93 17.93 0 0 1-.07-9.47 28.68 28.68 0 0 0-9.33 7.21" fill="none"/></clipPath><mask id="u" x="12.89" y="10.7" width="18.91" height="18.91" maskUnits="userSpaceOnUse"><path transform="rotate(-45.26 22.345 20.155)" fill="url(#c)" d="M15.66 13.47h13.37v13.37H15.66z"/></mask><radialGradient id="v" cx="0" cy="80" r="1" gradientTransform="matrix(-27.68 0 0 27.68 43.21 -2193.6)" gradientUnits="userSpaceOnUse"><stop offset="0" stop-color="#fff"/><stop offset=".43" stop-color="#fff"/><stop offset="1" stop-color="#fff"/></radialGradient><clipPath id="w"><path d="M15 13.61a28.53 28.53 0 0 0-3.79 3.24 35 35 0 0 0-3.62 4.34 32.85 32.85 0 0 0-5.2 11.75C2.35 33 1 39 1.65 42.16c3 17.68 19 31.17 37.2 31.69 16.83.47 27.58-9.3 32-18.83a35.13 35.13 0 0 0 1.21-26.16c1.38 9-3.19 17.68-10.33 23.56v.05c-13.91 11.32-27.22 6.83-29.91 5l-.56-.28c-8.12-3.9-11.47-11.29-10.76-17.62a10 10 0 0 1-9.18-5.78 14.63 14.63 0 0 1 14.25-.57 19.29 19.29 0 0 0 14.55.57c0-.31-6.75-3-9.38-5.59-1.41-1.38-2.08-2.05-2.67-2.55a11.88 11.88 0 0 0-1-.76l-.81-.53c-2.82-1.84-8.44-1.74-8.63-1.73-1.53-1.95-1.43-8.37-1.34-9.71a8 8 0 0 0-1.28.69" fill="none"/></clipPath><mask id="x" x="-28.25" y="-22.66" width="133.21" height="132.56" maskUnits="userSpaceOnUse"><path transform="rotate(-53.93 38.358 43.615)" fill="url(#d)" d="M-8.47-4.67h93.65v96.58H-8.47z"/></mask><radialGradient id="y" cx="0" cy="80" r="1" gradientTransform="matrix(-118.08 0 0 118.08 95.47 -9418.91)" gradientUnits="userSpaceOnUse"><stop offset="0" stop-color="#fff"/><stop offset=".41" stop-color="#fff"/><stop offset="1" stop-color="#fff"/></radialGradient><clipPath id="z"><path d="M52.11 0c-1.49.72-10.38 14.79 1.66 26.84a21.16 21.16 0 0 1 3.6 4.69 4.94 4.94 0 0 1 .58.48c8.79 8.1 4.19 19.55 3.84 20.37C68.93 46.5 73.5 37.8 72.12 28.82c-4.43-10.9-11.86-15.3-17.93-24.89-.31-.49-.61-1-.91-1.49-.17-.29-.31-.55-.43-.8a7.37 7.37 0 0 1-.58-1.53.1.1 0 0 0-.08-.11h-.08" fill="none"/></clipPath><radialGradient id="A" cx="0" cy="80" r="1" gradientTransform="matrix(0 91.42 59.99 0 -4748.43 .26)" gradientUnits="userSpaceOnUse"><stop offset="0" stop-color="#fff"/><stop offset=".12" stop-color="#fefcfe"/><stop offset=".21" stop-color="#fcf2f9"/><stop offset=".29" stop-color="#f9e2f1"/><stop offset=".37" stop-color="#f3cbe6"/><stop offset=".44" stop-color="#edaed8"/><stop offset=".51" stop-color="#e58ac6"/><stop offset=".58" stop-color="#db5fb2"/><stop offset=".64" stop-color="#d02e9a"/><stop offset=".69" stop-color="#c60084"/><stop offset="1" stop-color="#c60084"/></radialGradient><mask id="B" x="22.96" y="-11.35" width="69.2" height="75.1" maskUnits="userSpaceOnUse"><path transform="rotate(-22.79 57.554 26.212)" fill="url(#e)" d="M32.77-4.11h49.59v60.62H32.77z"/></mask><linearGradient id="C" y1="80.3" x2="1" y2="80.3" gradientTransform="matrix(0 -10.01 -10.01 0 861.18 57.1)" gradientUnits="userSpaceOnUse"><stop offset="0" stop-color="#4e1a69"/><stop offset="1" stop-color="#4e1a69"/></linearGradient><clipPath id="D"><path d="M47.74 29.12c13.94 7 10.2 31-9.12 30.06a17.23 17.23 0 0 1-5-1c-.37-.14-.75-.3-1.13-.46-.22-.1-.44-.2-.66-.32 2.69 1.84 16 6.33 29.91-5v-.05c.35-.82 4.95-12.27-3.84-20.37a4.94 4.94 0 0 0-.58-.48l-.24-.17A13.89 13.89 0 0 0 49.5 29a10.37 10.37 0 0 0-1.76.15" fill="none"/></clipPath><radialGradient id="E" cx="0" cy="80" r="1" gradientTransform="matrix(-94.97 0 0 94.97 67.16 -7578.85)" gradientUnits="userSpaceOnUse"><stop offset="0" stop-color="#fff"/><stop offset=".36" stop-color="#fff"/><stop offset=".74" stop-color="#c60084"/><stop offset=".83" stop-color="#4e1a69"/><stop offset="1" stop-color="#4e1a69"/></radialGradient><clipPath id="F"><path d="M11.319999999999997 33.79a10 10 0 0 0 9.18 5.78c-.71 6.33 2.64 13.72 10.75 17.6l.53.26c-4.73-2.44-8.64-7.07-9.13-12.68 0 0 1.79-6.67 12.81-6.67 1.19 0 4.6-3.32 4.66-4.29a19.29 19.29 0 0 1-14.55-.57 15.7 15.7 0 0 0-6.71-1.56 14 14 0 0 0-7.54 2.13" fill="none"/></clipPath><radialGradient id="G" cx="0" cy="80" r="1" gradientTransform="matrix(-80.69 0 0 80.69 60.82 -6419.14)" gradientUnits="userSpaceOnUse"><stop offset="0" stop-color="#fff"/><stop offset=".09" stop-color="#fff"/><stop offset=".62" stop-color="#fff"/><stop offset="1" stop-color="#fff"/></radialGradient><clipPath id="H"><path d="M52.11 0c-9.73 5.7-13 16.25-13.34 21.53.45 0 .9-.07 1.36-.07a19.54 19.54 0 0 1 17 9.92 13.34 13.34 0 0 0-9.34-2.27c13.94 7 10.2 31-9.12 30.06a17.23 17.23 0 0 1-5-1c-.37-.14-.75-.3-1.13-.46-.22-.1-.44-.2-.66-.32l-.56-.28.53.26c-4.73-2.44-8.64-7.07-9.13-12.68 0 0 1.79-6.67 12.81-6.67 1.19 0 4.6-3.32 4.66-4.29 0-.31-6.75-3-9.38-5.59-1.41-1.38-2.08-2.05-2.67-2.55a11.88 11.88 0 0 0-1-.76 17.93 17.93 0 0 1-.14-9.41 28.68 28.68 0 0 0-9.33 7.21c-1.53-1.95-1.43-8.37-1.34-9.71a6.94 6.94 0 0 0-1.29.69 28.53 28.53 0 0 0-3.79 3.24 35 35 0 0 0-3.62 4.34 32.85 32.85 0 0 0-5.2 11.75c0 .08 0 .17-.05.25-.08.34-.4 2.08-.45 2.45a46 46 0 0 0-.57 5.41v.19a38.75 38.75 0 0 0 77 6.56c.07-.49.12-1 .18-1.49a40 40 0 0 0-2.51-19.48c-1.69-4-5.1-8.43-7.78-9.81a40.53 40.53 0 0 1 3.93 11.76v.07C67.69 17.92 60.26 13.52 54.19 3.93c-.31-.49-.61-1-.91-1.49-.17-.29-.31-.55-.43-.8a7.37 7.37 0 0 1-.58-1.53.1.1 0 0 0-.08-.11h-.08" fill="none"/></clipPath><mask id="I" x="-38.7" y="-38.95" width="157.9" height="157.9" maskUnits="userSpaceOnUse"><path transform="rotate(-45 40.252 40.007)" fill="url(#f)" d="M-15.58-15.83H96.07V95.82H-15.58z"/></mask><linearGradient id="J" y1="79.98" x2="1" y2="79.98" gradientTransform="matrix(-77.42 0 0 77.42 81.05 -6152.44)" gradientUnits="userSpaceOnUse"><stop offset="0" stop-color="#fff"/><stop offset=".3" stop-color="#fff"/><stop offset=".66" stop-color="#fff"/><stop offset="1" stop-color="#fff"/></linearGradient></defs><g clip-path="url(#g)"><g clip-path="url(#h)"><path transform="rotate(-43.97 40.254 40.002)" fill="url(#i)" d="M-15.56-15.83H96.05V95.83H-15.56z"/></g><g clip-path="url(#j)"><path transform="rotate(-50.87 40.148 48.512)" fill="url(#k)" d="M-8.91-1.65h98.14V98.67H-8.91z"/></g><g mask="url(#l)" clip-path="url(#j)"><path transform="rotate(-50.87 40.148 48.512)" fill="url(#m)" d="M-8.91-1.65h98.14V98.67H-8.91z"/></g><g clip-path="url(#n)"><path transform="rotate(-80.15 48.031 15.787)" fill="url(#o)" d="M30.9 3.93h34.27v23.71H30.9z"/></g><g clip-path="url(#p)"><path fill="url(#q)" d="M22.65 21.47h39.02v38.62H22.65z"/></g><g mask="url(#r)" clip-path="url(#p)"><path transform="rotate(-13.6 42.171 40.794)" fill="url(#s)" d="M18.66 17.42h47.01v46.71H18.66z"/></g><g mask="url(#u)" clip-path="url(#t)"><path transform="rotate(-45.26 22.345 20.155)" fill="url(#v)" d="M15.66 13.47h13.37v13.37H15.66z"/></g><g mask="url(#x)" clip-path="url(#w)"><path transform="rotate(-53.93 38.358 43.615)" fill="url(#y)" d="M-8.47-4.67h93.65v96.58H-8.47z"/></g><g clip-path="url(#z)"><path transform="rotate(-6.01 57.552 26.23)" fill="url(#A)" d="M39.02-1.52H76.1v55.44H39.02z"/></g><g mask="url(#B)" clip-path="url(#z)"><path transform="rotate(-22.79 57.554 26.212)" fill="url(#C)" d="M32.77-4.11h49.59v60.62H32.77z"/></g><g clip-path="url(#D)"><path transform="rotate(-55.27 49.236 46.378)" fill="url(#E)" d="M24.99 22.12h48.5v48.52h-48.5z"/></g><g clip-path="url(#F)"><path transform="rotate(-24.75 25.719 44.553)" fill="url(#G)" d="M7.25 26.82h36.94v35.46H7.25z"/></g><g mask="url(#I)" clip-path="url(#H)"><path transform="rotate(-45 40.252 40.007)" fill="url(#J)" d="M-15.58-15.83H96.08V95.82H-15.58z"/></g><g clip-path="url(#g)" fill="#20123a"><path d="M97 24h21.42v5.79h-15.28v7.85h15.28v5.75h-15.28V56H97zm28.7-2.23a3.44 3.44 0 0 1 3.56 3.59 3.43 3.43 0 0 1-3.6 3.6 3.39 3.39 0 0 1-3.55-3.51 3.55 3.55 0 0 1 3.59-3.68m-3 10.57h6V56h-6zm23.61 6.58a4.88 4.88 0 0 0-2.94-1.06c-2.46 0-3.86 1.58-3.86 5V56h-6V32.34h5.75v3.42a5.65 5.65 0 0 1 5.67-3.64 7.15 7.15 0 0 1 4 1.23zm2.5 5.39A12.12 12.12 0 0 1 161 31.85c7.11 0 12.16 5 12.16 12.07v2.5h-18.44c.66 3 3 4.95 6.54 4.95a6.35 6.35 0 0 0 5.88-3.51l5.05 3c-2.51 3.68-6.06 5.61-11.11 5.61-7.68 0-12.29-5.13-12.29-12.19m6-2.68h12.47c-.66-3-3.12-4.69-6.32-4.69a6.09 6.09 0 0 0-6.15 4.69m19.84-9.29h4.26v-1.16c0-6.45 2.72-9.12 8.69-9.12h2.11v5.22H188c-2.81 0-3.43 1-3.43 3.9v1.19h5.14v5.43h-5V56h-5.8V37.77h-4.26zm16.2 11.84a12.14 12.14 0 0 1 12.38-12.33 12.33 12.33 0 1 1 0 24.65 12 12 0 0 1-12.38-12.32m18.87 0a6.5 6.5 0 1 0-6.49 6.71 6.5 6.5 0 0 0 6.49-6.71m14-.26l-8.5-11.55h7.11l5.05 7.28 5.18-7.28h7l-8.7 11.53L240 56h-7.06l-5.66-7.72-5.54 7.72h-7.07zM255.74 56h3.72V42.19H276v-3.5h-16.54V27.54H276v-3.46h-20.26zm36.48-24.11a12.3 12.3 0 1 0 12.44 12.3 12.21 12.21 0 0 0-12.44-12.3m0 21.18a8.61 8.61 0 0 1-8.72-8.88 8.74 8.74 0 1 1 17.48 0 8.64 8.64 0 0 1-8.76 8.88m28.51 0a8.88 8.88 0 0 1-8.94-8.92 8.77 8.77 0 0 1 8.8-8.93 8.47 8.47 0 0 1 8 5.25l3.32-1.44a12 12 0 0 0-11.29-7.18 12.3 12.3 0 1 0 0 24.59A12 12 0 0 0 332 49l-3.36-1.4a8.55 8.55 0 0 1-8 5.47m32.71-7.66c0 4.55-3.14 7.75-7.35 7.75-4.6 0-7-3-7-7.57V32.4h-3.67v13.42c0 6.65 3.54 10.68 10 10.68a9.14 9.14 0 0 0 8.06-4.38V56h3.54V32.4h-3.63zm18.46-3.1c-3.71-.74-6.59-1.23-6.59-3.68 0-2.18 1.5-3.76 5.18-3.76a7.76 7.76 0 0 1 6.6 3.21l3-2a11.63 11.63 0 0 0-9.56-4.2c-5.67 0-8.9 3.19-8.9 6.87 0 4.72 4.38 5.82 8.5 6.6 3.5.7 6.77 1.23 6.77 3.85 0 2.37-1.95 4.11-5.66 4.11a8.88 8.88 0 0 1-7.71-3.85l-3.14 2.11c2.12 3 5.53 4.94 10.76 4.94 6.24 0 9.43-3.63 9.43-7.35 0-4.86-4.52-6-8.64-6.78"/></g></g></svg>