<svg xmlns="http://www.w3.org/2000/svg" width="254" height="172" viewBox="0 0 254 172"><path fill="#20123A" d="M20.53 144.59h16.09v4.35H25.14v5.89h11.48v4.32H25.14v9.49h-4.61v-24.05zm21.56-1.68c1.49 0 2.7 1.21 2.7 2.7 0 1.49-1.21 2.69-2.7 2.7-1.41.07-2.6-1.02-2.67-2.43v-.2c-.06-1.47 1.09-2.71 2.57-2.77h.14m-2.28 7.94h4.55v17.79h-4.59l.04-17.79zm17.74 4.94c-.63-.5-1.41-.77-2.21-.79-1.85 0-2.9 1.19-2.9 3.79v9.85h-4.56v-17.79h4.32v2.57c.66-1.75 2.38-2.86 4.25-2.74 1.07 0 2.12.33 3 .93l-1.9 4.18zm1.88 4.05c-.14-5.02 3.82-9.21 8.85-9.35h.31c4.83-.21 8.91 3.53 9.13 8.36.01.23.01.47 0 .7v1.87H63.88c.46 2.3 2.57 3.9 4.91 3.73 1.86.05 3.59-.98 4.42-2.64l3.79 2.27c-1.83 2.79-5.01 4.4-8.34 4.22-5.77 0-9.23-3.85-9.23-9.16m4.51-2h9.36c-.47-2.2-2.5-3.7-4.74-3.52-2.18-.08-4.12 1.4-4.62 3.52m14.9-7H82V150c0-4.84 2-6.85 6.53-6.85h1.58V147h-1.25c-2.11 0-2.57.72-2.57 2.93v.89h3.86v4.08h-3.76v13.71H82v-13.68h-3.2l.04-4.09zm12.16 8.9c-.08-5.03 3.94-9.17 8.97-9.25h.32c5.11-.17 9.39 3.84 9.56 8.95s-3.84 9.39-8.95 9.56c-.2.01-.41.01-.61 0-4.97.16-9.13-3.73-9.29-8.7-.01-.19-.01-.37 0-.56m14.17 0c-.07-2.69-2.3-4.82-5-4.76-2.69.07-4.82 2.3-4.76 5 .07 2.65 2.23 4.76 4.88 4.76 2.7 0 4.89-2.2 4.88-4.9v-.1m10.55-.19-6.43-8.7h5.34l3.79 5.47 3.89-5.47h5.24l-6.55 8.66 6.85 9.13h-5.31l-4.25-5.8-4.12 5.8h-5.3l6.85-9.09zm24.03 9.08h2.79v-10.38H155v-2.63h-12.46v-8.37H155v-2.6h-15.25v23.98zm27.39-18.1c-5.1.06-9.18 4.24-9.12 9.34.06 5.1 4.24 9.18 9.34 9.12 5.05-.06 9.12-4.17 9.12-9.23.04-5.06-4.03-9.19-9.09-9.23h-.25m0 15.9c-3.69-.14-6.57-3.25-6.43-6.94.14-3.49 2.93-6.29 6.43-6.43 3.69.14 6.57 3.25 6.43 6.94-.14 3.5-2.94 6.29-6.43 6.43m21.41 0c-3.68.02-6.69-2.95-6.71-6.63v-.08c-.06-3.64 2.84-6.64 6.48-6.7h.13c2.62-.05 5.01 1.51 6 3.94l2.5-1.08c-1.47-3.35-4.82-5.49-8.48-5.39-5.1 0-9.23 4.12-9.24 9.22 0 5.1 4.12 9.23 9.22 9.24h.02c3.73.09 7.12-2.13 8.54-5.58l-2.52-1c-.96 2.48-3.34 4.11-6 4.11m24.57-5.75c.18 3.02-2.12 5.62-5.14 5.8-.12.01-.25.01-.37.01-3.46 0-5.26-2.23-5.26-5.68v-10h-2.76V161c0 5 2.66 8 7.55 8 2.46.07 4.77-1.18 6.05-3.28v2.92h2.66v-17.75h-2.73v9.84zm13.94-2.35c-2.79-.55-5-.92-5-2.76 0-1.64 1.13-2.82 3.89-2.82 1.93-.08 3.77.81 4.92 2.36l2.26-1.51c-1.76-2.12-4.42-3.29-7.18-3.15-4.26 0-6.69 2.4-6.69 5.16 0 3.54 3.29 4.37 6.39 5 2.62.52 5.08.92 5.08 2.89 0 1.77-1.46 3.09-4.25 3.09-2.3.1-4.49-.99-5.79-2.89l-2.36 1.57c1.6 2.27 4.16 3.71 8.08 3.71 4.69 0 7.08-2.72 7.08-5.51 0-3.65-3.39-4.5-6.48-5.1"/><linearGradient id="a" x1="179.0427" x2="78.8068" y1="748.7682" y2="811.9087" gradientTransform="translate(0 -718)" gradientUnits="userSpaceOnUse"><stop offset="0" stop-color="#9658f9"/><stop offset=".13" stop-color="#9356f4"/><stop offset=".29" stop-color="#8951e5"/><stop offset=".46" stop-color="#7a49cd"/><stop offset=".64" stop-color="#643dab"/><stop offset=".82" stop-color="#492e81"/><stop offset="1" stop-color="#291d4f"/></linearGradient><path fill="url(#a)" d="M180.69 40.14c-2.53-6.05-7.62-12.6-11.63-14.66 3.26 6.38 5.14 12.79 5.87 17.58v.09c-6.55-16.32-17.67-22.9-26.74-37.23-.46-.73-.91-1.45-1.37-2.23-.25-.43-.45-.82-.63-1.2-.37-.73-.67-1.49-.87-2.29 0-.04-.01-.07-.03-.1-.03-.03-.06-.04-.09-.04-.03-.01-.07-.01-.1 0l-.03.01c-.01 0-.03.01-.04.01l.01-.03c-14.56 8.52-19.49 24.29-19.94 32.18-5.81.4-11.37 2.54-15.95 6.14-.48-.4-.99-.78-1.49-1.14-1.32-4.62-1.37-9.51-.16-14.15-5.95 2.71-10.58 6.99-13.94 10.78h.01c-2.3-2.91-2.14-12.51-2-14.51-.03-.12-1.72.88-1.93 1.03-2.03 1.45-3.92 3.06-5.66 4.86-1.99 2-3.8 4.18-5.41 6.49-3.74 5.28-6.38 11.24-7.79 17.55-.03.12-.04.25-.07.39-.1.51-.51 3.06-.57 3.62v.12c-.51 2.63-.82 5.31-.94 8v.3c0 32 25.93 57.93 57.93 57.93 28.65 0 52.44-20.8 57.11-48.12.1-.73.18-1.48.27-2.23 1.1-9.97-.2-20.42-3.82-29.15zm-66.77 45.35c.27.13.52.27.81.39l.04.03c-.29-.14-.57-.29-.85-.42zm61.03-42.31v-.06.06z"/><radialGradient id="b" cx="-625.4266" cy="31.1041" r="1.9927" gradientTransform="matrix(-23.5301 55.8694 -59 -24.8486 -12716.5938 35734.168)" gradientUnits="userSpaceOnUse"><stop offset="0" stop-color="#9658f9"/><stop offset=".65" stop-color="#291d4f"/></radialGradient><path fill="url(#b)" d="M180.69 40.14c-2.53-6.05-7.62-12.6-11.63-14.66 3.26 6.38 5.14 12.79 5.87 17.58v.12c5.47 14.81 2.48 29.89-1.81 39.1-6.64 14.24-22.72 28.84-47.86 28.14-27.17-.78-51.11-20.94-55.58-47.36-.82-4.17 0-6.28.4-9.65-.49 2.6-.69 3.36-.94 8v.3c0 32 25.93 57.93 57.93 57.93 28.65 0 52.44-20.8 57.11-48.12.1-.75.18-1.48.27-2.23 1.16-9.97-.14-20.42-3.76-29.15z"/><radialGradient id="c" cx="-618.8799" cy="57.7088" r="1.9927" gradientTransform="translate(37612.0078 -3420.2114) scale(60.5531)" gradientUnits="userSpaceOnUse"><stop offset=".25" stop-color="#ab71ff" stop-opacity="0"/><stop offset=".42" stop-color="#9462e0" stop-opacity=".18"/><stop offset=".73" stop-color="#573b8d" stop-opacity=".65"/><stop offset=".94" stop-color="#291d4f"/></radialGradient><path fill="url(#c)" d="M180.69 40.14c-2.53-6.05-7.62-12.6-11.63-14.66 3.26 6.38 5.14 12.79 5.87 17.58v.12c5.47 14.81 2.48 29.89-1.81 39.1-6.64 14.24-22.72 28.84-47.86 28.14-27.17-.78-51.11-20.94-55.58-47.36-.82-4.17 0-6.28.4-9.65-.49 2.6-.69 3.36-.94 8v.3c0 32 25.93 57.93 57.93 57.93 28.65 0 52.44-20.8 57.11-48.12.1-.75.18-1.48.27-2.23 1.16-9.97-.14-20.42-3.76-29.15z"/><radialGradient id="d" cx="-614.0684" cy="61.3242" r="1.9927" gradientTransform="translate(27031.4453 -2686.8455) scale(43.7736)" gradientUnits="userSpaceOnUse"><stop offset=".18" stop-color="#9658f9"/><stop offset=".33" stop-color="#7e48ea"/><stop offset=".37" stop-color="#7542e5"/><stop offset=".41" stop-color="#6a3dd0"/><stop offset=".48" stop-color="#5332a2"/><stop offset=".56" stop-color="#41297e"/><stop offset=".63" stop-color="#342264"/><stop offset=".69" stop-color="#2c1e54"/><stop offset=".74" stop-color="#291d4f"/></radialGradient><path fill="url(#d)" d="m152.55 46.96.36.27c-1.45-2.59-3.26-4.95-5.38-7.02C129.52 22.2 142.81 1.16 145.05.1l.01-.03c-14.56 8.52-19.49 24.29-19.94 32.18.67-.04 1.35-.1 2.03-.1 10.87-.02 20.33 5.95 25.4 14.81z"/><radialGradient id="e" cx="-606.0248" cy="70.8154" r="1.9927" gradientTransform="translate(17598.7969 -1955.0586) scale(28.8575)" gradientUnits="userSpaceOnUse"><stop offset=".07" stop-color="#9358fc"/><stop offset=".13" stop-color="#9857f8"/><stop offset=".21" stop-color="#a755eb"/><stop offset=".3" stop-color="#bf52d7"/><stop offset=".39" stop-color="#e14eba"/><stop offset=".42" stop-color="#ef4caf"/><stop offset=".74" stop-color="#ff7583"/><stop offset=".97" stop-color="#ffb753"/></radialGradient><path fill="url(#e)" d="M127.32 50.55c-.09 1.43-5.19 6.41-6.96 6.41-16.47 0-19.15 9.97-19.15 9.97.73 8.4 6.58 15.3 13.65 18.97.33.16.64.31.97.46.57.25 1.14.48 1.7.7 2.42.85 4.96 1.35 7.53 1.45 28.87 1.36 34.46-34.52 13.63-44.94 5.34-.93 10.88 1.23 13.97 3.39-5.07-8.85-14.53-14.83-25.38-14.83-.69 0-1.37.06-2.03.1-5.81.4-11.37 2.54-15.95 6.14.88.75 1.88 1.75 3.98 3.81 3.92 3.88 14.01 7.89 14.04 8.37z"/><radialGradient id="f" cx="-595.7252" cy="93.3281" r="1.9927" gradientTransform="matrix(14.8399 -3.6717 4.3134 17.4334 8562.2344 -3767.0881)" gradientUnits="userSpaceOnUse"><stop offset=".22" stop-color="#ffb653" stop-opacity=".3"/><stop offset=".34" stop-color="#ff807a" stop-opacity=".5"/><stop offset=".44" stop-color="#ff7781" stop-opacity=".48"/><stop offset=".57" stop-color="#ff5c94" stop-opacity=".43"/><stop offset=".64" stop-color="#ff4aa2" stop-opacity=".4"/><stop offset=".86" stop-color="#9658f9" stop-opacity=".3"/></radialGradient><path fill="url(#f)" d="M127.32 50.55c-.09 1.43-5.19 6.41-6.96 6.41-16.47 0-19.15 9.97-19.15 9.97.73 8.4 6.58 15.3 13.65 18.97.33.16.64.31.97.46.57.25 1.14.48 1.7.7 2.42.85 4.96 1.35 7.53 1.45 28.87 1.36 34.46-34.52 13.63-44.94 5.34-.93 10.88 1.23 13.97 3.39-5.07-8.85-14.53-14.83-25.38-14.83-.69 0-1.37.06-2.03.1-5.81.4-11.37 2.54-15.95 6.14.88.75 1.88 1.75 3.98 3.81 3.92 3.88 14.01 7.89 14.04 8.37z"/><radialGradient id="g" cx="-595.6569" cy="78.876" r="1.9927" gradientTransform="translate(12491.6396 -1616.2159) scale(20.7439)" gradientUnits="userSpaceOnUse"><stop offset=".03" stop-color="#9658f9"/><stop offset=".62" stop-color="#7542e5"/><stop offset=".72" stop-color="#6339c2"/><stop offset=".93" stop-color="#37246b"/><stop offset="1" stop-color="#291d4f"/></radialGradient><path fill="url(#g)" d="M106.47 36.45c.46.3.85.55 1.2.79-1.32-4.62-1.37-9.51-.16-14.15-5.95 2.71-10.58 6.99-13.94 10.78.27 0 8.69-.17 12.9 2.58z"/><radialGradient id="h" cx="-625.3973" cy="33.0566" r="1.9927" gradientTransform="matrix(-18.9321 82.9278 -65.0914 -14.8601 -9546.4102 52323.8086)" gradientUnits="userSpaceOnUse"><stop offset=".2" stop-color="#ab71ff"/><stop offset=".29" stop-color="#a46bfc"/><stop offset=".41" stop-color="#9059f2"/><stop offset=".54" stop-color="#7542e5"/><stop offset=".64" stop-color="#6239bf"/><stop offset=".94" stop-color="#291d4f"/></radialGradient><path fill="url(#h)" d="M69.69 63.06c4.47 26.41 28.41 46.59 55.6 47.35 25.15.72 41.23-13.88 47.86-28.14 4.29-9.21 7.26-24.27 1.81-39.1v-.12.09c2.05 13.42-4.77 26.41-15.44 35.2l-.03.07c-20.79 16.93-40.68 10.21-44.72 7.46-.27-.13-.55-.27-.84-.42-12.12-5.8-17.13-16.84-16.05-26.3-10.24 0-13.72-8.64-13.72-8.64s9.19-6.55 21.3-.85c11.22 5.28 21.75.85 21.75.85-.01-.48-10.1-4.48-14.03-8.35-2.11-2.06-3.09-3.06-3.98-3.81-.48-.4-.99-.78-1.49-1.14-.34-.24-.73-.49-1.2-.79-4.23-2.75-12.63-2.6-12.9-2.59h-.01c-2.3-2.91-2.14-12.51-2-14.51-.03-.12-1.72.88-1.93 1.03-2.03 1.45-3.92 3.06-5.66 4.86-1.99 2-3.8 4.18-5.41 6.49-3.74 5.28-6.38 11.24-7.79 17.55-.09.15-2.13 9.14-1.12 13.81z"/><radialGradient id="i" cx="-619.329" cy="30.4541" r="1.9927" gradientTransform="matrix(6.8048 64.4667 -42.375 4.4729 5650.3862 39811.625)" gradientUnits="userSpaceOnUse"><stop offset=".09" stop-color="#9658f9"/><stop offset=".14" stop-color="#8c51f3"/><stop offset=".26" stop-color="#7542e5"/><stop offset=".29" stop-color="#6e3ed6"/><stop offset=".4" stop-color="#5533a6"/><stop offset=".5" stop-color="#422980"/><stop offset=".59" stop-color="#342365"/><stop offset=".67" stop-color="#2c1e55"/><stop offset=".74" stop-color="#291d4f"/></radialGradient><path fill="url(#i)" d="M147.53 40.2c2.11 2.08 3.92 4.44 5.38 7.02.31.24.61.48.87.7 13.14 12.11 6.25 29.22 5.74 30.44 10.67-8.8 17.5-21.79 15.44-35.2-6.55-16.35-17.65-22.93-26.72-37.26-.46-.73-.91-1.45-1.37-2.23-.25-.43-.46-.82-.64-1.2-.37-.73-.67-1.49-.87-2.29 0-.04-.01-.07-.03-.1-.03-.03-.06-.04-.09-.04-.03-.01-.07-.01-.1 0l-.03.01c-.01 0-.03.01-.04.01-2.26 1.09-15.55 22.14 2.46 40.14z"/><radialGradient id="j" cx="-617.7383" cy="58.482" r="1.9927" gradientTransform="translate(34262.7344 -3195.6853) scale(55.2472)" gradientUnits="userSpaceOnUse"><stop offset="0" stop-color="#9658f9"/><stop offset=".12" stop-color="#9155f6"/><stop offset=".25" stop-color="#834cee"/><stop offset=".34" stop-color="#7542e5"/><stop offset=".78" stop-color="#291d4f"/></radialGradient><path fill="url(#j)" d="M153.78 47.93c-.25-.22-.55-.46-.87-.7l-.36-.27c-3.09-2.17-8.62-4.32-13.97-3.39 20.83 10.42 15.24 46.29-13.63 44.94-2.57-.1-5.11-.6-7.53-1.45-.57-.21-1.14-.45-1.7-.7-.33-.15-.66-.3-.97-.46l.04.03c4.04 2.75 23.93 9.46 44.72-7.46l.03-.07c.48-1.25 7.36-18.36-5.76-30.47z"/><radialGradient id="k" cx="-618.6185" cy="57.4811" r="1.9927" gradientTransform="translate(37492.957 -3426.8765) scale(60.3433)" gradientUnits="userSpaceOnUse"><stop offset=".19" stop-color="#9658f9"/><stop offset=".49" stop-color="#834bed"/><stop offset=".66" stop-color="#7542e5"/><stop offset=".7" stop-color="#6b3dd2"/><stop offset=".79" stop-color="#52319f"/><stop offset=".91" stop-color="#291d4f"/></radialGradient><path fill="url(#k)" d="M101.08 66.93s2.68-9.97 19.15-9.97c1.78 0 6.87-4.96 6.96-6.41 0 0-10.54 4.42-21.75-.85-12.11-5.69-21.3.85-21.3.85s3.5 8.64 13.72 8.64c-1.08 9.48 3.93 20.51 16.05 26.3.27.13.52.27.81.39-7.07-3.65-12.91-10.57-13.64-18.95z"/><linearGradient id="l" x1="171.8919" x2="90.0686" y1="736.099" y2="817.9219" gradientTransform="translate(0 -718)" gradientUnits="userSpaceOnUse"><stop offset="0" stop-color="#9059ff" stop-opacity=".9"/><stop offset=".61" stop-color="#291d4f" stop-opacity="0"/></linearGradient><path fill="url(#l)" d="M180.69 40.14c-2.53-6.05-7.62-12.6-11.63-14.66 3.26 6.38 5.14 12.79 5.87 17.58v.09c-6.55-16.32-17.67-22.9-26.74-37.23-.46-.73-.91-1.45-1.37-2.23-.25-.43-.45-.82-.63-1.2-.37-.73-.67-1.49-.87-2.29 0-.04-.01-.07-.03-.1-.03-.03-.06-.04-.09-.04-.03-.01-.07-.01-.1 0l-.03.01c-.01 0-.03.01-.04.01l.01-.03c-14.56 8.52-19.49 24.29-19.94 32.18.67-.04 1.35-.1 2.03-.1 10.87 0 20.33 5.98 25.38 14.83-3.09-2.17-8.62-4.32-13.97-3.39 20.83 10.42 15.24 46.29-13.63 44.94-2.57-.1-5.11-.6-7.53-1.45-.57-.21-1.14-.45-1.7-.7-.33-.15-.66-.3-.97-.46l.04.03c-.27-.13-.55-.27-.84-.42.27.13.52.27.81.39-7.07-3.66-12.93-10.57-13.65-18.95 0 0 2.68-9.97 19.15-9.97 1.78 0 6.87-4.96 6.96-6.41-.01-.48-10.1-4.48-14.03-8.35-2.11-2.06-3.09-3.06-3.98-3.81-.48-.4-.99-.78-1.49-1.14-1.32-4.62-1.37-9.51-.16-14.15-5.95 2.71-10.58 6.99-13.94 10.78-2.3-2.91-2.14-12.51-2-14.51-.03-.12-1.72.88-1.93 1.03-2.03 1.45-3.92 3.06-5.66 4.86-1.99 2-3.8 4.18-5.41 6.49-3.74 5.28-6.38 11.24-7.79 17.55-.03.12-.04.25-.07.39-.1.51-.6 3.09-.67 3.65-.45 2.68-.73 5.38-.85 8.09v.3c0 32 25.93 57.93 57.93 57.93 28.65 0 52.44-20.8 57.11-48.12.1-.73.18-1.48.27-2.23 1.1-10.01-.2-20.46-3.82-29.19zm-5.74 2.98v.06-.06z"/></svg>
