<svg width="254" height="172" viewBox="0 0 254 172" xmlns="http://www.w3.org/2000/svg" xmlns:xlink="http://www.w3.org/1999/xlink"><defs><radialGradient id="a" cx="-156" cy="172" r="1" gradientTransform="matrix(-121.19 0 0 121.19 -18986.69 -20816.97)" gradientUnits="userSpaceOnUse"><stop offset="0" stop-color="#fff"/><stop offset=".3" stop-color="#fff"/><stop offset=".33" stop-color="#dcdcdc"/><stop offset=".39" stop-color="#8a8a8a"/><stop offset=".44" stop-color="#4d4d4d"/><stop offset=".48" stop-color="#282828"/><stop offset=".5" stop-color="#1a1a1a"/><stop offset="1" stop-color="#1a1a1a"/></radialGradient><radialGradient id="b" cx="-156" cy="172" r="1" gradientTransform="matrix(-177.12 0 0 177.12 -27635.71 -30459.58)" gradientUnits="userSpaceOnUse"><stop offset="0" stop-color="#fff"/><stop offset=".41" stop-color="#fff"/><stop offset="1" stop-color="#b3b3b3"/></radialGradient><linearGradient id="c" x1="-156" y1="171.98" x2="-155" y2="171.98" gradientTransform="matrix(-116.13 0 0 116.13 -18143.06 -19948.81)" gradientUnits="userSpaceOnUse"><stop offset="0" stop-color="#ccc"/><stop offset=".3" stop-color="#ccc"/><stop offset=".38" stop-color="#a2a2a2"/><stop offset=".57" stop-color="#373737"/><stop offset=".66"/><stop offset="1"/></linearGradient><radialGradient id="f" cx="0" gradientTransform="matrix(-121.19 0 0 121.19 134.65 -20780.97)" xlink:href="#a"/><radialGradient id="h" cx="0" cy="172" r="1" gradientTransform="matrix(30.59 0 0 -35.84 129.12 6211.92)" gradientUnits="userSpaceOnUse"><stop offset="0"/><stop offset=".21"/><stop offset=".35" stop-color="#2b2b2b"/><stop offset=".66" stop-color="#818181"/><stop offset=".87" stop-color="#b7b7b7"/><stop offset=".97" stop-color="#ccc"/><stop offset="1" stop-color="#ccc"/></radialGradient><radialGradient id="i" cx="0" cy="172" r="1" gradientTransform="matrix(-41.51 0 0 41.51 131.82 -7109.71)" gradientUnits="userSpaceOnUse"><stop offset="0" stop-color="#fff"/><stop offset=".43" stop-color="#fff"/><stop offset=".52" stop-color="#f8f8f8"/><stop offset=".66" stop-color="#e5e5e5"/><stop offset=".82" stop-color="#c6c6c6"/><stop offset=".99" stop-color="#9b9b9b"/><stop offset="1" stop-color="#999"/></radialGradient><radialGradient id="j" cx="0" gradientTransform="matrix(-177.12 0 0 177.12 210.2 -30423.58)" xlink:href="#b"/><linearGradient id="l" y1="172.3" x2="1" y2="172.3" gradientTransform="matrix(0 -15.01 -15.01 0 2739.77 85.65)" gradientUnits="userSpaceOnUse"><stop offset="0" stop-color="#fff"/><stop offset=".14" stop-color="#d1d1d1"/><stop offset=".38" stop-color="#888"/><stop offset=".59" stop-color="#4d4d4d"/><stop offset=".77" stop-color="#232323"/><stop offset=".92" stop-color="#0a0a0a"/><stop offset="1"/></linearGradient><linearGradient id="m" x1="0" y1="171.98" x2="1" y2="171.98" gradientTransform="matrix(-116.13 0 0 116.13 188.58 -19912.81)" xlink:href="#c"/><linearGradient id="d" x1="-156" y1="171.99" x2="-155" y2="171.99" gradientTransform="matrix(-134.1 0 0 134.1 -20946.09 -23039.84)" gradientUnits="userSpaceOnUse"><stop offset="0" stop-color="#c60084"/><stop offset=".76" stop-color="#c60084"/><stop offset="1" stop-color="#4e1a69"/></linearGradient><radialGradient id="e" cx="-156" cy="172" r="1" gradientTransform="matrix(-121.19 0 0 121.19 -18921.82 -20814.11)" gradientUnits="userSpaceOnUse"><stop offset="0" stop-color="#fff"/><stop offset=".13" stop-color="#fff"/><stop offset="1" stop-color="#fff"/></radialGradient><radialGradient id="g" cx="-156" cy="172" r="1" gradientTransform="matrix(-121.19 0 0 121.19 -18986.69 -20816.97)" gradientUnits="userSpaceOnUse"><stop offset="0" stop-color="#4e1a69"/><stop offset=".3" stop-color="#4e1a69"/><stop offset=".31" stop-color="#57186b"/><stop offset=".4" stop-color="#930b78"/><stop offset=".46" stop-color="#b80381"/><stop offset=".5" stop-color="#c60084"/><stop offset="1" stop-color="#c60084"/></radialGradient><radialGradient id="k" cx="-156" cy="172" r="1" gradientTransform="matrix(-177.12 0 0 177.12 -27635.71 -30459.58)" gradientUnits="userSpaceOnUse"><stop offset="0" stop-color="#fff"/><stop offset=".41" stop-color="#fff"/><stop offset="1" stop-color="#fff"/></radialGradient><linearGradient id="n" x1="-156" y1="171.98" x2="-155" y2="171.98" gradientTransform="matrix(-116.13 0 0 116.13 -18143.06 -19948.81)" gradientUnits="userSpaceOnUse"><stop offset="0" stop-color="#fff"/><stop offset=".3" stop-color="#fff"/><stop offset=".66" stop-color="#fff"/><stop offset="1" stop-color="#fff"/></linearGradient><clipPath id="o"><path fill="none" d="M0 0h254v172H0z"/></clipPath><clipPath id="p"><path d="M113.87 85.75c.27.13.53.28.8.4l-.84-.43m13.32-35.06zm47.92-7.4v-.06a.13.13 0 0 0 0 .06M145.21 0h-.07c-14.6 8.56-19.56 24.38-20 32.3a29.15 29.15 0 0 0-16 6.16 17.45 17.45 0 0 0-1.51-1.13 26.93 26.93 0 0 1-.16-14.21 43.23 43.23 0 0 0-14 10.81c-2.31-2.93-2.14-12.55-2-14.57a10.69 10.69 0 0 0-1.94 1 42.39 42.39 0 0 0-5.68 4.87 50.2 50.2 0 0 0-5.43 6.51 48.74 48.74 0 0 0-7.8 17.62c0 .12-.06.25-.08.38-.11.51-.51 3.07-.57 3.63v.13a55.6 55.6 0 0 0-.94 8v.29a58.14 58.14 0 0 0 115.35 9.91c.1-.74.18-1.49.27-2.24a59.74 59.74 0 0 0-3.78-29.21c-2.52-6.08-7.64-12.64-11.66-14.72a60.37 60.37 0 0 1 5.89 17.65.51.51 0 0 0 0 .09c-6.57-16.38-17.72-23-26.82-37.38-.46-.73-.92-1.46-1.37-2.22a16.4 16.4 0 0 1-.64-1.21 10.42 10.42 0 0 1-.87-2.3.14.14 0 0 0-.13-.15h-.07z" fill="none"/></clipPath><linearGradient id="q" x1="0" y1="171.99" x2="1" y2="171.99" gradientTransform="matrix(-134.1 0 0 134.1 189.09 -23003.84)" xlink:href="#d"/><clipPath id="r"><path d="M175.1 43.18a.13.13 0 0 0 0 .06c5.48 14.88 2.49 30-1.81 39.24-6.66 14.3-22.79 29-48 28.24C98 110 74 89.75 69.48 63.24c-.82-4.18 0-6.3.41-9.69a43.3 43.3 0 0 0-.94 8v.29a58.14 58.14 0 0 0 115.43 9.86c.1-.74.18-1.49.27-2.24a59.74 59.74 0 0 0-3.78-29.21c-2.52-6.08-7.64-12.64-11.66-14.72a60.37 60.37 0 0 1 5.89 17.65" fill="none"/></clipPath><radialGradient id="s" cx="0" gradientTransform="matrix(-121.19 0 0 121.19 199.53 -20778.11)" xlink:href="#e"/><mask id="t" x="22.42" y="-31.81" width="209.63" height="209.16" maskUnits="userSpaceOnUse"><path transform="rotate(-50.87 127.22 72.763)" fill="url(#f)" d="M53.63-2.47h147.21v150.48H53.63z"/></mask><radialGradient id="u" cx="0" gradientTransform="matrix(-121.19 0 0 121.19 134.65 -20780.97)" xlink:href="#g"/><clipPath id="v"><path d="M125.11 32.31c.68-.05 1.35-.1 2-.1a29.33 29.33 0 0 1 25.47 14.87l.36.27a31.52 31.52 0 0 0-5.39-7.05c-18.04-18.07-4.7-39.18-2.45-40.25-14.6 8.56-19.56 24.38-20 32.3" fill="none"/></clipPath><radialGradient id="w" cx="0" cy="172" r="1" gradientTransform="matrix(-87.8 0 0 87.8 176.35 -15084.58)" gradientUnits="userSpaceOnUse"><stop offset="0" stop-color="#fff"/><stop offset=".17" stop-color="#fff"/><stop offset=".25" stop-color="#fefbfd"/><stop offset=".32" stop-color="#fcf0f8"/><stop offset=".39" stop-color="#f7ddee"/><stop offset=".45" stop-color="#f1c2e1"/><stop offset=".52" stop-color="#e99fd1"/><stop offset=".59" stop-color="#e074bc"/><stop offset=".65" stop-color="#d543a4"/><stop offset=".71" stop-color="#ca138d"/><stop offset=".86" stop-color="#4e1a69"/><stop offset="1" stop-color="#4e1a69"/></radialGradient><clipPath id="x"><path d="M125.11 32.31a29.15 29.15 0 0 0-16 6.16c.88.76 1.89 1.76 4 3.83 4 3.89 14.07 7.92 14.09 8.39-.1 1.45-5.21 6.43-7 6.43-16.53 0-19.21 10-19.21 10 .73 8.42 6.59 15.36 13.69 19 .33.17.66.32 1 .47.57.25 1.14.48 1.71.7a26.15 26.15 0 0 0 7.57 1.46c29 1.36 34.59-34.65 13.67-45.1 5.36-.94 10.92 1.22 14 3.4a29.33 29.33 0 0 0-25.47-14.87c-.69 0-1.36 0-2 .1" fill="none"/></clipPath><radialGradient id="y" cx="0" cy="172" r="1" gradientTransform="matrix(57.71 0 0 -57.71 111.03 10020.04)" gradientUnits="userSpaceOnUse"><stop offset="0" stop-color="#c60084"/><stop offset=".35" stop-color="#c60084"/><stop offset=".4" stop-color="#cb0384"/><stop offset="1" stop-color="#ff298a"/></radialGradient><mask id="z" x="87.74" y="18.83" width="85.02" height="84.69" maskUnits="userSpaceOnUse"><path transform="rotate(-13.6 130.24 61.162)" fill="url(#h)" d="M94.99 26.14h70.52v70.07H94.99z"/></mask><radialGradient id="A" cx="0" cy="172" r="1" gradientTransform="matrix(30.59 0 0 -35.84 129.12 6211.92)" gradientUnits="userSpaceOnUse"><stop offset="0" stop-color="#592acb"/><stop offset=".21" stop-color="#592acb"/><stop offset=".37" stop-color="#5626b3"/><stop offset=".78" stop-color="#501d7e"/><stop offset=".97" stop-color="#4e1a69"/><stop offset="1" stop-color="#4e1a69"/></radialGradient><clipPath id="B"><path d="M93.44 33.94c.28 0 8.72-.15 13 2.6.47.31.86.56 1.2.8a26.93 26.93 0 0 1-.16-14.21 43.23 43.23 0 0 0-14 10.81" fill="none"/></clipPath><mask id="C" x="86.34" y="16.05" width="28.37" height="28.37" maskUnits="userSpaceOnUse"><path transform="rotate(-45.26 100.529 30.237)" fill="url(#i)" d="M90.49 20.2h20.06v20.06H90.49z"/></mask><radialGradient id="D" cx="0" cy="172" r="1" gradientTransform="matrix(-41.51 0 0 41.51 131.82 -7109.71)" gradientUnits="userSpaceOnUse"><stop offset="0" stop-color="#fff"/><stop offset=".43" stop-color="#fff"/><stop offset="1" stop-color="#fff"/></radialGradient><clipPath id="E"><path d="M89.47 20.41a42.39 42.39 0 0 0-5.68 4.87 50.2 50.2 0 0 0-5.43 6.51 48.74 48.74 0 0 0-7.8 17.62c0 .12-2.1 9.15-1.08 13.83C74 89.75 98 110 125.27 110.77c25.25.71 41.38-13.94 48-28.24 4.3-9.24 7.29-24.36 1.81-39.24v-.06s0-.07 0 0a.51.51 0 0 0 0 .09c2.06 13.47-4.79 26.52-15.49 35.34v.07c-20.86 17-40.82 10.25-44.87 7.5l-.84-.43c-12.16-5.81-17.19-16.89-16.11-26.4A14.93 14.93 0 0 1 84 50.69s9.22-6.58 21.37-.86a29 29 0 0 0 21.83.86c0-.47-10.14-4.5-14.09-8.39-2.1-2.07-3.11-3.07-4-3.83a17.45 17.45 0 0 0-1.51-1.13c-.34-.24-.73-.49-1.2-.8-4.24-2.75-12.68-2.6-13-2.6-2.31-2.93-2.14-12.55-2-14.57a13.44 13.44 0 0 0-1.92 1" fill="none"/></clipPath><mask id="F" x="24.63" y="-34" width="199.81" height="198.85" maskUnits="userSpaceOnUse"><path transform="rotate(-53.93 124.525 65.431)" fill="url(#j)" d="M54.29-7.01h140.48v144.87H54.29z"/></mask><radialGradient id="G" cx="0" gradientTransform="matrix(-177.12 0 0 177.12 210.2 -30423.58)" xlink:href="#k"/><clipPath id="H"><path d="M145.21 0h-.07c-2.25 1.07-15.59 22.18 2.49 40.25a31.52 31.52 0 0 1 5.37 7.1c.32.24.62.48.88.71 13.18 12.15 6.27 29.32 5.76 30.55 10.7-8.82 17.55-21.87 15.49-35.34-6.57-16.38-17.72-23-26.82-37.38-.46-.73-.92-1.46-1.37-2.22a16.4 16.4 0 0 1-.64-1.21 10.42 10.42 0 0 1-.87-2.3.14.14 0 0 0-.13-.15h-.07z" fill="none"/></clipPath><radialGradient id="I" cx="0" cy="172" r="1" gradientTransform="matrix(0 137.13 89.98 0 -15333.81 .39)" gradientUnits="userSpaceOnUse"><stop offset="0" stop-color="#fff"/><stop offset=".12" stop-color="#fefcfe"/><stop offset=".21" stop-color="#fcf2f9"/><stop offset=".29" stop-color="#f9e2f1"/><stop offset=".37" stop-color="#f3cbe6"/><stop offset=".44" stop-color="#edaed8"/><stop offset=".51" stop-color="#e58ac6"/><stop offset=".58" stop-color="#db5fb2"/><stop offset=".64" stop-color="#d02e9a"/><stop offset=".69" stop-color="#c60084"/><stop offset="1" stop-color="#c60084"/></radialGradient><mask id="J" x="101.44" y="-17.02" width="103.8" height="112.64" maskUnits="userSpaceOnUse"><path transform="rotate(-22.79 153.353 39.298)" fill="url(#l)" d="M116.15-6.16h74.38v90.93h-74.38z"/></mask><linearGradient id="K" y1="172.3" x2="1" y2="172.3" gradientTransform="matrix(0 -15.01 -15.01 0 2739.77 85.65)" gradientUnits="userSpaceOnUse"><stop offset="0" stop-color="#4e1a69"/><stop offset="1" stop-color="#4e1a69"/></linearGradient><clipPath id="L"><path d="M138.6 43.68c20.92 10.45 15.3 46.46-13.67 45.1a26.15 26.15 0 0 1-7.57-1.46c-.57-.22-1.14-.45-1.71-.7-.32-.15-.65-.3-1-.47 4.05 2.75 24 9.49 44.87-7.5v-.07c.51-1.23 7.42-18.4-5.76-30.55-.26-.23-.56-.47-.88-.71l-.36-.27a20.91 20.91 0 0 0-11.37-3.63 14.91 14.91 0 0 0-2.65.23" fill="none"/></clipPath><radialGradient id="M" cx="0" cy="172" r="1" gradientTransform="matrix(-142.45 0 0 142.45 167.74 -24473.84)" gradientUnits="userSpaceOnUse"><stop offset="0" stop-color="#fff"/><stop offset=".36" stop-color="#fff"/><stop offset=".74" stop-color="#c60084"/><stop offset=".83" stop-color="#4e1a69"/><stop offset="1" stop-color="#4e1a69"/></radialGradient><clipPath id="N"><path d="M84 50.69a14.93 14.93 0 0 0 13.77 8.66c-1.08 9.51 3.95 20.59 16.11 26.4.27.13.53.28.8.4-7.1-3.67-13-10.61-13.69-19 0 0 2.68-10 19.21-10 1.79 0 6.9-5 7-6.43a29 29 0 0 1-21.83-.86 23.49 23.49 0 0 0-10.08-2.36A20.89 20.89 0 0 0 84 50.69" fill="none"/></clipPath><radialGradient id="O" cx="0" cy="172" r="1" gradientTransform="matrix(-121.03 0 0 121.03 158.23 -20763.32)" gradientUnits="userSpaceOnUse"><stop offset="0" stop-color="#fff"/><stop offset=".09" stop-color="#fff"/><stop offset=".62" stop-color="#fff"/><stop offset="1" stop-color="#fff"/></radialGradient><clipPath id="P"><path d="M175.11 43.29v-.06a.13.13 0 0 0 0 .06M145.21 0h-.07c-14.6 8.56-19.56 24.38-20 32.3.68-.05 1.35-.1 2-.1a29.33 29.33 0 0 1 25.47 14.87c-3.1-2.18-8.66-4.34-14-3.4 20.92 10.45 15.3 46.46-13.67 45.1a26.15 26.15 0 0 1-7.57-1.46c-.57-.22-1.14-.45-1.71-.7-.32-.15-.65-.3-1-.47l-.84-.43c.27.13.53.28.8.4-7.1-3.67-13-10.61-13.69-19 0 0 2.68-10 19.21-10 1.79 0 6.9-5 7-6.43 0-.47-10.14-4.5-14.09-8.39-2.1-2.07-3.11-3.07-4-3.83a17.45 17.45 0 0 0-1.51-1.13 26.93 26.93 0 0 1-.16-14.21 43.23 43.23 0 0 0-14 10.81c-2.31-2.93-2.14-12.55-2-14.57a10.69 10.69 0 0 0-1.94 1 42.39 42.39 0 0 0-5.68 4.87 50.2 50.2 0 0 0-5.43 6.51 48.74 48.74 0 0 0-7.8 17.62c0 .12-.06.25-.08.38-.11.51-.6 3.11-.67 3.67a66.55 66.55 0 0 0-.86 8.1v.29a58.14 58.14 0 0 0 115.46 9.9c.1-.74.18-1.49.27-2.24a59.74 59.74 0 0 0-3.78-29.21c-2.52-6.08-7.64-12.64-11.66-14.72a60.37 60.37 0 0 1 5.89 17.65.51.51 0 0 0 0 .09c-6.57-16.38-17.72-23-26.82-37.38-.46-.73-.92-1.46-1.37-2.22a16.4 16.4 0 0 1-.64-1.21 10.42 10.42 0 0 1-.87-2.3.14.14 0 0 0-.13-.15h-.07z" fill="none"/></clipPath><mask id="Q" x="8.94" y="-58.43" width="236.86" height="236.86" maskUnits="userSpaceOnUse"><path transform="rotate(-45 127.373 60)" fill="url(#m)" d="M43.63-23.74h167.48v167.48H43.63z"/></mask><linearGradient id="R" x1="0" y1="171.98" x2="1" y2="171.98" gradientTransform="matrix(-116.13 0 0 116.13 188.58 -19912.81)" xlink:href="#n"/></defs><g clip-path="url(#o)"><g clip-path="url(#p)"><path transform="rotate(-43.97 127.387 59.999)" fill="url(#q)" d="M43.66-23.75h167.42v167.5H43.66z"/></g><g clip-path="url(#r)"><path transform="rotate(-50.87 127.22 72.763)" fill="url(#s)" d="M53.63-2.47h147.21v150.48H53.63z"/></g><g mask="url(#t)" clip-path="url(#r)"><path transform="rotate(-50.87 127.22 72.763)" fill="url(#u)" d="M53.63-2.47h147.21v150.48H53.63z"/></g><g clip-path="url(#v)"><path transform="rotate(-80.15 139.054 23.675)" fill="url(#w)" d="M113.34 5.9h51.4v35.56h-51.4z"/></g><g clip-path="url(#x)"><path fill="url(#y)" d="M100.98 32.21h58.54v57.93h-58.54z"/></g><g mask="url(#z)" clip-path="url(#x)"><path transform="rotate(-13.6 130.24 61.162)" fill="url(#A)" d="M94.99 26.14h70.52v70.07H94.99z"/></g><g mask="url(#C)" clip-path="url(#B)"><path transform="rotate(-45.26 100.529 30.237)" fill="url(#D)" d="M90.49 20.2h20.06v20.06H90.49z"/></g><g mask="url(#F)" clip-path="url(#E)"><path transform="rotate(-53.93 124.525 65.431)" fill="url(#G)" d="M54.29-7.01h140.48v144.87H54.29z"/></g><g clip-path="url(#H)"><path transform="rotate(-6.01 153.331 39.28)" fill="url(#I)" d="M125.53-2.28h55.62v83.16h-55.62z"/></g><g mask="url(#J)" clip-path="url(#H)"><path transform="rotate(-22.79 153.353 39.298)" fill="url(#K)" d="M116.15-6.16h74.38v90.93h-74.38z"/></g><g clip-path="url(#L)"><path transform="rotate(-55.27 140.853 69.56)" fill="url(#M)" d="M104.48 33.17h72.75v72.78h-72.75z"/></g><g clip-path="url(#N)"><path transform="rotate(-24.75 105.578 66.828)" fill="url(#O)" d="M77.88 40.23h55.42v53.19H77.88z"/></g><g mask="url(#Q)" clip-path="url(#P)"><path transform="rotate(-45 127.373 60)" fill="url(#R)" d="M43.63-23.74h167.48v167.48H43.63z"/></g><g clip-path="url(#o)" fill="#fff"><path d="M19.34 144.59h16.09v4.35H24v5.89h11.43v4.32H24v9.49h-4.66zm21.56-1.68a2.7 2.7 0 0 1 0 5.4 2.55 2.55 0 0 1-2.67-2.63 2.68 2.68 0 0 1 2.71-2.77m-2.28 7.94h4.55v17.79h-4.59zm17.74 4.94a3.69 3.69 0 0 0-2.21-.79c-1.85 0-2.9 1.19-2.9 3.79v9.85h-4.56v-17.79h4.32v2.57a4.25 4.25 0 0 1 4.25-2.74 5.37 5.37 0 0 1 3 .93zm1.88 4.05a9.1 9.1 0 0 1 9.16-9.35 8.75 8.75 0 0 1 9.13 9.06v1.87H62.69a4.66 4.66 0 0 0 4.91 3.73 4.78 4.78 0 0 0 4.4-2.64l3.79 2.27a9.35 9.35 0 0 1-8.32 4.22c-5.77 0-9.23-3.85-9.23-9.16m4.51-2h9.36a4.48 4.48 0 0 0-4.74-3.52 4.58 4.58 0 0 0-4.62 3.52m14.9-7h3.2V150c0-4.84 2-6.85 6.53-6.85H89V147h-1.33c-2.11 0-2.57.72-2.57 2.93v.89H89v4.08h-3.8v13.71h-4.35v-13.68h-3.2zm12.17 8.89a9.11 9.11 0 0 1 9.29-9.25 9.26 9.26 0 1 1 0 18.51 9 9 0 0 1-9.29-9.26m14.17 0a4.88 4.88 0 1 0-4.88 5 4.89 4.89 0 0 0 4.88-5m10.55-.19l-6.43-8.7h5.34l3.79 5.47 3.89-5.47h5.24l-6.52 8.66 6.85 9.13h-5.3l-4.26-5.8-4.12 5.8h-5.3zM140.77 168.63h2.8v-10.38H156v-2.63h-12.43v-8.37H156v-2.6h-15.23zm27.45-18.1a9.23 9.23 0 1 0 9.35 9.23 9.17 9.17 0 0 0-9.35-9.23m0 15.9a6.69 6.69 0 0 1 0-13.37 6.69 6.69 0 0 1 0 13.37m21.44 0a6.68 6.68 0 0 1-6.72-6.71 6.59 6.59 0 0 1 6.62-6.7 6.35 6.35 0 0 1 6 3.94l2.5-1.08a9 9 0 0 0-8.49-5.39 9.23 9.23 0 1 0 0 18.46 9 9 0 0 0 8.56-5.58l-2.53-1a6.44 6.44 0 0 1-6 4.11m24.62-5.75a5.49 5.49 0 0 1-5.53 5.81c-3.47 0-5.26-2.23-5.26-5.68v-10h-2.77V161c0 5 2.67 8 7.56 8a6.88 6.88 0 0 0 6.06-3.28v2.92H217v-17.75h-2.73zm13.89-2.34c-2.8-.55-5-.92-5-2.76 0-1.64 1.14-2.82 3.9-2.82a5.84 5.84 0 0 1 4.93 2.36l2.26-1.51a8.76 8.76 0 0 0-7.19-3.15c-4.26 0-6.69 2.4-6.69 5.16 0 3.54 3.29 4.37 6.39 5 2.63.52 5.09.92 5.09 2.89 0 1.77-1.46 3.09-4.26 3.09a6.66 6.66 0 0 1-5.79-2.89l-2.37 1.57c1.6 2.27 4.17 3.71 8.1 3.71 4.69 0 7.09-2.72 7.09-5.51 0-3.65-3.4-4.5-6.49-5.1"/></g></g></svg>