<svg width="26" height="28" xmlns="http://www.w3.org/2000/svg"><g stroke="#000" stroke-width="2.4" fill="none" fill-rule="evenodd"><path d="M12.375 7.613L1.488 25.623c-.28.461.064 1.042.615 1.042h21.775c.55 0 .893-.58.615-1.042L13.605 7.613a.724.724 0 00-1.23 0z"/><path d="M16.467 12.347l-2.862-4.734a.725.725 0 00-1.23 0l-2.862 4.734-.255.422 1.488 3.115c.11.152.336.152.447 0l1.794-2.464 1.795 2.464c.11.152.337.152.447 0l1.491-3.119-.253-.418zM12.989 1.961v4.923c0 .213.173.387.387.387h9.063a.387.387 0 00.274-.661l-2.184-2.187 2.184-2.188a.388.388 0 00-.274-.66h-9.063a.385.385 0 00-.387.386z" stroke-linejoin="round"/></g></svg>