<svg width="30" height="25" xmlns="http://www.w3.org/2000/svg"><g fill="none" fill-rule="evenodd"><path fill="#000" d="M.778.356H29.23v24H.778z"/><path d="M24.295 15.496h1.564v2.599h-4.9v-6.707c0-2.068-.678-2.863-2.007-2.863-1.616 0-2.267 1.166-2.267 2.837v4.161h1.563v2.598h-4.926v-6.733c0-2.068-.678-2.863-2.006-2.863-1.616 0-2.268 1.166-2.268 2.837v4.161h2.242v2.598H4.148v-2.598h1.565V8.764H4.148V6.166h4.926v1.803c.704-1.273 1.929-2.041 3.57-2.041 1.695 0 3.259.821 3.832 2.571.651-1.59 1.98-2.571 3.831-2.571 2.111 0 4.04 1.299 4.04 4.135v5.434h-.052z" fill="#FFF"/></g></svg>