<svg xmlns="http://www.w3.org/2000/svg" width="16" height="16" viewBox="0 0 16 16"><path fill="#fff" d="M15.46 5.27C15.46 1.8 13.2.8 13.2.8 12.07.27 10.07 0 8 0 5.93 0 4 .27 2.87.73c0 0-2.27 1-2.27 4.47v2.73c.07 3.47.6 6.8 3.73 7.67C5.8 16 7 16.07 8 16c1.8-.13 2.8-.67 2.8-.67L10.73 14s-1.27.4-2.73.33c-1.46-.06-2.93-.13-3.2-1.93v-.47s1.4.34 3.2.4c1.07.07 2.13-.06 3.2-.2 2-.26 3.73-1.46 4-2.6.26-1.73.26-4.26.26-4.26ZM12.8 9.73h-1.67V5.67c0-.87-.33-1.27-1.06-1.27-.8 0-1.2.53-1.2 1.53v2.2H7.2V5.87c0-1-.4-1.54-1.2-1.54-.73 0-1.07.47-1.07 1.27v4.07H3.2V5.54a3 3 0 0 1 .67-2.08c.46-.53 1.06-.73 1.8-.73.87 0 1.46.34 1.93 1l.4.67.4-.67c.4-.66 1.06-1 1.93-1 .74 0 1.34.27 1.8.73.47.54.67 1.2.67 2.08Zm0 0"/></svg>